G04 Layer_Color=0*
%FSLAX26Y26*%
%MOIN*%
%TF.FileFunction,Plated,1,2,PTH,Drill*%
%TF.Part,Single*%
%TFFileComment,Halloween PCB
Pumpkin Badge
V1
Gadorach
(W.W.S.)*%
G01*
G75*
%TA.AperFunction,OtherDrill,Pad Free-2 (2950.477mil,1653.072mil)*%
%ADD85C,0.015000*%
%TA.AperFunction,OtherDrill,Pad Free-2 (3998.934mil,1671.614mil)*%
%ADD86C,0.015000*%
%TA.AperFunction,OtherDrill,Pad Free-6 (3802.796mil,4046.367mil)*%
%ADD87C,0.120000*%
%TA.AperFunction,ComponentDrill*%
%ADD88C,0.039370*%
%TA.AperFunction,OtherDrill,Pad Free-2 (3622.436mil,2018.386mil)*%
%ADD89C,0.015000*%
%TA.AperFunction,OtherDrill,Pad Free-2 (4063.885mil,2026.236mil)*%
%ADD90C,0.015000*%
%TA.AperFunction,OtherDrill,Pad Free-2 (4177.99mil,2087.197mil)*%
%ADD91C,0.015000*%
%TA.AperFunction,OtherDrill,Pad Free-2 (4500.779mil,1995.864mil)*%
%ADD92C,0.015000*%
%TA.AperFunction,OtherDrill,Pad Free-2 (4798.107mil,2223.865mil)*%
%ADD93C,0.015000*%
%TA.AperFunction,OtherDrill,Pad Free-2 (4549.345mil,2182.22mil)*%
%ADD94C,0.015000*%
%TA.AperFunction,OtherDrill,Pad Free-2 (4423.143mil,3288.481mil)*%
%ADD95C,0.015000*%
%TA.AperFunction,OtherDrill,Pad Free-2 (4536.506mil,3029.477mil)*%
%ADD96C,0.015000*%
%TA.AperFunction,OtherDrill,Pad Free-2 (4097.325mil,2905.185mil)*%
%ADD97C,0.015000*%
%TA.AperFunction,OtherDrill,Pad Free-2 (3168.547mil,3336.161mil)*%
%ADD98C,0.015000*%
%TA.AperFunction,OtherDrill,Pad Free-2 (3442.314mil,3019.239mil)*%
%ADD99C,0.015000*%
%TA.AperFunction,OtherDrill,Pad Free-2 (3280.068mil,2934.958mil)*%
%ADD100C,0.015000*%
%TA.AperFunction,OtherDrill,Pad Free-2 (2978.213mil,2436.23mil)*%
%ADD101C,0.015000*%
%TA.AperFunction,OtherDrill,Pad Free-2 (3095.743mil,2236.865mil)*%
%ADD102C,0.015000*%
%TA.AperFunction,OtherDrill,Pad Free-2 (3317.117mil,1924.418mil)*%
%ADD103C,0.015000*%
%TA.AperFunction,OtherDrill,Pad Free-2 (3277.886mil,2024.597mil)*%
%ADD104C,0.015000*%
%TA.AperFunction,OtherDrill,Pad Free-2 (2755.171mil,1780.601mil)*%
%ADD105C,0.015000*%
%TA.AperFunction,OtherDrill,Pad Free-2 (2859.942mil,1694.462mil)*%
%ADD106C,0.015000*%
%TA.AperFunction,OtherDrill,Pad Free-2 (3125.254mil,1598.646mil)*%
%ADD107C,0.015000*%
%TA.AperFunction,OtherDrill,Pad Free-2 (2820.492mil,1858.158mil)*%
%ADD108C,0.015000*%
%TA.AperFunction,OtherDrill,Pad Free-2 (2955.316mil,1810.22mil)*%
%ADD109C,0.015000*%
%TA.AperFunction,OtherDrill,Pad Free-2 (2891.798mil,1733.522mil)*%
%ADD110C,0.015000*%
%TA.AperFunction,ComponentDrill*%
%ADD111C,0.050000*%
%ADD112C,0.035433*%
%ADD113C,0.035433*%
%ADD114C,0.050000*%
%ADD115C,0.047244*%
D85*
X2950477Y1653072D02*
D03*
D86*
X3998934Y1671614D02*
D03*
D87*
X3802796Y4046367D02*
D03*
D88*
X2406471Y3394796D02*
D03*
X2520351Y3259079D02*
D03*
X2210436Y3230303D02*
D03*
X2324316Y3094586D02*
D03*
D89*
X3622436Y2018386D02*
D03*
D90*
X4063885Y2026236D02*
D03*
D91*
X4177990Y2087197D02*
D03*
D92*
X4500779Y1995864D02*
D03*
D93*
X4798107Y2223865D02*
D03*
D94*
X4549345Y2182220D02*
D03*
D95*
X4423143Y3288481D02*
D03*
D96*
X4536506Y3029477D02*
D03*
D97*
X4097325Y2905185D02*
D03*
D98*
X3168547Y3336161D02*
D03*
D99*
X3442314Y3019239D02*
D03*
D100*
X3280068Y2934958D02*
D03*
D101*
X2978213Y2436230D02*
D03*
D102*
X3095743Y2236865D02*
D03*
D103*
X3317117Y1924418D02*
D03*
D104*
X3277886Y2024597D02*
D03*
D105*
X2755171Y1780601D02*
D03*
D106*
X2859942Y1694462D02*
D03*
D107*
X3125254Y1598646D02*
D03*
D108*
X2820492Y1858158D02*
D03*
D109*
X2955316Y1810220D02*
D03*
D110*
X2891798Y1733522D02*
D03*
D111*
X2795000Y2893426D02*
D03*
Y2696574D02*
D03*
D112*
X2290000Y2538206D02*
D03*
X2340000Y2451602D02*
D03*
X2390000Y2365000D02*
D03*
X2440000Y2278398D02*
D03*
X2490000Y2191794D02*
D03*
X2540000Y2105192D02*
D03*
D113*
X2868488Y1588676D02*
D03*
X2791884Y1652954D02*
D03*
X2715280Y1717232D02*
D03*
X2638676Y1781512D02*
D03*
X3061324Y1818488D02*
D03*
X2984720Y1882768D02*
D03*
X2908116Y1947046D02*
D03*
X2831512Y2011324D02*
D03*
D114*
X2280236Y2855000D02*
D03*
X2559764D02*
D03*
D115*
X3140000Y2561496D02*
D03*
Y3030000D02*
D03*
%TF.MD5,17dfcf8a75309824f5d55bbf816ad592*%
M02*
