G04 Layer_Color=32768*
%FSLAX26Y26*%
%MOIN*%
%TF.FileFunction,Other,Mechanical_15*%
%TF.Part,Single*%
%TFFileComment,Halloween PCB
Pumpkin Badge
V1
Gadorach
(W.W.S.)*%
G01*
G75*
%TA.AperFunction,NonConductor*%
%ADD72C,0.006000*%
%ADD81C,0.003937*%
%ADD83C,0.001968*%
G36*
X3614500Y1690000D02*
X3491500Y1690000D01*
X3491500Y1860000D01*
X3614500D01*
X3614500Y1690000D01*
D02*
G37*
G36*
X4535000Y1700000D02*
X4412000Y1700000D01*
X4412000Y1869999D01*
X4535000Y1870000D01*
X4535000Y1700000D01*
D02*
G37*
D72*
X4413500Y1870000D02*
X4536500D01*
Y1700000D02*
Y1870000D01*
X4413500Y1700000D02*
X4536500D01*
X4413500D02*
Y1870000D01*
X3490000Y1690000D02*
X3613000D01*
X3490000D02*
Y1860000D01*
X3613000D01*
Y1690000D02*
Y1860000D01*
D81*
X2840748Y1808016D02*
X2870908Y1782710D01*
X2843174Y1780282D02*
X2868480Y1810442D01*
X3632708Y1938742D02*
X3673402Y1923930D01*
X3665024Y2027532D02*
X3705720Y2012720D01*
X3632708Y1938742D02*
X3665024Y2027532D01*
X3673402Y1923930D02*
X3705720Y2012720D01*
X3662818Y1958158D02*
X3675610Y1993304D01*
X3651640Y1982126D02*
X3686786Y1969334D01*
X3426842Y1892048D02*
X3434362Y1934698D01*
X3519894Y1875640D02*
X3527416Y1918290D01*
X3434362Y1934698D02*
X3527416Y1918290D01*
X3426842Y1892048D02*
X3519894Y1875640D01*
X3458712Y1908416D02*
X3495546Y1901922D01*
X3473882Y1886752D02*
X3480376Y1923586D01*
X3201362Y1933284D02*
X3244010Y1940804D01*
X3184954Y2026336D02*
X3227602Y2033858D01*
X3184954Y2026336D02*
X3201362Y1933284D01*
X3227602Y2033858D02*
X3244010Y1940804D01*
X3211234Y2001988D02*
X3217730Y1965154D01*
X3196066Y1980324D02*
X3232898Y1986818D01*
X3133868Y2127390D02*
X3148680Y2168084D01*
X3045078Y2159706D02*
X3059890Y2200402D01*
X3045078Y2159706D02*
X3133868Y2127390D01*
X3059890Y2200402D02*
X3148680Y2168084D01*
X3079306Y2170292D02*
X3114452Y2157500D01*
X3090482Y2146322D02*
X3103276Y2181468D01*
X2900604Y2308100D02*
X2941300Y2322912D01*
X2868288Y2396890D02*
X2908984Y2411702D01*
X2868288Y2396890D02*
X2900604Y2308100D01*
X2908984Y2411702D02*
X2941300Y2322912D01*
X2898398Y2377474D02*
X2911190Y2342328D01*
X2887222Y2353504D02*
X2922368Y2366296D01*
X3456912Y2935116D02*
X3484748Y2901942D01*
X3529294Y2995852D02*
X3557130Y2962678D01*
X3456912Y2935116D02*
X3529294Y2995852D01*
X3484748Y2901942D02*
X3557130Y2962678D01*
X3492696Y2936876D02*
X3521346Y2960918D01*
X3495000Y2963222D02*
X3519042Y2934572D01*
X3076596Y2906246D02*
X3091408Y2946940D01*
X3165386Y2873928D02*
X3180198Y2914624D01*
X3091408Y2946940D02*
X3180198Y2914624D01*
X3076596Y2906246D02*
X3165386Y2873928D01*
X3110824Y2916830D02*
X3145970Y2904038D01*
X3122000Y2892862D02*
X3134792Y2928008D01*
X3002276Y3206964D02*
X3009796Y3164314D01*
X3095328Y3223372D02*
X3102850Y3180722D01*
X3002276Y3206964D02*
X3095328Y3223372D01*
X3009796Y3164314D02*
X3102850Y3180722D01*
X3034146Y3190596D02*
X3070980Y3197090D01*
X3049316Y3212260D02*
X3055810Y3175426D01*
X4538272Y3189464D02*
X4538274Y3146158D01*
X4632762D02*
Y3189466D01*
X4538272Y3189464D02*
X4632762Y3189466D01*
X4538274Y3146158D02*
X4632762D01*
X4566816Y3167812D02*
X4604218D01*
X4585518Y3149110D02*
Y3186512D01*
X4557084Y2911118D02*
X4584920Y2877944D01*
X4629466Y2971854D02*
X4657302Y2938678D01*
X4557084Y2911118D02*
X4629466Y2971854D01*
X4584920Y2877944D02*
X4657302Y2938678D01*
X4592868Y2912878D02*
X4621518Y2936918D01*
X4595172Y2939224D02*
X4619214Y2910572D01*
X4183940Y2879866D02*
X4211776Y2913042D01*
X4111558Y2940602D02*
X4139394Y2973776D01*
X4111558Y2940602D02*
X4183940Y2879866D01*
X4139394Y2973776D02*
X4211776Y2913042D01*
X4147342Y2938842D02*
X4175992Y2914800D01*
X4149646Y2912496D02*
X4173688Y2941146D01*
X4692170Y2202922D02*
X4725346Y2175086D01*
X4752906Y2275304D02*
X4786082Y2247468D01*
X4692170Y2202922D02*
X4752906Y2275304D01*
X4725346Y2175086D02*
X4786082Y2247468D01*
X4727106Y2210870D02*
X4751146Y2239520D01*
X4724800Y2237216D02*
X4753452Y2213174D01*
X4622122Y2161606D02*
X4636934Y2120910D01*
X4533332Y2129288D02*
X4548144Y2088594D01*
X4636934Y2120910D01*
X4533332Y2129288D02*
X4622122Y2161606D01*
X4567560Y2118704D02*
X4602706Y2131496D01*
X4578738Y2142672D02*
X4591530Y2107526D01*
X4459848Y1879940D02*
X4500544Y1865128D01*
X4492166Y1968730D02*
X4532862Y1953918D01*
X4459848Y1879940D02*
X4492166Y1968730D01*
X4500544Y1865128D02*
X4532862Y1953918D01*
X4489958Y1899356D02*
X4502752Y1934502D01*
X4478782Y1923326D02*
X4513928Y1910534D01*
X4232436Y1800072D02*
X4254088Y1837578D01*
X4150606Y1847316D02*
X4172260Y1884822D01*
X4150606Y1847316D02*
X4232436Y1800072D01*
X4172260Y1884822D02*
X4254088Y1837578D01*
X4186152Y1851798D02*
X4218542Y1833096D01*
X4192996Y1826252D02*
X4211698Y1858642D01*
X3915976Y2048346D02*
X3915978Y2005038D01*
X4010466D02*
Y2048346D01*
X3915976D02*
X4010466D01*
X3915978Y2005038D02*
X4010466D01*
X3944520Y2026692D02*
X3981922D01*
X3963222Y2007992D02*
Y2045392D01*
X2834920Y1812654D02*
X2865080Y1787346D01*
X2837346Y1784920D02*
X2862654Y1815080D01*
X3070584Y2129206D02*
X3098420Y2162382D01*
X3142966Y2068470D02*
X3170802Y2101646D01*
X3070584Y2129206D02*
X3142966Y2068470D01*
X3098420Y2162382D02*
X3170802Y2101646D01*
X3106368Y2127446D02*
X3135018Y2103406D01*
X3108672Y2101100D02*
X3132714Y2129752D01*
D83*
X2899088Y1620298D02*
X3035744Y1783158D01*
X2675910Y1807566D02*
X2812566Y1970426D01*
X3035744Y1783158D01*
X2675910Y1807566D02*
X2899088Y1620298D01*
X2888614Y1518338D02*
X3134088Y1810882D01*
X2565912Y1789118D02*
X2811386Y2081662D01*
X2565912Y1789118D02*
X2888614Y1518338D01*
X2811386Y2081662D02*
X3134088Y1810882D01*
%TF.MD5,2368550c010726139498142484abcec8*%
M02*
