G04 Layer_Color=32896*
%FSLAX26Y26*%
%MOIN*%
%TF.FileFunction,Legend,Bot*%
%TF.Part,Single*%
%TFFileComment,Halloween PCB
Pumpkin Badge
V1
Gadorach
(W.W.S.)*%
G01*
G75*
%TA.AperFunction,NonConductor*%
%ADD23C,0.010000*%
%ADD67C,0.009842*%
%ADD68C,0.015748*%
%ADD69C,0.007874*%
%ADD70C,0.023622*%
%ADD71C,0.005000*%
%ADD72C,0.006000*%
%ADD73R,0.031496X0.074804*%
D23*
X2889810Y1896365D02*
X2949187Y1846920D01*
X2761586Y1742905D02*
X2820963Y1693461D01*
X2995040Y3795434D02*
X5125040D01*
Y2215434D02*
Y3795434D01*
X2995040Y2215434D02*
Y3795434D01*
Y2215434D02*
X5125040D01*
X5455047Y3014082D02*
X5465043Y3004086D01*
Y2984092D01*
X5455047Y2974095D01*
X5415060D01*
X5405063Y2984092D01*
Y3004086D01*
X5415060Y3014082D01*
X5435053D01*
Y2994089D01*
X5445050Y3044073D02*
Y3064066D01*
X5435053Y3074063D01*
X5405063D01*
Y3044073D01*
X5415060Y3034076D01*
X5425056Y3044073D01*
Y3074063D01*
X5465043Y3134044D02*
X5405063D01*
Y3104053D01*
X5415060Y3094057D01*
X5435053D01*
X5445050Y3104053D01*
Y3134044D01*
X5405063Y3164034D02*
Y3184028D01*
X5415060Y3194024D01*
X5435053D01*
X5445050Y3184028D01*
Y3164034D01*
X5435053Y3154037D01*
X5415060D01*
X5405063Y3164034D01*
X5445050Y3214018D02*
X5405063D01*
X5425056D01*
X5435053Y3224015D01*
X5445050Y3234011D01*
Y3244008D01*
Y3283995D02*
Y3303989D01*
X5435053Y3313985D01*
X5405063D01*
Y3283995D01*
X5415060Y3273998D01*
X5425056Y3283995D01*
Y3313985D01*
X5445050Y3373966D02*
Y3343976D01*
X5435053Y3333979D01*
X5415060D01*
X5405063Y3343976D01*
Y3373966D01*
X5465043Y3393960D02*
X5405063D01*
X5435053D01*
X5445050Y3403956D01*
Y3423950D01*
X5435053Y3433947D01*
X5405063D01*
X5309086Y2994089D02*
X5329080Y2974095D01*
X5349073D01*
X5369067Y2994089D01*
Y3024079D02*
X5309086D01*
X5329080Y3044073D01*
X5309086Y3064066D01*
X5369067D01*
X5309086Y3084060D02*
X5319083D01*
Y3094057D01*
X5309086D01*
Y3084060D01*
X5369067Y3134044D02*
X5309086D01*
X5329080Y3154037D01*
X5309086Y3174031D01*
X5369067D01*
X5309086Y3194024D02*
X5319083D01*
Y3204021D01*
X5309086D01*
Y3194024D01*
X5359070Y3283995D02*
X5369067Y3273998D01*
Y3254005D01*
X5359070Y3244008D01*
X5349073D01*
X5339077Y3254005D01*
Y3273998D01*
X5329080Y3283995D01*
X5319083D01*
X5309086Y3273998D01*
Y3254005D01*
X5319083Y3244008D01*
X5309086Y3303989D02*
X5319083D01*
Y3313985D01*
X5309086D01*
Y3303989D01*
Y3353972D02*
X5329080Y3373966D01*
X5349073D01*
X5369067Y3353972D01*
X5408394Y2056825D02*
X5468374D01*
Y2086815D01*
X5458377Y2096812D01*
X5438384D01*
X5428387Y2086815D01*
Y2056825D01*
X5448381Y2116806D02*
X5418390D01*
X5408394Y2126802D01*
Y2156793D01*
X5448381D01*
X5408394Y2176786D02*
X5448381D01*
Y2186783D01*
X5438384Y2196780D01*
X5408394D01*
X5438384D01*
X5448381Y2206777D01*
X5438384Y2216773D01*
X5408394D01*
X5388400Y2236767D02*
X5448381D01*
Y2266757D01*
X5438384Y2276754D01*
X5418390D01*
X5408394Y2266757D01*
Y2236767D01*
Y2296747D02*
X5468374D01*
X5428387D02*
X5448381Y2326738D01*
X5428387Y2296747D02*
X5408394Y2326738D01*
Y2356728D02*
Y2376722D01*
Y2366725D01*
X5448381D01*
Y2356728D01*
X5408394Y2406712D02*
X5448381D01*
Y2436702D01*
X5438384Y2446699D01*
X5408394D01*
X5468374Y2526673D02*
X5408394D01*
Y2556663D01*
X5418390Y2566660D01*
X5428387D01*
X5438384Y2556663D01*
Y2526673D01*
Y2556663D01*
X5448381Y2566660D01*
X5458377D01*
X5468374Y2556663D01*
Y2526673D01*
X5448381Y2596651D02*
Y2616644D01*
X5438384Y2626641D01*
X5408394D01*
Y2596651D01*
X5418390Y2586654D01*
X5428387Y2596651D01*
Y2626641D01*
X5468374Y2686621D02*
X5408394D01*
Y2656631D01*
X5418390Y2646634D01*
X5438384D01*
X5448381Y2656631D01*
Y2686621D01*
X5388400Y2726608D02*
Y2736605D01*
X5398397Y2746602D01*
X5448381D01*
Y2716612D01*
X5438384Y2706615D01*
X5418390D01*
X5408394Y2716612D01*
Y2746602D01*
Y2796586D02*
Y2776592D01*
X5418390Y2766595D01*
X5438384D01*
X5448381Y2776592D01*
Y2796586D01*
X5438384Y2806583D01*
X5428387D01*
Y2766595D01*
X5352404Y2056825D02*
X5312417D01*
X5292423Y2076819D01*
X5312417Y2096812D01*
X5352404D01*
X5292423Y2116806D02*
Y2136799D01*
Y2126802D01*
X5352404D01*
X5342407Y2116806D01*
X5196447Y2096812D02*
Y2056825D01*
X5236434Y2096812D01*
X5246431D01*
X5256427Y2086815D01*
Y2066822D01*
X5246431Y2056825D01*
Y2116806D02*
X5256427Y2126802D01*
Y2146796D01*
X5246431Y2156793D01*
X5206444D01*
X5196447Y2146796D01*
Y2126802D01*
X5206444Y2116806D01*
X5246431D01*
X5196447Y2176786D02*
Y2196780D01*
Y2186783D01*
X5256427D01*
X5246431Y2176786D01*
Y2226770D02*
X5256427Y2236767D01*
Y2256760D01*
X5246431Y2266757D01*
X5236434D01*
X5226437Y2256760D01*
X5216440Y2266757D01*
X5206444D01*
X5196447Y2256760D01*
Y2236767D01*
X5206444Y2226770D01*
X5216440D01*
X5226437Y2236767D01*
X5236434Y2226770D01*
X5246431D01*
X5226437Y2236767D02*
Y2256760D01*
X2700504Y3445423D02*
X2746452Y3483977D01*
X2727175Y3506951D01*
X2713091Y3508184D01*
X2697775Y3495332D01*
X2696543Y3481248D01*
X2715820Y3458274D01*
X2702969Y3473590D02*
X2674801Y3476055D01*
X2700239Y3523499D02*
X2701472Y3537583D01*
X2688620Y3552899D01*
X2674536Y3554131D01*
X2666878Y3547706D01*
X2665646Y3533622D01*
X2672072Y3525964D01*
X2665646Y3533622D01*
X2651562Y3534854D01*
X2643904Y3528428D01*
X2642672Y3514344D01*
X2655524Y3499028D01*
X2669608Y3497796D01*
X2302818Y3468925D02*
X2341372Y3422977D01*
X2318398Y3403700D01*
X2304315Y3404932D01*
X2297889Y3412590D01*
X2299121Y3426673D01*
X2322095Y3445951D01*
X2299121Y3426673D01*
X2285037Y3427906D01*
X2278611Y3435564D01*
X2279844Y3449647D01*
X2302818Y3468925D01*
X2256870Y3430370D02*
X2226238Y3404667D01*
X2241554Y3417518D01*
X2280109Y3371570D01*
X2249477Y3345867D02*
X2210922Y3391815D01*
X2218845Y3320164D01*
X2180290Y3366112D01*
X2939984Y2789987D02*
X2949981Y2779990D01*
Y2759997D01*
X2939984Y2750000D01*
X2899997D01*
X2890000Y2759997D01*
Y2779990D01*
X2899997Y2789987D01*
X2890000Y2809981D02*
Y2829974D01*
Y2819977D01*
X2949981D01*
X2939984Y2809981D01*
X2600000Y2665000D02*
X2570010Y2716945D01*
X2544037Y2701950D01*
X2540378Y2688294D01*
X2550375Y2670979D01*
X2564031Y2667320D01*
X2590003Y2682315D01*
X2572688Y2672318D02*
X2565370Y2645006D01*
X2513425Y2615016D02*
X2548055Y2635010D01*
X2493432Y2649646D01*
X2488434Y2658303D01*
X2492093Y2671959D01*
X2509407Y2681956D01*
X2523063Y2678297D01*
X2740000Y2405000D02*
X2710010Y2456945D01*
X2684037Y2441950D01*
X2680378Y2428294D01*
X2690375Y2410979D01*
X2704031Y2407320D01*
X2730003Y2422315D01*
X2712688Y2412318D02*
X2705370Y2385006D01*
X2688055Y2375010D02*
X2670740Y2365013D01*
X2679398Y2370011D01*
X2649407Y2421956D01*
X2663063Y2418297D01*
X4263124Y1682409D02*
X4323105D01*
Y1712399D01*
X4313108Y1722396D01*
X4293114D01*
X4283118Y1712399D01*
Y1682409D01*
Y1702402D02*
X4263124Y1722396D01*
X4253127Y1742389D02*
Y1782376D01*
X4323105Y1832360D02*
Y1812367D01*
X4313108Y1802370D01*
X4273121D01*
X4263124Y1812367D01*
Y1832360D01*
X4273121Y1842357D01*
X4313108D01*
X4323105Y1832360D01*
Y1902337D02*
Y1862350D01*
X4263124D01*
Y1902337D01*
X4293114Y1862350D02*
Y1882344D01*
X2968636Y2071076D02*
X3007191Y2117023D01*
X2984217Y2136301D01*
X2970133Y2135069D01*
X2957281Y2119753D01*
X2958513Y2105669D01*
X2981487Y2086392D01*
X2966171Y2099243D02*
X2938004Y2096779D01*
X2916262Y2101972D02*
X2885630Y2127676D01*
X2876740Y2148185D02*
X2915295Y2194133D01*
X2892321Y2213410D01*
X2878237Y2212178D01*
X2865386Y2196862D01*
X2866618Y2182779D01*
X2889592Y2163501D01*
X2869347Y2232688D02*
X2830792Y2186740D01*
X2800160Y2212443D01*
X2792767Y2296946D02*
X2823399Y2271243D01*
X2784845Y2225295D01*
X2754213Y2250998D01*
X2804122Y2248269D02*
X2788806Y2261120D01*
X2777452Y2309797D02*
X2738897Y2263850D01*
X2715923Y2283127D01*
X2714691Y2297211D01*
X2740394Y2327843D01*
X2754478Y2329075D01*
X2777452Y2309797D01*
X3615000Y1565000D02*
X3595006D01*
X3605003D01*
Y1624981D01*
X3615000Y1614984D01*
X3565016D02*
X3555019Y1624981D01*
X3535026D01*
X3525029Y1614984D01*
Y1574997D01*
X3535026Y1565000D01*
X3555019D01*
X3565016Y1574997D01*
Y1614984D01*
X3505036Y1565000D02*
X3485042D01*
X3495039D01*
Y1624981D01*
X3505036Y1614984D01*
X4545000Y1590000D02*
X4525007D01*
X4535003D01*
Y1649981D01*
X4545000Y1639984D01*
X4495016D02*
X4485019Y1649981D01*
X4465026D01*
X4455029Y1639984D01*
Y1599997D01*
X4465026Y1590000D01*
X4485019D01*
X4495016Y1599997D01*
Y1639984D01*
X4435036Y1590000D02*
X4415042D01*
X4425039D01*
Y1649981D01*
X4435036Y1639984D01*
X4555000Y1905000D02*
Y1964981D01*
X4525010D01*
X4515013Y1954984D01*
Y1934990D01*
X4525010Y1924994D01*
X4555000D01*
X4535007D02*
X4515013Y1905000D01*
X4495019D02*
Y1944987D01*
X4475026Y1964981D01*
X4455032Y1944987D01*
Y1905000D01*
Y1934990D01*
X4495019D01*
X4395052Y1905000D02*
X4435039D01*
X4395052Y1944987D01*
Y1954984D01*
X4405048Y1964981D01*
X4425042D01*
X4435039Y1954984D01*
X2226512Y2731245D02*
X2209197Y2721248D01*
X2217855Y2726246D01*
X2247845Y2674302D01*
X2256503Y2679300D01*
X2239188Y2669303D01*
X2153594Y2677602D02*
X2157253Y2691258D01*
X2174568Y2701254D01*
X2188224Y2697595D01*
X2208217Y2662965D01*
X2204558Y2649310D01*
X2187243Y2639313D01*
X2173587Y2642972D01*
X2101649Y2647611D02*
X2105308Y2661267D01*
X2122623Y2671264D01*
X2136279Y2667605D01*
X2141277Y2658948D01*
X2137618Y2645292D01*
X2120303Y2635295D01*
X2116644Y2621639D01*
X2121642Y2612982D01*
X2135298Y2609323D01*
X2152613Y2619319D01*
X2156272Y2632975D01*
X2109326Y2594327D02*
X2079336Y2646272D01*
X2053363Y2631277D01*
X2049704Y2617621D01*
X2059701Y2600306D01*
X2073357Y2596647D01*
X2099329Y2611642D01*
X3059052Y1683555D02*
X3097342Y1651426D01*
X3098574Y1637342D01*
X3085723Y1622026D01*
X3071639Y1620794D01*
X3033349Y1652923D01*
X3066445Y1599052D02*
X3053594Y1583736D01*
X3060019Y1591394D01*
X3014072Y1629949D01*
X3028155Y1631181D01*
X3421068Y2069345D02*
Y2129326D01*
X3391077D01*
X3381081Y2119329D01*
Y2099336D01*
X3391077Y2089339D01*
X3421068D01*
X3361087Y2129326D02*
Y2069345D01*
X3321100D01*
X3261119Y2129326D02*
X3301106D01*
Y2069345D01*
X3261119D01*
X3301106Y2099336D02*
X3281113D01*
X3241126Y2129326D02*
Y2069345D01*
X3211135D01*
X3201139Y2079342D01*
Y2119329D01*
X3211135Y2129326D01*
X3241126D01*
X3620000Y1895000D02*
Y1954981D01*
X3590010D01*
X3580013Y1944984D01*
Y1924990D01*
X3590010Y1914994D01*
X3620000D01*
X3600006D02*
X3580013Y1895000D01*
X3560019D02*
Y1934987D01*
X3540026Y1954981D01*
X3520032Y1934987D01*
Y1895000D01*
Y1924990D01*
X3560019D01*
X3500039Y1895000D02*
X3480045D01*
X3490042D01*
Y1954981D01*
X3500039Y1944984D01*
X4110252Y1997233D02*
Y1947249D01*
X4100255Y1937253D01*
X4080262D01*
X4070265Y1947249D01*
Y1997233D01*
X4010284Y1937253D02*
X4050271D01*
X4010284Y1977240D01*
Y1987236D01*
X4020281Y1997233D01*
X4040275D01*
X4050271Y1987236D01*
X2465042Y2990263D02*
Y2930282D01*
X2435052D01*
X2425055Y2940279D01*
Y2980266D01*
X2435052Y2990263D01*
X2465042D01*
X2405062Y2930282D02*
X2385068D01*
X2395065D01*
Y2990263D01*
X2405062Y2980266D01*
X3531332Y3710090D02*
Y3650109D01*
X3501341D01*
X3491345Y3660106D01*
Y3670103D01*
X3501341Y3680099D01*
X3531332D01*
X3501341D01*
X3491345Y3690096D01*
Y3700093D01*
X3501341Y3710090D01*
X3531332D01*
X3431364Y3700093D02*
X3441361Y3710090D01*
X3461354D01*
X3471351Y3700093D01*
Y3660106D01*
X3461354Y3650109D01*
X3441361D01*
X3431364Y3660106D01*
X3411370Y3700093D02*
X3401374Y3710090D01*
X3381380D01*
X3371383Y3700093D01*
Y3690096D01*
X3381380Y3680099D01*
X3391377D01*
X3381380D01*
X3371383Y3670103D01*
Y3660106D01*
X3381380Y3650109D01*
X3401374D01*
X3411370Y3660106D01*
X3351390Y3650109D02*
Y3690096D01*
X3331396Y3710090D01*
X3311403Y3690096D01*
Y3650109D01*
Y3680099D01*
X3351390D01*
X3291409Y3650109D02*
Y3690096D01*
X3271416Y3710090D01*
X3251422Y3690096D01*
Y3650109D01*
Y3680099D01*
X3291409D01*
X3231429Y3650109D02*
Y3690096D01*
X3211435Y3710090D01*
X3191442Y3690096D01*
Y3650109D01*
Y3680099D01*
X3231429D01*
X3171448Y3650109D02*
Y3710090D01*
X3141458D01*
X3131461Y3700093D01*
Y3680099D01*
X3141458Y3670103D01*
X3171448D01*
X3071480Y3700093D02*
X3081477Y3710090D01*
X3101471D01*
X3111468Y3700093D01*
Y3660106D01*
X3101471Y3650109D01*
X3081477D01*
X3071480Y3660106D01*
X2940488Y2534499D02*
Y2594479D01*
X2970479Y2564489D01*
X2930492D01*
X2910498Y2534499D02*
Y2544495D01*
X2900501D01*
Y2534499D01*
X2910498D01*
X2820527Y2594479D02*
X2860514D01*
Y2564489D01*
X2840521Y2574486D01*
X2830524D01*
X2820527Y2564489D01*
Y2544495D01*
X2830524Y2534499D01*
X2850517D01*
X2860514Y2544495D01*
X2800534Y2594479D02*
Y2554492D01*
X2780540Y2534499D01*
X2760546Y2554492D01*
Y2594479D01*
X2928459Y3049828D02*
X2938456Y3059825D01*
X2958450D01*
X2968446Y3049828D01*
Y3009841D01*
X2958450Y2999844D01*
X2938456D01*
X2928459Y3009841D01*
Y3029835D01*
X2948453D01*
X2908466Y2999844D02*
Y3059825D01*
X2868479Y2999844D01*
Y3059825D01*
X2848485D02*
Y2999844D01*
X2818495D01*
X2808498Y3009841D01*
Y3049828D01*
X2818495Y3059825D01*
X2848485D01*
D67*
X2935497Y1893548D02*
G03*
X2935497Y1893548I-4921J0D01*
G01*
X2797226Y2044223D02*
G03*
X2797226Y2044223I-4921J0D01*
G01*
X3870669Y1516102D02*
G03*
X3870669Y1516102I-4921J0D01*
G01*
D68*
X2911489Y1840064D02*
G03*
X2911489Y1840064I-7874J0D01*
G01*
D69*
X2837323Y2728602D02*
G03*
X2827743Y2866610I-42323J66398D01*
G01*
X2762257D02*
G03*
X2752677Y2728602I32743J-71609D01*
G01*
X2680118Y1909912D02*
G03*
X2712258Y1948215I16070J19151D01*
G01*
X3995341Y1517086D02*
G03*
X3954659Y1517086I-20341J0D01*
G01*
X2823986Y1696166D02*
X2947988Y1843946D01*
X2763668Y1746778D02*
X2887670Y1894560D01*
X2947988Y1843946D01*
X2763668Y1746778D02*
X2823986Y1696166D01*
X2221698Y2556506D02*
X2521698Y2036892D01*
X2507266Y2028558D02*
X2513366Y2051326D01*
X2079594Y2435972D02*
X2195064Y2502638D01*
X2073494Y2413204D02*
X2079594Y2435972D01*
X2073494Y2413204D02*
X2096262Y2407104D01*
X2211730Y2473770D01*
X2129594Y2349370D02*
X2245064Y2416036D01*
X2123494Y2326602D02*
X2129594Y2349370D01*
X2123494Y2326602D02*
X2146260Y2320502D01*
X2261732Y2387168D01*
X2179596Y2262766D02*
X2295064Y2329434D01*
X2173494Y2240000D02*
X2179596Y2262766D01*
X2173494Y2240000D02*
X2196260Y2233900D01*
X2311730Y2300566D01*
X2229594Y2176166D02*
X2345064Y2242832D01*
X2223494Y2153398D02*
X2229594Y2176166D01*
X2223494Y2153398D02*
X2246260Y2147298D01*
X2361730Y2213964D01*
X2279594Y2089562D02*
X2395064Y2156230D01*
X2273494Y2066794D02*
X2279594Y2089562D01*
X2273494Y2066794D02*
X2296260Y2060696D01*
X2411730Y2127362D01*
X2329594Y2002960D02*
X2445064Y2069626D01*
X2323494Y1980192D02*
X2329594Y2002960D01*
X2323494Y1980192D02*
X2346260Y1974092D01*
X2461730Y2040760D01*
X2178398Y2531506D02*
X2221698Y2556506D01*
X2178398Y2531506D02*
X2478398Y2011892D01*
X2521698Y2036892D01*
X2936750Y1591014D02*
X3070874Y1750858D01*
X2629126Y1849142D02*
X2680118Y1909912D01*
X2712258Y1948214D02*
X2763250Y2008986D01*
X2629126Y1849142D02*
X2936750Y1591014D01*
X2763250Y2008986D02*
X3070874Y1750858D01*
X3913976Y1517086D02*
X3954660D01*
X3995342D02*
X4036024D01*
X3913976Y1902914D02*
X4036024D01*
X3913976Y1517086D02*
Y1902914D01*
X4036024Y1517086D02*
Y1902914D01*
X2496772Y2817598D02*
Y2892402D01*
X2343228D02*
X2496772D01*
X2343228Y2817598D02*
X2496772D01*
D70*
X2779914Y1953520D02*
G03*
X2779914Y1953520I-11811J0D01*
G01*
D71*
X2196972Y3259426D02*
X2380129Y3413113D01*
X2196972Y3259426D02*
X2350659Y3076269D01*
X2533816Y3229956D01*
X2380129Y3413113D02*
X2533816Y3229956D01*
D72*
X4466252Y1865000D02*
X4483748D01*
X4466252Y1705000D02*
X4483748D01*
X3542752Y1695000D02*
X3560248D01*
X3542752Y1855000D02*
X3560248D01*
D73*
X2355040Y2855000D02*
D03*
%TF.MD5,715df787286b953f10faf93be7899ac0*%
M02*
