G04 Layer_Physical_Order=2*
G04 Layer_Color=16711680*
%FSLAX26Y26*%
%MOIN*%
%TF.FileFunction,Copper,L2,Bot,Signal*%
%TF.Part,Single*%
%TFFileComment,Halloween PCB
Pumpkin Badge
V1
Gadorach
(W.W.S.)*%
G01*
G75*
%TA.AperFunction,NonConductor*%
%ADD10C,0.008000*%
%TA.AperFunction,SMDPad,CuDef*%
G04:AMPARAMS|DCode=19|XSize=35.433mil|YSize=31.496mil|CornerRadius=0mil|HoleSize=0mil|Usage=FLASHONLY|Rotation=230.000|XOffset=0mil|YOffset=0mil|HoleType=Round|Shape=Rectangle|*
%AMROTATEDRECTD19*
4,1,4,-0.000676,0.023694,0.023452,0.003449,0.000676,-0.023694,-0.023452,-0.003449,-0.000676,0.023694,0.0*
%
%ADD19ROTATEDRECTD19*%

%TA.AperFunction,NonConductor*%
%ADD23C,0.010000*%
%TA.AperFunction,Conductor*%
%ADD24C,0.010000*%
%TA.AperFunction,ViaPad*%
%ADD26C,0.025000*%
%TA.AperFunction,ComponentPad*%
%ADD27P,0.083516X4X265.0*%
%ADD28C,0.059055*%
%ADD29C,0.080000*%
G04:AMPARAMS|DCode=30|XSize=110mil|YSize=110mil|CornerRadius=27.5mil|HoleSize=0mil|Usage=FLASHONLY|Rotation=90.000|XOffset=0mil|YOffset=0mil|HoleType=Round|Shape=RoundedRectangle|*
%AMROUNDEDRECTD30*
21,1,0.110000,0.055000,0,0,90.0*
21,1,0.055000,0.110000,0,0,90.0*
1,1,0.055000,0.027500,0.027500*
1,1,0.055000,0.027500,-0.027500*
1,1,0.055000,-0.027500,-0.027500*
1,1,0.055000,-0.027500,0.027500*
%
%ADD30ROUNDEDRECTD30*%
%ADD31P,0.083516X4X165.0*%
%ADD32P,0.083516X4X275.0*%
G04:AMPARAMS|DCode=33|XSize=80mil|YSize=80mil|CornerRadius=20mil|HoleSize=0mil|Usage=FLASHONLY|Rotation=180.000|XOffset=0mil|YOffset=0mil|HoleType=Round|Shape=RoundedRectangle|*
%AMROUNDEDRECTD33*
21,1,0.080000,0.040000,0,0,180.0*
21,1,0.040000,0.080000,0,0,180.0*
1,1,0.040000,-0.020000,0.020000*
1,1,0.040000,0.020000,0.020000*
1,1,0.040000,0.020000,-0.020000*
1,1,0.040000,-0.020000,-0.020000*
%
%ADD33ROUNDEDRECTD33*%
%ADD34C,0.100000*%
G04:AMPARAMS|DCode=35|XSize=100mil|YSize=100mil|CornerRadius=25mil|HoleSize=0mil|Usage=FLASHONLY|Rotation=180.000|XOffset=0mil|YOffset=0mil|HoleType=Round|Shape=RoundedRectangle|*
%AMROUNDEDRECTD35*
21,1,0.100000,0.050000,0,0,180.0*
21,1,0.050000,0.100000,0,0,180.0*
1,1,0.050000,-0.025000,0.025000*
1,1,0.050000,0.025000,0.025000*
1,1,0.050000,0.025000,-0.025000*
1,1,0.050000,-0.025000,-0.025000*
%
%ADD35ROUNDEDRECTD35*%
%TA.AperFunction,SMDPad,CuDef*%
G04:AMPARAMS|DCode=36|XSize=59.055mil|YSize=51.181mil|CornerRadius=0mil|HoleSize=0mil|Usage=FLASHONLY|Rotation=220.000|XOffset=0mil|YOffset=0mil|HoleType=Round|Shape=Rectangle|*
%AMROTATEDRECTD36*
4,1,4,0.006170,0.038584,0.039069,-0.000624,-0.006170,-0.038584,-0.039069,0.000624,0.006170,0.038584,0.0*
%
%ADD36ROTATEDRECTD36*%

G04:AMPARAMS|DCode=37|XSize=23.622mil|YSize=80.709mil|CornerRadius=0mil|HoleSize=0mil|Usage=FLASHONLY|Rotation=50.000|XOffset=0mil|YOffset=0mil|HoleType=Round|Shape=Round|*
%AMOVALD37*
21,1,0.057087,0.023622,0.000000,0.000000,140.0*
1,1,0.023622,0.021865,-0.018347*
1,1,0.023622,-0.021865,0.018347*
%
%ADD37OVALD37*%

G04:AMPARAMS|DCode=38|XSize=59.055mil|YSize=51.181mil|CornerRadius=0mil|HoleSize=0mil|Usage=FLASHONLY|Rotation=120.000|XOffset=0mil|YOffset=0mil|HoleType=Round|Shape=Rectangle|*
%AMROTATEDRECTD38*
4,1,4,0.036926,-0.012776,-0.007398,-0.038367,-0.036926,0.012776,0.007398,0.038367,0.036926,-0.012776,0.0*
%
%ADD38ROTATEDRECTD38*%

%ADD39R,0.059055X0.051181*%
G04:AMPARAMS|DCode=40|XSize=59.055mil|YSize=51.181mil|CornerRadius=0mil|HoleSize=0mil|Usage=FLASHONLY|Rotation=50.000|XOffset=0mil|YOffset=0mil|HoleType=Round|Shape=Rectangle|*
%AMROTATEDRECTD40*
4,1,4,0.000624,-0.039069,-0.038584,-0.006170,-0.000624,0.039069,0.038584,0.006170,0.000624,-0.039069,0.0*
%
%ADD40ROTATEDRECTD40*%

%ADD41R,0.030000X0.014000*%
%ADD42R,0.064961X0.011811*%
%TA.AperFunction,Conductor*%
%ADD43C,0.040000*%
D10*
X4565625Y3407143D02*
G03*
X4555024Y3411530I-10601J-10613D01*
G01*
X4565631Y3407137D02*
G03*
X4555024Y3411530I-10607J-10607D01*
G01*
X4533345Y3359616D02*
G03*
X4522745Y3364004I-10601J-10613D01*
G01*
X4533351Y3359610D02*
G03*
X4522745Y3364004I-10607J-10607D01*
G01*
X4169934Y3411530D02*
G03*
X4159333Y3407143I0J-15000D01*
G01*
X4169934Y3411530D02*
G03*
X4159327Y3407137I0J-15000D01*
G01*
X4204801Y3364004D02*
G03*
X4194200Y3359616I0J-15000D01*
G01*
X4204801Y3364004D02*
G03*
X4194194Y3359610I0J-15000D01*
G01*
X4445643Y3288481D02*
G03*
X4406372Y3303481I-22500J0D01*
G01*
X4202325D02*
G03*
X4191718Y3299087I0J-15000D01*
G01*
X4926112Y3040442D02*
G03*
X4921719Y3051049I-15000J0D01*
G01*
X4926112Y3040442D02*
G03*
X4921725Y3051043I-15000J0D01*
G01*
X4874235Y3012514D02*
G03*
X4869841Y3023120I-15000J0D01*
G01*
X4874235Y3012514D02*
G03*
X4869847Y3023114I-15000J0D01*
G01*
X4406372Y3273481D02*
G03*
X4445643Y3288481I16770J15000D01*
G01*
X4338740Y3248456D02*
G03*
X4328140Y3252844I-10601J-10613D01*
G01*
X4338746Y3248450D02*
G03*
X4328140Y3252844I-10607J-10607D01*
G01*
X4559006Y3029477D02*
G03*
X4535254Y3051942I-22500J0D01*
G01*
X4514041Y3030729D02*
G03*
X4559006Y3029477I22465J-1252D01*
G01*
X4207550Y3252844D02*
G03*
X4196944Y3248450I0J-15000D01*
G01*
X4207550Y3252844D02*
G03*
X4196949Y3248456I0J-15000D01*
G01*
X4202325Y3303481D02*
G03*
X4191725Y3299093I0J-15000D01*
G01*
X4265450Y2591942D02*
G03*
X4261056Y2602549I-15000J0D01*
G01*
X4265450Y2591942D02*
G03*
X4261062Y2602543I-15000J0D01*
G01*
X4235450Y2389267D02*
G03*
X4238654Y2380001I15000J0D01*
G01*
X4235450Y2389267D02*
G03*
X4238654Y2380001I15000J0D01*
G01*
X4230430Y2572515D02*
G03*
X4226037Y2583122I-15000J0D01*
G01*
X4230430Y2572515D02*
G03*
X4226043Y2583116I-15000J0D01*
G01*
X4198641Y2556386D02*
G03*
X4194253Y2566987I-15000J0D01*
G01*
X4198641Y2556386D02*
G03*
X4194247Y2566993I-15000J0D01*
G01*
X4200430Y2382012D02*
G03*
X4204818Y2371411I15000J0D01*
G01*
X4200430Y2382012D02*
G03*
X4204824Y2371405I15000J0D01*
G01*
X4168641Y2364521D02*
G03*
X4173028Y2353921I15000J0D01*
G01*
X4168641Y2364521D02*
G03*
X4173034Y2353914I15000J0D01*
G01*
X3909582Y3157392D02*
G03*
X3905189Y3146785I10607J-10607D01*
G01*
X3909576Y3157386D02*
G03*
X3905189Y3146785I10613J-10601D01*
G01*
X3987887Y3095256D02*
G03*
X3983494Y3084649I10607J-10607D01*
G01*
X3987881Y3095250D02*
G03*
X3983494Y3084649I10613J-10601D01*
G01*
X3955737Y3121153D02*
G03*
X3951344Y3110546I10607J-10607D01*
G01*
X3955731Y3121147D02*
G03*
X3951344Y3110546I10613J-10601D01*
G01*
X4022437Y3073943D02*
G03*
X4018043Y3063337I10607J-10607D01*
G01*
X4022431Y3073937D02*
G03*
X4018043Y3063337I10613J-10601D01*
G01*
X4119825Y2905185D02*
G03*
X4074860Y2903933I-22500J0D01*
G01*
X4096073Y2882720D02*
G03*
X4119825Y2905185I1252J22465D01*
G01*
X4057352Y2886425D02*
G03*
X4052958Y2875818I10607J-10607D01*
G01*
X4057345Y2886419D02*
G03*
X4052958Y2875818I10613J-10601D01*
G01*
X3802429Y3091187D02*
G03*
X3798036Y3101794I-15000J0D01*
G01*
X3802429Y3091187D02*
G03*
X3798042Y3101788I-15000J0D01*
G01*
X3872796Y4046367D02*
G03*
X3872796Y4046367I-70000J0D01*
G01*
X3762340Y3072391D02*
G03*
X3757946Y3082997I-15000J0D01*
G01*
X3762340Y3072391D02*
G03*
X3757952Y3082992I-15000J0D01*
G01*
X3722008Y3050916D02*
G03*
X3717620Y3061516I-15000J0D01*
G01*
X3722008Y3050916D02*
G03*
X3717614Y3061522I-15000J0D01*
G01*
X4052958Y2774434D02*
G03*
X4057345Y2763834I15000J0D01*
G01*
X4052958Y2774434D02*
G03*
X4057352Y2763828I15000J0D01*
G01*
X4018043Y2754902D02*
G03*
X4022437Y2744296I15000J0D01*
G01*
X4018043Y2754902D02*
G03*
X4022431Y2744302I15000J0D01*
G01*
X3983494Y2741533D02*
G03*
X3987881Y2730933I15000J0D01*
G01*
X3983494Y2741533D02*
G03*
X3987887Y2730927I15000J0D01*
G01*
X3951344Y2726364D02*
G03*
X3955737Y2715758I15000J0D01*
G01*
X3951344Y2726364D02*
G03*
X3955731Y2715764I15000J0D01*
G01*
X4156212Y2551496D02*
G03*
X4151819Y2562102I-15000J0D01*
G01*
X4156212Y2551496D02*
G03*
X4151825Y2562096I-15000J0D01*
G01*
X4126212Y2355431D02*
G03*
X4130600Y2344830I15000J0D01*
G01*
X4126212Y2355431D02*
G03*
X4130606Y2344824I15000J0D01*
G01*
X3905189Y2492615D02*
G03*
X3909576Y2482014I15000J0D01*
G01*
X3905189Y2492615D02*
G03*
X3909582Y2482008I15000J0D01*
G01*
X3798042Y2340829D02*
G03*
X3802429Y2351430I-10613J10601D01*
G01*
X3798036Y2340823D02*
G03*
X3802429Y2351430I-10607J10607D01*
G01*
X3757946Y2351714D02*
G03*
X3762340Y2362320I-10607J10607D01*
G01*
X3757952Y2351720D02*
G03*
X3762340Y2362320I-10613J10601D01*
G01*
X3717620Y2359055D02*
G03*
X3722008Y2369656I-10613J10601D01*
G01*
X3717614Y2359049D02*
G03*
X3722008Y2369656I-10607J10607D01*
G01*
X4800940Y2308878D02*
G03*
X4790333Y2313272I-10607J-10607D01*
G01*
X4839760Y2263845D02*
G03*
X4835367Y2274451I-15000J0D01*
G01*
X4800934Y2308884D02*
G03*
X4790333Y2313272I-10601J-10613D01*
G01*
X4839760Y2263845D02*
G03*
X4835373Y2274445I-15000J0D01*
G01*
X4809760Y2243112D02*
G03*
X4783107Y2207095I-11653J-19247D01*
G01*
X4921725Y2164597D02*
G03*
X4926112Y2175197I-10613J10601D01*
G01*
X4921719Y2164591D02*
G03*
X4926112Y2175197I-10607J10607D01*
G01*
X4869847Y2164662D02*
G03*
X4874235Y2175263I-10613J10601D01*
G01*
X4869841Y2164656D02*
G03*
X4874235Y2175263I-10607J10607D01*
G01*
X4789329Y2074627D02*
G03*
X4784935Y2064021I10607J-10607D01*
G01*
X4665397Y2313272D02*
G03*
X4654796Y2308884I0J-15000D01*
G01*
X4665397Y2313272D02*
G03*
X4654790Y2308878I0J-15000D01*
G01*
X4550597Y2204685D02*
G03*
X4571845Y2182220I-1252J-22465D01*
G01*
X4675335Y2091211D02*
G03*
X4670942Y2080605I10607J-10607D01*
G01*
X4675329Y2091206D02*
G03*
X4670942Y2080605I10613J-10601D01*
G01*
X4708096Y2081217D02*
G03*
X4703703Y2070610I10607J-10607D01*
G01*
X4708091Y2081211D02*
G03*
X4703703Y2070610I10613J-10601D01*
G01*
X4602899Y2106715D02*
G03*
X4592298Y2111102I-10601J-10613D01*
G01*
X4602904Y2106709D02*
G03*
X4592298Y2111102I-10607J-10607D01*
G01*
X4789323Y2074621D02*
G03*
X4784935Y2064021I10613J-10601D01*
G01*
X4667596Y2035804D02*
G03*
X4663203Y2046411I-15000J0D01*
G01*
X4667596Y2035804D02*
G03*
X4663209Y2046405I-15000J0D01*
G01*
X4810548Y1871348D02*
G03*
X4814935Y1881948I-10613J10601D01*
G01*
X4769165Y1881163D02*
G03*
X4773553Y1891763I-10613J10601D01*
G01*
X4810542Y1871342D02*
G03*
X4814935Y1881948I-10607J10607D01*
G01*
X4769159Y1881157D02*
G03*
X4773553Y1891763I-10607J10607D01*
G01*
X4518516Y2057713D02*
G03*
X4529117Y2053325I10601J10613D01*
G01*
X4518510Y2057719D02*
G03*
X4529117Y2053325I10607J10607D01*
G01*
X4499656Y2027293D02*
G03*
X4510256Y2022905I10601J10613D01*
G01*
X4499650Y2027299D02*
G03*
X4510256Y2022905I10607J10607D01*
G01*
X4523279Y1995864D02*
G03*
X4499527Y2018329I-22500J0D01*
G01*
X4478314Y1997116D02*
G03*
X4523279Y1995864I22465J-1252D01*
G01*
X4346231Y2036842D02*
G03*
X4335624Y2041236I-10607J-10607D01*
G01*
X4346225Y2036848D02*
G03*
X4335624Y2041236I-10601J-10613D01*
G01*
X4490992Y1885868D02*
G03*
X4486599Y1896475I-15000J0D01*
G01*
X4490992Y1885868D02*
G03*
X4486605Y1896469I-15000J0D01*
G01*
X4652987Y1720000D02*
G03*
X4663593Y1724393I0J15000D01*
G01*
X4652987Y1720000D02*
G03*
X4663587Y1724387I0J15000D01*
G01*
X4477018Y1704387D02*
G03*
X4486500Y1700042I10601J10613D01*
G01*
X4477012Y1704393D02*
G03*
X4486500Y1700042I10607J10607D01*
G01*
X4192990Y2234814D02*
G03*
X4188597Y2245420I-15000J0D01*
G01*
X4192990Y2234814D02*
G03*
X4188603Y2245414I-15000J0D01*
G01*
X4200490Y2087197D02*
G03*
X4192990Y2103968I-22500J0D01*
G01*
X4162990D02*
G03*
X4200490Y2087197I15000J-16770D01*
G01*
X4080655Y2041236D02*
G03*
X4080655Y2011236I-16770J-15000D01*
G01*
X4279269Y1886945D02*
G03*
X4268662Y1891338I-10607J-10607D01*
G01*
X4279263Y1886951D02*
G03*
X4268662Y1891338I-10601J-10613D01*
G01*
X3621184Y1995921D02*
G03*
X3644936Y2018386I1252J22465D01*
G01*
D02*
G03*
X3599971Y2017134I-22500J0D01*
G01*
X3755000Y1865000D02*
G03*
X3744399Y1860613I0J-15000D01*
G01*
X3755000Y1865000D02*
G03*
X3744393Y1860607I0J-15000D01*
G01*
X4236389Y1682227D02*
G03*
X4231543Y1685466I-10601J-10613D01*
G01*
X4236395Y1682221D02*
G03*
X4231543Y1685466I-10607J-10607D01*
G01*
X4189868Y1562446D02*
G03*
X4185481Y1573047I-15000J0D01*
G01*
X4153079Y1605449D02*
G03*
X4142472Y1609842I-10607J-10607D01*
G01*
X4153073Y1605455D02*
G03*
X4142472Y1609842I-10601J-10613D01*
G01*
X4189868Y1562446D02*
G03*
X4185475Y1573053I-15000J0D01*
G01*
X4004882Y1558662D02*
G03*
X3994275Y1554269I0J-15000D01*
G01*
X4004882Y1558662D02*
G03*
X3994281Y1554275I0J-15000D01*
G01*
X4185475Y1510318D02*
G03*
X4189868Y1520924I-10607J10606D01*
G01*
X4185481Y1510324D02*
G03*
X4189868Y1520924I-10613J10600D01*
G01*
X4121294Y1452348D02*
G03*
X4131901Y1456742I0J15000D01*
G01*
X4121294Y1452348D02*
G03*
X4131895Y1456736I0J15000D01*
G01*
X4015705Y1686614D02*
G03*
X4015705Y1656614I-16770J-15000D01*
G01*
X3745405Y1588195D02*
G03*
X3734804Y1592582I-10601J-10613D01*
G01*
X3745411Y1588189D02*
G03*
X3734804Y1592582I-10607J-10607D01*
G01*
X3777861Y1456742D02*
G03*
X3788468Y1452348I10607J10606D01*
G01*
X3777867Y1456736D02*
G03*
X3788468Y1452348I10601J10613D01*
G01*
X3553062Y3346768D02*
G03*
X3542455Y3351161I-10607J-10607D01*
G01*
X3553324Y3287620D02*
G03*
X3542717Y3292013I-10607J-10607D01*
G01*
X3553056Y3346774D02*
G03*
X3542455Y3351161I-10601J-10613D01*
G01*
X3553318Y3287626D02*
G03*
X3542717Y3292013I-10601J-10613D01*
G01*
X3390014D02*
G03*
X3379413Y3287626I0J-15000D01*
G01*
X3390014Y3292013D02*
G03*
X3379407Y3287620I0J-15000D01*
G01*
X3527550Y3251587D02*
G03*
X3516949Y3255974I-10601J-10613D01*
G01*
X3527556Y3251581D02*
G03*
X3516949Y3255974I-10607J-10607D01*
G01*
X3409770D02*
G03*
X3399170Y3251587I0J-15000D01*
G01*
X3409770Y3255974D02*
G03*
X3399164Y3251581I0J-15000D01*
G01*
X3185318Y3351161D02*
G03*
X3185318Y3321161I-16770J-15000D01*
G01*
X3464814Y3019239D02*
G03*
X3425544Y3034239I-22500J0D01*
G01*
Y3004239D02*
G03*
X3464814Y3019239I16770J15000D01*
G01*
X3308040Y3160457D02*
G03*
X3303646Y3149850I10607J-10607D01*
G01*
X3308034Y3160451D02*
G03*
X3303646Y3149850I10613J-10601D01*
G01*
X3269461Y3177674D02*
G03*
X3265068Y3167067I10607J-10607D01*
G01*
X3269455Y3177668D02*
G03*
X3265068Y3167067I10613J-10601D01*
G01*
X3303646Y3062631D02*
G03*
X3308034Y3052031I15000J0D01*
G01*
X3351432Y3008633D02*
G03*
X3362039Y3004239I10607J10607D01*
G01*
X3351438Y3008627D02*
G03*
X3362039Y3004239I10601J10613D01*
G01*
X3303646Y3062631D02*
G03*
X3308040Y3052025I15000J0D01*
G01*
X3265068Y2951728D02*
G03*
X3302568Y2934958I15000J-16770D01*
G01*
D02*
G03*
X3295068Y2951728I-22500J0D01*
G01*
X3324440Y2446843D02*
G03*
X3313840Y2451230I-10601J-10613D01*
G01*
X3324446Y2446837D02*
G03*
X3313840Y2451230I-10607J-10607D01*
G01*
X3433678Y2331392D02*
G03*
X3429285Y2341998I-15000J0D01*
G01*
X3433678Y2331392D02*
G03*
X3429291Y2341992I-15000J0D01*
G01*
X3204000Y3055000D02*
G03*
X3165000Y3094000I-39000J0D01*
G01*
X3115000D02*
G03*
X3076000Y3055000I0J-39000D01*
G01*
X3165000Y2966000D02*
G03*
X3204000Y3005000I0J39000D01*
G01*
X3076000D02*
G03*
X3115000Y2966000I39000J0D01*
G01*
X2849000Y2893426D02*
G03*
X2849000Y2893426I-54000J0D01*
G01*
X2860000Y2724074D02*
G03*
X2822500Y2761574I-37500J0D01*
G01*
X2730000Y2669074D02*
G03*
X2767500Y2631574I37500J0D01*
G01*
X3200000Y2561496D02*
G03*
X3088039Y2591496I-60000J0D01*
G01*
Y2531496D02*
G03*
X3200000Y2561496I51962J30000D01*
G01*
X2908853Y2540295D02*
G03*
X2930078Y2531496I21225J21201D01*
G01*
X2908865Y2540283D02*
G03*
X2930078Y2531496I21213J21213D01*
G01*
X2994984Y2451230D02*
G03*
X2994984Y2421230I-16770J-15000D01*
G01*
X2566873Y3513526D02*
G03*
X2555141Y3517978I-10700J-10512D01*
G01*
X2566900Y3513498D02*
G03*
X2555141Y3517978I-10728J-10484D01*
G01*
X2685376Y3365537D02*
G03*
X2682681Y3374116I-15000J0D01*
G01*
X2685376Y3365537D02*
G03*
X2682658Y3374148I-15000J0D01*
G01*
X2511967Y3515001D02*
G03*
X2502457Y3510707I1032J-14964D01*
G01*
X2511967Y3515001D02*
G03*
X2502446Y3510696I1032J-14964D01*
G01*
X2563879Y3259079D02*
G03*
X2492372Y3292423I-43528J0D01*
G01*
X2680983Y3198320D02*
G03*
X2685376Y3208926I-10607J10607D01*
G01*
X2680989Y3198325D02*
G03*
X2685376Y3208926I-10613J10601D01*
G01*
X2548330Y3225735D02*
G03*
X2563879Y3259079I-27979J33344D01*
G01*
X2492372Y3292423D02*
G03*
X2548330Y3225735I27979J-33344D01*
G01*
X2352295Y3061242D02*
G03*
X2367844Y3094586I-27979J33344D01*
G01*
X2408293Y2931843D02*
G03*
X2418899Y2936236I0J15000D01*
G01*
X2408293Y2931843D02*
G03*
X2418893Y2936230I0J15000D01*
G01*
X2321997Y2961843D02*
G03*
X2311396Y2957455I0J-15000D01*
G01*
X2321997Y2961843D02*
G03*
X2311390Y2957449I0J-15000D01*
G01*
X2367844Y3094586D02*
G03*
X2296337Y3127930I-43528J0D01*
G01*
X2228809Y3265301D02*
G03*
X2185028Y3260583I-18373J-34998D01*
G01*
X2249964Y3230303D02*
G03*
X2248093Y3242319I-39528J0D01*
G01*
X2235844Y3200023D02*
G03*
X2249964Y3230303I-25408J30280D01*
G01*
X2185028Y3260583D02*
G03*
X2173970Y3215050I25408J-30280D01*
G01*
X2195184Y3193837D02*
G03*
X2235844Y3200023I15253J36466D01*
G01*
X2141989Y3183068D02*
G03*
X2138225Y3176747I10613J-10601D01*
G01*
X2141995Y3183074D02*
G03*
X2138225Y3176747I10607J-10607D01*
G01*
X2296337Y3127930D02*
G03*
X2352295Y3061242I27979J-33344D01*
G01*
X2066311Y2935141D02*
G03*
X2065688Y2930862I14377J-4279D01*
G01*
X2066311Y2935141D02*
G03*
X2065688Y2930862I14377J-4279D01*
G01*
X2657787Y2876213D02*
G03*
X2636574Y2885000I-21213J-21213D01*
G01*
X2657799Y2876201D02*
G03*
X2636574Y2885000I-21225J-21201D01*
G01*
X2599764D02*
G03*
X2599764Y2825000I-40000J-30000D01*
G01*
X2387967Y2865613D02*
G03*
X2377366Y2870000I-10601J-10613D01*
G01*
X2387973Y2865607D02*
G03*
X2377366Y2870000I-10607J-10607D01*
G01*
X2329528Y2538206D02*
G03*
X2324232Y2557970I-39528J0D01*
G01*
X2379528Y2451602D02*
G03*
X2379408Y2454670I-39528J0D01*
G01*
X2330904Y2413135D02*
G03*
X2379528Y2451602I9096J38467D01*
G01*
X2416538Y2394295D02*
G03*
X2355768Y2345236I-26538J-29295D01*
G01*
D02*
G03*
X2429528Y2365000I34232J19764D01*
G01*
X2269629Y2915688D02*
G03*
X2265236Y2905082I10607J-10607D01*
G01*
X2330236Y2875000D02*
G03*
X2301347Y2904979I-30000J0D01*
G01*
X2269623Y2915682D02*
G03*
X2265236Y2905082I10613J-10601D01*
G01*
X2300236Y2805000D02*
G03*
X2330236Y2835000I0J30000D01*
G01*
X2260236Y2905000D02*
G03*
X2230236Y2875000I0J-30000D01*
G01*
Y2835000D02*
G03*
X2260236Y2805000I30000J0D01*
G01*
X2324232Y2557970D02*
G03*
X2255768Y2518442I-34232J-19764D01*
G01*
D02*
G03*
X2329528Y2538206I34232J19764D01*
G01*
X2365904Y2481458D02*
G03*
X2305768Y2431838I-25904J-29856D01*
G01*
X2065688Y2520158D02*
G03*
X2067611Y2512809I15000J0D01*
G01*
X2065688Y2520158D02*
G03*
X2067601Y2512829I15000J0D01*
G01*
X2258973Y2364213D02*
G03*
X2258165Y2347970I12185J-8747D01*
G01*
X2258962Y2364199D02*
G03*
X2258165Y2347970I12196J-8733D01*
G01*
X3336124Y2272697D02*
G03*
X3325524Y2277085I-10601J-10613D01*
G01*
X3336131Y2272691D02*
G03*
X3325524Y2277085I-10607J-10607D01*
G01*
X3403678Y2204035D02*
G03*
X3400854Y2207967I-13436J-6668D01*
G01*
X3403678Y2204035D02*
G03*
X3400849Y2207973I-13436J-6668D01*
G01*
X3504393Y2089607D02*
G03*
X3500000Y2079000I10607J-10607D01*
G01*
X3504387Y2089601D02*
G03*
X3500000Y2079000I10613J-10601D01*
G01*
X3294657Y2039597D02*
G03*
X3294657Y2009597I-16770J-15000D01*
G01*
X3374150Y1999378D02*
G03*
X3369763Y2009978I-15000J0D01*
G01*
X3374150Y1999378D02*
G03*
X3369757Y2009984I-15000J0D01*
G01*
X3344531Y2035210D02*
G03*
X3333930Y2039597I-10601J-10613D01*
G01*
X3344537Y2035204D02*
G03*
X3333930Y2039597I-10607J-10607D01*
G01*
X3120963Y2277085D02*
G03*
X3110362Y2272697I0J-15000D01*
G01*
X3120963Y2277085D02*
G03*
X3110356Y2272691I0J-15000D01*
G01*
X3096994Y2259330D02*
G03*
X3118243Y2236865I-1252J-22465D01*
G01*
X3077597Y2169242D02*
G03*
X3066719Y2172309I-9209J-11840D01*
G01*
X3077597Y2169242D02*
G03*
X3066749Y2172312I-9209J-11840D01*
G01*
X3556380Y1973543D02*
G03*
X3551986Y1962936I10607J-10607D01*
G01*
X3556374Y1973537D02*
G03*
X3551986Y1962936I10613J-10601D01*
G01*
X3577599Y1884563D02*
G03*
X3581986Y1895164I-10613J10601D01*
G01*
X3577593Y1884557D02*
G03*
X3581986Y1895164I-10607J10607D01*
G01*
X3540053Y1889443D02*
G03*
X3535659Y1878837I10607J-10607D01*
G01*
X3540047Y1889437D02*
G03*
X3535659Y1878837I10613J-10601D01*
G01*
X3332117Y1907648D02*
G03*
X3339617Y1924418I-15000J16770D01*
G01*
D02*
G03*
X3302117Y1907648I-22500J0D01*
G01*
X3344150Y1807426D02*
G03*
X3344801Y1803058I15000J0D01*
G01*
X3391044Y1714387D02*
G03*
X3401645Y1710000I10601J10613D01*
G01*
X3344150Y1807426D02*
G03*
X3344801Y1803058I15000J0D01*
G01*
X3391038Y1714393D02*
G03*
X3401645Y1710000I10607J10607D01*
G01*
X3302117Y1809528D02*
G03*
X3306511Y1798921I15000J0D01*
G01*
X3302117Y1809528D02*
G03*
X3306505Y1798927I15000J0D01*
G01*
X3576614Y1671614D02*
G03*
X3591614Y1656614I15000J0D01*
G01*
X3576614Y1671614D02*
G03*
X3591614Y1656614I15000J0D01*
G01*
X3540000Y1690004D02*
G03*
X3550269Y1694393I-338J14996D01*
G01*
X3540000Y1690004D02*
G03*
X3550263Y1694387I-338J14996D01*
G01*
X3147754Y1598646D02*
G03*
X3126506Y1576181I-22500J0D01*
G01*
X3015000Y1857360D02*
G03*
X3024248Y1882768I-30280J25408D01*
G01*
X3100852Y1818488D02*
G03*
X3031044Y1843896I-39528J0D01*
G01*
D02*
G03*
X3091604Y1793080I30280J-25408D01*
G01*
X3024248Y1882768D02*
G03*
X2954440Y1908176I-39528J0D01*
G01*
D02*
G03*
X3015000Y1857360I30280J-25408D01*
G01*
X3091604Y1793080D02*
G03*
X3100852Y1818488I-30280J25408D01*
G01*
X3020796Y1774620D02*
G03*
X3013057Y1789809I-21758J-1519D01*
G01*
X2985018Y1756392D02*
G03*
X3001728Y1751456I14020J16708D01*
G01*
X2988711Y1734799D02*
G03*
X2980919Y1751507I-21811J0D01*
G01*
X2952880Y1718091D02*
G03*
X2988711Y1734799I14020J16708D01*
G01*
X2964066Y2161028D02*
G03*
X2955043Y2156696I1608J-14914D01*
G01*
X2964035Y2161024D02*
G03*
X2955021Y2156674I1639J-14910D01*
G01*
X2718794Y2282250D02*
G03*
X2717305Y2288767I-15000J0D01*
G01*
X2718794Y2282250D02*
G03*
X2717305Y2288767I-15000J0D01*
G01*
X2923682Y1983380D02*
G03*
X2877836Y1972454I-15566J-36334D01*
G01*
X2529528Y2191794D02*
G03*
X2524232Y2211558I-39528J0D01*
G01*
X2877836Y1972454D02*
G03*
X2892452Y1910754I30280J-25408D01*
G01*
X2947644Y1947046D02*
G03*
X2944712Y1961985I-39528J0D01*
G01*
X2938396Y1921638D02*
G03*
X2947644Y1947046I-30280J25408D01*
G01*
X2922448Y1910208D02*
G03*
X2938396Y1921638I-14332J36838D01*
G01*
X2825626Y1952304D02*
G03*
X2792443Y1912759I-16591J-19772D01*
G01*
X2688794Y1956598D02*
G03*
X2694080Y1945169I15000J0D01*
G01*
X2688794Y1956598D02*
G03*
X2694080Y1945169I15000J0D01*
G01*
X2644325Y1961380D02*
G03*
X2634603Y1964958I-9723J-11422D01*
G01*
X2644343Y1961366D02*
G03*
X2634603Y1964958I-9740J-11408D01*
G01*
X2492099Y1942463D02*
G03*
X2505092Y1934958I12993J7495D01*
G01*
X2492099Y1942463D02*
G03*
X2505092Y1934958I12993J7495D01*
G01*
X2483528Y2278398D02*
G03*
X2477696Y2300162I-43528J0D01*
G01*
D02*
G03*
X2402304Y2256634I-37696J-21764D01*
G01*
X2524232Y2211558D02*
G03*
X2455768Y2172030I-34232J-19764D01*
G01*
D02*
G03*
X2529528Y2191794I34232J19764D01*
G01*
X2402304Y2256634D02*
G03*
X2483528Y2278398I37696J21764D01*
G01*
X2380812Y1953523D02*
G03*
X2384841Y1948885I13098J7310D01*
G01*
X2380822Y1953504D02*
G03*
X2384856Y1948874I13088J7329D01*
G01*
X2974255Y1822368D02*
G03*
X2944144Y1790690I-18939J-12148D01*
G01*
X2890311Y1793163D02*
G03*
X2894702Y1782263I14997J-293D01*
G01*
X2890311Y1793143D02*
G03*
X2894696Y1782269I14998J-273D01*
G01*
X2937188Y1788201D02*
G03*
X2926316Y1793076I-14020J-16708D01*
G01*
X2956571Y1696495D02*
G03*
X2948779Y1713203I-21811J0D01*
G01*
X2901688Y1775277D02*
G03*
X2909149Y1754785I21480J-3784D01*
G01*
X2911400Y1744568D02*
G03*
X2869691Y1737706I-19602J-11046D01*
G01*
X2878577Y1895837D02*
G03*
X2869356Y1915609I-25811J0D01*
G01*
X2836175Y1876064D02*
G03*
X2878577Y1895837I16591J19772D01*
G01*
X2842992Y1858158D02*
G03*
X2828987Y1878993I-22500J0D01*
G01*
X2803422Y1843499D02*
G03*
X2842992Y1858158I17070J14659D01*
G01*
X2869691Y1737706D02*
G03*
X2877009Y1716481I21338J-4517D01*
G01*
X2822362Y1796838D02*
G03*
X2817969Y1807444I-15000J0D01*
G01*
X2822362Y1796838D02*
G03*
X2817975Y1807438I-15000J0D01*
G01*
X2878914Y1706559D02*
G03*
X2853592Y1716047I-18972J-12097D01*
G01*
X2810298Y1819233D02*
G03*
X2802507Y1835941I-21811J0D01*
G01*
X2809967Y1815446D02*
G03*
X2810298Y1819233I-21480J3786D01*
G01*
X2966222Y1681034D02*
G03*
X2961145Y1692283I-15000J0D01*
G01*
X2966222Y1681034D02*
G03*
X2961145Y1692283I-15000J0D01*
G01*
X2920740Y1679786D02*
G03*
X2935722Y1674705I14020J16708D01*
G01*
X2935929Y1670237D02*
G03*
X2972977Y1653072I14548J-17164D01*
G01*
D02*
G03*
X2965919Y1669437I-22500J0D01*
G01*
X2924431Y1658195D02*
G03*
X2916639Y1674903I-21811J0D01*
G01*
X2888600Y1641486D02*
G03*
X2924431Y1658195I14020J16708D01*
G01*
X2898768Y1563268D02*
G03*
X2908016Y1588676I-30280J25408D01*
G01*
D02*
G03*
X2838208Y1614084I-39528J0D01*
G01*
X2853266Y1552197D02*
G03*
X2898768Y1563268I15222J36479D01*
G01*
X2853592Y1716047D02*
G03*
X2840349Y1683400I5296J-21158D01*
G01*
Y1683400D02*
G03*
X2848679Y1674984I19593J11062D01*
G01*
X2822164Y1627546D02*
G03*
X2831412Y1652954I-30280J25408D01*
G01*
D02*
G03*
X2810709Y1687711I-39528J0D01*
G01*
X2806884Y1616383D02*
G03*
X2822164Y1627546I-15000J36571D01*
G01*
X2839759Y1523277D02*
G03*
X2850360Y1518890I10601J10613D01*
G01*
X2839753Y1523283D02*
G03*
X2850360Y1518890I10607J10607D01*
G01*
X2838208Y1614084D02*
G03*
X2832009Y1573454I30280J-25408D01*
G01*
X2790916Y1910938D02*
G03*
X2774794Y1915939I-14020J-16708D01*
G01*
X2755105Y1893301D02*
G03*
X2762877Y1877521I21791J928D01*
G01*
X2758776Y1872636D02*
G03*
X2742700Y1877641I-14020J-16708D01*
G01*
X2774468Y1802524D02*
G03*
X2785337Y1797650I14020J16708D01*
G01*
X2778159Y1780931D02*
G03*
X2770367Y1797639I-21811J0D01*
G01*
X2722963Y1855045D02*
G03*
X2730737Y1839219I21793J882D01*
G01*
X2726636Y1834333D02*
G03*
X2711837Y1839422I-14020J-16708D01*
G01*
X2690808Y1817974D02*
G03*
X2698597Y1800917I21808J-349D01*
G01*
X2675824Y1871375D02*
G03*
X2665869Y1875154I-9955J-11220D01*
G01*
X2675846Y1871355D02*
G03*
X2665869Y1875154I-9977J-11201D01*
G01*
X2517466Y1848218D02*
G03*
X2526550Y1845154I9084J11937D01*
G01*
X2682204Y1781512D02*
G03*
X2605332Y1809491I-43528J0D01*
G01*
X2517481Y1848206D02*
G03*
X2526550Y1845154I9069J11948D01*
G01*
X2772727Y1766529D02*
G03*
X2778159Y1780931I-16380J14402D01*
G01*
X2735232Y1770177D02*
G03*
X2772727Y1766529I19939J10425D01*
G01*
X2754808Y1717232D02*
G03*
X2685000Y1742640I-39528J0D01*
G01*
X2745560Y1691824D02*
G03*
X2754808Y1717232I-30280J25408D01*
G01*
X2776884Y1592366D02*
G03*
X2781271Y1581765I15000J0D01*
G01*
X2776884Y1592366D02*
G03*
X2781277Y1581759I15000J0D01*
G01*
X2780881Y1690919D02*
G03*
X2761604Y1678362I11002J-37965D01*
G01*
D02*
G03*
X2776884Y1616383I30280J-25408D01*
G01*
X2672020Y1753533D02*
G03*
X2682204Y1781512I-33344J27979D01*
G01*
X2605332Y1809491D02*
G03*
X2672020Y1753533I33344J-27979D01*
G01*
X2685000Y1742640D02*
G03*
X2745560Y1691824I30280J-25408D01*
G01*
X5063565Y3869371D02*
X5108847Y3849126D01*
X5153274Y3825609D01*
X4970990Y3900096D02*
X5017391Y3886434D01*
X5063565Y3869371D01*
X5072420Y3865412D02*
X5637550Y3300282D01*
X5126149Y3839967D02*
X5616654Y3349462D01*
X5153274Y3825609D02*
X5198879Y3797423D01*
X4651065Y3321703D02*
X5154322Y3824961D01*
X4580354Y3392414D02*
X5058998Y3871058D01*
X4594496Y3378272D02*
X5078789Y3862564D01*
X4542902Y3411530D02*
X5017694Y3886323D01*
X4566212Y3406556D02*
X5038346Y3878690D01*
X4622780Y3349987D02*
X5117394Y3844601D01*
X4636922Y3335845D02*
X5135889Y3834811D01*
X4608638Y3364130D02*
X5098334Y3853826D01*
X5469223Y3561736D02*
X5510531Y3515403D01*
X5545012Y3471619D01*
X5353501Y3673881D02*
X5418810Y3612738D01*
X5469223Y3561736D01*
X5597997Y3387586D02*
X5620851Y3340885D01*
X5642727Y3287693D01*
X5545012Y3471619D02*
X5573873Y3429268D01*
X5597997Y3387586D01*
X5302302Y3718916D02*
X5353501Y3673881D01*
X5314483Y3708202D02*
X5522576Y3500109D01*
X5198879Y3797423D02*
X5247248Y3763092D01*
X5302302Y3718916D01*
X4679349Y3293419D02*
X5189284Y3803354D01*
X5193900Y3800501D02*
X5585882Y3408518D01*
X4665207Y3307561D02*
X5171803Y3814157D01*
X4835721Y3919977D02*
X4879728Y3916853D01*
X4924942Y3910242D01*
X4793193Y3919712D02*
X4835721Y3919977D01*
X4752326Y3916180D02*
X4793193Y3919712D01*
X4713225Y3909515D02*
X4752326Y3916180D01*
X4924942Y3910242D02*
X4970990Y3900096D01*
X4649060Y3899143D02*
X4713225Y3909515D01*
X4629245Y3899710D02*
X4649060Y3899143D01*
X4585086Y3915867D02*
X4623060Y3901343D01*
X4629245Y3899710D01*
X4508131Y3931645D02*
X4545290Y3925933D01*
X4585086Y3915867D01*
X4486333Y3411530D02*
X4974010Y3899207D01*
X4514617Y3411530D02*
X4995861Y3892773D01*
X4458049Y3411530D02*
X4951016Y3904497D01*
X4523633Y3363977D02*
X4541186Y3381530D01*
X4540451Y3352511D02*
X4559141Y3371201D01*
X4582877Y3310084D02*
X4601567Y3328774D01*
X4597019Y3295942D02*
X4615709Y3314632D01*
X4554593Y3338369D02*
X4573283Y3357059D01*
X4568735Y3324226D02*
X4587425Y3342916D01*
X4481498Y3381530D02*
X4499025Y3364004D01*
X4495375D02*
X4512902Y3381530D01*
X4453214D02*
X4470740Y3364004D01*
X4467091D02*
X4484617Y3381530D01*
X4509782D02*
X4528427Y3362886D01*
X4849098Y3919027D02*
X5707125Y3061001D01*
X4879544Y3916866D02*
X5698249Y3098161D01*
X4912656Y3912039D02*
X5689101Y3135594D01*
X4947765Y3905213D02*
X5678865Y3174114D01*
X4765918Y3917354D02*
X5726560Y2956713D01*
X4740777Y3914211D02*
X5731638Y2923350D01*
X4819963Y3919879D02*
X5714291Y3025551D01*
X4791952Y3919605D02*
X5721456Y2990101D01*
X4564110Y3921173D02*
X5738302Y2746981D01*
X4605513Y3908055D02*
X5739162Y2774405D01*
X4716612Y3910092D02*
X5734762Y2891943D01*
X4692289Y3906131D02*
X5737764Y2860656D01*
X4496305Y3932409D02*
X5733770Y2694944D01*
X4528482Y3928517D02*
X5736126Y2720872D01*
X4466066Y3934363D02*
X5730697Y2669733D01*
X4985414Y3895849D02*
X5667454Y3213809D01*
X5026467Y3883081D02*
X5653632Y3255915D01*
X4926112Y2889643D02*
X5528744Y3492276D01*
X4926112Y2861359D02*
X5541206Y3476452D01*
X4926112Y2776506D02*
X5575706Y3426100D01*
X4926112Y2663369D02*
X5615192Y3352449D01*
X4926112Y2833075D02*
X5552974Y3459936D01*
X4926112Y2804790D02*
X5564437Y3443115D01*
X4667941Y3902195D02*
X5738897Y2831238D01*
X4642522Y3899330D02*
X5739904Y2801948D01*
X4926112Y2748222D02*
X5586075Y3408185D01*
X4926112Y2719937D02*
X5596444Y3390269D01*
X4926112Y2635084D02*
X5624075Y3333047D01*
X4926112Y2606800D02*
X5632317Y3313005D01*
X4926112Y2691653D02*
X5605899Y3371440D01*
X4820770Y3151997D02*
X5347730Y3678957D01*
X4834913Y3137855D02*
X5362507Y3665450D01*
X4792486Y3180282D02*
X5317634Y3705430D01*
X4806628Y3166139D02*
X5332682Y3692193D01*
X4877339Y3095429D02*
X5406331Y3624421D01*
X4891481Y3081287D02*
X5420859Y3610665D01*
X4849055Y3123713D02*
X5377115Y3651773D01*
X4863197Y3109571D02*
X5391723Y3638097D01*
X4721775Y3250992D02*
X5239427Y3768644D01*
X4735917Y3236850D02*
X5255521Y3756454D01*
X4693491Y3279277D02*
X5206341Y3792127D01*
X4707633Y3265135D02*
X5222884Y3780385D01*
X4764202Y3208566D02*
X5286906Y3731270D01*
X4778344Y3194424D02*
X5302586Y3718666D01*
X4750060Y3222708D02*
X5271213Y3743862D01*
X4919765Y3053002D02*
X5448980Y3582216D01*
X4926112Y3031065D02*
X5463039Y3567992D01*
X4905623Y3067144D02*
X5434919Y3596441D01*
X4565637Y3407131D02*
X4921713Y3051055D01*
X4926112Y2946212D02*
X5503354Y3523454D01*
X4926112Y2917927D02*
X5516283Y3508099D01*
X4926112Y3002780D02*
X5476691Y3553360D01*
X4926112Y2974496D02*
X5490023Y3538407D01*
X4538066Y3381530D02*
X4896112Y3023485D01*
X4548811Y3381530D02*
X4896112Y3034229D01*
X4533357Y3359604D02*
X4869835Y3023126D01*
X4445486Y3285830D02*
X4493659Y3334004D01*
X4500740D02*
X4844235Y2990509D01*
X4472456Y3334004D02*
X4844235Y2962225D01*
X4516531Y3334004D02*
X4844235Y3006300D01*
X4373196Y3411530D02*
X4878599Y3916933D01*
X4401480Y3411530D02*
X4903349Y3913399D01*
X4364604Y3935362D02*
X4408510Y3938083D01*
X4508131Y3931645D01*
X4316627Y3411530D02*
X4825007Y3919910D01*
X4344912Y3411530D02*
X4852189Y3918808D01*
X4288343Y3411530D02*
X4796546Y3919733D01*
X4260059Y3411530D02*
X4765880Y3917351D01*
X3855860Y4092022D02*
X4536351Y3411530D01*
X3858738Y4004290D02*
X4451498Y3411530D01*
X3844556Y3990188D02*
X4423214Y3411530D01*
X3826099Y3980360D02*
X4394929Y3411530D01*
X3872795Y4046802D02*
X4508066Y3411530D01*
X4231774D02*
X4733156Y3912912D01*
X3868658Y4022655D02*
X4479782Y3411530D01*
X4429765D02*
X4927838Y3909604D01*
X4438806Y3364004D02*
X4456333Y3381530D01*
X4410522Y3364004D02*
X4428049Y3381530D01*
X4424929D02*
X4442456Y3364004D01*
X4396645Y3381530D02*
X4414172Y3364004D01*
X4387603Y3334004D02*
X4413028Y3308579D01*
X4368361Y3381530D02*
X4385887Y3364004D01*
X4382238D02*
X4399765Y3381530D01*
X4203490Y3411530D02*
X4699209Y3907249D01*
X4175206Y3411530D02*
X4665471Y3901796D01*
X4169934Y3411530D02*
X4555024D01*
X4176147Y3381530D02*
X4548811D01*
X4204801Y3364004D02*
X4522745D01*
X4211014Y3334004D02*
X4516531D01*
X4353953Y3364004D02*
X4371480Y3381530D01*
X4323854Y3929337D02*
X4364604Y3935362D01*
X4275376Y3918476D02*
X4323854Y3929337D01*
X4251279Y3911814D02*
X4275376Y3918476D01*
X4232831Y3905749D02*
X4251279Y3911814D01*
X4200713Y3894576D02*
X4232831Y3905749D01*
X4197358Y3894750D02*
X4200713Y3894576D01*
X4191984Y3896087D02*
X4197358Y3894750D01*
X3593265Y4071773D02*
X4253508Y3411530D01*
X3801801Y3976375D02*
X4366645Y3411530D01*
X3625656Y3982813D02*
X4196939Y3411530D01*
X4142491Y3912243D02*
X4191984Y3896087D01*
X3612470Y4024284D02*
X4225224Y3411530D01*
X3636300Y3943885D02*
X4168705Y3411480D01*
X4269101Y3364004D02*
X4286627Y3381530D01*
X4283508D02*
X4301034Y3364004D01*
X4240816D02*
X4258343Y3381530D01*
X4255224D02*
X4272750Y3364004D01*
X4325669D02*
X4343196Y3381530D01*
X4340076D02*
X4357603Y3364004D01*
X4297385D02*
X4314912Y3381530D01*
X4311792D02*
X4329319Y3364004D01*
X4212532D02*
X4230059Y3381530D01*
X4226939D02*
X4244466Y3364004D01*
X4198655Y3381530D02*
X4216182Y3364004D01*
X4173259Y3378642D02*
X4193243Y3358658D01*
X4159117Y3364500D02*
X4179100Y3344516D01*
X4405938Y3937924D02*
X5723154Y2620707D01*
X4435828Y3936318D02*
X5726926Y2645220D01*
X4379304Y3936273D02*
X5719383Y2596194D01*
X4353563Y3933729D02*
X5715611Y2571681D01*
X4328922Y3930086D02*
X5711840Y2547169D01*
X4305499Y3925225D02*
X5708068Y2522656D01*
X4282392Y3920048D02*
X5704297Y2498143D01*
X4114671Y3918063D02*
X5675843Y2356891D01*
X3732758Y3167072D02*
X4497986Y3932300D01*
X3746900Y3152930D02*
X4523285Y3929316D01*
X3704473Y3195356D02*
X4444851Y3935735D01*
X3718615Y3181214D02*
X4471419Y3934017D01*
X3761042Y3138788D02*
X4547602Y3925348D01*
X3775184Y3124646D02*
X4570176Y3919638D01*
X3761042Y3138788D02*
X4547602Y3925348D01*
X4437322Y3305951D02*
X4465375Y3334004D01*
X4387568Y3199628D02*
X4519238Y3331298D01*
X4409326Y3306239D02*
X4437091Y3334004D01*
X4259945Y3914210D02*
X5700525Y2473630D01*
X4415887Y3334004D02*
X4844235Y2905656D01*
X4444172Y3334004D02*
X4844235Y2933941D01*
X4401710Y3185486D02*
X4533380Y3317155D01*
X4238318Y3907553D02*
X5696148Y2449724D01*
X3802429Y3067038D02*
X4634938Y3899547D01*
X3789326Y3110503D02*
X4592033Y3913210D01*
X3801972Y3094865D02*
X4612492Y3905385D01*
X4217256Y3900331D02*
X5691523Y2426064D01*
X4193623Y3895679D02*
X5686898Y2402405D01*
X4151821Y3909197D02*
X5681479Y2379539D01*
X4359319Y3334004D02*
X4389842Y3303481D01*
X4378284D02*
X4408806Y3334004D01*
X4302750D02*
X4333273Y3303481D01*
X4321715D02*
X4352238Y3334004D01*
X3690331Y3209499D02*
X4418284Y3937452D01*
X3935189Y3114945D02*
X4201774Y3381530D01*
X3935189Y3140572D02*
X4176147Y3381530D01*
X3955743Y3121159D02*
X4194189Y3359604D01*
X3633762Y3266067D02*
X4289289Y3921593D01*
X3619620Y3280209D02*
X4251198Y3911787D01*
X3591336Y3308494D02*
X4182142Y3899300D01*
X3605478Y3294351D02*
X4208365Y3897238D01*
X3676189Y3223641D02*
X4389450Y3936902D01*
X3662047Y3237783D02*
X4358762Y3934498D01*
X3647905Y3251925D02*
X4325571Y3929591D01*
X4265146Y3303481D02*
X4295669Y3334004D01*
X4274466D02*
X4304989Y3303481D01*
X4236862D02*
X4267385Y3334004D01*
X4246182D02*
X4276704Y3303481D01*
X4331034Y3334004D02*
X4361557Y3303481D01*
X4349999D02*
X4380522Y3334004D01*
X4293431Y3303481D02*
X4323953Y3334004D01*
X4217897D02*
X4248420Y3303481D01*
X4202325D02*
X4406372D01*
X4208578D02*
X4239101Y3334004D01*
X4200314Y3323303D02*
X4220136Y3303481D01*
X3981344Y3104333D02*
X4211014Y3334004D01*
X4186172Y3309161D02*
X4194226Y3301106D01*
X5664210Y3225092D02*
X5684348Y3155042D01*
X5706140Y3065875D01*
X5642727Y3287693D02*
X5664210Y3225092D01*
X4823294Y3069668D02*
X4841984Y3088358D01*
X5706140Y3065875D02*
X5721545Y2989663D01*
X4837436Y3055526D02*
X4856126Y3074215D01*
X4851578Y3041383D02*
X4870268Y3060073D01*
X4766725Y3126236D02*
X4785415Y3144926D01*
X4780867Y3112094D02*
X4799557Y3130784D01*
X4738441Y3154521D02*
X4757131Y3173211D01*
X4752583Y3140378D02*
X4771273Y3159068D01*
X4443241Y3278366D02*
X4844235Y2877372D01*
X4809151Y3083810D02*
X4827842Y3102500D01*
X4795009Y3097952D02*
X4813699Y3116642D01*
X4874235Y3007472D02*
X4896112Y3029349D01*
X4874235Y2979187D02*
X4896112Y3001065D01*
X4874235Y2988794D02*
X4896112Y2966916D01*
X5721545Y2989663D02*
X5731936Y2921395D01*
X4874235Y2932225D02*
X4896112Y2910347D01*
X4874235Y2894334D02*
X4896112Y2916212D01*
X4874235Y2903941D02*
X4896112Y2882063D01*
X4865720Y3027241D02*
X4884410Y3045931D01*
X4873117Y3018196D02*
X4896112Y2995200D01*
X4874235Y2960509D02*
X4896112Y2938632D01*
X4874235Y2922619D02*
X4896112Y2944496D01*
X4874235Y2950903D02*
X4896112Y2972780D01*
X4639446Y3253516D02*
X4658136Y3272206D01*
X4653588Y3239374D02*
X4672278Y3258063D01*
X4611161Y3281800D02*
X4629851Y3300490D01*
X4625304Y3267658D02*
X4643993Y3286348D01*
X4444137Y3143059D02*
X4575806Y3274729D01*
X4458279Y3128917D02*
X4589948Y3260587D01*
X4415852Y3171344D02*
X4547522Y3303013D01*
X4429995Y3157202D02*
X4561664Y3288871D01*
X4327646Y3252844D02*
X4348284Y3273481D01*
X4359284Y3227912D02*
X4404852Y3273481D01*
X4373426Y3213770D02*
X4425793Y3266137D01*
X4345142Y3242055D02*
X4376568Y3273481D01*
X4696014Y3196947D02*
X4714704Y3215637D01*
X4710157Y3182805D02*
X4728846Y3201495D01*
X4667730Y3225231D02*
X4686420Y3243921D01*
X4681872Y3211089D02*
X4700562Y3229779D01*
X4724299Y3168663D02*
X4742989Y3187353D01*
X4558909Y3031558D02*
X4688943Y3161592D01*
X4547929Y3048862D02*
X4674801Y3175734D01*
X4500705Y3086491D02*
X4632375Y3218160D01*
X4514847Y3072349D02*
X4646517Y3204018D01*
X4472421Y3114775D02*
X4604090Y3246445D01*
X4486563Y3100633D02*
X4618233Y3232302D01*
X4528990Y3058207D02*
X4660659Y3189876D01*
X4338752Y3248444D02*
X4535254Y3051942D01*
X5731936Y2921395D02*
X5737954Y2858668D01*
X5739968Y2800083D01*
X4926112Y2578516D02*
X5640560Y3292963D01*
X4926112Y2550231D02*
X5648053Y3272173D01*
X4926112Y2465379D02*
X5669037Y3208303D01*
X4926112Y2437094D02*
X5675352Y3186334D01*
X4926112Y2521947D02*
X5655280Y3251115D01*
X4926112Y2493663D02*
X5662506Y3230057D01*
X4874235Y2837766D02*
X4896112Y2859643D01*
X4874235Y2847372D02*
X4896112Y2825495D01*
X4874235Y2866050D02*
X4896112Y2887927D01*
X4874235Y2875656D02*
X4896112Y2853779D01*
X4926112Y2380526D02*
X5687545Y3141959D01*
X4926112Y2352241D02*
X5693100Y3119229D01*
X4926112Y2408810D02*
X5681667Y3164365D01*
X4874235Y2809481D02*
X4896112Y2831359D01*
X5738198Y2743672D02*
X5739968Y2800083D01*
X4874235Y2790803D02*
X4896112Y2768926D01*
X4874235Y2762519D02*
X4896112Y2740642D01*
X5732607Y2682143D02*
X5738198Y2743672D01*
X5699432Y2466527D02*
X5732607Y2682143D01*
X4874235Y2724628D02*
X4896112Y2746506D01*
X5685901Y2397308D02*
X5699432Y2466527D01*
X4874235Y2696344D02*
X4896112Y2718222D01*
X4874235Y2705950D02*
X4896112Y2684073D01*
X4874235Y2752913D02*
X4896112Y2774790D01*
X4874235Y2734235D02*
X4896112Y2712357D01*
X4874235Y2677666D02*
X4896112Y2655789D01*
X4874235Y2639776D02*
X4896112Y2661653D01*
X4874235Y2668060D02*
X4896112Y2689937D01*
X4874235Y2649382D02*
X4896112Y2627505D01*
X4874235Y2611491D02*
X4896112Y2633369D01*
X4874235Y2819088D02*
X4896112Y2797210D01*
X4874235Y2781197D02*
X4896112Y2803075D01*
X4874235Y2554923D02*
X4896112Y2576800D01*
X4874235Y2564529D02*
X4896112Y2542652D01*
X4874235Y2621098D02*
X4896112Y2599220D01*
X4874235Y2583207D02*
X4896112Y2605084D01*
X4363273Y3273481D02*
X4844235Y2792519D01*
X4334989Y3273481D02*
X4844235Y2764235D01*
X4391557Y3273481D02*
X4844235Y2820803D01*
X4427007Y3266315D02*
X4844235Y2849088D01*
X4543732Y3008169D02*
X4844235Y2707666D01*
X4874235Y2592813D02*
X4896112Y2570936D01*
X4557844Y3022341D02*
X4844235Y2735950D01*
X4874235Y2423108D02*
X4896112Y2401230D01*
X4874235Y2385217D02*
X4896112Y2407094D01*
X4874235Y2451392D02*
X4896112Y2429514D01*
X4874235Y2413501D02*
X4896112Y2435379D01*
X4874235Y2356933D02*
X4896112Y2378810D01*
X4874235Y2366539D02*
X4896112Y2344662D01*
X4874235Y2394823D02*
X4896112Y2372946D01*
X4874235Y2498354D02*
X4896112Y2520231D01*
X4874235Y2507960D02*
X4896112Y2486083D01*
X4874235Y2526638D02*
X4896112Y2548516D01*
X4874235Y2536245D02*
X4896112Y2514367D01*
X4874235Y2479676D02*
X4896112Y2457799D01*
X4874235Y2441785D02*
X4896112Y2463663D01*
X4874235Y2470070D02*
X4896112Y2491947D01*
X4208538Y3273481D02*
X4406372D01*
X4321926Y3222844D02*
X4514041Y3030729D01*
X4306704Y3273481D02*
X4327342Y3252844D01*
X4213763Y3222844D02*
X4321926D01*
X4244204D02*
X4844235Y2622813D01*
X4215920Y3222844D02*
X4844235Y2594529D01*
X4300773Y3222844D02*
X4844235Y2679382D01*
X4272489Y3222844D02*
X4844235Y2651098D01*
X4048043Y2916672D02*
X4338071Y3206699D01*
X4110995Y2923055D02*
X4366355Y3178415D01*
X4207550Y3252844D02*
X4328140D01*
X4048043Y2944956D02*
X4323928Y3220841D01*
X4119764Y2903540D02*
X4380497Y3164273D01*
X4082958Y2838450D02*
X4394639Y3150131D01*
X4048043Y2888388D02*
X4352213Y3192557D01*
X4209621Y2653985D02*
X4703085Y3147450D01*
X4195479Y2668127D02*
X4534425Y3007074D01*
X4167194Y2696411D02*
X4507776Y3036993D01*
X4181336Y2682269D02*
X4517121Y3018054D01*
X4252047Y2611558D02*
X4745512Y3105023D01*
X4264865Y2596091D02*
X4759654Y3090881D01*
X4223763Y2639843D02*
X4717228Y3133307D01*
X4237905Y2625700D02*
X4731370Y3119165D01*
X4096484Y2767122D02*
X4437066Y3107704D01*
X4110626Y2752980D02*
X4451208Y3093562D01*
X4082958Y2810165D02*
X4408781Y3135988D01*
X4082958Y2781881D02*
X4422923Y3121846D01*
X4138910Y2724695D02*
X4479492Y3065278D01*
X4153052Y2710553D02*
X4493634Y3051136D01*
X4124768Y2738838D02*
X4465350Y3079420D01*
X4221851Y3273481D02*
X4242489Y3252844D01*
X4242793D02*
X4263431Y3273481D01*
X4214509Y3252844D02*
X4235146Y3273481D01*
X4201053Y3265995D02*
X4214204Y3252844D01*
X4278420Y3273481D02*
X4299057Y3252844D01*
X4299362D02*
X4319999Y3273481D01*
X4250136D02*
X4270773Y3252844D01*
X4271078D02*
X4291715Y3273481D01*
X4172029Y3295019D02*
X4179840Y3287209D01*
X4013494Y3078436D02*
X4208538Y3273481D01*
X4186911Y3251853D02*
X4193628Y3245135D01*
X3987893Y3095262D02*
X4191712Y3299081D01*
X4182397Y2626762D02*
X4188408Y2632772D01*
X4196539Y2612619D02*
X4202550Y2618629D01*
X4172769Y3237711D02*
X4179486Y3230993D01*
X4168255Y2640904D02*
X4174265Y2646914D01*
X4210682Y2598477D02*
X4216692Y2604487D01*
X4172580Y2588660D02*
X4175326Y2591406D01*
X4048043Y3029809D02*
X4241078Y3222844D01*
X4048043Y3001525D02*
X4269362Y3222844D01*
X4022443Y3073949D02*
X4196938Y3248444D01*
X4048043Y3057124D02*
X4213763Y3222844D01*
X4048043Y2973240D02*
X4297646Y3222844D01*
X4082958Y2780647D02*
X4261051Y2602555D01*
X4057358Y2763822D02*
X4235450Y2585729D01*
X4200700Y3209780D02*
X4844235Y2566245D01*
X4265450Y2511824D02*
X4802081Y3048454D01*
X4265450Y2568392D02*
X4773796Y3076739D01*
X4265450Y2540108D02*
X4787938Y3062597D01*
X4265450Y2426971D02*
X4844235Y3005756D01*
X4265450Y2398687D02*
X4844235Y2977472D01*
X4265450Y2483540D02*
X4816223Y3034312D01*
X4265450Y2455255D02*
X4830365Y3020170D01*
X4158273Y3167353D02*
X4844235Y2481392D01*
X4144131Y3153211D02*
X4844235Y2453108D01*
X4186557Y3195638D02*
X4844235Y2537960D01*
X4172415Y3181496D02*
X4844235Y2509676D01*
X4115847Y3124927D02*
X4844235Y2396539D01*
X4101704Y3110785D02*
X4844235Y2368255D01*
X4129989Y3139069D02*
X4844235Y2424823D01*
X4277989Y2382941D02*
X4844235Y2949187D01*
X4265450Y2395480D02*
Y2591942D01*
X4230430Y2561657D02*
X4235450Y2566677D01*
X4230430Y2557798D02*
X4235450Y2552779D01*
X4292131Y2368799D02*
X4844235Y2920903D01*
X4306273Y2354657D02*
X4844235Y2892619D01*
X4230430Y2505089D02*
X4235450Y2510108D01*
X4230430Y2501230D02*
X4235450Y2496210D01*
X4048043Y2768470D02*
X4235450Y2581063D01*
X4230430Y2533373D02*
X4235450Y2538392D01*
X4230430Y2472945D02*
X4235450Y2467926D01*
X4230430Y2388225D02*
X4238654Y2380001D01*
X4230430Y2476804D02*
X4235450Y2481824D01*
X4224824Y2584335D02*
X4230834Y2590345D01*
X4230430Y2529514D02*
X4235450Y2524494D01*
Y2389267D02*
Y2585729D01*
X4230430Y2388225D02*
Y2572515D01*
X4200430Y2382012D02*
Y2566302D01*
X4198641Y2370734D02*
Y2556386D01*
X4048043Y2761116D02*
X4226031Y2583128D01*
X4022443Y2744290D02*
X4200430Y2566302D01*
X4013494Y2747746D02*
X4194241Y2566999D01*
X4186722Y2574518D02*
X4189468Y2577264D01*
X4197249Y2562695D02*
X4200430Y2559514D01*
X4230430Y2420236D02*
X4235450Y2425255D01*
X4230430Y2416377D02*
X4235450Y2411357D01*
X4230430Y2448520D02*
X4235450Y2453540D01*
X4230430Y2444661D02*
X4235450Y2439642D01*
X4230430Y2391951D02*
X4235450Y2396971D01*
X4218069Y2351306D02*
X4221496Y2354733D01*
X4203927Y2365448D02*
X4207354Y2368875D01*
X4156212Y2374302D02*
X4168641Y2386730D01*
X4156212Y2377457D02*
X4168641Y2365029D01*
X4164025Y2353831D02*
X4169556Y2359361D01*
X4144975Y3350358D02*
X4164958Y3330374D01*
X4130832Y3336216D02*
X4150816Y3316232D01*
X4114230Y3918155D02*
X4142491Y3912243D01*
X4116690Y3322073D02*
X4136674Y3302090D01*
X4157887Y3280876D02*
X4165697Y3273066D01*
X4143745Y3266734D02*
X4151555Y3258924D01*
X4102548Y3307931D02*
X4122532Y3287948D01*
X4129603Y3252592D02*
X4137413Y3244782D01*
X4086578Y3921695D02*
X4114230Y3918155D01*
X4088406Y3293789D02*
X4108390Y3273805D01*
X4055711Y3922259D02*
X4062118Y3921802D01*
X4086578Y3921695D01*
X3909588Y3157398D02*
X4159321Y3407131D01*
X4074264Y3279647D02*
X4094248Y3259663D01*
X4060122Y3265505D02*
X4080105Y3245521D01*
X4158626Y3223569D02*
X4165344Y3216851D01*
X4144484Y3209427D02*
X4151202Y3202709D01*
X4115461Y3238450D02*
X4123271Y3230640D01*
X4101319Y3224308D02*
X4109129Y3216498D01*
X4130342Y3195285D02*
X4137060Y3188567D01*
X4116200Y3181142D02*
X4122918Y3174425D01*
X4102058Y3167000D02*
X4108776Y3160282D01*
X4087916Y3152858D02*
X4094633Y3146140D01*
X4087177Y3210166D02*
X4094987Y3202356D01*
X4073034Y3196024D02*
X4080845Y3188213D01*
X4045979Y3251363D02*
X4065963Y3231379D01*
X4058892Y3181881D02*
X4066702Y3174071D01*
X4073773Y3138716D02*
X4080491Y3131998D01*
X4059631Y3124574D02*
X4066349Y3117856D01*
X4044750Y3167739D02*
X4052560Y3159929D01*
X4044807Y3930846D02*
X4047158Y3927549D01*
X4049595Y3925070D01*
X3984272Y4040041D02*
X4013646Y3993795D01*
X4044807Y3930846D01*
X4031837Y3237221D02*
X4051821Y3217237D01*
X4017695Y3223078D02*
X4037679Y3203095D01*
X4003553Y3208936D02*
X4023537Y3188952D01*
X3989411Y3194794D02*
X4009395Y3174810D01*
X3965946Y4070370D02*
X3984272Y4040041D01*
X3975269Y3180652D02*
X3995253Y3160668D01*
X3918562Y4146328D02*
X3942740Y4111702D01*
X3965946Y4070370D01*
X3961127Y3166510D02*
X3981110Y3146526D01*
X4030608Y3153597D02*
X4038418Y3145787D01*
X4045489Y3110432D02*
X4052207Y3103714D01*
X4016466Y3139455D02*
X4024276Y3131645D01*
X4002324Y3125313D02*
X4010134Y3117503D01*
X3988181Y3111171D02*
X3995992Y3103360D01*
X4031347Y3096289D02*
X4038065Y3089572D01*
X3946985Y3152368D02*
X3966968Y3132384D01*
X3935189Y3135883D02*
X3953235Y3117837D01*
X3935189Y3107598D02*
X3951344Y3091444D01*
X3981344Y3089728D02*
X3983736Y3087335D01*
X3935189Y3086660D02*
X3951344Y3102815D01*
X4017205Y3082147D02*
X4023923Y3075429D01*
X4013494Y3057578D02*
X4018043Y3053028D01*
X4048043Y2761116D02*
Y3057124D01*
X4013494Y3051828D02*
X4018043Y3056378D01*
X4013494Y2747746D02*
Y3078436D01*
X4018043Y2754902D02*
Y3063337D01*
X4013494Y3001009D02*
X4018043Y2996460D01*
X4013494Y2995260D02*
X4018043Y2999809D01*
X4013494Y3029294D02*
X4018043Y3024744D01*
X4013494Y3023544D02*
X4018043Y3028093D01*
X3981344Y2976591D02*
X3983494Y2974441D01*
X4013494Y2972725D02*
X4018043Y2968175D01*
X3981344Y2991394D02*
X3983494Y2993544D01*
X4048043Y2966460D02*
X4088585Y2925918D01*
X4048043Y2938175D02*
X4075512Y2910706D01*
X4048043Y2909891D02*
X4064430Y2893504D01*
X4057358Y2886431D02*
X4074860Y2903933D01*
X4013494Y2938691D02*
X4018043Y2943240D01*
X4013494Y2916156D02*
X4018043Y2911607D01*
X4013494Y2966975D02*
X4018043Y2971525D01*
X4013494Y2944441D02*
X4018043Y2939891D01*
X4013494Y2887872D02*
X4018043Y2883323D01*
X4013494Y2882122D02*
X4018043Y2886672D01*
X4013494Y2910407D02*
X4018043Y2914956D01*
X3981344Y3047962D02*
X3983494Y3050112D01*
X3981344Y3033159D02*
X3983494Y3031009D01*
X3981344Y3076247D02*
X3983494Y3078397D01*
X3981344Y3061444D02*
X3983494Y3059294D01*
Y2741533D02*
Y3084649D01*
X3981344Y3019678D02*
X3983494Y3021828D01*
X3951344Y2726364D02*
Y3110546D01*
X3981344Y2732578D02*
Y3104333D01*
X3935189Y3051030D02*
X3951344Y3034875D01*
X3935189Y3030092D02*
X3951344Y3046247D01*
X3935189Y3079314D02*
X3951344Y3063159D01*
X3935189Y3058376D02*
X3951344Y3074531D01*
X3935189Y3022745D02*
X3951344Y3006591D01*
X3935189Y3001808D02*
X3951344Y3017962D01*
X3935189Y2498828D02*
Y3140572D01*
X3981344Y3004875D02*
X3983494Y3002725D01*
X3981344Y2963110D02*
X3983494Y2965260D01*
X3935189Y2966177D02*
X3951344Y2950022D01*
X3981344Y2948306D02*
X3983494Y2946156D01*
X3981344Y2906541D02*
X3983494Y2908691D01*
X3981344Y2891738D02*
X3983494Y2889588D01*
X3981344Y2934825D02*
X3983494Y2936975D01*
X3981344Y2920022D02*
X3983494Y2917872D01*
X3935189Y2945239D02*
X3951344Y2961394D01*
X3935189Y2937893D02*
X3951344Y2921738D01*
X3935189Y2994461D02*
X3951344Y2978306D01*
X3935189Y2973523D02*
X3951344Y2989678D01*
X3935189Y2909608D02*
X3951344Y2893454D01*
X3935189Y2888670D02*
X3951344Y2904825D01*
X3935189Y2916955D02*
X3951344Y2933110D01*
X3798854Y4278670D02*
X3839847Y4237889D01*
X3884065Y4189041D01*
X3724960Y4338332D02*
X3761144Y4311440D01*
X3798854Y4278670D01*
X3718849Y4342169D02*
X3927524Y4133494D01*
X3884065Y4189041D02*
X3918562Y4146328D01*
X3767270Y4106683D02*
X3867704Y4207116D01*
X3805198Y4116326D02*
X3881142Y4192270D01*
X3649870Y4382864D02*
X3971414Y4061320D01*
X3609329Y4033594D02*
X3826702Y4250967D01*
X3592488Y4073322D02*
X3798309Y4279143D01*
X3601801Y4054351D02*
X3812523Y4265072D01*
X3591410Y4413040D02*
X4016579Y3987871D01*
X3623113Y3990810D02*
X3854265Y4221961D01*
X3616290Y4012271D02*
X3840826Y4236807D01*
X3860180Y4086456D02*
X3919175Y4145450D01*
X3869525Y4067516D02*
X3930805Y4128796D01*
X3828596Y4111440D02*
X3893954Y4176797D01*
X3846494Y4101053D02*
X3906591Y4161150D01*
X3872683Y4042390D02*
X3942434Y4112141D01*
X3745741Y3095203D02*
X3753971Y3103432D01*
X3633069Y3918832D02*
X4152046Y3399855D01*
X3609022Y3914594D02*
X4137904Y3385713D01*
X3629937Y3969349D02*
X3742481Y4081893D01*
X3582398Y3912934D02*
X4123761Y3371571D01*
X3731599Y3109345D02*
X3739829Y3117575D01*
X3731599Y3109345D02*
X3739829Y3117575D01*
X3683242Y4364526D02*
X3724960Y4338332D01*
X3635631Y3946759D02*
X3732838Y4043965D01*
X3631369Y4393031D02*
X3683242Y4364526D01*
X3631549Y3964281D02*
X3637408Y3939127D01*
X3637873Y3931118D01*
X3637332Y3926370D02*
X3637873Y3931118D01*
X3636373Y3923270D02*
X3637332Y3926370D01*
X3625291Y3915787D02*
X3628563Y3916528D01*
X3610800Y4029537D02*
X3631549Y3964281D01*
X3619809Y3915267D02*
X3625291Y3915787D01*
X3591657Y4074978D02*
X3601260Y4055844D01*
X3610800Y4029537D01*
X3604320Y3236624D02*
X3612549Y3244854D01*
X3618462Y3222482D02*
X3626691Y3230712D01*
X3590177Y3250766D02*
X3598407Y3258996D01*
X3689172Y3151771D02*
X3697402Y3160001D01*
X3703315Y3137629D02*
X3711544Y3145859D01*
X3660888Y3180056D02*
X3669118Y3188285D01*
X3675030Y3165914D02*
X3683260Y3174143D01*
X3717457Y3123487D02*
X3725686Y3131717D01*
X3686553Y3092583D02*
X3696244Y3102274D01*
X3658269Y3120868D02*
X3667959Y3130558D01*
X3672411Y3106726D02*
X3682101Y3116416D01*
X3632604Y3208340D02*
X3640834Y3216570D01*
X3646746Y3194198D02*
X3654976Y3202427D01*
X3587558Y3191579D02*
X3597249Y3201269D01*
X3601700Y3177436D02*
X3611391Y3187127D01*
X3629985Y3149152D02*
X3639675Y3158842D01*
X3644127Y3135010D02*
X3653817Y3144700D01*
X3615842Y3163294D02*
X3625533Y3172985D01*
X3802429Y3070652D02*
X3905189Y2967893D01*
X3802429Y2953901D02*
X3905189Y3056660D01*
X3802429Y3010470D02*
X3905189Y3113229D01*
X3802429Y2982185D02*
X3905189Y3084945D01*
X3802429Y2925617D02*
X3905189Y3028376D01*
X3802429Y3014084D02*
X3905189Y2911324D01*
Y2492615D02*
Y3146785D01*
X3802429Y2351430D02*
Y3091187D01*
Y3038754D02*
X3905189Y3141513D01*
X3762340Y3055233D02*
X3772429Y3065323D01*
X3762340Y3054173D02*
X3772429Y3044084D01*
X3762340Y3026948D02*
X3772429Y3037038D01*
X3802429Y3042368D02*
X3905189Y2939608D01*
X3762340Y3025889D02*
X3772429Y3015799D01*
Y2357643D02*
Y3084974D01*
X3802429Y2869048D02*
X3905189Y2971808D01*
X3802429Y2957515D02*
X3905189Y2854755D01*
X3802429Y2897332D02*
X3905189Y3000092D01*
X3802429Y2985799D02*
X3905189Y2883040D01*
X3802429Y2812479D02*
X3905189Y2915239D01*
X3802429Y2784195D02*
X3905189Y2886955D01*
X3802429Y2840764D02*
X3905189Y2943523D01*
X3802429Y2929231D02*
X3905189Y2826471D01*
X3762340Y2970380D02*
X3772429Y2980470D01*
X3762340Y2969320D02*
X3772429Y2959231D01*
X3762340Y2998664D02*
X3772429Y3008754D01*
X3762340Y2997605D02*
X3772429Y2987515D01*
X3762340Y2913811D02*
X3772429Y2923901D01*
X3802429Y2900946D02*
X3905189Y2798187D01*
X3762340Y2942096D02*
X3772429Y2952185D01*
X3759705Y3080882D02*
X3768113Y3089290D01*
X3722008Y3037936D02*
X3732340Y3027605D01*
X3762340Y2362320D02*
Y3072391D01*
X3722008Y3014901D02*
X3732340Y3025233D01*
Y2368534D02*
Y3066178D01*
X3722008Y2369656D02*
Y3050916D01*
X3714837Y3064299D02*
X3724528Y3073990D01*
X3700695Y3078441D02*
X3710386Y3088132D01*
X3700695Y3078441D02*
X3710386Y3088132D01*
X3722008Y3043185D02*
X3732340Y3053517D01*
X3692008Y2375869D02*
Y3044702D01*
X3722008Y2953084D02*
X3732340Y2942752D01*
X3762340Y2941036D02*
X3772429Y2930946D01*
X3722008Y3009652D02*
X3732340Y2999320D01*
X3722008Y2958332D02*
X3732340Y2968664D01*
X3762340Y2885527D02*
X3772429Y2895617D01*
X3762340Y2884467D02*
X3772429Y2874378D01*
X3762340Y2912752D02*
X3772429Y2902662D01*
X3722008Y2930048D02*
X3732340Y2940380D01*
X3722008Y2924799D02*
X3732340Y2914467D01*
X3722008Y2986617D02*
X3732340Y2996948D01*
X3722008Y2981368D02*
X3732340Y2971036D01*
X3722008Y2896515D02*
X3732340Y2886183D01*
X3722008Y2873479D02*
X3732340Y2883811D01*
X3722008Y2901764D02*
X3732340Y2912096D01*
X4082958Y2866734D02*
X4098969Y2882745D01*
X4082958Y2869605D02*
X4096073Y2882720D01*
X4048043Y2881607D02*
X4052982Y2876668D01*
X4048043Y2860103D02*
X4052958Y2865018D01*
X4082958Y2780647D02*
Y2869605D01*
X4048043Y2853323D02*
X4052958Y2848408D01*
Y2774434D02*
Y2875818D01*
X4048043Y2803535D02*
X4052958Y2808450D01*
X4013494Y2859588D02*
X4018043Y2855038D01*
X4048043Y2831819D02*
X4052958Y2836734D01*
X4013494Y2853838D02*
X4018043Y2858388D01*
X4013494Y2825554D02*
X4018043Y2830103D01*
X4048043Y2825038D02*
X4052958Y2820123D01*
X4048043Y2796754D02*
X4052958Y2791839D01*
X4013494Y2803019D02*
X4018043Y2798470D01*
X4055118Y2754041D02*
X4061128Y2760051D01*
X4069260Y2739899D02*
X4075270Y2745909D01*
X4097544Y2711614D02*
X4103555Y2717624D01*
X4111687Y2697472D02*
X4117697Y2703482D01*
X4083402Y2725756D02*
X4089412Y2731767D01*
X4059443Y2701797D02*
X4062189Y2704543D01*
X4048043Y2775250D02*
X4052958Y2780165D01*
X4017017Y2744224D02*
X4020105Y2747312D01*
X4031159Y2730081D02*
X4033905Y2732828D01*
X4045301Y2715939D02*
X4048047Y2718686D01*
X4021641Y2692280D02*
X4024088Y2694726D01*
X3981344Y2849972D02*
X3983494Y2852122D01*
X3981344Y2835169D02*
X3983494Y2833019D01*
X3981344Y2878257D02*
X3983494Y2880407D01*
X3981344Y2863454D02*
X3983494Y2861303D01*
X4013494Y2831303D02*
X4018043Y2826754D01*
X4013494Y2797269D02*
X4018043Y2801819D01*
X3981344Y2821688D02*
X3983494Y2823838D01*
X3981344Y2806885D02*
X3983494Y2804735D01*
X3935189Y2853040D02*
X3951344Y2836885D01*
X3935189Y2803818D02*
X3951344Y2819972D01*
X3935189Y2881324D02*
X3951344Y2865169D01*
X3935189Y2860386D02*
X3951344Y2876541D01*
X3935189Y2796471D02*
X3951344Y2780316D01*
X3981344Y2793404D02*
X3983494Y2795554D01*
X3935189Y2775533D02*
X3951344Y2791688D01*
X4013494Y2774735D02*
X4018043Y2770185D01*
X4013494Y2768985D02*
X4018043Y2773535D01*
X3981344Y2765119D02*
X3983494Y2767269D01*
X3981344Y2750316D02*
X3983494Y2748166D01*
X3993357Y2720564D02*
X3995803Y2723010D01*
X4007499Y2706422D02*
X4009945Y2708868D01*
X3981344Y2778601D02*
X3983494Y2776451D01*
X3981344Y2736835D02*
X3983681Y2739172D01*
X3935189Y2739903D02*
X3951627Y2723465D01*
X3935189Y2718965D02*
X3951344Y2735119D01*
X3935189Y2690680D02*
X3958002Y2713493D01*
X4154113Y2655046D02*
X4160123Y2661056D01*
X4158438Y2602802D02*
X4161184Y2605548D01*
X4144296Y2616944D02*
X4147042Y2619690D01*
X4148921Y2565001D02*
X4151367Y2567447D01*
X4156212Y2544008D02*
X4165509Y2553305D01*
X4156212Y2361644D02*
Y2551496D01*
X4139971Y2669188D02*
X4145981Y2675198D01*
X4134779Y2579143D02*
X4137225Y2581589D01*
X4125829Y2683330D02*
X4131839Y2689340D01*
X4130154Y2631086D02*
X4132900Y2633833D01*
X3981344Y2732578D02*
X4151813Y2562108D01*
X3987893Y2730921D02*
X4168641Y2550173D01*
X3955743Y2715752D02*
X4126212Y2545282D01*
X4156212Y2518879D02*
X4168641Y2506451D01*
X4156212Y2487439D02*
X4168641Y2499867D01*
X4156212Y2547163D02*
X4168641Y2534735D01*
X4156212Y2515724D02*
X4168641Y2528152D01*
Y2364521D02*
Y2550173D01*
X4156212Y2402586D02*
X4168641Y2415015D01*
X4156212Y2490595D02*
X4168641Y2478166D01*
X4156212Y2459155D02*
X4168641Y2471583D01*
X4156212Y2434026D02*
X4168641Y2421598D01*
X4156212Y2405742D02*
X4168641Y2393314D01*
X4156212Y2462310D02*
X4168641Y2449882D01*
X4156212Y2430871D02*
X4168641Y2443299D01*
X3935189Y2541912D02*
X4127315Y2349786D01*
X4087727Y2673513D02*
X4090473Y2676259D01*
X4101869Y2659371D02*
X4104616Y2662117D01*
X4073585Y2687655D02*
X4076331Y2690401D01*
X4049926Y2663996D02*
X4052372Y2666442D01*
X4116011Y2645229D02*
X4118758Y2647975D01*
X4092352Y2621569D02*
X4094798Y2624015D01*
X4064068Y2649853D02*
X4066514Y2652300D01*
X4078210Y2635711D02*
X4080656Y2638157D01*
X4035784Y2678138D02*
X4038230Y2680584D01*
X3935189Y2605827D02*
X4000428Y2671067D01*
X3935189Y2662396D02*
X3972144Y2699351D01*
X3935189Y2634112D02*
X3986286Y2685209D01*
X3935189Y2711618D02*
X4126212Y2520595D01*
X3935189Y2683334D02*
X4126212Y2492310D01*
X3938258Y2495759D02*
X4056997Y2614498D01*
X4037253Y2396764D02*
X4126212Y2485724D01*
X4051395Y2382622D02*
X4126212Y2457439D01*
X4106494Y2607427D02*
X4108940Y2609873D01*
X4120636Y2593285D02*
X4123083Y2595731D01*
X4126212Y2355431D02*
Y2545282D01*
X4079679Y2354338D02*
X4126212Y2400871D01*
X4065537Y2368480D02*
X4126212Y2429155D01*
X3980684Y2453333D02*
X4099423Y2572072D01*
X3994827Y2439191D02*
X4113565Y2557930D01*
X3952400Y2481617D02*
X4071139Y2600356D01*
X3966542Y2467475D02*
X4085281Y2586214D01*
X3935189Y2570197D02*
X4126212Y2379173D01*
X4023111Y2410906D02*
X4126212Y2514008D01*
X4008969Y2425048D02*
X4126212Y2542292D01*
X3935189Y2832102D02*
X3951344Y2848257D01*
X3935189Y2824755D02*
X3951344Y2808601D01*
X3802429Y2872662D02*
X3905189Y2769903D01*
X3802429Y2755911D02*
X3905189Y2858670D01*
X3802429Y2699342D02*
X3905189Y2802102D01*
X3802429Y2787809D02*
X3905189Y2685050D01*
X3802429Y2844378D02*
X3905189Y2741618D01*
X3802429Y2727627D02*
X3905189Y2830386D01*
X3762340Y2828958D02*
X3772429Y2839048D01*
X3762340Y2827899D02*
X3772429Y2817809D01*
X3762340Y2857243D02*
X3772429Y2867332D01*
X3762340Y2856183D02*
X3772429Y2846093D01*
X3802429Y2816093D02*
X3905189Y2713334D01*
X3762340Y2799615D02*
X3772429Y2789525D01*
X3762340Y2800674D02*
X3772429Y2810764D01*
X3935189Y2768187D02*
X3951344Y2752032D01*
X3935189Y2747249D02*
X3951344Y2763404D01*
X3802429Y2671058D02*
X3905189Y2773818D01*
X3802429Y2759525D02*
X3905189Y2656765D01*
X3802429Y2702956D02*
X3905189Y2600197D01*
X3935189Y2577543D02*
X4014570Y2656925D01*
X3802429Y2642774D02*
X3905189Y2745533D01*
X3802429Y2614489D02*
X3905189Y2717249D01*
X3762340Y2744106D02*
X3772429Y2754195D01*
X3762340Y2743046D02*
X3772429Y2732956D01*
X3762340Y2772390D02*
X3772429Y2782479D01*
X3762340Y2771330D02*
X3772429Y2761240D01*
X3802429Y2731240D02*
X3905189Y2628481D01*
X3802429Y2586205D02*
X3905189Y2688965D01*
X3762340Y2715821D02*
X3772429Y2725911D01*
X3722008Y2839946D02*
X3732340Y2829615D01*
X3722008Y2816911D02*
X3732340Y2827243D01*
X3722008Y2868231D02*
X3732340Y2857899D01*
X3722008Y2845195D02*
X3732340Y2855527D01*
X3762340Y2714762D02*
X3772429Y2704672D01*
X3762340Y2687537D02*
X3772429Y2697627D01*
X3722008Y2811662D02*
X3732340Y2801330D01*
X3722008Y2788626D02*
X3732340Y2798958D01*
X3722008Y2755093D02*
X3732340Y2744762D01*
X3722008Y2732058D02*
X3732340Y2742390D01*
X3722008Y2783378D02*
X3732340Y2773046D01*
X3722008Y2760342D02*
X3732340Y2770674D01*
X3722008Y2703774D02*
X3732340Y2714106D01*
X3722008Y2698525D02*
X3732340Y2688193D01*
X3722008Y2726809D02*
X3732340Y2716477D01*
X3762340Y2686477D02*
X3772429Y2676388D01*
X3762340Y2659253D02*
X3772429Y2669342D01*
X3722008Y2670241D02*
X3732340Y2659909D01*
X3762340Y2658193D02*
X3772429Y2648103D01*
X3762340Y2602684D02*
X3772429Y2612774D01*
X3762340Y2601624D02*
X3772429Y2591535D01*
X3762340Y2630968D02*
X3772429Y2641058D01*
X3762340Y2629909D02*
X3772429Y2619819D01*
X3722008Y2641956D02*
X3732340Y2631624D01*
X3722008Y2618921D02*
X3732340Y2629253D01*
X3722008Y2675489D02*
X3732340Y2685821D01*
X3722008Y2647205D02*
X3732340Y2657537D01*
X3722008Y2590636D02*
X3732340Y2600968D01*
X3722008Y2585388D02*
X3732340Y2575056D01*
X3722008Y2613672D02*
X3732340Y2603340D01*
X3935189Y2549259D02*
X4028713Y2642782D01*
X3935189Y2520974D02*
X4042855Y2628640D01*
X3802429Y2674672D02*
X3905189Y2571912D01*
X3802429Y2646388D02*
X3905189Y2543628D01*
X3935189Y2626765D02*
X4126212Y2435742D01*
X3935189Y2598481D02*
X4126212Y2407457D01*
X3935189Y2655050D02*
X4126212Y2464026D01*
X3802429Y2473068D02*
X3905189Y2575827D01*
X3802429Y2557921D02*
X3905189Y2660680D01*
X3802429Y2529637D02*
X3905189Y2632396D01*
X3762340Y2574400D02*
X3772429Y2584489D01*
X3762340Y2573340D02*
X3772429Y2563250D01*
X3802429Y2501352D02*
X3905189Y2604112D01*
X3802429Y2589819D02*
X3907291Y2484958D01*
X3802429Y2618103D02*
X3905189Y2515344D01*
X3802429Y2444784D02*
X3905189Y2547543D01*
X3802429Y2416499D02*
X3905189Y2519259D01*
X3802429Y2388215D02*
X3905270Y2491056D01*
X3802429Y2359931D02*
X3917045Y2474546D01*
X3762340Y2517831D02*
X3772429Y2527921D01*
X3762340Y2516771D02*
X3772429Y2506682D01*
X3762340Y2546115D02*
X3772429Y2556205D01*
X3762340Y2545056D02*
X3772429Y2534966D01*
X3762340Y2488487D02*
X3772429Y2478398D01*
X3762340Y2461262D02*
X3772429Y2471352D01*
X3762340Y2489547D02*
X3772429Y2499637D01*
X3722008Y2528819D02*
X3732340Y2518487D01*
X3722008Y2505784D02*
X3732340Y2516115D01*
X3722008Y2562352D02*
X3732340Y2572684D01*
X3722008Y2557103D02*
X3732340Y2546771D01*
X3762340Y2432978D02*
X3772429Y2443068D01*
X3762340Y2431919D02*
X3772429Y2421829D01*
X3722008Y2500535D02*
X3732340Y2490203D01*
X3762340Y2460203D02*
X3772429Y2450113D01*
X3722008Y2472251D02*
X3732340Y2461919D01*
X3722008Y2449215D02*
X3732340Y2459547D01*
X3722008Y2534068D02*
X3732340Y2544400D01*
X3722008Y2477499D02*
X3732340Y2487831D01*
X3722008Y2420931D02*
X3732340Y2431262D01*
X3722008Y2415682D02*
X3732340Y2405350D01*
X3722008Y2443966D02*
X3732340Y2433634D01*
X3762340Y2376410D02*
X3772429Y2386499D01*
X3762340Y2375350D02*
X3772429Y2365260D01*
X3762340Y2404694D02*
X3772429Y2414784D01*
X3762340Y2403634D02*
X3772429Y2393545D01*
X3757819Y2351586D02*
X3762096Y2347309D01*
X3722008Y2392646D02*
X3732340Y2402978D01*
X3722008Y2387398D02*
X3732340Y2377066D01*
X3720243Y2362597D02*
X3732340Y2374694D01*
X3719606Y2361515D02*
X3722464Y2358657D01*
X3705701Y2347136D02*
X3708322Y2344515D01*
X4926112Y2295673D02*
X5704210Y3073771D01*
X4926112Y2267389D02*
X5709243Y3050520D01*
X4926112Y2323957D02*
X5698655Y3096500D01*
X4926112Y3021769D02*
X5656241Y2291640D01*
X4926112Y2239104D02*
X5713999Y3026992D01*
X4926112Y2210820D02*
X5718755Y3003463D01*
X4926112Y2175197D02*
Y3040442D01*
Y2908632D02*
X5622127Y2212617D01*
X4926112Y2993485D02*
X5648179Y2271418D01*
X4926112Y2965200D02*
X5640078Y2251235D01*
X4926112Y2936916D02*
X5631318Y2231710D01*
X4926112Y2880347D02*
X5612936Y2193524D01*
X4926112Y2182536D02*
X5723090Y2979513D01*
X4926112Y2852063D02*
X5603180Y2174996D01*
X4896112Y2181410D02*
Y3034229D01*
X5671739Y2340398D02*
X5685901Y2397308D01*
X5656033Y2290987D02*
X5671739Y2340398D01*
X4874235Y2338255D02*
X4896112Y2316377D01*
X4874235Y2300364D02*
X4896112Y2322241D01*
X5636866Y2243235D02*
X5656033Y2290987D01*
X5610427Y2188313D02*
X5636866Y2243235D01*
X4874235Y2225117D02*
X4896112Y2203240D01*
X4874235Y2187227D02*
X4896112Y2209104D01*
X4874235Y2272080D02*
X4896112Y2293957D01*
X4874235Y2281686D02*
X4896112Y2259809D01*
X4874235Y2328648D02*
X4896112Y2350526D01*
X4874235Y2309970D02*
X4896112Y2288093D01*
X4874235Y2253402D02*
X4896112Y2231524D01*
X4874235Y2215511D02*
X4896112Y2237389D01*
X4874235Y2243795D02*
X4896112Y2265673D01*
X4799308Y2310290D02*
X4844235Y2355217D01*
X4813560Y2296258D02*
X4844235Y2326933D01*
X4827702Y2282116D02*
X4844235Y2298648D01*
X4874235Y2175263D02*
Y3012514D01*
X4844235Y2181476D02*
Y3006300D01*
X4800946Y2308872D02*
X4835361Y2274457D01*
X4745721Y2313272D02*
X4844235Y2411785D01*
X4774005Y2313272D02*
X4844235Y2383501D01*
X4717436Y2313272D02*
X4844235Y2440070D01*
X4759516Y2283272D02*
X4796481Y2246306D01*
X4784120Y2283272D02*
X4809760Y2257631D01*
X4731231Y2283272D02*
X4778907Y2235596D01*
X4839760Y2231311D02*
X4844235Y2226837D01*
X4839760Y2209321D02*
X4844235Y2213795D01*
X4839760Y2259592D02*
X4844235Y2255117D01*
X4839760Y2237605D02*
X4844235Y2242080D01*
X4874235Y2196837D02*
X4892887Y2178185D01*
X4839760Y2181037D02*
X4844235Y2185511D01*
X4839760Y2177001D02*
Y2263845D01*
Y2177001D02*
X4844235Y2181476D01*
X4839637Y2265766D02*
X4844235Y2270364D01*
X4790696Y2245110D02*
X4806489Y2260903D01*
X4809760Y2243112D02*
Y2257631D01*
X4839760Y2203027D02*
X4844235Y2198553D01*
X4783107Y2198983D02*
Y2207095D01*
X4926112Y2795495D02*
X5583243Y2138363D01*
X4926112Y2767210D02*
X5573275Y2120047D01*
X4926112Y2738926D02*
X5563307Y2101731D01*
X4926112Y2710642D02*
X5553339Y2083415D01*
X4926112Y2682357D02*
X5543020Y2065450D01*
X4926112Y2654073D02*
X5532677Y2047508D01*
X4926112Y2625789D02*
X5522334Y2029566D01*
X4926112Y2597505D02*
X5511638Y2011979D01*
X4814935Y2014790D02*
X5730563Y2930418D01*
X4814935Y1986506D02*
X5733502Y2905073D01*
X4814935Y2043074D02*
X5726826Y2954965D01*
X4926112Y2823779D02*
X5593211Y2156680D01*
X4814935Y1929937D02*
X5738144Y2853146D01*
X4814935Y1901653D02*
X5739084Y2825802D01*
X4814935Y1958222D02*
X5735978Y2879265D01*
X5552707Y2082254D02*
X5610427Y2188313D01*
X5517084Y2020458D02*
X5552707Y2082254D01*
X4926112Y2540936D02*
X5489515Y1977534D01*
X4926112Y2484367D02*
X5465722Y1944757D01*
X4965449Y1543049D02*
X5610086Y2187687D01*
X5046762Y1596078D02*
X5576313Y2125629D01*
X4926112Y2456083D02*
X5453322Y1928873D01*
X4926112Y2427799D02*
X5440184Y1913727D01*
X4857965Y1492134D02*
X5655507Y2289676D01*
X4907951Y1513836D02*
X5636417Y2242302D01*
X4926112Y2569220D02*
X5500576Y1994756D01*
X4926112Y2512652D02*
X5477742Y1961021D01*
X4737421Y1456442D02*
X5687751Y2406773D01*
X4773210Y1463947D02*
X5679053Y2369791D01*
X4813281Y1475734D02*
X5668847Y2331301D01*
X4926112Y2399514D02*
X5426857Y1898770D01*
X4926112Y2371230D02*
X5412503Y1884839D01*
X4926112Y2342946D02*
X5397933Y1871125D01*
X4926112Y2314662D02*
X5382403Y1858371D01*
X4926112Y2286377D02*
X5366806Y1845684D01*
X4926112Y2258093D02*
X5349994Y1834211D01*
X4926112Y2229809D02*
X5333183Y1822738D01*
X4926112Y2201524D02*
X5316372Y1811265D01*
X4789335Y2074633D02*
X4896112Y2181410D01*
X4925998Y2173354D02*
X5299560Y1799792D01*
X4873143Y2169644D02*
X4878744Y2164043D01*
X4914100Y2156972D02*
X5282751Y1788320D01*
X4899958Y2142830D02*
X5265940Y1776847D01*
X4859844Y2154659D02*
X4864602Y2149901D01*
X4845702Y2140517D02*
X4850460Y2135759D01*
X4885815Y2128688D02*
X5249223Y1765280D01*
X4871673Y2114545D02*
X5232771Y1753447D01*
X4857531Y2100403D02*
X5216320Y1741614D01*
X4843389Y2086261D02*
X5201134Y1728516D01*
X4831560Y2126375D02*
X4836318Y2121616D01*
X4817418Y2112233D02*
X4822176Y2107474D01*
X4803275Y2098090D02*
X4808034Y2093332D01*
X4789133Y2083948D02*
X4793892Y2079190D01*
X4773553Y2068367D02*
X4869835Y2164650D01*
X4814935Y2057807D02*
X4921713Y2164585D01*
X4334557Y2326373D02*
X4844235Y2836050D01*
X4348700Y2312231D02*
X4844235Y2807766D01*
X4087562Y3096643D02*
X4844235Y2339970D01*
X4320415Y2340515D02*
X4844235Y2864334D01*
X4391126Y2269804D02*
X4844235Y2722913D01*
X4405268Y2255662D02*
X4844235Y2694628D01*
X4362842Y2298088D02*
X4844235Y2779481D01*
X4376984Y2283946D02*
X4844235Y2751197D01*
X4082738Y3921712D02*
X5669885Y2334565D01*
X4048043Y3051309D02*
X4786081Y2313272D01*
X4048043Y3023028D02*
X4757800Y2313272D01*
X4048043Y2994744D02*
X4729516Y2313272D01*
X4053205Y3922961D02*
X5663063Y2313102D01*
X4073420Y3082501D02*
X4844235Y2311686D01*
X4059278Y3068358D02*
X4844235Y2283402D01*
X4659774Y2312178D02*
X4844235Y2496638D01*
X4689152Y2313272D02*
X4844235Y2468354D01*
X4665397Y2313272D02*
X4790333D01*
X4671610Y2283272D02*
X4784120D01*
X4674663D02*
X4771029Y2186905D01*
X4702947Y2283272D02*
X4783107Y2203112D01*
X4658994Y2270656D02*
X4756887Y2172763D01*
X4644852Y2256514D02*
X4742745Y2158621D01*
X4447695Y2213235D02*
X4844235Y2609776D01*
X4461837Y2199093D02*
X4844235Y2581491D01*
X4419410Y2241520D02*
X4844235Y2666344D01*
X4433552Y2227378D02*
X4844235Y2638060D01*
X4475979Y2184951D02*
X4844235Y2553207D01*
X4490121Y2170809D02*
X4844235Y2524923D01*
X4630710Y2242372D02*
X4728603Y2144479D01*
X4265450Y2579347D02*
X4595355Y2249443D01*
X4265450Y2551063D02*
X4581213Y2235300D01*
X4265450Y2522779D02*
X4567070Y2221158D01*
X4550597Y2204685D02*
X4654784Y2308872D01*
X4265450Y2466210D02*
X4533483Y2198177D01*
X4265450Y2437926D02*
X4527870Y2175505D01*
X4118058Y2896445D02*
X4701231Y2313272D01*
X4102846Y2883373D02*
X4672947Y2313272D01*
X4085644Y2872291D02*
X4651923Y2306011D01*
X4082958Y2846692D02*
X4637781Y2291869D01*
X4082958Y2818408D02*
X4623639Y2277727D01*
X4082958Y2790123D02*
X4609497Y2263585D01*
X4265450Y2494494D02*
X4552928Y2207016D01*
X4571810Y2183472D02*
X4671610Y2283272D01*
X4504263Y2156667D02*
X4527020Y2179423D01*
X4401917Y2167458D02*
X4405344Y2170885D01*
X4616568Y2228229D02*
X4714461Y2130337D01*
X4518405Y2142525D02*
X4538427Y2162546D01*
X4416059Y2153316D02*
X4419486Y2156743D01*
X4430201Y2139174D02*
X4433628Y2142601D01*
X4373633Y2195742D02*
X4377060Y2199169D01*
X4387775Y2181600D02*
X4391202Y2185027D01*
X4345348Y2224026D02*
X4348775Y2227453D01*
X4359490Y2209884D02*
X4362917Y2213311D01*
X4362016Y2155841D02*
X4366562Y2160387D01*
X4376158Y2141699D02*
X4380704Y2146245D01*
X4347873Y2169983D02*
X4352419Y2174529D01*
X4623858Y1456017D02*
X5711263Y2543422D01*
X4571836Y2111102D02*
X4744005Y2283272D01*
X4532547Y2128383D02*
X4687436Y2283272D01*
X4546690Y2114240D02*
X4715721Y2283272D01*
X4575945Y1436388D02*
X5716407Y2576850D01*
X4650727Y1454601D02*
X5706120Y2509995D01*
X4677595Y1453185D02*
X5700977Y2476568D01*
X4705733Y1453039D02*
X5694624Y2441930D01*
X4421861Y1395442D02*
X5735010Y2708591D01*
X4456957Y1402253D02*
X5731836Y2677132D01*
X4494338Y1411350D02*
X5726693Y2643705D01*
X4532093Y1420821D02*
X5721550Y2610277D01*
X4326514Y1384947D02*
X5739913Y2798347D01*
X4356555Y1386704D02*
X5738997Y2769146D01*
X4388587Y1390452D02*
X5737837Y2739702D01*
X4675341Y2091218D02*
X4783107Y2198983D01*
X4708102Y2081223D02*
X4809760Y2182880D01*
X4700942Y2074392D02*
X4808708Y2182157D01*
X4670942Y1898581D02*
Y2080605D01*
X4598690Y2109672D02*
X4772289Y2283272D01*
X4613458Y2096156D02*
X4792347Y2275045D01*
X4602426Y2214087D02*
X4700318Y2116195D01*
X4588284Y2199945D02*
X4686176Y2102052D01*
X4627600Y2082014D02*
X4776863Y2231276D01*
X4641742Y2067871D02*
X4782013Y2208142D01*
X4574141Y2185803D02*
X4672561Y2087383D01*
X4265450Y2395480D02*
X4549828Y2111102D01*
X4542631Y2160745D02*
X4592273Y2111102D01*
X4390300Y2127556D02*
X4394846Y2132102D01*
X4444343Y2125031D02*
X4447770Y2128458D01*
X4265450Y2409642D02*
X4563989Y2111102D01*
X4565302Y2166358D02*
X4670942Y2060718D01*
X4204830Y2371399D02*
X4518504Y2057725D01*
X4275695Y2041236D02*
X4354944Y2120485D01*
X4198641Y2370734D02*
X4516470Y2052905D01*
X4173040Y2353909D02*
X4499644Y2027305D01*
X4156212Y2361644D02*
X4499527Y2018329D01*
X4130612Y2344818D02*
X4478314Y1997116D01*
X3935189Y2513628D02*
X4560163Y1888654D01*
X4192990Y2227543D02*
X4546021Y1874512D01*
X4192990Y2199258D02*
X4520248Y1872000D01*
X4458486Y2110889D02*
X4461913Y2114316D01*
X4549828Y2111102D02*
X4592298D01*
X4602910Y2106703D02*
X4663197Y2046417D01*
X4486770Y2082605D02*
X4490197Y2086032D01*
X4472628Y2096747D02*
X4476055Y2100174D01*
X4432726Y2085130D02*
X4437272Y2089676D01*
X4446868Y2070988D02*
X4451414Y2075534D01*
X4404442Y2113414D02*
X4408988Y2117960D01*
X4418584Y2099272D02*
X4423130Y2103818D01*
X4332263Y2041236D02*
X4383229Y2092201D01*
X4351193Y2031881D02*
X4397371Y2078059D01*
X4303979Y2041236D02*
X4369087Y2106343D01*
X4773553Y2058260D02*
X4787139Y2071846D01*
X4774991Y2069806D02*
X4784935Y2059862D01*
X4773553Y2042960D02*
X4784935Y2031578D01*
X5486650Y1973074D02*
X5517084Y2020458D01*
X4773553Y2001692D02*
X4784935Y2013074D01*
X4773553Y2029976D02*
X4784935Y2041359D01*
X4773553Y2014676D02*
X4784935Y2003293D01*
X4733703Y2054526D02*
X4743553Y2044676D01*
X4733703Y2018411D02*
X4743553Y2028260D01*
X4733703Y2064397D02*
X4743553Y2074246D01*
X4733703Y2046695D02*
X4743553Y2056545D01*
Y1897976D02*
Y2074246D01*
X4733703Y1990127D02*
X4743553Y1999976D01*
X4733703Y2026241D02*
X4743553Y2016392D01*
X4773553Y1958107D02*
X4784935Y1946725D01*
X4773553Y1945123D02*
X4784935Y1956506D01*
X4773553Y1986392D02*
X4784935Y1975009D01*
X4773553Y1973408D02*
X4784935Y1984790D01*
X5457782Y1934015D02*
X5486650Y1973074D01*
X5429088Y1900934D02*
X5457782Y1934015D01*
X4773553Y1929823D02*
X4784935Y1918440D01*
X4773553Y1916839D02*
X4784935Y1928222D01*
X4733703Y1969673D02*
X4743553Y1959823D01*
X4733703Y1933558D02*
X4743553Y1943408D01*
X4733703Y1997957D02*
X4743553Y1988107D01*
X4733703Y1961842D02*
X4743553Y1971692D01*
X4733703Y1905274D02*
X4743553Y1915123D01*
X4733703Y1913104D02*
X4743553Y1903255D01*
X4733703Y1941388D02*
X4743553Y1931539D01*
X4700942Y2070503D02*
X4703995Y2073556D01*
X4700942Y2059002D02*
X4703703Y2056241D01*
X4700942Y2042218D02*
X4703703Y2044979D01*
X4700942Y2030718D02*
X4703703Y2027957D01*
X4700942Y2013934D02*
X4703703Y2016695D01*
X4700942Y2002434D02*
X4703703Y1999673D01*
Y1896915D02*
Y2070610D01*
X4667596Y2008872D02*
X4670942Y2012218D01*
X4655884Y2053729D02*
X4670942Y2068787D01*
X4667540Y2037101D02*
X4670942Y2040503D01*
X4667596Y2035780D02*
X4670942Y2032434D01*
X4667596Y2007495D02*
X4670942Y2004149D01*
X4667596Y1895438D02*
Y2035804D01*
X4700942Y1957366D02*
X4703703Y1960127D01*
X4700942Y1945865D02*
X4703703Y1943104D01*
X4700942Y1985650D02*
X4703703Y1988411D01*
X4700942Y1974149D02*
X4703703Y1971388D01*
X4700942Y1929081D02*
X4703703Y1931842D01*
X4700942Y1917581D02*
X4703703Y1914820D01*
X4700942Y1900797D02*
X4703703Y1903558D01*
X4667596Y1895735D02*
X4670942Y1899081D01*
X4667596Y1952304D02*
X4670942Y1955650D01*
X4667596Y1950927D02*
X4670942Y1947581D01*
X4667596Y1980588D02*
X4670942Y1983934D01*
X4667596Y1979211D02*
X4670942Y1975865D01*
X4667596Y1922642D02*
X4670942Y1919296D01*
X4667595Y1895234D02*
X4670942Y1898581D01*
X4667596Y1924020D02*
X4670942Y1927366D01*
X5323128Y1815876D02*
X5498004Y1990752D01*
X5400789Y1873471D02*
X5429088Y1900934D01*
X5367685Y1846284D02*
X5400789Y1873471D01*
X5253518Y1768370D02*
X5367685Y1846284D01*
X4829247Y2072119D02*
X5186008Y1715358D01*
X5231504Y1752536D02*
X5541117Y2062149D01*
X4815105Y2057977D02*
X5170881Y1702200D01*
X4814935Y2001578D02*
X5140628Y1675884D01*
X4814935Y2029862D02*
X5155755Y1689042D01*
X4814935Y1973293D02*
X5125538Y1662690D01*
X4814935Y1945009D02*
X5110551Y1649393D01*
X4814935Y1916725D02*
X5095564Y1636096D01*
X4814935Y1888440D02*
X5080576Y1622799D01*
X4807146Y1867946D02*
X5064786Y1610306D01*
X4793004Y1853803D02*
X5048979Y1597828D01*
X5215580Y1741083D02*
X5253518Y1768370D01*
X5129460Y1666169D02*
X5215580Y1741083D01*
X5080288Y1622543D02*
X5129460Y1666169D01*
X5037356Y1588653D02*
X5080288Y1622543D01*
X4778861Y1839661D02*
X5032902Y1585621D01*
X4999032Y1562569D02*
X5037356Y1588653D01*
X4956294Y1537728D02*
X4999032Y1562569D01*
X4900690Y1510247D02*
X4956294Y1537728D01*
X4764719Y1825519D02*
X5016072Y1574167D01*
X4750577Y1811377D02*
X4999242Y1562712D01*
X4736435Y1797235D02*
X4981368Y1552302D01*
X4722293Y1783093D02*
X4963480Y1541905D01*
X4708151Y1768951D02*
X4944970Y1532131D01*
X4694009Y1754809D02*
X4926041Y1522776D01*
X4679866Y1740666D02*
X4907112Y1513421D01*
X4784935Y1888162D02*
Y2064021D01*
X4773099Y1888101D02*
X4784935Y1899937D01*
X4773553Y1891763D02*
Y2068367D01*
Y1901539D02*
X4784935Y1890156D01*
X4814935Y1881948D02*
Y2057807D01*
X4733703Y1890702D02*
Y2064397D01*
X4733430Y1887854D02*
X4743553Y1897976D01*
X4700942Y1894154D02*
Y2074392D01*
Y1894154D02*
X4703703Y1896915D01*
X4663600Y1724399D02*
X4810536Y1871336D01*
X4767405Y1879402D02*
X4771790Y1875017D01*
X4753263Y1865260D02*
X4757648Y1860875D01*
X4848156Y1487976D02*
X4900690Y1510247D01*
X4739121Y1851118D02*
X4743506Y1846732D01*
X4724978Y1836976D02*
X4729364Y1832590D01*
X4800929Y1471399D02*
X4848156Y1487976D01*
X4759780Y1460337D02*
X4800929Y1471399D01*
X4724610Y1454211D02*
X4759780Y1460337D01*
X4710836Y1822834D02*
X4715222Y1818448D01*
X4696694Y1808691D02*
X4701080Y1804306D01*
X4682552Y1794549D02*
X4686938Y1790164D01*
X4668410Y1780407D02*
X4672795Y1776022D01*
X4665724Y1726524D02*
X4887565Y1504683D01*
X4694088Y1452316D02*
X4724610Y1454211D01*
X4654268Y1766265D02*
X4658653Y1761880D01*
X4529117Y2053325D02*
X4577811D01*
X4515054Y2054321D02*
X4518481Y2057748D01*
X4567333Y2022905D02*
X4591800Y1998439D01*
X4539049Y2022905D02*
X4591800Y1970155D01*
X4516470Y2052905D02*
X4576717D01*
X4570504Y2022905D02*
X4591800Y2001610D01*
X4510256Y2022905D02*
X4570504D01*
X4500912Y2068463D02*
X4504339Y2071890D01*
X4489295Y2028561D02*
X4493841Y2033108D01*
X4464330Y1918744D02*
X4568492Y2022905D01*
X4510765D02*
X4591800Y1941870D01*
Y1920291D02*
Y2001610D01*
X4520448Y1984938D02*
X4588447Y1916939D01*
X4506612Y2017595D02*
X4511923Y2022905D01*
X4521627Y2004325D02*
X4540208Y2022905D01*
X4530724Y1872000D02*
X4591800Y1933076D01*
X4541508Y1870000D02*
X4591800Y1920291D01*
X4503564Y1973537D02*
X4574305Y1902796D01*
X4536500Y1870000D02*
X4541508D01*
X4478472Y1904601D02*
X4583640Y2009769D01*
X4450188Y1932886D02*
X4492318Y1975016D01*
X4490743Y1888588D02*
X4591800Y1989645D01*
X4502439Y1872000D02*
X4591800Y1961360D01*
X4490992Y1872000D02*
X4536500D01*
X4461011Y2056846D02*
X4465557Y2061392D01*
X4475153Y2042704D02*
X4479699Y2047250D01*
X4365335Y2017738D02*
X4411513Y2063917D01*
X4346237Y2036836D02*
X4486593Y1896481D01*
X4407761Y1975312D02*
X4453940Y2021490D01*
X4379477Y2003596D02*
X4425655Y2049775D01*
X4393619Y1989454D02*
X4439797Y2035632D01*
X4324444Y2011236D02*
X4460992Y1874688D01*
X4329411Y2011236D02*
X4460992Y1879655D01*
X4296160Y2011236D02*
X4435395Y1872000D01*
X4239591Y2011236D02*
X4380827Y1870000D01*
X4267876Y2011236D02*
X4409111Y1870000D01*
X4211307Y2011236D02*
X4352543Y1870000D01*
X4421903Y1961170D02*
X4468082Y2007348D01*
X4436046Y1947028D02*
X4479048Y1990031D01*
X4490992Y1872000D02*
Y1885868D01*
X4460992Y1872000D02*
Y1879655D01*
X4417586Y1872000D02*
X4443117Y1897530D01*
X4445871Y1872000D02*
X4457259Y1883388D01*
X4359018Y1870000D02*
X4414832Y1925815D01*
X4413500Y1872000D02*
X4460992D01*
X4267219Y1891338D02*
X4358264Y1982383D01*
X4285189Y1881024D02*
X4372406Y1968241D01*
X4330734Y1870000D02*
X4400690Y1939957D01*
X4296213Y1870000D02*
X4413500D01*
X4302449D02*
X4386548Y1954099D01*
X4646774Y1750000D02*
X4784935Y1888162D01*
X4638003Y1750000D02*
X4769153Y1881151D01*
X4640126Y1752123D02*
X4642248Y1750000D01*
X4638003D02*
X4646774D01*
X4615680Y1720000D02*
X4847822Y1487858D01*
X4643964Y1720000D02*
X4867702Y1496262D01*
X4559111Y1720000D02*
X4805950Y1473161D01*
X4587395Y1720000D02*
X4826886Y1480510D01*
X4536500Y1720000D02*
X4652987D01*
X4536500Y1714327D02*
X4783983Y1466843D01*
X4268964Y1383966D02*
X4604998Y1720000D01*
X4297216Y1383934D02*
X4633282Y1720000D01*
X4240761Y1384047D02*
X4576714Y1720000D01*
X4496258Y1698000D02*
X4737757Y1456501D01*
X4524543Y1698000D02*
X4761691Y1460851D01*
X4463500Y1702474D02*
X4712514Y1453460D01*
X4609253Y1455141D02*
X4619242Y1456261D01*
X4694088Y1452316D01*
X4601605Y1452931D02*
X4609253Y1455141D01*
X4576072Y1436450D02*
X4601605Y1452931D01*
X4556702Y1426993D02*
X4576072Y1436450D01*
X4409405Y1700000D02*
X4655031Y1454374D01*
X4439690Y1698000D02*
X4684889Y1452801D01*
X4352837Y1700000D02*
X4600572Y1452264D01*
X4381121Y1700000D02*
X4625173Y1455948D01*
X4296268Y1700000D02*
X4565150Y1431118D01*
X4324552Y1700000D02*
X4583383Y1441169D01*
X4461878Y1403208D02*
X4556702Y1426993D01*
X4536500Y1708071D02*
X4548429Y1720000D01*
X4387302Y1870000D02*
X4428975Y1911672D01*
X4465392Y1716014D02*
X4477006Y1704399D01*
X4536500Y1698000D02*
Y1718000D01*
X4486500Y1698000D02*
X4536500D01*
X4463500D02*
Y1718000D01*
X4246213Y1700000D02*
X4413500D01*
X4329528Y1614235D02*
X4413500Y1698208D01*
X4301716Y1642993D02*
X4358724Y1700000D01*
X4329528Y1642520D02*
X4387008Y1700000D01*
X4333528Y1533382D02*
X4498145Y1698000D01*
X4333528Y1505098D02*
X4526429Y1698000D01*
X4333528Y1561667D02*
X4476633Y1704772D01*
X4329528Y1610172D02*
X4521529Y1418171D01*
X4333528Y1549603D02*
X4476304Y1406827D01*
X4413500Y1698000D02*
X4463500D01*
X4333528Y1521319D02*
X4453303Y1401544D01*
X4333528Y1493035D02*
X4429616Y1396947D01*
X4410805Y1393296D02*
X4461878Y1403208D01*
X4361624Y1387000D02*
X4410805Y1393296D01*
X4329528Y1638456D02*
X4544141Y1423843D01*
X4329528Y1581888D02*
X4498917Y1412499D01*
X4329528Y1585951D02*
X4441577Y1698000D01*
X4305271Y1493007D02*
X4405643Y1392635D01*
X4276986Y1493007D02*
X4380569Y1389425D01*
X4308952Y1383920D02*
X4361624Y1387000D01*
X4248702Y1493007D02*
X4355091Y1386618D01*
X4288780Y2280595D02*
X4292207Y2284022D01*
X4302922Y2266453D02*
X4306349Y2269880D01*
X4274638Y2294737D02*
X4278065Y2298164D01*
X4263020Y2254836D02*
X4267567Y2259382D01*
X4317064Y2252311D02*
X4320491Y2255738D01*
X4331206Y2238169D02*
X4334633Y2241596D01*
X4277163Y2240694D02*
X4281709Y2245240D01*
X4291305Y2226552D02*
X4295851Y2231098D01*
X4246353Y2323021D02*
X4249780Y2326448D01*
X4260495Y2308879D02*
X4263922Y2312306D01*
X4232211Y2337164D02*
X4235638Y2340591D01*
X4234736Y2283120D02*
X4239282Y2287666D01*
X4248878Y2268978D02*
X4253424Y2273524D01*
X4192990Y2156521D02*
X4255949Y2219480D01*
X4192990Y2184805D02*
X4241807Y2233623D01*
X4319589Y2198267D02*
X4324135Y2202813D01*
X4333731Y2184125D02*
X4338277Y2188671D01*
X4305447Y2212409D02*
X4309993Y2216955D01*
X4194983Y2101945D02*
X4284234Y2191196D01*
X4219126Y2041236D02*
X4326660Y2148770D01*
X4247410Y2041236D02*
X4340802Y2134628D01*
X4197740Y2076419D02*
X4298376Y2177054D01*
X4199258Y2079853D02*
X4237876Y2041236D01*
X4192990Y2170974D02*
X4322728Y2041236D01*
X4192990Y2142690D02*
X4294444Y2041236D01*
X4192990Y2128237D02*
X4270092Y2205338D01*
X4192990Y2114405D02*
X4266160Y2041236D01*
X4080655D02*
X4335624D01*
X4080655Y2011236D02*
X4329411D01*
X4190842Y2041236D02*
X4312518Y2162912D01*
X4206452Y2311404D02*
X4210998Y2315950D01*
X4220594Y2297262D02*
X4225140Y2301808D01*
X4178168Y2339689D02*
X4182714Y2344235D01*
X4192310Y2325546D02*
X4196856Y2330093D01*
X4191941Y2240325D02*
X4213523Y2261907D01*
X4192990Y2213090D02*
X4227665Y2247765D01*
X4164532Y2269485D02*
X4185239Y2290191D01*
X4178674Y2255343D02*
X4199381Y2276049D01*
X4122106Y2311911D02*
X4142812Y2332618D01*
X4136248Y2297769D02*
X4156954Y2318476D01*
X4093822Y2340195D02*
X4126212Y2372586D01*
X4107964Y2326053D02*
X4128848Y2346938D01*
X3935189Y2498828D02*
X4188591Y2245426D01*
X4150390Y2283627D02*
X4171096Y2304333D01*
X3909588Y2482002D02*
X4162990Y2228601D01*
X4192990Y2103968D02*
Y2234814D01*
X4162990Y2103968D02*
Y2228601D01*
X4185008Y2065819D02*
X4209591Y2041236D01*
X4162558D02*
X4188769Y2067447D01*
X4055160Y2046975D02*
X4162990Y2154805D01*
X4134273Y2041236D02*
X4163242Y2070204D01*
X4079194Y2042725D02*
X4162990Y2126521D01*
X4105989Y2041236D02*
X4155827Y2091073D01*
X4041850Y1892244D02*
X4160842Y2011236D01*
X4041771Y1892244D02*
X4126733D01*
X4210650Y1891338D02*
X4329980Y2010668D01*
X4238934Y1891338D02*
X4344122Y1996525D01*
X4126703Y1892244D02*
X4245695Y2011236D01*
X4182366Y1891338D02*
X4302263Y2011236D01*
X4183023D02*
X4324258Y1870000D01*
X4154081Y1891338D02*
X4273979Y2011236D01*
X4154738D02*
X4277561Y1888413D01*
X4098170Y2011236D02*
X4218067Y1891338D01*
X4126454Y2011236D02*
X4246352Y1891338D01*
X4070134Y1892244D02*
X4189126Y2011236D01*
X4098418Y1892244D02*
X4217410Y2011236D01*
X3912229Y1875759D02*
X4047396Y2010927D01*
X4074646Y2006476D02*
X4189783Y1891338D01*
X4041771Y1866653D02*
Y1892244D01*
X4279275Y1886939D02*
X4296213Y1870000D01*
X4232817Y1686603D02*
X4246213Y1700000D01*
X4246243Y1672372D02*
X4273871Y1700000D01*
X4267984D02*
X4324991Y1642993D01*
X4274527Y1644088D02*
X4330439Y1700000D01*
X4260385Y1658230D02*
X4302155Y1700000D01*
X4242956Y1696743D02*
X4296707Y1642993D01*
X4126733Y1891338D02*
X4268662D01*
X4041771Y1860432D02*
Y1866653D01*
Y1834842D02*
Y1841063D01*
Y1834842D02*
Y1841063D01*
X4231055Y1810158D02*
X4238629D01*
X4231213Y1810000D02*
X4238787D01*
X4041771Y1815472D02*
Y1834842D01*
Y1809253D02*
Y1815472D01*
Y1809253D02*
Y1815472D01*
Y1860432D02*
Y1866653D01*
Y1841063D02*
Y1860432D01*
Y1783660D02*
Y1789881D01*
Y1764292D02*
Y1783660D01*
Y1789881D02*
Y1809253D01*
Y1783660D02*
Y1789881D01*
X3912229Y1856432D02*
Y1896244D01*
Y1886050D02*
X4041771Y1756507D01*
X3908229Y1758071D02*
Y1764292D01*
Y1758071D02*
Y1764292D01*
X3912229Y1857765D02*
X4041771Y1728222D01*
X3912229Y1649485D02*
X4041771Y1779028D01*
X3908229Y1776912D02*
X3992092Y1693049D01*
X4041771Y1738701D02*
Y1758071D01*
Y1732480D02*
Y1738701D01*
Y1758071D02*
Y1764292D01*
Y1758071D02*
Y1764292D01*
Y1706890D02*
Y1713110D01*
Y1706890D02*
Y1713110D01*
Y1732480D02*
Y1738701D01*
Y1713110D02*
Y1732480D01*
X3908229Y1713110D02*
Y1732480D01*
X4010328Y1691016D02*
X4041771Y1722459D01*
X3908229Y1732480D02*
Y1738701D01*
Y1732480D02*
Y1738701D01*
X3912229Y1621201D02*
X4041771Y1750744D01*
X3908229Y1720344D02*
X4041771Y1586801D01*
Y1687520D02*
Y1706890D01*
X3802429Y2504966D02*
X4162990Y2144405D01*
X3802429Y2476682D02*
X4162990Y2116121D01*
X3802429Y2561535D02*
X4162990Y2200974D01*
X3802429Y2533250D02*
X4162990Y2172690D01*
X3802429Y2448398D02*
X4156612Y2094215D01*
X3802429Y2420113D02*
X4181307Y2041236D01*
X3802429Y2391829D02*
X4153023Y2041236D01*
X3802429Y2363545D02*
X4124738Y2041236D01*
X3797451Y2340238D02*
X4096454Y2041236D01*
X3783309Y2326096D02*
X4060872Y2048533D01*
X3624693Y2040773D02*
X3987755Y2403835D01*
X3769167Y2311954D02*
X4044125Y2036996D01*
X3581986Y1913213D02*
X4030182Y2361409D01*
X3755025Y2297812D02*
X4161499Y1891338D01*
X3641892Y2029688D02*
X4001898Y2389693D01*
X3847860Y1896244D02*
X4162990Y2211374D01*
X3876144Y1896244D02*
X4162990Y2183090D01*
X3819575Y1896244D02*
X4157461Y2234129D01*
X3904428Y1896244D02*
X4043146Y2034961D01*
X3760048Y1865000D02*
X4143319Y2248272D01*
X3819267Y1896244D02*
X3912229D01*
X3726741Y2269528D02*
X4104025Y1892244D01*
X3712599Y2255385D02*
X4075740Y1892244D01*
X3627746Y2170532D02*
X3902035Y1896244D01*
X3613604Y2156390D02*
X3873750Y1896244D01*
X3740883Y2283670D02*
X4133215Y1891338D01*
X3698456Y2241243D02*
X4047456Y1892244D01*
X3684314Y2227101D02*
X4041771Y1869644D01*
X3743677Y2337444D02*
X3747954Y2333167D01*
X3729535Y2323302D02*
X3733812Y2319025D01*
X3691559Y2332994D02*
X3694179Y2330373D01*
X3677417Y2318852D02*
X3680037Y2316231D01*
X3715392Y2309160D02*
X3719670Y2304883D01*
X3701250Y2295018D02*
X3705528Y2290741D01*
X3687108Y2280876D02*
X3691385Y2276599D01*
X3672966Y2266734D02*
X3677243Y2262456D01*
X3663274Y2304709D02*
X3665895Y2302089D01*
X3649132Y2290567D02*
X3651753Y2287947D01*
X3634990Y2276425D02*
X3637611Y2273805D01*
X3620848Y2262283D02*
X3623469Y2259662D01*
X3658824Y2252591D02*
X3663101Y2248314D01*
X3644682Y2238449D02*
X3648959Y2234172D01*
X3606706Y2248141D02*
X3609326Y2245520D01*
X3630540Y2224307D02*
X3634817Y2220030D01*
X3616398Y2210165D02*
X3620675Y2205888D01*
X3602255Y2196023D02*
X3606532Y2191746D01*
X3816616Y1865000D02*
X3819267Y1867651D01*
X3644196Y2012661D02*
X3791857Y1865000D01*
X3755000D02*
X3819267D01*
X3581986Y1956723D02*
X3621184Y1995921D01*
X3592564Y2233999D02*
X3595184Y2231378D01*
X3588113Y2181881D02*
X3592390Y2177604D01*
X3599461Y2142248D02*
X3845466Y1896244D01*
X3585319Y2128106D02*
X3819267Y1894158D01*
X3581986Y1895164D02*
Y1956723D01*
X3698479Y1860000D02*
X4115035Y2276556D01*
X3726763Y1860000D02*
X4129177Y2262414D01*
X3908229Y1843475D02*
X4069102Y2004349D01*
X3908229Y1841063D02*
Y1856432D01*
Y1815191D02*
X4104273Y2011236D01*
X3908229Y1786907D02*
X4132558Y2011236D01*
X3908229Y1758622D02*
X4041771Y1892165D01*
X3908229Y1730338D02*
X4041771Y1863881D01*
X3641910Y1860000D02*
X4086751Y2304840D01*
X3670195Y1860000D02*
X4100893Y2290698D01*
X3587342Y1862000D02*
X4058466Y2333124D01*
X3613626Y1860000D02*
X4072608Y2318982D01*
X3656030Y2198817D02*
X4041771Y1813075D01*
X3641888Y2184675D02*
X4041771Y1784791D01*
X3670172Y2212959D02*
X4041771Y1841360D01*
X3908229Y1783660D02*
Y1789881D01*
Y1738701D02*
Y1758071D01*
Y1809253D02*
Y1815472D01*
Y1789881D02*
Y1809253D01*
Y1673769D02*
X4041771Y1807312D01*
X3908229Y1805197D02*
X4026811Y1686614D01*
X3908229Y1748628D02*
X3977727Y1679130D01*
X3908229Y1706890D02*
Y1713110D01*
Y1856432D02*
X3912229D01*
X3908229Y1834842D02*
Y1841063D01*
Y1834842D02*
Y1841063D01*
Y1815472D02*
Y1834842D01*
Y1702054D02*
X4041771Y1835597D01*
X3908229Y1833481D02*
X4041771Y1699938D01*
X3908229Y1809253D02*
Y1815472D01*
X3819267Y1865000D02*
Y1896244D01*
X3788332Y1865000D02*
X3819267Y1895936D01*
X3908229Y1783660D02*
Y1789881D01*
Y1764292D02*
Y1783660D01*
X3711213Y1770000D02*
X3717827Y1763386D01*
X3713787Y1770000D02*
X3720401Y1763386D01*
X3630995Y1997578D02*
X3763572Y1865000D01*
X3613000Y1860000D02*
X3743787D01*
X3612776Y1987512D02*
X3740288Y1860000D01*
X3598633Y1973370D02*
X3712004Y1860000D01*
X3584491Y1959228D02*
X3683719Y1860000D01*
X3581986Y1933449D02*
X3655435Y1860000D01*
X3581986Y1905165D02*
X3627151Y1860000D01*
X3691415Y1739799D02*
X3695201Y1743585D01*
X3693417Y1737796D02*
X3700991D01*
X3681213Y1750000D02*
X3688787D01*
X3681213D02*
X3693417Y1737796D01*
X3908229Y1706890D02*
Y1713110D01*
Y1687520D02*
Y1706890D01*
X3688787Y1750000D02*
X3700991Y1737796D01*
X3656213Y1730000D02*
X3674009Y1712204D01*
X3658787Y1730000D02*
X3676583Y1712204D01*
X3613000Y1689668D02*
X3633332Y1710000D01*
X3613000D02*
X3633787D01*
X3657173Y1686614D01*
X3613000Y1704445D02*
X3630831Y1686614D01*
X3613000Y1688000D02*
Y1708000D01*
X4236401Y1682215D02*
X4275623Y1642993D01*
X4329528D01*
Y1572189D02*
Y1642993D01*
X4324991D02*
X4329528Y1638456D01*
X4198233Y1656614D02*
X4250472Y1604374D01*
X4219575Y1656614D02*
X4250472Y1625716D01*
X4152007Y1606421D02*
X4202200Y1656614D01*
X4130733D02*
X4219575D01*
X4130733Y1641715D02*
X4145632Y1656614D01*
X4130733Y1613430D02*
X4173916Y1656614D01*
X4141664D02*
X4246472Y1551806D01*
X4169948Y1656614D02*
X4250472Y1576090D01*
X4166199Y1592328D02*
X4225030Y1651159D01*
X4246472Y1572189D02*
X4250472D01*
X4329528D02*
X4333528D01*
X4250472D02*
Y1625716D01*
X4189868Y1559429D02*
X4250472Y1620033D01*
X4189868Y1531144D02*
X4250472Y1591749D01*
X4180341Y1578186D02*
X4239172Y1637017D01*
X4130733Y1609842D02*
X4142472D01*
X4153085Y1605443D02*
X4185469Y1573059D01*
X4130889Y1554252D02*
X4139868Y1545273D01*
X4130733Y1640340D02*
Y1656614D01*
X4037771Y1640340D02*
Y1656614D01*
X4130733Y1626119D02*
Y1640340D01*
Y1626119D02*
Y1640340D01*
X4037771Y1600528D02*
Y1626119D01*
X4130733Y1609842D02*
Y1626119D01*
X4034210Y1686614D02*
X4041771Y1694175D01*
X4015705Y1686614D02*
X4041771D01*
X4015705Y1656614D02*
X4037771D01*
X4028527D02*
X4037771Y1647369D01*
X4006450Y1650406D02*
X4037771Y1619085D01*
Y1626119D02*
Y1640340D01*
Y1626119D02*
Y1640340D01*
X4041771Y1585158D02*
Y1600528D01*
Y1578937D02*
Y1585158D01*
Y1578937D02*
Y1585158D01*
X4133565Y1554252D02*
X4139868Y1547949D01*
Y1535421D02*
Y1547949D01*
X4041771Y1559568D02*
Y1578937D01*
X4126733Y1554252D02*
X4133565D01*
X4037771Y1600528D02*
X4041771D01*
X4019396Y1558662D02*
X4041771Y1581038D01*
X4004882Y1558662D02*
X4041771D01*
X4011095Y1528662D02*
X4041771D01*
X4189868Y1520924D02*
Y1562446D01*
X4333528Y1493007D02*
Y1572189D01*
X4189868Y1523557D02*
X4328370Y1385055D01*
X4246472Y1493007D02*
Y1572189D01*
X4189868Y1551841D02*
X4246472Y1495237D01*
X4130733Y1639261D02*
X4246472Y1523521D01*
X4131907Y1456748D02*
X4185469Y1510312D01*
X4104503Y1502348D02*
X4139868Y1537713D01*
X4106795Y1502348D02*
X4139868Y1535421D01*
X4113645Y1398353D02*
X4246472Y1531180D01*
X4180149Y1504992D02*
X4301212Y1383929D01*
X4092631Y1405623D02*
X4246472Y1559465D01*
X4187240Y1387095D02*
X4293153Y1493007D01*
X4246472D02*
X4333528D01*
X4246472Y1495237D02*
X4248702Y1493007D01*
X4161771Y1389910D02*
X4264868Y1493007D01*
X4214001Y1385571D02*
X4321437Y1493007D01*
X4241630Y1383998D02*
X4308952Y1383920D01*
X4166007Y1490849D02*
X4272895Y1383962D01*
X4182553Y1387362D02*
X4241630Y1383998D01*
X4136811Y1393235D02*
X4246472Y1502896D01*
X4139502Y1392640D02*
X4182553Y1387362D01*
X4091371Y1452348D02*
X4152697Y1391023D01*
X4109478Y1399273D02*
X4139502Y1392640D01*
X4151865Y1476707D02*
X4244578Y1383995D01*
X4137724Y1462564D02*
X4214760Y1385528D01*
X4119656Y1452348D02*
X4184767Y1387236D01*
X4126733Y1527756D02*
Y1553347D01*
Y1530124D02*
X4130652Y1526205D01*
X4044247Y1527756D02*
X4069656Y1502348D01*
X4100816Y1527756D02*
X4116510Y1512063D01*
X4076219Y1502348D02*
X4101627Y1527756D01*
X4047934Y1502348D02*
X4073343Y1527756D01*
X4072532D02*
X4097940Y1502348D01*
X4019650D02*
X4045059Y1527756D01*
X4041771D02*
X4126733D01*
X4015057Y1528662D02*
X4041371Y1502348D01*
X3998934Y1516501D02*
X4013087Y1502348D01*
X3991366D02*
X4017680Y1528662D01*
X3984781Y1502348D02*
X4106795D01*
X3984781D02*
X4011095Y1528662D01*
X4050208Y1419768D02*
X4082787Y1452348D01*
X4044816Y1420010D02*
X4052448Y1419668D01*
X4059279Y1418193D01*
X4072089Y1413365D02*
X4111072Y1452348D01*
X4063087D02*
X4118057Y1397378D01*
X4059279Y1418193D02*
X4109478Y1399273D01*
X4006519Y1452348D02*
X4039521Y1419345D01*
X4038058Y1419162D02*
X4044816Y1420010D01*
X3978234Y1452348D02*
X4018199Y1412383D01*
X4028220Y1416558D02*
X4038058Y1419162D01*
X4011923Y1409768D02*
X4054503Y1452348D01*
X4034803D02*
X4074812Y1412339D01*
X3978436Y1395817D02*
X4028220Y1416558D01*
X3912229Y1626119D02*
Y1640340D01*
X3908229Y1681299D02*
Y1687520D01*
X3912229Y1640340D02*
Y1665929D01*
Y1659775D02*
X4013342Y1558662D01*
X3912229Y1564632D02*
X3996811Y1649215D01*
X3912229Y1592917D02*
X3979532Y1660220D01*
X3912229Y1626119D02*
Y1640340D01*
X3908229Y1681299D02*
Y1687520D01*
Y1665929D02*
X3912229D01*
X3908229D02*
Y1681299D01*
Y1692060D02*
X4041626Y1558662D01*
X3819267Y1626119D02*
Y1640340D01*
X3912229Y1600528D02*
Y1614747D01*
Y1589158D02*
Y1600528D01*
Y1614747D02*
Y1626119D01*
Y1600528D02*
Y1614747D01*
Y1631491D02*
X3991863Y1551856D01*
X3912229Y1563568D02*
Y1574937D01*
Y1589158D01*
Y1574937D02*
Y1589158D01*
X3819267Y1614747D02*
Y1626119D01*
Y1640340D02*
Y1656614D01*
X3802253D02*
X3819267Y1639599D01*
X3713904Y1592582D02*
X3777936Y1656614D01*
X3773968D02*
X3819267Y1611315D01*
X3745684Y1656614D02*
X3819267Y1583030D01*
X3717400Y1656614D02*
X3819267Y1554746D01*
X3685620Y1592582D02*
X3749652Y1656614D01*
X3740896Y1591289D02*
X3806220Y1656614D01*
X3606614Y1686614D02*
X3657173D01*
X3591614Y1656614D02*
X3819267D01*
X3638230Y1686614D02*
X3647701Y1696085D01*
X3606614Y1688000D02*
X3613000D01*
X3629051Y1592582D02*
X3693083Y1656614D01*
X3657335Y1592582D02*
X3721367Y1656614D01*
X3600767Y1592582D02*
X3664799Y1656614D01*
X3819267Y1600528D02*
Y1614747D01*
Y1589158D02*
Y1600528D01*
Y1626119D02*
Y1640340D01*
Y1600528D02*
Y1614747D01*
X3784029Y1549570D02*
X3819267Y1584808D01*
Y1563568D02*
Y1574937D01*
Y1589158D01*
Y1574937D02*
Y1589158D01*
X3660831Y1656614D02*
X3724863Y1592582D01*
X3604262Y1656614D02*
X3668294Y1592582D01*
X3632547Y1656614D02*
X3696579Y1592582D01*
X3755745Y1577854D02*
X3819267Y1641377D01*
X3769887Y1563712D02*
X3819267Y1613093D01*
X3912229Y1536348D02*
X4032495Y1656614D01*
X3912229Y1603207D02*
X3977721Y1537714D01*
X3912229Y1574922D02*
X3963579Y1523572D01*
X3912229Y1549347D02*
Y1563568D01*
X3926513Y1522348D02*
X4037771Y1633607D01*
X3954797Y1522348D02*
X4037771Y1605322D01*
X3962355Y1522348D02*
X3994269Y1554263D01*
X3921666Y1452348D02*
X3978262Y1395752D01*
X3912229Y1549347D02*
Y1563568D01*
Y1523756D02*
Y1549347D01*
Y1546638D02*
X3936519Y1522348D01*
X3811251D02*
X3962355D01*
X3819267Y1523756D02*
X3912229D01*
X3949950Y1452348D02*
X3998233Y1404065D01*
X3964514Y1390643D02*
X4026219Y1452348D01*
X3893381D02*
X3957641Y1388089D01*
X3946720Y1384030D02*
X3978436Y1395817D01*
X3887887Y1370585D02*
X3969650Y1452348D01*
X3923480Y1377893D02*
X3997934Y1452348D01*
X3910791Y1374543D02*
X3946720Y1384030D01*
X3866735Y1366929D02*
X3910791Y1374543D01*
X3865097Y1452348D02*
X3936194Y1381251D01*
X3788468Y1452348D02*
X4121294D01*
X3808528D02*
X3889937Y1370939D01*
X3836813Y1452348D02*
X3913818Y1375342D01*
X3823378Y1362645D02*
X3913081Y1452348D01*
X3854764Y1365746D02*
X3941366Y1452348D01*
X3793508Y1361059D02*
X3884797Y1452348D01*
X3819267Y1549347D02*
Y1563568D01*
Y1549347D02*
Y1563568D01*
X3798171Y1535428D02*
X3819267Y1556524D01*
Y1523756D02*
Y1549347D01*
Y1526462D02*
X3821973Y1523756D01*
X3745417Y1588183D02*
X3811251Y1522348D01*
X3813376D02*
X3819267Y1528240D01*
X3685418Y1518890D02*
X3840019Y1364289D01*
X3713702Y1518890D02*
X3865759Y1366833D01*
X3689115Y1656614D02*
X3819267Y1526462D01*
X3715715Y1518890D02*
X3777855Y1456748D01*
X3628849Y1518890D02*
X3786916Y1360824D01*
X3657133Y1518890D02*
X3814224Y1361799D01*
X3600565Y1518890D02*
X3759607Y1359848D01*
X3708553Y1360957D02*
X3799944Y1452348D01*
X3815162Y1361833D02*
X3866735Y1366929D01*
X3736186Y1360305D02*
X3828229Y1452348D01*
X3764176Y1360011D02*
X3856513Y1452348D01*
X3758001Y1359791D02*
X3815162Y1361833D01*
X3629855Y1367112D02*
X3748673Y1485930D01*
X3655597Y1364570D02*
X3762816Y1471788D01*
X3605317Y1370858D02*
X3734532Y1500072D01*
X3583784Y1374145D02*
X3635047Y1366319D01*
X3681663Y1362351D02*
X3776957Y1457645D01*
X3694002Y1361300D02*
X3758001Y1359791D01*
X3635047Y1366319D02*
X3694002Y1361300D01*
X3461567Y4196959D02*
X3648322Y4383715D01*
X3477223Y4184331D02*
X3666576Y4373684D01*
X3548609Y4434472D02*
X3631369Y4393031D01*
X3446624Y4210301D02*
X3630026Y4393703D01*
X3501289Y4446592D02*
X3848450Y4099431D01*
X3538689Y4437476D02*
X4044305Y3931861D01*
X3467687Y4451909D02*
X3803231Y4116366D01*
X3492918Y4171742D02*
X3684753Y4363577D01*
X3437073Y4454239D02*
X3779084Y4112229D01*
X3423404Y4439624D02*
X3760719Y4102309D01*
X3425497Y4245743D02*
X3592333Y4412578D01*
X3434448Y4226409D02*
X3611180Y4403141D01*
X3415724Y4419020D02*
X3746617Y4088127D01*
X3410052Y4396408D02*
X3736789Y4069671D01*
X3412941Y4365235D02*
X3732803Y4045372D01*
X3552543Y4118230D02*
X3752315Y4318002D01*
X3566851Y4104253D02*
X3768043Y4305445D01*
X3523420Y4145675D02*
X3719503Y4341758D01*
X3537982Y4131953D02*
X3736090Y4330060D01*
X3580752Y4089870D02*
X3783176Y4292294D01*
X3555774Y3911274D02*
X4109619Y3357429D01*
X3579858Y4091091D02*
X3591657Y4074978D01*
X3546318Y3910685D02*
X3619809Y3915267D01*
X3412814Y4337077D02*
X4338361Y3411530D01*
X3412608Y4308998D02*
X4310076Y3411530D01*
X3508613Y4159153D02*
X3702128Y4352667D01*
X3417063Y4276259D02*
X4281792Y3411530D01*
X3492582Y3351161D02*
X4063218Y3921797D01*
X3520866Y3351161D02*
X4090853Y3921148D01*
X3322876Y3351161D02*
X3994948Y4023233D01*
X3446873Y4454191D02*
X3480042Y4450555D01*
X3520292Y4443048D01*
X3435996Y4454245D02*
X3446873Y4454191D01*
X3424601Y4442837D02*
X3436009Y4454245D01*
X3414415Y4291229D02*
X3554639Y4431453D01*
X3419110Y4267640D02*
X3573486Y4422015D01*
X3412881Y4346264D02*
X3511336Y4444718D01*
X3520292Y4443048D02*
X3548609Y4434472D01*
X3410224Y4400175D02*
X3462524Y4452475D01*
X3412085Y4373752D02*
X3487498Y4449165D01*
X3410436Y4404832D02*
X3426446Y4447785D01*
X3409976Y4394750D02*
X3410436Y4404832D01*
X3412673Y4317771D02*
X3533845Y4438943D01*
X3409976Y4394750D02*
X3413014Y4364501D01*
X3412576Y4304495D02*
X3413014Y4364501D01*
X3512008Y4156430D02*
X3559760Y4111430D01*
X3579858Y4091091D01*
X3448358Y4208325D02*
X3462772Y4195922D01*
X3512008Y4156430D01*
X3527802Y3915556D02*
X3536560Y3912458D01*
X3546318Y3910685D01*
X3457878Y3948124D02*
X3479658Y3941109D01*
X3527802Y3915556D01*
X3422440Y4253619D02*
X3430447Y4232992D01*
X3438854Y4219158D01*
X3412576Y4304495D02*
X3415688Y4282048D01*
X3422440Y4253619D01*
X3429433Y4235605D02*
X3494829Y4170209D01*
X3428905Y3953944D02*
X3457878Y3948124D01*
X3438854Y4219158D02*
X3448358Y4208325D01*
X3464298Y3351161D02*
X4044534Y3931397D01*
X3548063Y3350073D02*
X4115813Y3917824D01*
X3436013Y3351161D02*
X4035169Y3950316D01*
X3563052Y3336778D02*
X4139204Y3912930D01*
X3577194Y3322636D02*
X4160818Y3906260D01*
X3464483Y3945996D02*
X4081335Y3329144D01*
X3518011Y3920753D02*
X4095477Y3343287D01*
X3407729Y3351161D02*
X4025803Y3969235D01*
X3428134Y3954061D02*
X4067193Y3315002D01*
X3351160Y3351161D02*
X4005935Y4005936D01*
X3379445Y3351161D02*
X4016438Y3988155D01*
X3361436Y3964190D02*
X4038909Y3286718D01*
X3394785Y3959126D02*
X4053051Y3300860D01*
X3328087Y3969255D02*
X4024766Y3272576D01*
X3546169Y3291611D02*
X3555981Y3301423D01*
X3553068Y3346762D02*
X3798030Y3101800D01*
X3553330Y3287614D02*
X3757940Y3083003D01*
X3561893Y3279051D02*
X3570123Y3287280D01*
X3576035Y3264909D02*
X3584265Y3273138D01*
X3536242Y3321161D02*
X3772429Y3084974D01*
X3390014Y3292013D02*
X3542717D01*
X3518287D02*
X3541838Y3315565D01*
X3530990Y3248147D02*
X3540680Y3257838D01*
X3523636Y3321161D02*
X3772429Y3072368D01*
X3536504Y3262013D02*
X3732340Y3066178D01*
X3526215Y3262013D02*
X3732340Y3055889D01*
X3438783Y3321161D02*
X3467931Y3292013D01*
X3461719D02*
X3490866Y3321161D01*
X3410499D02*
X3439647Y3292013D01*
X3433434D02*
X3462582Y3321161D01*
X3490003Y3292013D02*
X3519151Y3321161D01*
X3495352D02*
X3524499Y3292013D01*
X3467068Y3321161D02*
X3496215Y3292013D01*
X3497931Y3262013D02*
X3503970Y3255974D01*
X3382215Y3321161D02*
X3411362Y3292013D01*
X3405150D02*
X3434298Y3321161D01*
X3353930D02*
X3384236Y3290856D01*
X3325646Y3321161D02*
X3369297Y3277510D01*
X3297362Y3321161D02*
X3355155Y3263368D01*
X3453963Y3255974D02*
X3460003Y3262013D01*
X3469647D02*
X3475686Y3255974D01*
X3425679D02*
X3431719Y3262013D01*
X3441362D02*
X3447402Y3255974D01*
X3482248D02*
X3488287Y3262013D01*
X3510532Y3255974D02*
X3516572Y3262013D01*
X3396227D02*
X3536504D01*
X3409770Y3255974D02*
X3516949D01*
X3413078Y3262013D02*
X3419117Y3255974D01*
X3295068Y3153647D02*
X3403434Y3262013D01*
X3390510Y3256297D02*
X3397195Y3249612D01*
X3266308Y3351161D02*
X3973317Y4058171D01*
X3294592Y3351161D02*
X3983971Y4040540D01*
X3244680Y3975584D02*
X3290810Y3974916D01*
X3428905Y3953944D01*
X3265491Y3975283D02*
X3996482Y3244292D01*
X3294738Y3974320D02*
X4010624Y3258434D01*
X3238023Y3351161D02*
X3962812Y4075950D01*
X3237408Y3975081D02*
X3982340Y3230149D01*
X3158095Y3356086D02*
X3781648Y3979639D01*
X3183376Y3353083D02*
X3806774Y3976481D01*
X2676242Y3383350D02*
X3268136Y3975244D01*
X2685376Y3364200D02*
X3295396Y3974220D01*
X3209739Y3351161D02*
X3952643Y4094065D01*
X2685376Y3307631D02*
X3344506Y3966762D01*
X2685376Y3335916D02*
X3319951Y3970491D01*
X2927897Y3945185D02*
X3521920Y3351161D01*
X3185318D02*
X3542455D01*
X2900864Y3943933D02*
X3493636Y3351161D01*
X2850532Y3937697D02*
X3437068Y3351161D01*
X2875263Y3941250D02*
X3465352Y3351161D01*
X3185318Y3321161D02*
X3536242D01*
X3240793D02*
X3326871Y3235084D01*
X3269077Y3321161D02*
X3341013Y3249226D01*
X2826318Y3933626D02*
X3408783Y3351161D01*
X2802410Y3929250D02*
X3380499Y3351161D01*
X2779341Y3924034D02*
X3352215Y3351161D01*
X2756273Y3918819D02*
X3323930Y3351161D01*
X2685376Y3279347D02*
X3369061Y3963032D01*
X2685376Y3251063D02*
X3393616Y3959303D01*
X2734137Y3912670D02*
X3295646Y3351161D01*
X3197587Y3972330D02*
X3244680Y3975584D01*
X3148260Y3965056D02*
X3197587Y3972330D01*
X3045522Y3945552D02*
X3148260Y3965056D01*
X3013678Y3944450D02*
X3045522Y3945552D01*
X2683497Y3418890D02*
X3239858Y3975250D01*
X2670592Y3434269D02*
X3209474Y3973151D01*
X2865727Y3940251D02*
X2913951Y3945304D01*
X3013678Y3944450D01*
X2631878Y3480407D02*
X3109090Y3957620D01*
X2618973Y3495787D02*
X3074178Y3950992D01*
X2606068Y3511166D02*
X3040272Y3945370D01*
X2526019Y3515970D02*
X2955002Y3944953D01*
X2657688Y3449649D02*
X3177391Y3969352D01*
X2618542Y3438787D02*
X3144003Y3964248D01*
X2420881Y3439117D02*
X2926958Y3945193D01*
X2808571Y3930643D02*
X2865727Y3940251D01*
X2650532Y3883138D02*
X3176438Y3357232D01*
X2749873Y3917372D02*
X2808571Y3930643D01*
X2700978Y3902762D02*
X2749873Y3917372D01*
X2712360Y3906163D02*
X3267362Y3351161D01*
X2691227Y3899012D02*
X3239077Y3351161D01*
X2670798Y3891156D02*
X3210793Y3351161D01*
X2573449Y3506832D02*
X3011090Y3944472D01*
X2631138Y3874248D02*
X3152980Y3352406D01*
X2556346Y3518013D02*
X2983046Y3944712D01*
X2365478Y3411998D02*
X2897009Y3943529D01*
X2188133Y3262937D02*
X2865390Y3940194D01*
X2611743Y3865358D02*
X3146833Y3330269D01*
X2088177Y3247834D02*
X2760006Y3919663D01*
X3210952Y3973253D02*
X3968198Y3216007D01*
X3185390Y3970531D02*
X3954056Y3201865D01*
X3160740Y3966896D02*
X3939913Y3187723D01*
X3136524Y3962828D02*
X3925771Y3173581D01*
X3112756Y3958316D02*
X3911631Y3159441D01*
X3088984Y3953803D02*
X3905189Y3137598D01*
X3065213Y3949290D02*
X3905189Y3109314D01*
X3040829Y3945389D02*
X3905189Y3081030D01*
X2630441Y2885000D02*
X3748111Y4002670D01*
X2956425Y3944941D02*
X3905189Y2996177D01*
X2602156Y2885000D02*
X3737724Y4020568D01*
X2685376Y3222779D02*
X3418171Y3955574D01*
X2653497Y2879771D02*
X3762708Y3988983D01*
X2386251Y2867085D02*
X3464997Y3945831D01*
X2360882Y2870000D02*
X3442162Y3951280D01*
X3013483Y3944452D02*
X3905189Y3052745D01*
X3176970Y3092118D02*
X3406013Y3321161D01*
X3269467Y3177680D02*
X3379401Y3287614D01*
X3295068Y3160854D02*
X3396227Y3262013D01*
X2984954Y3944696D02*
X3905189Y3024461D01*
X2685376Y3339176D02*
X3670346Y2354207D01*
X2685376Y3310892D02*
X3656204Y2340065D01*
X2685376Y3282608D02*
X3642061Y2325923D01*
X2586269Y2897397D02*
X3603097Y3914225D01*
X2565282Y2904695D02*
X3572932Y3912344D01*
X2400515Y2853064D02*
X3485473Y3938023D01*
X2414657Y2838922D02*
X3503950Y3928216D01*
X2442941Y2810638D02*
X3543500Y3911197D01*
X2685233Y3367604D02*
X3684488Y2368349D01*
X2428799Y2824780D02*
X3522428Y3918408D01*
X2592349Y3856468D02*
X3270302Y3178515D01*
X2573037Y3847496D02*
X3265068Y3155465D01*
X2553823Y3838426D02*
X3265068Y3127181D01*
X2534608Y3829356D02*
X3265068Y3098897D01*
X2515394Y3820286D02*
X3265068Y3070612D01*
X2496592Y3810803D02*
X3265068Y3042328D01*
X2478189Y3800922D02*
X3265068Y3014044D01*
X2646896Y3462509D02*
X3076000Y3033405D01*
X2460462Y3790365D02*
X3156827Y3094000D01*
X2443190Y3779353D02*
X3128543Y3094000D01*
X2061793Y3164881D02*
X2831390Y3934479D01*
X2074985Y3206358D02*
X2796553Y3927926D01*
X2426620Y3767639D02*
X3102363Y3091896D01*
X2410573Y3755401D02*
X3085483Y3080491D01*
X2394881Y3742809D02*
X3076495Y3061195D01*
X3212509Y3321161D02*
X3312729Y3220941D01*
X3150568Y3094000D02*
X3377729Y3321161D01*
X3184792Y3320593D02*
X3298586Y3206799D01*
X3162655Y3314446D02*
X3284444Y3192657D01*
X2845172Y2873457D02*
X3292876Y3321161D01*
X3122284Y3094000D02*
X3349445Y3321161D01*
X2847866Y2904435D02*
X3264592Y3321161D01*
X2825113Y2938250D02*
X3208023Y3321161D01*
X2805059Y2946481D02*
X3172609Y3314031D01*
X2682004Y3399117D02*
X3076000Y3005121D01*
X2773063Y2942769D02*
X3151626Y3321332D01*
X2839362Y2924216D02*
X3236308Y3321161D01*
X2767000Y2767001D02*
X3321160Y3321161D01*
X2668005Y2865995D02*
X3148622Y3346613D01*
X3545132Y3234005D02*
X3554822Y3243695D01*
X3559274Y3219863D02*
X3568964Y3229553D01*
X3376368Y3242155D02*
X3383053Y3235470D01*
X3415983Y3225974D02*
X3510736D01*
X3527562Y3251575D02*
X3717608Y3061528D01*
X3510736Y3225974D02*
X3692008Y3044702D01*
X3505686Y3225974D02*
X3692008Y3039652D01*
X3477402Y3225974D02*
X3692008Y3011368D01*
X3333646Y3143637D02*
X3415983Y3225974D01*
X3333646Y3135657D02*
X3423963Y3225974D01*
X3308046Y3160463D02*
X3399158Y3251575D01*
X3362226Y3228012D02*
X3368911Y3221328D01*
X3333646Y3079088D02*
X3480532Y3225974D01*
X3342667Y3059824D02*
X3508816Y3225974D01*
X3333646Y3107372D02*
X3452248Y3225974D01*
X3573416Y3205721D02*
X3583106Y3215411D01*
X3458808Y3034544D02*
X3580487Y3156223D01*
X3401934Y3034239D02*
X3552203Y3184507D01*
X3437108Y3041129D02*
X3566345Y3170365D01*
X3373650Y3034239D02*
X3538061Y3198650D01*
X3463048Y3010500D02*
X3594629Y3142081D01*
X3356809Y3045682D02*
X3523918Y3212792D01*
X3333646Y3143455D02*
X3436207Y3040894D01*
X3333646Y3086886D02*
X3386294Y3034239D01*
X3368252D02*
X3425544D01*
X3333646Y3115171D02*
X3414578Y3034239D01*
X3362039Y3004239D02*
X3425544D01*
X3333646Y3068845D02*
X3368252Y3034239D01*
X3348084Y3213870D02*
X3354769Y3207186D01*
X3333942Y3199728D02*
X3340626Y3193043D01*
X3319800Y3185586D02*
X3326484Y3178901D01*
X3305657Y3171444D02*
X3312342Y3164759D01*
X3333646Y3068845D02*
Y3143637D01*
X3303646Y3062631D02*
Y3149850D01*
X3295068Y3153749D02*
X3303646Y3145171D01*
X3295068Y3125362D02*
X3303646Y3133941D01*
X3194101Y3080964D02*
X3265068Y3151931D01*
X3295068Y3125465D02*
X3303646Y3116886D01*
X3203375Y3061954D02*
X3265068Y3123647D01*
X3295068Y3068897D02*
X3303861Y3060103D01*
X3295068Y3097078D02*
X3303646Y3105657D01*
X3295068Y3068794D02*
X3303646Y3077372D01*
X3308046Y3052019D02*
X3351426Y3008639D01*
X3295068Y3040509D02*
X3307336Y3052778D01*
X3295068Y3012225D02*
X3321454Y3038611D01*
X3295068Y3097181D02*
X3303646Y3088602D01*
X3204000Y3034295D02*
X3265068Y3095362D01*
X3204000Y3006010D02*
X3265068Y3067078D01*
X3204000Y3046827D02*
X3265068Y2985759D01*
X3204000Y3005000D02*
Y3055000D01*
X3404266Y3214257D02*
X3692008Y2926515D01*
X3390124Y3200115D02*
X3692008Y2898231D01*
X3449117Y3225974D02*
X3692008Y2983084D01*
X3420833Y3225974D02*
X3692008Y2954799D01*
X3416294Y3004239D02*
X3692008Y2728525D01*
X3388009Y3004239D02*
X3692008Y2700241D01*
X3463970Y3013132D02*
X3692008Y2785093D01*
X3450526Y2998291D02*
X3692008Y2756809D01*
X3347698Y3157688D02*
X3692008Y2813378D01*
X3359510Y3004454D02*
X3692008Y2671956D01*
X3375982Y3185972D02*
X3692008Y2869946D01*
X3361840Y3171830D02*
X3692008Y2841662D01*
X3198440Y2547901D02*
X3692008Y3041470D01*
X3295068Y3012328D02*
X3692008Y2615388D01*
X3295068Y3040612D02*
X3692008Y2643672D01*
X3366474Y2404809D02*
X3692008Y2730342D01*
X3380617Y2390667D02*
X3692008Y2702058D01*
X3338190Y2433093D02*
X3692008Y2786911D01*
X3352332Y2418951D02*
X3692008Y2758626D01*
X3433678Y2330591D02*
X3692008Y2588921D01*
X3433678Y2302307D02*
X3692008Y2560636D01*
X3394759Y2376524D02*
X3692008Y2673774D01*
X3408901Y2362382D02*
X3692008Y2645489D01*
X3299286Y2923257D02*
X3692008Y2530535D01*
X3281738Y2912520D02*
X3692008Y2502251D01*
X3295068Y2984044D02*
X3692008Y2587103D01*
X3295068Y2955759D02*
X3692008Y2558819D01*
X3243190Y2451230D02*
X3692008Y2900048D01*
X3299759Y2451230D02*
X3692008Y2843479D01*
X3190491Y2975483D02*
X3692008Y2473966D01*
X3295068Y2983941D02*
X3335596Y3024469D01*
X3295068Y2955657D02*
X3349738Y3010327D01*
X3265068Y2951728D02*
Y3167067D01*
X3295068Y2951728D02*
Y3160854D01*
X3302567Y2934872D02*
X3371934Y3004239D01*
X3214906Y2451230D02*
X3692008Y2928332D01*
X3175530Y2609845D02*
X3651198Y3085512D01*
X3189449Y2595479D02*
X3665340Y3071370D01*
X3204000Y3018543D02*
X3265068Y2957475D01*
X3201896Y2992363D02*
X3257630Y2936629D01*
X3198227Y2575973D02*
X3679482Y3057228D01*
X3186622Y2451230D02*
X3692008Y2956617D01*
X3198227Y2575973D02*
X3679482Y3057228D01*
X3324040Y2447228D02*
X3692008Y2815195D01*
X3423043Y2348240D02*
X3692008Y2617205D01*
X3324452Y2446831D02*
X3429279Y2342004D01*
X3271474Y2451230D02*
X3692008Y2871764D01*
X3197466Y2544243D02*
X3290479Y2451230D01*
X3187970Y2525456D02*
X3262195Y2451230D01*
X3173453Y2511688D02*
X3233910Y2451230D01*
X3307626Y2421230D02*
X3403678Y2325178D01*
X3292195Y2421230D02*
X3403678Y2309747D01*
X3199289Y2570705D02*
X3320160Y2449834D01*
X3115000Y3094000D02*
X3165000D01*
X3129727Y2620610D02*
X3622914Y3113797D01*
X3156565Y2619164D02*
X3637056Y3099655D01*
X3076000Y3005000D02*
Y3055000D01*
X2789858Y2761574D02*
X3076000Y3047716D01*
X2818142Y2761574D02*
X3076000Y3019432D01*
X3072329Y2591496D02*
X3608771Y3127939D01*
X2880137Y2653863D02*
X3265068Y3038794D01*
X2626329Y3143665D02*
X3149209Y2620785D01*
X3115000Y2966000D02*
X3165000D01*
X2865995Y2668005D02*
X3163990Y2966000D01*
X2894279Y2639721D02*
X3265068Y3010509D01*
X2908421Y2625579D02*
X3265068Y2982225D01*
X2922564Y2611437D02*
X3265068Y2953941D01*
X2936706Y2597295D02*
X3261566Y2922155D01*
X2860000Y2718579D02*
X3108046Y2966625D01*
X2860000Y2690295D02*
X3135705Y2966000D01*
X2841346Y2756494D02*
X3077882Y2993030D01*
X2855331Y2742195D02*
X3089036Y2975899D01*
X2848995Y2892714D02*
X3122747Y2618962D01*
X2843579Y2869846D02*
X3103960Y2609466D01*
X2831506Y2853635D02*
X3090192Y2594949D01*
X2682147Y2851853D02*
X2745657Y2915363D01*
X2696289Y2837711D02*
X2741945Y2883367D01*
X2657799Y2876201D02*
X2772426Y2761574D01*
X2612186Y3129523D02*
X2794288Y2947421D01*
X2598044Y3115381D02*
X2771420Y2942006D01*
X2583902Y3101239D02*
X2755209Y2929932D01*
X2569760Y3087097D02*
X2744447Y2912410D01*
X2527334Y3044670D02*
X2810430Y2761574D01*
X2513191Y3030528D02*
X2782145Y2761574D01*
X2555618Y3072954D02*
X2741358Y2887214D01*
X2772426Y2761574D02*
X2822500D01*
X2752858Y2781143D02*
X2814969Y2843254D01*
X2738716Y2795285D02*
X2783991Y2840560D01*
X2860000Y2674000D02*
Y2724074D01*
X2767500Y2631574D02*
X2817574D01*
X2730000Y2669074D02*
Y2719148D01*
X2710431Y2823569D02*
X2750176Y2863313D01*
X2724573Y2809427D02*
X2764210Y2849064D01*
X2624148Y2825000D02*
X2730000Y2719148D01*
X2605582Y2825000D02*
X2730000Y2700582D01*
X2650126Y2621842D02*
X2730000Y2701716D01*
X2660478Y2603910D02*
X2730000Y2673432D01*
X2588332Y2813965D02*
X2730000Y2672298D01*
X3044044Y2591496D02*
X3451054Y2998506D01*
X3158337Y2451230D02*
X3692008Y2984901D01*
X3015760Y2591496D02*
X3427010Y3002746D01*
X3143405Y2966000D02*
X3692008Y2417398D01*
X3115121Y2966000D02*
X3692008Y2389113D01*
X3130053Y2451230D02*
X3692008Y3013185D01*
X3171195Y2966495D02*
X3692008Y2445682D01*
X2987476Y2591496D02*
X3400219Y3004239D01*
X2959191Y2591496D02*
X3280153Y2912458D01*
X2813984Y2842873D02*
X3065361Y2591496D01*
X2942504D02*
X3088039D01*
X2685376Y3254323D02*
X3627919Y2311780D01*
X2685376Y3226039D02*
X3613777Y2297638D01*
X2682723Y3200408D02*
X3599635Y2283496D01*
X3153761Y2503095D02*
X3205626Y2451230D01*
X3125230Y2503342D02*
X3177342Y2451230D01*
X3101769D02*
X3153595Y2503056D01*
X3068792Y2531496D02*
X3149058Y2451230D01*
X3073484D02*
X3125523Y2503269D01*
X3045200Y2451230D02*
X3106017Y2512047D01*
X3073484Y2451230D02*
X3125523Y2503269D01*
X3040508Y2531496D02*
X3120773Y2451230D01*
X3016916D02*
X3091651Y2525966D01*
X2991666Y2454265D02*
X3068897Y2531496D01*
X2930078D02*
X3088039D01*
X2994984Y2451230D02*
X3313840D01*
X2994984Y2421230D02*
X3307626D01*
X3012223Y2531496D02*
X3092489Y2451230D01*
X2788788Y2839785D02*
X3037076Y2591496D01*
X2860000Y2712004D02*
X2980508Y2591496D01*
X2860000Y2683719D02*
X2952223Y2591496D01*
X2860000Y2674000D02*
X2942504Y2591496D01*
X2770724Y2631574D02*
X2957435Y2444863D01*
X2799008Y2631574D02*
X2972571Y2458011D01*
X2817574Y2631574D02*
X2908853Y2540295D01*
X2724521Y2498247D02*
X2837711Y2611437D01*
X2541476Y3058812D02*
X3008792Y2591496D01*
X2693463Y2552042D02*
X2772995Y2631574D01*
X2670831Y2585979D02*
X2735080Y2650228D01*
X2667229Y2554093D02*
X2749379Y2636243D01*
X2714169Y2516179D02*
X2823568Y2625579D01*
X2660694Y2406136D02*
X2851853Y2597295D01*
X2703816Y2534110D02*
X2801279Y2631574D01*
X2955655Y2531496D02*
X3035920Y2451230D01*
X2983939Y2531496D02*
X3064205Y2451230D01*
X2927235Y2531631D02*
X3007636Y2451230D01*
X2715914Y2291650D02*
X2955760Y2531496D01*
X2669897Y2387055D02*
X2865995Y2583153D01*
X2679101Y2367974D02*
X2880137Y2569010D01*
X2688449Y2560727D02*
X2727976Y2492263D01*
X2666331Y2456673D02*
X2727976Y2492263D01*
X2697507Y2329812D02*
X2908421Y2540726D01*
X2706711Y2310731D02*
X2927580Y2531600D01*
X2688304Y2348893D02*
X2894279Y2554868D01*
X2653571Y3884531D02*
X2700978Y3902762D01*
X2581743Y3851606D02*
X2653571Y3884531D01*
X2577883Y3502319D02*
X2598779Y3519853D01*
X2644534Y3465325D01*
X2644287Y3465118D02*
X2646858Y3462547D01*
X2566900Y3513498D02*
X2577883Y3502319D01*
X2583974Y3414509D02*
X2644534Y3465325D01*
X2505948Y3815826D02*
X2581743Y3851606D01*
X2379929Y3729477D02*
X2593762Y3515643D01*
X2364977Y3716144D02*
X2578383Y3502738D01*
X2515171Y3481097D02*
X2595524Y3400744D01*
X2500943Y3467041D02*
X2655376Y3312608D01*
X2538220Y3469037D02*
X2583974Y3414509D01*
X2646862Y3462550D02*
X2692616Y3408022D01*
X2671433Y3390248D02*
X2692616Y3408022D01*
X2671433Y3390248D02*
X2682658Y3374148D01*
X2648360Y3370887D02*
X2655376Y3360824D01*
X2632056Y3357207D02*
X2648360Y3370887D01*
X2635865Y3360403D02*
X2655376Y3340892D01*
X2586302Y3411735D02*
X2646862Y3462550D01*
X2628908Y3452213D02*
X2631479Y3449642D01*
X2613528Y3439308D02*
X2616099Y3436738D01*
X2598149Y3426403D02*
X2600720Y3423833D01*
X2586302Y3411735D02*
X2632056Y3357207D01*
X2536014Y3299691D02*
X2614478Y3378155D01*
X2509191Y3301152D02*
X2601574Y3393535D01*
X2511967Y3515001D02*
X2555141Y3517978D01*
X2470782Y3796944D02*
X2505948Y3815826D01*
X2435806Y3774645D02*
X2470782Y3796944D01*
X2519582Y3485454D02*
X2550314Y3487574D01*
X2554831Y3482976D01*
X2425010Y3434196D02*
X2502446Y3510696D01*
X2399715Y3747120D02*
X2435806Y3774645D01*
X2350824Y3702013D02*
X2536167Y3516670D01*
X2362561Y3713990D02*
X2399715Y3747120D01*
X2323564Y3674194D02*
X2362561Y3713990D01*
X2336825Y3687727D02*
X2509851Y3514702D01*
X2322872Y3673397D02*
X2493958Y3502310D01*
X2309723Y3658261D02*
X2479730Y3488254D01*
X2537839Y3486714D02*
X2547624Y3476928D01*
X2538220Y3469037D02*
X2554831Y3482976D01*
X2444358Y3411139D02*
X2519582Y3485454D01*
X2411343Y3450483D02*
X2425010Y3434196D01*
X2459596Y3392978D02*
X2552235Y3485618D01*
X2448282Y3378280D02*
X2524119Y3302443D01*
X2446691Y3408358D02*
X2524099Y3485766D01*
X2444358Y3411139D02*
X2462159Y3389924D01*
X2350784Y3399668D02*
X2411343Y3450483D01*
X2384734Y3356975D02*
X2396373Y3345336D01*
X2350784Y3399668D02*
X2366550Y3380878D01*
X2342270Y3360506D02*
X2364767Y3383003D01*
X2401599Y3339108D02*
X2462159Y3389924D01*
X2396373Y3345336D02*
X2402144Y3339565D01*
X2385833Y3357897D02*
X2401599Y3339108D01*
X2486715Y3452984D02*
X2655376Y3284323D01*
X2562569Y3269677D02*
X2654694Y3361802D01*
X2552752Y3288145D02*
X2627383Y3362776D01*
X2685376Y3208926D02*
Y3365537D01*
X2655376Y3215139D02*
Y3360824D01*
X2557388Y3236212D02*
X2655376Y3334200D01*
X2472487Y3438928D02*
X2655376Y3256039D01*
X2458259Y3424872D02*
X2655376Y3227755D01*
X2317299Y3137545D02*
X2588669Y3408914D01*
X2447745Y3407101D02*
X2647542Y3207305D01*
X2369355Y3344070D02*
X2576831Y3136594D01*
X2339587Y2961843D02*
X2655376Y3277631D01*
X2353976Y3331165D02*
X2562689Y3122452D01*
X2563715Y3262847D02*
X2633400Y3193163D01*
X2559075Y3239203D02*
X2619258Y3179021D01*
X2499049Y3016386D02*
X2630435Y2885000D01*
X2546048Y3223946D02*
X2605115Y3164878D01*
X2525814Y3215896D02*
X2590973Y3150736D01*
X2367872Y2961843D02*
X2655376Y3249347D01*
X2418905Y2936242D02*
X2680977Y3198314D01*
X2396156Y2961843D02*
X2655376Y3221063D01*
X2402079Y2961843D02*
X2655376Y3215139D01*
X2484907Y3002244D02*
X2602151Y2885000D01*
X2329034Y2931843D02*
X2618677Y2642199D01*
X2470765Y2988102D02*
X2554179Y2904687D01*
X2432903Y3365375D02*
X2500475Y3297803D01*
X2417524Y3352470D02*
X2485218Y3284776D01*
X2402144Y3339565D02*
X2477168Y3264542D01*
X2367117Y3102509D02*
X2491286Y3226678D01*
X2338596Y3318260D02*
X2548547Y3108310D01*
X2323217Y3305356D02*
X2534405Y3094168D01*
X2342275Y3134236D02*
X2478279Y3270240D01*
X2358215Y3121891D02*
X2479739Y3243416D01*
X2367709Y3091158D02*
X2449552Y3009315D01*
X2360376Y3070207D02*
X2435410Y2995173D01*
X2456623Y2973959D02*
X2533214Y2897368D01*
X2442481Y2959817D02*
X2518729Y2883568D01*
X2428338Y2945675D02*
X2510495Y2863519D01*
X2413097Y2932633D02*
X2517595Y2828135D01*
X2345652Y3056646D02*
X2421267Y2981030D01*
X2322933Y3051081D02*
X2407125Y2966888D01*
X2321997Y2961843D02*
X2402079D01*
X2325497Y2891183D02*
X2366156Y2931843D01*
X2332598Y2870000D02*
X2394440Y2931843D01*
X2296575Y3643125D02*
X2465502Y3474198D01*
X2283426Y3627989D02*
X2451273Y3460142D01*
X2281979Y3626324D02*
X2323564Y3674194D01*
X2240770Y3572986D02*
X2281979Y3626324D01*
X2271008Y3612123D02*
X2437045Y3446086D01*
X2258680Y3596167D02*
X2407548Y3447299D01*
X2246352Y3580211D02*
X2392169Y3434394D01*
X2234454Y3563824D02*
X2376789Y3421489D01*
X2149991Y3422785D02*
X2576191Y3848985D01*
X2181753Y3482831D02*
X2522617Y3823695D01*
X2234438Y3563801D02*
X2461952Y3791315D01*
X2222913Y3547081D02*
X2361410Y3408584D01*
X2101369Y3289311D02*
X2720719Y3908661D01*
X2114562Y3330787D02*
X2677512Y3893738D01*
X2129937Y3374447D02*
X2628554Y3873064D01*
X2228809Y3265301D02*
X2366550Y3380878D01*
X2248093Y3242319D02*
X2385833Y3357897D01*
X2221678Y3268198D02*
X2351862Y3398382D01*
X2249005Y3238956D02*
X2274663Y3264614D01*
X2245940Y3212927D02*
X2320888Y3137979D01*
X2232843Y3197739D02*
X2299936Y3130646D01*
X2211508Y3190790D02*
X2286376Y3115922D01*
X2211371Y3530338D02*
X2363440Y3378269D01*
X2200118Y3513308D02*
X2348061Y3365364D01*
X2189482Y3495659D02*
X2332681Y3352460D01*
X2178847Y3478009D02*
X2317302Y3339555D01*
X2168801Y3459771D02*
X2301923Y3326650D01*
X2150220Y3111887D02*
X2390577Y3352244D01*
X2159189Y3441099D02*
X2286543Y3313745D01*
X2203495Y3518913D02*
X2240770Y3572986D01*
X2174335Y3470522D02*
X2203495Y3518913D01*
X2151117Y3425419D02*
X2174335Y3470522D01*
X2132776Y3382502D02*
X2151117Y3425419D01*
X2149760Y3422244D02*
X2271164Y3300840D01*
X2141291Y3402428D02*
X2255784Y3287935D01*
X2132823Y3382613D02*
X2240405Y3275030D01*
X2125447Y3361704D02*
X2218063Y3269088D01*
X2118078Y3340789D02*
X2193060Y3265806D01*
X2114638Y3331028D02*
X2132776Y3382502D01*
X2110998Y3319584D02*
X2177873Y3252709D01*
X2104173Y3298125D02*
X2170923Y3231375D01*
X2097348Y3276666D02*
X2166467Y3207547D01*
X2042926Y3105566D02*
X2114638Y3331028D01*
X2165894Y3164548D02*
X2195184Y3193837D01*
X2162207Y3152158D02*
X2201783Y3191734D01*
X2142001Y3183080D02*
X2173970Y3215050D01*
X2090522Y3255207D02*
X2152325Y3193405D01*
X2083697Y3233748D02*
X2138891Y3178554D01*
X2076872Y3212289D02*
X2132304Y3156856D01*
X2048600Y3123404D02*
X2177802Y3252606D01*
X2070046Y3190830D02*
X2125817Y3135060D01*
X2063221Y3169371D02*
X2119329Y3113263D01*
X2307837Y3292451D02*
X2520262Y3080026D01*
X2292458Y3279546D02*
X2506120Y3065883D01*
X2277079Y3266641D02*
X2491978Y3051741D01*
X2187680Y3186333D02*
X2280811Y3093203D01*
X2253751Y2904291D02*
X2655376Y3305916D01*
X2261699Y3253736D02*
X2477836Y3037599D01*
X2249221Y3237930D02*
X2463694Y3023457D01*
X2173538Y3172191D02*
X2383887Y2961843D01*
X2126247Y3031345D02*
X2549954Y3455052D01*
X2114261Y2991075D02*
X2562859Y3439673D01*
X2138234Y3071616D02*
X2427243Y3360626D01*
X2162913Y3154532D02*
X2355602Y2961843D01*
X2102274Y2950804D02*
X2575764Y3424294D01*
X2095688Y2774512D02*
X2543218Y3222042D01*
X2095688Y2802796D02*
X2509753Y3216861D01*
X2156425Y3132735D02*
X2327318Y2961843D01*
X2301347Y2904979D02*
X2328210Y2931843D01*
X2309548Y2903518D02*
X2337872Y2931843D01*
X2149938Y3110939D02*
X2307409Y2953468D01*
X2269635Y2915694D02*
X2311384Y2957443D01*
X2143450Y3089142D02*
X2293267Y2939325D01*
X2095688Y2887649D02*
X2284666Y3076627D01*
X2095688Y2915934D02*
X2281358Y3101603D01*
X2136963Y3067345D02*
X2279124Y2925183D01*
X2095688Y2831081D02*
X2316393Y3051786D01*
X2098036Y2936566D02*
X2490390Y2544212D01*
X2095688Y2859365D02*
X2297011Y3060688D01*
X2036957Y3083477D02*
X2172541Y3219061D01*
X2056395Y3147912D02*
X2112841Y3091466D01*
X2049570Y3126453D02*
X2106354Y3069670D01*
X2042766Y3104973D02*
X2099866Y3047873D01*
X2095688Y2928677D02*
X2165894Y3164548D01*
X2130475Y3045549D02*
X2266055Y2909969D01*
X2066311Y2935141D02*
X2138225Y3176747D01*
X2036749Y3082706D02*
X2093378Y3026077D01*
X2026482Y3044718D02*
X2129627Y3147863D01*
X2017881Y3007832D02*
X2117641Y3107592D01*
X2022975Y3031739D02*
X2042926Y3105566D01*
X2030731Y3060439D02*
X2086890Y3004280D01*
X2010223Y2971890D02*
X2105655Y3067321D01*
X2024714Y3038173D02*
X2080403Y2982483D01*
X2009534Y2968656D02*
X2022975Y3031739D01*
X2123987Y3023752D02*
X2246216Y2901523D01*
X2019442Y3015160D02*
X2073915Y2960687D01*
X2117499Y3001956D02*
X2232654Y2886800D01*
X2104524Y2958362D02*
X2230336Y2832550D01*
X2111012Y2980159D02*
X2230236Y2860935D01*
X2004923Y2938306D02*
X2093668Y3027051D01*
X2014474Y2991843D02*
X2067427Y2938890D01*
X2000892Y2911771D02*
X2009534Y2968656D01*
X2009513Y2968520D02*
X2065688Y2912345D01*
X2000333Y2905431D02*
X2081682Y2986780D01*
X1997598Y2874412D02*
X2069695Y2946509D01*
X2005783Y2943966D02*
X2065688Y2884061D01*
X2599764Y2885000D02*
X2636574D01*
X2599764Y2825000D02*
X2624148D01*
X2612646Y2640931D02*
X2710431Y2738716D01*
X2639773Y2639773D02*
X2724573Y2724574D01*
X2598504Y2655073D02*
X2696289Y2752858D01*
X2633449Y2650727D02*
X2672976Y2582263D01*
X2541936Y2711642D02*
X2639721Y2809427D01*
X2556078Y2697500D02*
X2653863Y2795285D01*
X2527794Y2725784D02*
X2625578Y2823569D01*
X2570220Y2683358D02*
X2668005Y2781143D01*
X2584362Y2669216D02*
X2682147Y2767001D01*
X2387979Y2865601D02*
X2614050Y2639527D01*
X2658618Y2573974D02*
X2677935Y2554657D01*
X2669766Y2549941D02*
X2688449Y2560727D01*
X2656003Y2572464D02*
X2672976Y2582263D01*
X2656501Y2571648D02*
X2659110Y2574258D01*
X2656003Y2572464D02*
X2669766Y2549941D01*
X2630014Y2557459D02*
X2643778Y2534936D01*
X2626804Y2525137D02*
X2643778Y2534936D01*
X2628352Y2515215D02*
X2631002Y2517865D01*
X2614050Y2639527D02*
X2633449Y2650727D01*
X2611331Y2546673D02*
X2630014Y2557459D01*
X2571804Y2615137D02*
X2611331Y2546673D01*
X2605720Y2549152D02*
X2608370Y2551802D01*
X2622755Y2553268D02*
X2642072Y2533952D01*
X2604823Y2542916D02*
X2632543Y2515197D01*
X2568669Y2613327D02*
X2608196Y2544863D01*
X2457083Y2796495D02*
X2510070Y2849482D01*
X2471225Y2782353D02*
X2517367Y2828495D01*
X2364308Y2840000D02*
X2582814Y2621494D01*
X2371153Y2840000D02*
X2587153Y2623998D01*
X2336023Y2840000D02*
X2564882Y2611141D01*
X2485367Y2768211D02*
X2531152Y2813996D01*
X2328210Y2931843D02*
X2408293D01*
X2330236Y2870000D02*
X2377366D01*
X2330236D02*
Y2875000D01*
Y2874072D02*
X2334308Y2870000D01*
X2330236Y2840000D02*
X2371153D01*
X2326759Y2820981D02*
X2546951Y2600788D01*
X2330236Y2835000D02*
Y2840000D01*
X2513652Y2739927D02*
X2586428Y2812703D01*
X2571804Y2615137D02*
X2587153Y2623998D01*
X2540488Y2597057D02*
X2577291Y2633860D01*
X2574662Y2602947D02*
X2577312Y2605597D01*
X2585015Y2585015D02*
X2587664Y2587665D01*
X2595367Y2567084D02*
X2598017Y2569734D01*
X2576827Y2599197D02*
X2586717Y2589307D01*
X2531531Y2531355D02*
X2536904Y2525982D01*
X2499510Y2754069D02*
X2551183Y2805742D01*
X2507024Y2577737D02*
X2568669Y2613327D01*
X2326675Y2552950D02*
X2492438Y2718713D01*
X2507024Y2577737D02*
X2518266Y2558265D01*
X2327389Y2525379D02*
X2506581Y2704571D01*
X2484851Y2541420D02*
X2512201Y2568770D01*
X2587021Y2502169D02*
X2634678Y2549826D01*
X2638705Y2497284D02*
X2641355Y2499934D01*
X2586892Y2532563D02*
X2606208Y2513247D01*
X2568960Y2522211D02*
X2588277Y2502894D01*
X2626804Y2525137D02*
X2666331Y2456673D01*
X2623669Y2523327D02*
X2663196Y2454863D01*
X2562024Y2487737D02*
X2623669Y2523327D01*
X2649057Y2479352D02*
X2651707Y2482002D01*
X2546551Y2509273D02*
X2608196Y2544863D01*
X2551029Y2511858D02*
X2570345Y2492541D01*
X2370777Y2483915D02*
X2549007Y2662145D01*
X2427814Y2512667D02*
X2563149Y2648002D01*
X2482233Y2425665D02*
X2592191Y2535622D01*
X2562024Y2487737D02*
X2572872Y2468947D01*
X2512726Y2521876D02*
X2567988Y2466614D01*
X2651491Y2425217D02*
X2705643Y2479369D01*
X2642856Y2443120D02*
X2663196Y2454863D01*
X2659410Y2461421D02*
X2662060Y2464071D01*
X2587918Y2442887D02*
X2601551Y2419273D01*
X2642856Y2443120D02*
X2717305Y2288767D01*
X2571345Y2434973D02*
X2652734Y2353583D01*
X2601551Y2419273D02*
X2616803Y2428079D01*
X2610286Y2424316D02*
X2626381Y2408221D01*
X2429465Y2367223D02*
X2587918Y2442887D01*
X2458987Y2317566D02*
X2581008Y2439587D01*
X2536368Y2451515D02*
X2565891Y2481039D01*
X2416538Y2394295D02*
X2572872Y2468947D01*
X2552202Y2425832D02*
X2679087Y2298946D01*
X2483019Y2285030D02*
X2619818Y2421828D01*
X2474562Y2304857D02*
X2596949Y2427244D01*
X2533290Y2532242D02*
X2546551Y2509273D01*
X2493921Y2512396D02*
X2548844Y2457473D01*
X2475117Y2502917D02*
X2529701Y2448332D01*
X2456312Y2493437D02*
X2510558Y2439191D01*
X2402499Y2402499D02*
X2531176Y2531176D01*
X2428099Y2399815D02*
X2543259Y2514975D01*
X2437507Y2483958D02*
X2491415Y2430050D01*
X2418702Y2474478D02*
X2472272Y2420909D01*
X2348731Y2490153D02*
X2534865Y2676287D01*
X2365904Y2481458D02*
X2518266Y2558265D01*
X2329432Y2535464D02*
X2377561Y2487335D01*
X2321835Y2514776D02*
X2345930Y2490682D01*
X2379408Y2454670D02*
X2533290Y2532242D01*
X2371807Y2400092D02*
X2474139Y2502424D01*
X2372422Y2428991D02*
X2417102Y2473671D01*
X2399898Y2464999D02*
X2453129Y2411767D01*
X2381093Y2455519D02*
X2433986Y2402626D01*
X2375033Y2433295D02*
X2408282Y2400046D01*
X2434744Y2321607D02*
X2526874Y2413737D01*
X2416283Y2335476D02*
X2430814Y2320945D01*
X2397319Y2326156D02*
X2411865Y2311610D01*
X2361567Y2418476D02*
X2377533Y2402510D01*
X2339683Y2412076D02*
X2360476Y2391283D01*
X2322323Y2401152D02*
X2351156Y2372319D01*
X2323330Y2295047D02*
X2363740Y2335456D01*
X2260236Y2905000D02*
X2265236D01*
X2314480Y2918112D02*
X2362592Y2870000D01*
X2230236Y2835000D02*
Y2875000D01*
X2095688Y2576522D02*
X2359166Y2840000D01*
X2095688Y2746228D02*
X2230945Y2881485D01*
X2095688Y2717943D02*
X2230236Y2852491D01*
X2095688Y2910630D02*
X2471585Y2534733D01*
X2095688Y2882345D02*
X2452780Y2525253D01*
X2095688Y2524072D02*
Y2928677D01*
X2312037Y2807418D02*
X2529019Y2590436D01*
X2286171Y2805000D02*
X2511088Y2580083D01*
X2095688Y2661375D02*
X2244053Y2809739D01*
X2260236Y2805000D02*
X2300236D01*
X2257786Y2805100D02*
X2509195Y2553692D01*
X2314593Y2569152D02*
X2478296Y2732856D01*
X2294619Y2577463D02*
X2464154Y2746998D01*
X2095688Y2684355D02*
X2251731Y2528313D01*
X2095688Y2604806D02*
X2295882Y2805000D01*
X2095688Y2769208D02*
X2287258Y2577638D01*
X2095688Y2689659D02*
X2231718Y2825689D01*
X2095688Y2633090D02*
X2267598Y2805000D01*
X2095688Y2548238D02*
X2379302Y2831851D01*
X2095688Y2740924D02*
X2266570Y2570041D01*
X2095688Y2712639D02*
X2253938Y2554390D01*
X1995868Y2844398D02*
X2065688Y2914218D01*
X1999314Y2893867D02*
X2065688Y2827492D01*
X2002053Y2919412D02*
X2065688Y2855777D01*
X1996254Y2859165D02*
X2000892Y2911771D01*
X1996774Y2732167D02*
X2065688Y2801081D01*
X1998880Y2705988D02*
X2065688Y2772796D01*
X1997022Y2867874D02*
X2065688Y2799208D01*
X1995903Y2759579D02*
X2065688Y2829365D01*
X1995109Y2815354D02*
X2065688Y2885934D01*
X1995049Y2787010D02*
X2065688Y2857649D01*
X1994679Y2798915D02*
X1996254Y2859165D01*
X1995775Y2840837D02*
X2065688Y2770924D01*
X1995054Y2813273D02*
X2065688Y2742639D01*
X1995114Y2784929D02*
X2065688Y2714355D01*
X1994679Y2798915D02*
X1996744Y2732550D01*
X2009363Y2603334D02*
X2065688Y2659659D01*
X2012435Y2578121D02*
X2065688Y2631375D01*
X2003220Y2653760D02*
X2065688Y2716228D01*
X2006292Y2628547D02*
X2065688Y2687943D01*
X2009690Y2600647D02*
X2065688Y2544649D01*
X2020516Y2529634D02*
X2065688Y2574806D01*
X2005767Y2632855D02*
X2065688Y2572934D01*
X2016409Y2553812D02*
X2065688Y2603090D01*
X1996022Y2755737D02*
X2065688Y2686071D01*
X2000985Y2679809D02*
X2065688Y2744512D01*
X1996744Y2732550D02*
X2002808Y2657144D01*
X1997253Y2726222D02*
X2065688Y2657787D01*
X1999726Y2695464D02*
X2065688Y2629502D01*
X2002200Y2664706D02*
X2065688Y2601218D01*
X2002808Y2657144D02*
X2012825Y2574914D01*
X2097167Y2521432D02*
X2393444Y2817709D01*
X2107320Y2503301D02*
X2407586Y2803567D01*
X2137780Y2448908D02*
X2450012Y2761140D01*
X2188547Y2358253D02*
X2520723Y2690429D01*
X2117473Y2485170D02*
X2421728Y2789424D01*
X2127627Y2467039D02*
X2435870Y2775282D01*
X2095688Y2854061D02*
X2433976Y2515773D01*
X2095688Y2825777D02*
X2415171Y2506294D01*
X2095688Y2797492D02*
X2396366Y2496814D01*
X2095688Y2656071D02*
X2300474Y2451285D01*
X2095688Y2627787D02*
X2300821Y2422654D01*
X2095688Y2599502D02*
X2289019Y2406172D01*
X2095688Y2571218D02*
X2277216Y2389690D01*
X2288980Y2354590D02*
X2330904Y2413135D01*
X2306184Y2502144D02*
X2321693Y2486635D01*
X2280107Y2499936D02*
X2306874Y2473169D01*
X2292288Y2348857D02*
X2362611Y2419180D01*
X2310520Y2384670D02*
X2399889Y2295302D01*
X2302635Y2330920D02*
X2354908Y2383193D01*
X2312983Y2312983D02*
X2352501Y2352501D01*
X2178393Y2376384D02*
X2302827Y2500817D01*
X2258973Y2364213D02*
X2306512Y2430602D01*
X2168240Y2394515D02*
X2275256Y2501531D01*
X2198700Y2340122D02*
X2301449Y2442871D01*
X2143678Y2438375D02*
X2291000Y2291053D01*
X2208853Y2321991D02*
X2278891Y2392029D01*
X2229160Y2285729D02*
X2270324Y2326893D01*
X2034928Y2459193D02*
X2075126Y2499391D01*
X2065688Y2520158D02*
Y2930862D01*
X2095688Y2542934D02*
X2265414Y2373208D01*
X2158087Y2412646D02*
X2259054Y2513613D01*
X2147933Y2430777D02*
X2250743Y2533587D01*
X2107680Y2502657D02*
X2256219Y2354119D01*
X2013988Y2568065D02*
X2066372Y2515682D01*
X2029726Y2482276D02*
X2065798Y2518347D01*
X2012825Y2574914D02*
X2024990Y2503293D01*
X2024622Y2505456D02*
X2065688Y2546522D01*
X2019775Y2533993D02*
X2101532Y2452237D01*
X2025804Y2499681D02*
X2137530Y2387954D01*
X2024990Y2503293D02*
X2039062Y2440848D01*
X2067422Y2350265D02*
X2125892Y2408736D01*
X2074843Y2329402D02*
X2136046Y2390605D01*
X2091644Y2289635D02*
X2156352Y2354343D01*
X2219007Y2303860D02*
X2259977Y2344830D01*
X2083184Y2309459D02*
X2146199Y2372474D01*
X2046662Y2414359D02*
X2095432Y2463129D01*
X2052968Y2392381D02*
X2105586Y2444998D01*
X2040356Y2436337D02*
X2085279Y2481260D01*
X2039062Y2440848D02*
X2055165Y2384723D01*
X2034032Y2463168D02*
X2173528Y2323672D01*
X2060001Y2371129D02*
X2115739Y2426867D01*
X2055165Y2384723D02*
X2075687Y2327028D01*
X3433678Y2245738D02*
X3692008Y2504068D01*
X3433678Y2217454D02*
X3692008Y2475784D01*
X3578422Y2219856D02*
X3581042Y2217236D01*
X3564280Y2205714D02*
X3566900Y2203094D01*
X3433678Y2132601D02*
X3692008Y2390931D01*
X3433678Y2117540D02*
X3692008Y2375869D01*
X3433678Y2189170D02*
X3692008Y2447499D01*
X3433678Y2160885D02*
X3692008Y2419215D01*
X3433678Y2274023D02*
X3692008Y2532352D01*
X3432282Y2337712D02*
X3543066Y2226928D01*
X3433678Y2308031D02*
X3528924Y2212785D01*
X3433678Y2279747D02*
X3514782Y2198643D01*
X3433678Y2251463D02*
X3500640Y2184501D01*
X3433678Y2223178D02*
X3486498Y2170359D01*
X3433678Y2117540D02*
Y2331392D01*
X3550137Y2191572D02*
X3552758Y2188952D01*
X3573971Y2167738D02*
X3578248Y2163461D01*
X3535995Y2177430D02*
X3538616Y2174810D01*
X3521853Y2163288D02*
X3524474Y2160667D01*
X3559829Y2153596D02*
X3564106Y2149319D01*
X3545687Y2139454D02*
X3549964Y2135177D01*
X3531545Y2125312D02*
X3535822Y2121035D01*
X3517402Y2111170D02*
X3521680Y2106893D01*
X3507711Y2149146D02*
X3510331Y2146525D01*
X3493569Y2135004D02*
X3496189Y2132383D01*
X3433678Y2194894D02*
X3472356Y2156217D01*
X3433678Y2166610D02*
X3458213Y2142075D01*
X3479427Y2120861D02*
X3482047Y2118241D01*
X3465284Y2106719D02*
X3467905Y2104099D01*
X3433678Y2138325D02*
X3444071Y2127932D01*
X3263910Y2421230D02*
X3403678Y2281463D01*
X3323603Y2277085D02*
X3387688Y2341169D01*
X3238750Y2277085D02*
X3345261Y2383595D01*
X3295319Y2277085D02*
X3373545Y2355311D01*
X3403678Y2204035D02*
Y2325178D01*
X3355954Y2252867D02*
X3403678Y2300591D01*
X3267035Y2277085D02*
X3359403Y2369453D01*
X3341812Y2267010D02*
X3401830Y2327027D01*
X3179058Y2421230D02*
X3323203Y2277085D01*
X3210466D02*
X3331119Y2397738D01*
X3150773Y2421230D02*
X3294919Y2277085D01*
X3182182D02*
X3316977Y2411880D01*
X3235626Y2421230D02*
X3403678Y2253178D01*
X3207342Y2421230D02*
X3403678Y2224894D01*
X3153898Y2277085D02*
X3298043Y2421230D01*
X3370097Y2238725D02*
X3403678Y2272307D01*
X3384239Y2224583D02*
X3403678Y2244023D01*
X3398381Y2210441D02*
X3403678Y2215738D01*
X3336137Y2272685D02*
X3400843Y2207979D01*
X3319311Y2247085D02*
X3375242Y2191154D01*
X3296635Y2247085D02*
X3375242Y2168477D01*
X3147416Y2129182D02*
X3265319Y2247085D01*
X3268350D02*
X3375242Y2140193D01*
X3240066Y2247085D02*
X3375242Y2111909D01*
X3178175Y2103372D02*
X3320599Y2245796D01*
X3162796Y2116277D02*
X3293603Y2247085D01*
X3530000Y2030933D02*
X3945329Y2446262D01*
X3530000Y2002648D02*
X3959471Y2432119D01*
X3530000Y2072787D02*
X3798030Y2340817D01*
X3557035Y2099822D02*
X3616711Y2040146D01*
X3581986Y1941497D02*
X4016040Y2375551D01*
X3565659Y1868602D02*
X4044324Y2347267D01*
X3530000Y1974364D02*
X3973613Y2417977D01*
X3571177Y2113964D02*
X3819267Y1865873D01*
X3458616Y2094810D02*
X3732340Y2368534D01*
X3504399Y2089613D02*
X3772429Y2357643D01*
X3458616Y2100051D02*
X3717608Y2359043D01*
X3503260Y2097028D02*
X3507537Y2092751D01*
X3530000Y2059217D02*
X3931187Y2460404D01*
X3483850Y2069636D02*
X3772429Y2358215D01*
X3483850Y2077618D02*
X3757940Y2351708D01*
X3542893Y2085680D02*
X3601628Y2026945D01*
X3530000Y2070288D02*
X3591562Y2008726D01*
X3530000Y2042004D02*
X3577420Y1994583D01*
X3556386Y1973549D02*
X3599971Y2017134D01*
X3530000Y2013719D02*
X3563278Y1980441D01*
X3500000Y1862000D02*
Y2079000D01*
X3530000Y1862000D02*
Y2072787D01*
X3489118Y2082886D02*
X3500000Y2072004D01*
X3483850Y2059869D02*
X3500000Y2043719D01*
X3483850Y2041352D02*
X3500000Y2057501D01*
X3483850Y2013067D02*
X3500000Y2029217D01*
X3483850Y1984783D02*
X3500000Y2000933D01*
X3483850Y2031585D02*
X3500000Y2015435D01*
X3211782Y2247085D02*
X3375242Y2083625D01*
X3458616Y2094810D02*
Y2100051D01*
X3288788Y2044280D02*
X3375242Y2130733D01*
X3312390Y2039597D02*
X3375242Y2102449D01*
X3483850Y1840000D02*
Y2077618D01*
X3339573Y2038496D02*
X3375242Y2074165D01*
Y1812548D02*
Y2191154D01*
X3183497Y2247085D02*
X3375242Y2055340D01*
X3155213Y2247085D02*
X3375242Y2027056D01*
X3139896Y2135493D02*
X3179344Y2102392D01*
X3143712Y2059927D02*
X3179344Y2102392D01*
X3169827Y2091050D02*
X3314154Y1946722D01*
X3144017Y2060291D02*
X3302117Y1902191D01*
X3156922Y2075670D02*
X3297377Y1935215D01*
X3354551Y2025190D02*
X3375242Y2045880D01*
X3368693Y2011048D02*
X3375242Y2017596D01*
X3344543Y2035198D02*
X3369751Y2009990D01*
X3483850Y2003300D02*
X3500000Y1987151D01*
X3374150Y1813639D02*
Y1999378D01*
X3344150Y1807426D02*
Y1993164D01*
X3294657Y2039597D02*
X3333930D01*
X3294657Y2009597D02*
X3327717D01*
X3307848D02*
X3344150Y1973295D01*
X3285673Y2003488D02*
X3344150Y1945010D01*
X3327717Y2009597D02*
X3344150Y1993164D01*
X3125613Y2277085D02*
X3269759Y2421230D01*
X3120963Y2277085D02*
X3325524D01*
X3037636Y2421230D02*
X3181782Y2277085D01*
X3122489Y2421230D02*
X3266635Y2277085D01*
X3065920Y2421230D02*
X3210066Y2277085D01*
X3094205Y2421230D02*
X3238350Y2277085D01*
X2668755Y3186092D02*
X3585493Y2269354D01*
X3009352Y2421230D02*
X3153497Y2277085D01*
X2568283Y2805731D02*
X3105839Y2268175D01*
X2986846Y2415452D02*
X3125213Y2277085D01*
X2654613Y3171950D02*
X3571351Y2255212D01*
X2640471Y3157807D02*
X3557208Y2241070D01*
X2983396Y2163152D02*
X3241474Y2421230D01*
X3132038Y2142088D02*
X3237035Y2247085D01*
X3127176D02*
X3319311D01*
X3118208Y2238117D02*
X3127176Y2247085D01*
X3116658Y2154993D02*
X3208750Y2247085D01*
X3104264Y2093028D02*
X3139896Y2135493D01*
X3130704Y2130173D02*
X3133274Y2127602D01*
X3117799Y2114793D02*
X3120370Y2112222D01*
X3104894Y2099414D02*
X3107465Y2096843D01*
X3075633Y2170536D02*
X3152182Y2247085D01*
X3101279Y2167898D02*
X3180466Y2247085D01*
X3096994Y2259330D02*
X3110350Y2272685D01*
X3097674Y2170923D02*
X3137122Y2137822D01*
X3101490Y2095357D02*
X3137122Y2137822D01*
X3062042Y2128458D02*
X3101490Y2095357D01*
X2718794Y2209677D02*
X3040613Y2531496D01*
X3015172Y2166644D02*
X3075523Y2226995D01*
X2718794Y2266246D02*
X2984044Y2531496D01*
X2718794Y2237961D02*
X3012329Y2531496D01*
X2718794Y2096540D02*
X3043484Y2421230D01*
X2718794Y2096540D02*
X3043484Y2421230D01*
X2718794Y2124824D02*
X3015200Y2421230D01*
X2718794Y2153109D02*
X2979450Y2413764D01*
X2385602Y2931843D02*
X3074174Y2243271D01*
X2532899Y2812831D02*
X3087809Y2257920D01*
X2711102Y2521490D02*
X3060921Y2171672D01*
X2717876Y2486432D02*
X3035437Y2168871D01*
X2665276Y2595600D02*
X3094151Y2166725D01*
X2699944Y2476079D02*
X3009953Y2166070D01*
X2682013Y2465726D02*
X2984469Y2163270D01*
X3088892Y2160457D02*
X3097674Y2170923D01*
X3077597Y2169242D02*
X3088892Y2160457D01*
X3063980Y2141827D02*
X3069595Y2137460D01*
X3054557Y2092891D02*
X3077311Y2115646D01*
X3062629Y2141679D02*
X3068342Y2135966D01*
X3062042Y2128458D02*
X3069595Y2137460D01*
X3046949Y2170136D02*
X3091568Y2214756D01*
X2964066Y2161028D02*
X3066719Y2172309D01*
X2972572Y2131782D02*
X3063980Y2141827D01*
X3039177Y2105796D02*
X3063096Y2129715D01*
X3011662Y2136078D02*
X3056366Y2091373D01*
X2986178Y2133277D02*
X3014792Y2104662D01*
X2965996Y2125175D02*
X3001887Y2089283D01*
X3116798Y2228932D02*
X3306132Y2039597D01*
X3102149Y2215296D02*
X3271325Y2046120D01*
X3104264Y2093028D02*
X3114299Y2084608D01*
X3137367Y2065252D02*
X3143712Y2059927D01*
X3039151Y1851211D02*
X3375242Y2187302D01*
X3072598Y1856374D02*
X3375242Y2159018D01*
X3127052Y2246961D02*
X3334424Y2039589D01*
X3131454Y2028367D02*
X3334741Y2231654D01*
X2357318Y2931843D02*
X3256777Y2032384D01*
X2844220Y2052260D02*
X3213190Y2421230D01*
X2718794Y2011687D02*
X3128337Y2421230D01*
X2828841Y2065165D02*
X3184906Y2421230D01*
X3023196Y1891825D02*
X3348883Y2217512D01*
X2978479Y1818823D02*
X3363026Y2203370D01*
X2718794Y1983403D02*
X3156622Y2421230D01*
X3131062Y2056259D02*
X3138828Y2064026D01*
X3126406Y2049618D02*
X3302117Y1873906D01*
X3118895Y2038905D02*
X3137367Y2065252D01*
X3118895Y2038905D02*
X3137256Y2023499D01*
X3131318Y2016422D02*
X3302117Y1845622D01*
X3118413Y2001042D02*
X3302117Y1817338D01*
X3090098Y1845589D02*
X3258204Y2013695D01*
X3099900Y1827108D02*
X3275068Y2002275D01*
X3065923Y1736562D02*
X3333338Y2003977D01*
X3081267Y1723621D02*
X3344150Y1986505D01*
X3086440Y1962939D02*
X3137256Y2023499D01*
X3050579Y1749502D02*
X3310675Y2009597D01*
X3009215Y2025387D02*
X3442020Y1592582D01*
X2994951Y2011366D02*
X3413736Y1592582D01*
X2980688Y1997346D02*
X3385451Y1592582D01*
X3037145Y2138878D02*
X3104867Y2071156D01*
X3085316Y2067082D02*
X3108069Y2089835D01*
X3025426Y2117335D02*
X3079954Y2071581D01*
X3069936Y2079986D02*
X3092691Y2102741D01*
X3095827Y2058262D02*
X3114299Y2084608D01*
X3078222Y2069517D02*
X3080793Y2066947D01*
X2974610Y2056775D02*
X3025426Y2117335D01*
X3029138Y2011021D02*
X3079954Y2071581D01*
X2718794Y2068256D02*
X3071769Y2421230D01*
X2718794Y2039971D02*
X3100053Y2421230D01*
X2951887Y2110999D02*
X2988983Y2073904D01*
X2937778Y2096824D02*
X2976078Y2058524D01*
X2842903Y1937806D02*
X3044818Y2139722D01*
X2856905Y1980093D02*
X3013042Y2136229D01*
X2874979Y2026450D02*
X2981266Y2132737D01*
X3082728Y2069253D02*
X3095827Y2058262D01*
X3065317Y2054138D02*
X3067888Y2051567D01*
X3052412Y2038758D02*
X3054983Y2036188D01*
X3039508Y2023379D02*
X3042078Y2020808D01*
X3031912Y2008693D02*
X3082728Y2069253D01*
X3031912Y2008693D02*
X3086440Y1962939D01*
X3010506Y2026655D02*
X3029138Y2011021D01*
X2974610Y2056775D02*
X2987419Y2046028D01*
X2944712Y1961985D02*
X3010506Y2026655D01*
X2918552Y1985171D02*
X2983063Y2049682D01*
X2923682Y1983380D02*
X2987419Y2046028D01*
X2922336Y1904102D02*
X3057907Y2039673D01*
X2960608Y1914090D02*
X3044581Y1998063D01*
X2946487Y1956537D02*
X3013822Y2023872D01*
X3530000Y1985435D02*
X3551995Y1963440D01*
X3530000Y1946080D02*
X3553575Y1969655D01*
X3551986Y1901377D02*
Y1962936D01*
X3530000Y1957151D02*
X3551986Y1935165D01*
X3540059Y1889449D02*
X3551986Y1901377D01*
X3530000Y1900582D02*
X3540596Y1889986D01*
X3530000Y1917795D02*
X3551986Y1939782D01*
X3530000Y1928867D02*
X3551986Y1906880D01*
X3483850Y1975016D02*
X3500000Y1958867D01*
X3483850Y1956499D02*
X3500000Y1972648D01*
X3483850Y1899930D02*
X3500000Y1916080D01*
X3530000Y1889511D02*
X3551986Y1911497D01*
X3483850Y1918447D02*
X3500000Y1902298D01*
X3565659Y1872623D02*
X3577587Y1884551D01*
X3575951Y1882915D02*
X3596867Y1862000D01*
X3565659D02*
X3613000D01*
X3565659D02*
Y1872623D01*
Y1864923D02*
X3568582Y1862000D01*
X3530000Y1872298D02*
X3535659Y1866639D01*
X3483850Y1890163D02*
X3500000Y1874014D01*
X3483850Y1871646D02*
X3500000Y1887795D01*
X3535659Y1862000D02*
Y1878837D01*
X3530773Y1862000D02*
X3535659Y1866886D01*
X3530000Y1862000D02*
X3535659D01*
X3483850Y1946732D02*
X3500000Y1930582D01*
X3483850Y1928215D02*
X3500000Y1944364D01*
X3339597Y1925382D02*
X3344150Y1929936D01*
X3339421Y1921455D02*
X3344150Y1916726D01*
X3490000Y1842000D02*
Y1862000D01*
X3500000D01*
X3332117Y1815741D02*
Y1907648D01*
X3329279Y1943349D02*
X3344150Y1958220D01*
X3332117Y1889619D02*
X3344150Y1901652D01*
X3332117Y1900475D02*
X3344150Y1888442D01*
X3332117Y1861334D02*
X3344150Y1873367D01*
X3332117Y1872191D02*
X3344150Y1860157D01*
X3302117Y1809528D02*
Y1907648D01*
X3483850Y1861879D02*
X3490000Y1855729D01*
X3483850Y1843362D02*
X3490000Y1849511D01*
X3483850Y1840000D02*
X3490000D01*
X3401645Y1710000D02*
X3490000D01*
X3337605Y1810253D02*
X3344150Y1816799D01*
X3332117Y1815741D02*
X3344801Y1803058D01*
X3332117Y1833050D02*
X3344150Y1845083D01*
X3332117Y1843906D02*
X3344150Y1831873D01*
X3306517Y1798915D02*
X3391032Y1714399D01*
X3558376Y1702501D02*
X3563000Y1697876D01*
Y1688000D02*
X3576614D01*
X3563000D02*
Y1707470D01*
X3550275Y1694399D02*
X3561260Y1705385D01*
X3572876Y1688000D02*
X3576614Y1684262D01*
Y1671614D02*
Y1688000D01*
X3466023Y1710000D02*
X3583441Y1592582D01*
X3515914D02*
X3582805Y1659473D01*
X3459345Y1592582D02*
X3563000Y1696237D01*
X3487630Y1592582D02*
X3576614Y1681566D01*
X3542349Y1690243D02*
X3640010Y1592582D01*
X3516308Y1688000D02*
X3611726Y1592582D01*
X3544198D02*
X3608230Y1656614D01*
X3558013Y1380122D02*
X3696780Y1518890D01*
X3580972Y1374797D02*
X3720390Y1514215D01*
X3572482Y1592582D02*
X3636514Y1656614D01*
X3535499Y1385893D02*
X3668496Y1518890D01*
X3543996D02*
X3701769Y1361117D01*
X3572281Y1518890D02*
X3730737Y1360434D01*
X3515712Y1518890D02*
X3671375Y1363227D01*
X3541244Y1384011D02*
X3583784Y1374145D01*
X3493992Y1400955D02*
X3611928Y1518890D01*
X3514192Y1392870D02*
X3640212Y1518890D01*
X3454767Y1418298D02*
X3555359Y1518890D01*
X3474380Y1409626D02*
X3583643Y1518890D01*
X3459143D02*
X3607510Y1370523D01*
X3487428Y1518890D02*
X3640459Y1365859D01*
X3430859Y1518890D02*
X3573134Y1376615D01*
X3490000Y1688000D02*
Y1708000D01*
Y1688000D02*
X3540000D01*
X3409455Y1710000D02*
X3526873Y1592582D01*
X3437739Y1710000D02*
X3555157Y1592582D01*
X3431061D02*
X3526479Y1688000D01*
X3414643Y1434742D02*
X3498790Y1518890D01*
X3374492Y1592582D02*
X3490000Y1708090D01*
X3402777Y1592582D02*
X3498195Y1688000D01*
X3317924Y1592582D02*
X3435342Y1710000D01*
X3346208Y1592582D02*
X3463626Y1710000D01*
X3319399Y1424352D02*
X3413938Y1518890D01*
X3402575D02*
X3535608Y1385857D01*
X3317722Y1518890D02*
X3399560Y1437052D01*
X3387831Y1436215D02*
X3470506Y1518890D01*
X3415226Y1434628D02*
X3432934Y1427951D01*
X3391800Y1437023D02*
X3402795Y1437064D01*
X3415226Y1434628D01*
X3435154Y1426969D02*
X3527075Y1518890D01*
X3506808Y1395289D02*
X3541244Y1384011D01*
X3432934Y1427951D02*
X3506808Y1395289D01*
X3346006Y1518890D02*
X3440125Y1424771D01*
X3352312Y1428980D02*
X3442222Y1518890D01*
X3366538Y1431878D02*
X3391800Y1437023D01*
X3339054Y1426279D02*
X3366538Y1431878D01*
X3289847Y1423084D02*
X3385653Y1518890D01*
X3374291D02*
X3490825Y1402355D01*
X3306252Y1423062D02*
X3339054Y1426279D01*
X3142643Y1671860D02*
X3302117Y1831334D01*
X3157987Y1658920D02*
X3303143Y1804076D01*
X3111955Y1697741D02*
X3302117Y1887903D01*
X3127299Y1684800D02*
X3302117Y1859619D01*
X3105508Y1985663D02*
X3498589Y1592582D01*
X3188675Y1633039D02*
X3330534Y1774898D01*
X3100791Y1820674D02*
X3328883Y1592582D01*
X3173331Y1645979D02*
X3316392Y1789040D01*
X3092603Y1970283D02*
X3470304Y1592582D01*
X3095148Y1798033D02*
X3300599Y1592582D01*
X3096611Y1710681D02*
X3298187Y1912257D01*
X2922012Y1886315D02*
X3103222Y1705105D01*
X2966424Y1983325D02*
X3357167Y1592582D01*
X3080803Y1784093D02*
X3272314Y1592582D01*
X3057462Y1779149D02*
X3244030Y1592582D01*
X3219363Y1607158D02*
X3358818Y1746614D01*
X3234707Y1594218D02*
X3372960Y1732472D01*
X3204019Y1620099D02*
X3344676Y1760756D01*
X3150375Y1594739D02*
X3167385Y1611749D01*
X3289639Y1592582D02*
X3407057Y1710000D01*
X3236647Y1592582D02*
X3734804D01*
X3261355D02*
X3387102Y1718329D01*
X3164517Y1580597D02*
X3182729Y1598809D01*
X3119452Y1620385D02*
X3136697Y1637630D01*
X3141531Y1614180D02*
X3152041Y1624690D01*
X3000425Y1751334D02*
X3131496Y1620263D01*
X2988711Y1734764D02*
X3109133Y1614342D01*
X3020796Y1774620D02*
X3236647Y1592582D01*
X2978721Y1716469D02*
X3104039Y1591152D01*
X3013232Y1910145D02*
X3075340Y1972253D01*
X3018978Y1902487D02*
X3063510Y1857955D01*
X2995578Y1920775D02*
X3059961Y1985158D01*
X3022389Y1870791D02*
X3040869Y1852312D01*
X3011344Y1853552D02*
X3026929Y1837967D01*
X2952160Y1969305D02*
X3004439Y1917026D01*
X2962808Y1831436D02*
X2975663Y1844292D01*
X2992582Y1844030D02*
X3021985Y1814626D01*
X2993859Y1805919D02*
X3028601Y1840661D01*
X2974255Y1822368D02*
X3013057Y1789809D01*
X3020637Y1776129D02*
X3034223Y1789714D01*
X3009238Y1793014D02*
X3023438Y1807214D01*
X3035235Y1762442D02*
X3052704Y1779912D01*
X2987223Y1742715D02*
X2996010Y1751501D01*
X2944144Y1790690D02*
X2985018Y1756392D01*
X2937188Y1788201D02*
X2980919Y1751507D01*
X2973748Y1757524D02*
X2978275Y1762051D01*
X2968117Y1667040D02*
X3029289Y1728212D01*
X2906202Y1576841D02*
X3044633Y1715272D01*
X2963051Y1690258D02*
X3013945Y1741153D01*
X3174579Y1570536D02*
X3216254D01*
X3289438Y1518890D02*
X3374773Y1433555D01*
X3182740Y1570536D02*
X3198073Y1585869D01*
X3211025Y1570536D02*
X3213417Y1572928D01*
X3209539Y1427629D02*
X3300800Y1518890D01*
X3232869D02*
X3326692Y1425067D01*
X3184571Y1430945D02*
X3272516Y1518890D01*
X3204585D02*
X3300405Y1423070D01*
X3001728Y1751456D02*
X3216254Y1570536D01*
X3173186Y1606857D02*
X3209507Y1570536D01*
X3146871Y1604888D02*
X3181223Y1570536D01*
X3147719Y1597395D02*
X3174579Y1570536D01*
X3126506Y1576181D02*
X3153799Y1548890D01*
X2856573D02*
X3153799D01*
X3117760Y1577431D02*
X3146300Y1548890D01*
X3235672Y1425478D02*
X3329085Y1518890D01*
X3261153D02*
X3351275Y1428769D01*
X3148016Y1518890D02*
X3241945Y1424962D01*
X3159712Y1434370D02*
X3244232Y1518890D01*
X3261806Y1423327D02*
X3357369Y1518890D01*
X3264358Y1423117D02*
X3306252Y1423062D01*
X3176300Y1518890D02*
X3272083Y1423107D01*
X3207310Y1427812D02*
X3264358Y1423117D01*
X3134853Y1437795D02*
X3215947Y1518890D01*
X2850360D02*
X3715715D01*
X3086912Y1446423D02*
X3159379Y1518890D01*
X3110830Y1442057D02*
X3187663Y1518890D01*
X3119732D02*
X3211124Y1427498D01*
X3132104Y1438174D02*
X3207310Y1427812D01*
X3091448Y1518890D02*
X3178565Y1431772D01*
X2991389Y1548890D02*
X3106009Y1663511D01*
X3019673Y1548890D02*
X3121353Y1650570D01*
X2966003Y1672619D02*
X3089732Y1548890D01*
X2969415Y1640923D02*
X3061448Y1548890D01*
X3104526D02*
X3129162Y1573526D01*
X3132810Y1548890D02*
X3143304Y1559384D01*
X3047957Y1548890D02*
X3103515Y1604447D01*
X3076242Y1548890D02*
X3109720Y1582369D01*
X2927622Y1739284D02*
X3118016Y1548890D01*
X2906536D02*
X3059977Y1702332D01*
X2860001Y1665484D02*
X2976595Y1548890D01*
X2914112Y1639657D02*
X3004879Y1548890D01*
X2934820D02*
X3075321Y1689391D01*
X2963104Y1548890D02*
X3090665Y1676451D01*
X2951459Y1630594D02*
X3033163Y1548890D01*
X3039374Y1455454D02*
X3102810Y1518890D01*
X3062994Y1450789D02*
X3131095Y1518890D01*
X3016375Y1460739D02*
X3074526Y1518890D01*
X3006595D02*
X3077308Y1448176D01*
X3063163Y1518890D02*
X3145761Y1436292D01*
X3046845Y1453737D02*
X3132104Y1438174D01*
X3034879Y1518890D02*
X3111909Y1441860D01*
X2970775Y1471708D02*
X3017957Y1518890D01*
X2993375Y1466024D02*
X3046242Y1518890D01*
X2948909Y1478126D02*
X2989673Y1518890D01*
X2925113Y1485111D02*
X2978475Y1469447D01*
X2978310Y1518890D02*
X3042454Y1454746D01*
X2978475Y1469447D02*
X3046845Y1453737D01*
X2950026Y1518890D02*
X3005732Y1463184D01*
X2718794Y2181393D02*
X2960178Y2422777D01*
X2718794Y2259239D02*
X2888346Y2089687D01*
X2718794Y2230955D02*
X2874237Y2075512D01*
X2718794Y2202671D02*
X2860128Y2061337D01*
X2718794Y2174387D02*
X2826425Y2066756D01*
X2661290Y2458165D02*
X2959618Y2159837D01*
X2646149Y2445021D02*
X2944783Y2146388D01*
X2565077Y2140813D02*
X2688794Y2264530D01*
X2664369Y2398518D02*
X2930674Y2132213D01*
X2690722Y2343880D02*
X2916564Y2118037D01*
X2717075Y2289243D02*
X2902455Y2103862D01*
X2871030Y2029764D02*
X2972572Y2131782D01*
X2923669Y2082649D02*
X2973737Y2032580D01*
X2909559Y2068474D02*
X2959474Y2018560D01*
X2871030Y2029764D02*
X2887200Y2016196D01*
X2895450Y2054299D02*
X2945210Y2004539D01*
X2881341Y2040124D02*
X2930946Y1990519D01*
X2882539Y2010641D02*
X2906635Y1986546D01*
X2847965Y2049117D02*
X2955021Y2156674D01*
X2826640Y2067012D02*
X2847965Y2049117D01*
X2718794Y2146102D02*
X2813520Y2051376D01*
X2718794Y2117818D02*
X2800615Y2035997D01*
X2775824Y2006452D02*
X2826640Y2067012D01*
X2869634Y1995262D02*
X2885460Y1979436D01*
X2718794Y2089534D02*
X2787710Y2020617D01*
X2616803Y2428079D02*
X2688794Y2278821D01*
X2533059Y2416691D02*
X2688794Y2260955D01*
X2529490Y2190079D02*
X2665834Y2326423D01*
X2585782Y2104950D02*
X2688794Y2207961D01*
X2529465Y2194009D02*
X2688794Y2034681D01*
X2554724Y2158744D02*
X2684241Y2288261D01*
X2575430Y2122881D02*
X2688794Y2236246D01*
X2513916Y2407549D02*
X2688794Y2232671D01*
X2494772Y2398408D02*
X2688794Y2204387D01*
X2509192Y2226350D02*
X2647428Y2364585D01*
X2523654Y2212527D02*
X2656631Y2345504D01*
X2489201Y2121506D02*
X2675038Y2307342D01*
X2499239Y1990122D02*
X2688794Y2179677D01*
X2523834Y2171356D02*
X2542762Y2152429D01*
X2579692Y2115498D02*
X2688794Y2006396D01*
X2582702Y2084204D02*
X2688794Y1978112D01*
X2554468Y2159188D02*
X2593996Y2090724D01*
X2525532Y2051196D02*
X2593996Y2090724D01*
X2530643Y1964958D02*
X2688794Y2123109D01*
X2587212Y1964958D02*
X2688794Y2066540D01*
X2558928Y1964958D02*
X2688794Y2094824D01*
X2528908Y2053145D02*
X2617095Y1964958D01*
X2509497Y2157409D02*
X2524830Y2142076D01*
X2488891Y2008059D02*
X2540904Y2060071D01*
X2486169Y2152452D02*
X2506898Y2131723D01*
X2486499Y2118803D02*
X2489201Y2121506D01*
X2509586Y1972185D02*
X2688794Y2151393D01*
X2513756Y1964958D02*
X2634603D01*
X2488550Y2008650D02*
X2532242Y1964958D01*
X2836384Y1955636D02*
X2887200Y2016196D01*
X2856729Y1979883D02*
X2872474Y1964137D01*
X2775824Y2006452D02*
X2836384Y1955636D01*
X2806771Y1958243D02*
X2818865Y1970337D01*
X2843824Y1964503D02*
X2869439Y1938888D01*
X2738633Y1946673D02*
X2788106Y1996146D01*
X2753923Y1933678D02*
X2803485Y1983241D01*
X2718794Y2061249D02*
X2838764Y1941279D01*
X2723344Y1959668D02*
X2805534Y2041858D01*
X2718794Y2032965D02*
X2796606Y1955153D01*
X2718794Y2004681D02*
X2784137Y1939338D01*
X2564771Y2073851D02*
X2883996Y1754626D01*
X2718794Y1976396D02*
X2779281Y1915910D01*
X2718794Y1963535D02*
X2774794Y1915939D01*
X2947616Y1945565D02*
X2972743Y1920437D01*
X2858283Y1924901D02*
X2869991Y1936610D01*
X2940506Y1924390D02*
X2955504Y1909392D01*
X2873231Y1911565D02*
X2880465Y1918800D01*
X2827524Y1950711D02*
X2834244Y1957432D01*
X2825626Y1952304D02*
X2869356Y1915609D01*
X2769212Y1920684D02*
X2783323Y1934794D01*
X2694080Y1945169D02*
X2755105Y1893301D01*
X2644343Y1961366D02*
X2742700Y1877641D01*
X2718794Y1963535D02*
Y2282250D01*
X2641891Y1963068D02*
X2688794Y2009971D01*
Y1956598D02*
Y2278821D01*
X2657377Y1950270D02*
X2688794Y1981687D01*
X2687935Y1924259D02*
X2702061Y1938385D01*
X2672656Y1937265D02*
X2689079Y1953688D01*
X2587212Y1964958D02*
X2688794Y2066540D01*
X2615496Y1964958D02*
X2688794Y2038256D01*
X2546839Y2063498D02*
X2675458Y1934880D01*
X2590527Y1934958D02*
X2650330Y1875154D01*
X2703213Y1911254D02*
X2717350Y1925390D01*
X2553977Y1875154D02*
X2613781Y1934958D01*
X2582261Y1875154D02*
X2636096Y1928989D01*
X2618811Y1934958D02*
X2714406Y1839363D01*
X2629083Y1934958D02*
X2722963Y1855045D01*
X2562242Y1934958D02*
X2622046Y1875154D01*
X2512161Y1889907D02*
X2557212Y1934958D01*
X2505092D02*
X2629083D01*
X2496082Y1902112D02*
X2528928Y1934958D01*
X2512161Y1889907D02*
X2557212Y1934958D01*
X2528241Y1877703D02*
X2585496Y1934958D01*
X2533958D02*
X2593762Y1875154D01*
X2505674Y1934958D02*
X2565477Y1875154D01*
X2456486Y2380126D02*
X2688794Y2147818D01*
X2437343Y2370985D02*
X2688794Y2119534D01*
X2475629Y2389267D02*
X2688794Y2176102D01*
X2485638Y2231080D02*
X2638224Y2383666D01*
X2344026Y2259173D02*
X2472739Y2387887D01*
X2298718Y2368189D02*
X2397388Y2269518D01*
X2395763Y2169490D02*
X2629021Y2402747D01*
X2295728Y2342894D02*
X2450659Y2187963D01*
X2354373Y2241236D02*
X2396791Y2283654D01*
X2473212Y2250262D02*
X2492215Y2231260D01*
X2456904Y2238287D02*
X2469562Y2225628D01*
X2431120Y2235786D02*
X2455615Y2211291D01*
X2486004Y2119660D02*
X2554468Y2159188D01*
X2426806Y2115679D02*
X2469267Y2158140D01*
X2437153Y2097742D02*
X2491715Y2152304D01*
X2385416Y2187426D02*
X2433368Y2235379D01*
X2364721Y2223300D02*
X2400832Y2259411D01*
X2375068Y2205363D02*
X2413541Y2243836D01*
X2334292Y2276045D02*
X2488967Y2121371D01*
X2416458Y2133616D02*
X2455444Y2172602D01*
X2406111Y2151553D02*
X2450714Y2196156D01*
X2333678Y2277110D02*
X2382717Y2326149D01*
X2249467Y2249467D02*
X2291019Y2291020D01*
X2239313Y2267598D02*
X2280672Y2308957D01*
X2118840Y2231977D02*
X2186812Y2299950D01*
X2179677Y2374092D02*
X2329565Y2224204D01*
X2215675Y2309810D02*
X2368129Y2157356D01*
X2128241Y2213095D02*
X2196966Y2281819D01*
X2259620Y2231336D02*
X2301367Y2273083D01*
X2043486Y2425430D02*
X2209526Y2259390D01*
X2109438Y2250860D02*
X2176659Y2318081D01*
X2100104Y2269811D02*
X2166506Y2336212D01*
X2075687Y2327028D02*
X2100716Y2268378D01*
X2054866Y2385765D02*
X2245525Y2195107D01*
X2070370Y2341978D02*
X2281523Y2130825D01*
X2100716Y2268378D02*
X2130527Y2208505D01*
X2290080Y2176943D02*
X2332410Y2219273D01*
X2300233Y2158812D02*
X2342757Y2201336D01*
X2269773Y2213205D02*
X2311714Y2255146D01*
X2279927Y2195074D02*
X2322062Y2237210D01*
X2320540Y2122550D02*
X2363452Y2165463D01*
X2330693Y2104419D02*
X2373800Y2147526D01*
X2310387Y2140682D02*
X2353105Y2183399D01*
X2191567Y2106715D02*
X2257886Y2173034D01*
X2148559Y2176844D02*
X2217273Y2245557D01*
X2158822Y2158823D02*
X2227426Y2227426D01*
X2138295Y2194864D02*
X2207119Y2263688D01*
X2130527Y2208505D02*
X2165489Y2147118D01*
X2169377Y2141093D02*
X2237579Y2209296D01*
X2180472Y2123904D02*
X2247733Y2191164D01*
X2165489Y2147118D02*
X2199310Y2094718D01*
X2427510Y2352533D02*
X2688794Y2091249D01*
X2482547Y2269212D02*
X2688794Y2062965D01*
X2372857Y2209197D02*
X2518258Y2063795D01*
X2447501Y2079806D02*
X2486499Y2118803D01*
X2411421Y2142348D02*
X2588811Y1964958D01*
X2486004Y2119660D02*
X2525532Y2051196D01*
X2457849Y2061869D02*
X2496852Y2100872D01*
X2468196Y2043932D02*
X2507204Y2082941D01*
X2288980Y2354590D02*
X2513756Y1964958D01*
X2323669Y2116962D02*
X2483823Y1956809D01*
X2287671Y2181245D02*
X2445258Y2023658D01*
X2371307Y2031896D02*
X2415190Y2075779D01*
X2258165Y2347970D02*
X2492099Y1942463D01*
X2145791Y2181704D02*
X2743547Y1583948D01*
X2189876Y2109334D02*
X2431446Y1867764D01*
X2449985Y2075499D02*
X2560527Y1964958D01*
X2478544Y2025995D02*
X2517557Y2065009D01*
X2415685Y1963137D02*
X2456580Y2004032D01*
X2431764Y1950932D02*
X2466928Y1986095D01*
X2405470Y1970890D02*
X2531598Y1875154D01*
X2480003Y1914317D02*
X2501166Y1935481D01*
X2447844Y1938727D02*
X2477275Y1968158D01*
X2463923Y1926522D02*
X2487623Y1950222D01*
X2401767Y1977503D02*
X2446233Y2021969D01*
X2395666Y1988397D02*
X2437438Y1946626D01*
X2381460Y2013765D02*
X2425537Y2057842D01*
X2391613Y1995634D02*
X2435885Y2039905D01*
X2359668Y2052680D02*
X2537193Y1875154D01*
X2384856Y1948874D02*
X2517466Y1848218D01*
X2399603Y1890486D02*
X2426432Y1917316D01*
X2251673Y2245527D02*
X2406694Y2090507D01*
X2351000Y2068158D02*
X2394495Y2111652D01*
X2340847Y2086289D02*
X2384147Y2129589D01*
X2226804Y2057099D02*
X2288346Y2118641D01*
X2361153Y2050027D02*
X2404842Y2093716D01*
X2264805Y2010246D02*
X2318806Y2064248D01*
X2239143Y2041154D02*
X2298499Y2100510D01*
X2251974Y2025700D02*
X2308653Y2082379D01*
X2089572Y2294491D02*
X2317521Y2066542D01*
X2214861Y2073440D02*
X2278193Y2136772D01*
X2202918Y2089781D02*
X2268039Y2154903D01*
X2199310Y2094718D02*
X2233418Y2048049D01*
X2095688Y2524072D02*
X2405470Y1970890D01*
X2067611Y2512809D02*
X2380812Y1953523D01*
X2113919Y2241860D02*
X2353519Y2002259D01*
X2335561Y1939582D02*
X2369573Y1973593D01*
X2351152Y1926888D02*
X2379726Y1955462D01*
X2366917Y1914369D02*
X2394273Y1941725D01*
X2383097Y1902264D02*
X2410353Y1929520D01*
X2338062Y1937283D02*
X2373867Y1908850D01*
X2278342Y1995500D02*
X2328959Y2046117D01*
X2292103Y1980976D02*
X2339113Y2027986D01*
X2233418Y2048049D02*
X2267882Y2006540D01*
X2302748Y1969741D01*
X2306085Y1966674D02*
X2349266Y2009855D01*
X2320823Y1953128D02*
X2359419Y1991724D01*
X2302748Y1969741D02*
X2338062Y1937283D01*
X2921812Y1875293D02*
X2953398Y1906880D01*
X2921506Y1858537D02*
X2948410Y1831634D01*
X2925207Y1911405D02*
X2945982Y1890630D01*
X2921287Y1846484D02*
X2946713Y1871910D01*
X2920762Y1817675D02*
X2957343Y1854256D01*
X2921001Y1830758D02*
X2934086Y1817673D01*
X2925381Y1794010D02*
X2934100Y1802728D01*
X2920495Y1802980D02*
X2932069Y1791406D01*
X2920422Y1798970D02*
X2926316Y1793076D01*
X2890311Y1793163D02*
X2892452Y1910754D01*
X2920422Y1798970D02*
X2922448Y1910208D01*
X2829407Y1837499D02*
X2902563Y1764343D01*
X2942990Y1783334D02*
X2947516Y1787860D01*
X2958369Y1770429D02*
X2962895Y1774955D01*
X2922877Y1734937D02*
X2927406Y1739466D01*
X2952985Y1708476D02*
X2958983Y1714475D01*
X2956570Y1696318D02*
X2961145Y1692283D01*
X2938257Y1722033D02*
X2942785Y1726561D01*
X2908383Y1748727D02*
X2912026Y1752370D01*
X2894708Y1782257D02*
X2901688Y1775277D01*
X2886840Y1755469D02*
X2901406Y1770035D01*
X2909149Y1754785D02*
X2952880Y1718091D01*
X2911400Y1744568D02*
X2948780Y1713203D01*
X2877055Y1887105D02*
X2892299Y1902350D01*
X2877758Y1902285D02*
X2892038Y1888005D01*
X2872527Y1879232D02*
X2891532Y1860227D01*
X2853440Y1870035D02*
X2891026Y1832448D01*
X2842204Y1852254D02*
X2861498Y1871548D01*
X2842354Y1852837D02*
X2890521Y1804670D01*
X2799843Y1838177D02*
X2804251Y1842586D01*
X2821098Y1802864D02*
X2891775Y1873541D01*
X2819928Y1773410D02*
X2891250Y1844732D01*
X2821579Y1788758D02*
X2870271Y1740067D01*
X2887388Y1699448D02*
X2891914Y1703974D01*
X2818832Y1763221D02*
X2865892Y1716161D01*
X2872671Y1713015D02*
X2876541Y1716885D01*
X2810271Y1820321D02*
X2826396Y1836447D01*
X2809967Y1815446D02*
X2817963Y1807450D01*
X2816519Y1741716D02*
X2890725Y1815923D01*
X2813110Y1710023D02*
X2891112Y1788025D01*
X2816085Y1737684D02*
X2843461Y1710307D01*
X2935929Y1670237D02*
X2936041Y1674423D01*
X2965919Y1669437D02*
X2966217Y1680634D01*
X2924423Y1657630D02*
X2927998Y1654055D01*
X2877009Y1716481D02*
X2920740Y1679786D01*
X2918084Y1673575D02*
X2922778Y1678269D01*
X2878914Y1706559D02*
X2916640Y1674903D01*
X2902767Y1686543D02*
X2907294Y1691069D01*
X2848679Y1674984D02*
X2888600Y1641486D01*
X2904970Y1603892D02*
X2936510Y1635432D01*
X2908012Y1589188D02*
X2948310Y1548890D01*
X2922860Y1650067D02*
X2928087Y1655294D01*
X2927044Y1484545D02*
X2961389Y1518890D01*
X2921742D02*
X2968155Y1472477D01*
X2901690Y1567226D02*
X2920026Y1548890D01*
X2906372Y1492158D02*
X2933104Y1518890D01*
X2892707Y1619915D02*
X2910748Y1637955D01*
X2886922Y1553710D02*
X2891742Y1548890D01*
X2893457Y1518890D02*
X2928118Y1484229D01*
X2885008Y1500191D02*
X2925113Y1485111D01*
X2885817Y1499887D02*
X2904820Y1518890D01*
X2829832Y1641892D02*
X2856425Y1668485D01*
X2828205Y1668549D02*
X2841389Y1681733D01*
X2827851Y1669349D02*
X2869000Y1628200D01*
X2872507Y1627999D02*
X2887184Y1642675D01*
X2829148Y1639768D02*
X2847038Y1621878D01*
X2815798Y1684427D02*
X2869851Y1738480D01*
X2813338Y1712147D02*
X2838599Y1686885D01*
X2810709Y1687711D02*
X2822276Y1795234D01*
X2810844Y1594619D02*
X2871804Y1655580D01*
X2817652Y1622980D02*
X2833522Y1607110D01*
X2853266Y1552197D02*
X2856573Y1548890D01*
X2829465Y1528388D02*
X2832057Y1530980D01*
X2865173Y1518890D02*
X2882849Y1501214D01*
X2847138Y1518128D02*
X2885008Y1500191D01*
X2866570Y1508924D02*
X2876536Y1518890D01*
X2806884Y1605463D02*
X2829374Y1582974D01*
X2806884Y1598579D02*
Y1616383D01*
X2824986Y1580477D02*
X2829165Y1584657D01*
X2806884Y1598579D02*
X2832009Y1573454D01*
X2806047Y1541985D02*
X2847138Y1518128D01*
X2811571Y1538778D02*
X2817915Y1545122D01*
X2792443Y1912759D02*
X2836175Y1876064D01*
X2790916Y1910938D02*
X2828987Y1878993D01*
X2762877Y1877521D02*
X2803422Y1843499D01*
X2758776Y1872636D02*
X2802507Y1835941D01*
X2769084Y1863987D02*
X2773611Y1868514D01*
X2784463Y1851082D02*
X2788990Y1855609D01*
X2752952Y1876140D02*
X2758827Y1882014D01*
X2718492Y1898248D02*
X2732640Y1912396D01*
X2733771Y1885242D02*
X2747929Y1899401D01*
X2675846Y1871355D02*
X2711837Y1839422D01*
X2699180Y1850652D02*
X2712489Y1863961D01*
X2684193Y1863949D02*
X2697210Y1876966D01*
X2764352Y1802686D02*
X2768879Y1807214D01*
X2733593Y1828496D02*
X2738120Y1833023D01*
X2748972Y1815591D02*
X2753500Y1820119D01*
X2784207Y1797846D02*
X2791590Y1790464D01*
X2785337Y1797650D02*
X2791680Y1791307D01*
X2777218Y1787268D02*
X2786469Y1796519D01*
X2730737Y1839219D02*
X2774468Y1802524D01*
X2715987Y1839174D02*
X2724544Y1847731D01*
X2726636Y1834333D02*
X2770367Y1797639D01*
X2677669Y1800856D02*
X2691068Y1814255D01*
X2638830Y1875154D02*
X2666653Y1902977D01*
X2667066Y1875107D02*
X2681932Y1889972D01*
X2610546Y1875154D02*
X2651374Y1915983D01*
X2531598Y1875154D02*
X2665869D01*
X2478508Y1827970D02*
X2506829Y1856291D01*
X2432615Y1866930D02*
X2458591Y1892906D01*
X2447937Y1853967D02*
X2474671Y1880701D01*
X2373867Y1908850D02*
X2433104Y1866581D01*
X2416109Y1878708D02*
X2442512Y1905111D01*
X2463222Y1840968D02*
X2490750Y1868496D01*
X2463222Y1840968D02*
X2490750Y1868496D01*
X2433104Y1866581D02*
X2488977Y1819067D01*
X2660174Y1845154D02*
X2690808Y1817974D01*
X2644844Y1824600D02*
X2662942Y1842698D01*
X2595477Y1845154D02*
X2619866Y1820766D01*
X2623762Y1845154D02*
X2644233Y1824684D01*
X2664832Y1816304D02*
X2677929Y1829401D01*
X2567193Y1845154D02*
X2604228Y1808120D01*
X2506429Y1799322D02*
X2552261Y1845154D01*
X2526550D02*
X2660174D01*
X2493159Y1814336D02*
X2524167Y1845345D01*
X2519763Y1784372D02*
X2580546Y1845154D01*
X2538909D02*
X2595692Y1788371D01*
X2488977Y1819067D02*
X2512549Y1792398D01*
X2777626Y1776142D02*
X2788843Y1764926D01*
X2751437Y1733203D02*
X2789528Y1771293D01*
X2765083Y1760402D02*
X2786095Y1739389D01*
X2780881Y1690919D02*
X2791680Y1791307D01*
X2753439Y1706920D02*
X2786118Y1739600D01*
X2754693Y1714223D02*
X2778698Y1690218D01*
X2746994Y1693638D02*
X2761910Y1678722D01*
X2652046Y1845154D02*
X2783348Y1713852D01*
X2738886Y1748936D02*
X2748933Y1758983D01*
X2476360Y1879418D02*
X2824518Y1531261D01*
X2694748Y1619945D02*
X2782709Y1707906D01*
X2776884Y1592366D02*
Y1616383D01*
X2781283Y1581753D02*
X2839747Y1523289D01*
X2794323Y1549815D02*
X2803773Y1559264D01*
X2760407Y1572467D02*
X2777207Y1589267D01*
X2777365Y1561141D02*
X2789631Y1573406D01*
X2704998Y1679065D02*
X2776884Y1607179D01*
X2731266Y1681081D02*
X2752894Y1659453D01*
X2711025Y1607938D02*
X2752514Y1649427D01*
X2743579Y1583924D02*
X2776289Y1616633D01*
X2746698Y1581623D02*
X2806047Y1541985D01*
X2727302Y1595931D02*
X2760411Y1629040D01*
X2698597Y1800917D02*
X2735232Y1770177D01*
X2681847Y1787069D02*
X2712271Y1756645D01*
X2681954Y1776857D02*
X2702630Y1797533D01*
X2718309Y1756643D02*
X2733389Y1771723D01*
X2677930Y1762702D02*
X2691686Y1748946D01*
X2546541Y1754581D02*
X2637114Y1845154D01*
X2533152Y1769477D02*
X2608830Y1845154D01*
X2559930Y1739685D02*
X2595588Y1775344D01*
X2616550Y1683169D02*
X2718009Y1784628D01*
X2512549Y1792398D02*
X2584140Y1712751D01*
X2647303Y1657353D02*
X2683576Y1693626D01*
X2665284Y1747064D02*
X2679129Y1733218D01*
X2645535Y1738528D02*
X2677113Y1706950D01*
X2678513Y1631995D02*
X2725592Y1679073D01*
X2679514Y1631182D02*
X2746698Y1581623D01*
X2662908Y1644674D02*
X2699309Y1681075D01*
X2586975Y1710162D02*
X2619332Y1742519D01*
X2601763Y1696666D02*
X2643331Y1738234D01*
X2573318Y1724790D02*
X2603884Y1755355D01*
X2563526Y1735684D02*
X2610722Y1688488D01*
X2631697Y1670032D02*
X2675869Y1714203D01*
X2624832Y1675610D02*
X2679514Y1631182D01*
X2584140Y1712751D02*
X2624832Y1675610D01*
D19*
X3099582Y2133140D02*
D03*
X3141804Y2097710D02*
D03*
D23*
X3823267Y1876338D02*
X3865748D01*
X3908229D01*
X3865748D02*
Y1892244D01*
X4250472Y1532598D02*
X4290000D01*
X4329528D01*
X4084252Y1646024D02*
X4126733D01*
X4041771D02*
X4084252D01*
Y1620434D02*
X4126733D01*
X4041771D02*
X4084252D01*
X4290000Y1497007D02*
Y1532598D01*
X3823267Y1646024D02*
X3865748D01*
X3908229D01*
X3865748Y1620434D02*
X3908229D01*
X3865748Y1594842D02*
X3908229D01*
X3823267Y1620434D02*
X3865748D01*
X3823267Y1569252D02*
X3865748D01*
X3908229D01*
X3823267Y1594842D02*
X3865748D01*
Y1527756D02*
Y1543662D01*
X3908229D01*
X3823267D02*
X3865748D01*
X3140000Y3030000D02*
X3200000D01*
X3140000D02*
Y3090000D01*
X3080000Y3030000D02*
X3140000D01*
Y2970000D02*
Y3030000D01*
X2745000Y2893426D02*
X2795000D01*
X2845000D01*
X2795000D02*
Y2943426D01*
Y2843426D02*
Y2893426D01*
X2520351Y3259079D02*
X2550631Y3284487D01*
X2494943Y3289359D02*
X2520351Y3259079D01*
X2545759Y3228799D01*
X2490071Y3233671D02*
X2520351Y3259079D01*
X2324316Y3094586D02*
X2354596Y3119994D01*
X2324316Y3094586D02*
X2349724Y3064307D01*
X2298908Y3124866D02*
X2324316Y3094586D01*
X2294036Y3069178D02*
X2324316Y3094586D01*
X2830900Y1914184D02*
X2844920Y1930892D01*
X2792326Y1946551D02*
X2830900Y1914184D01*
X2440000Y2278398D02*
X2474232Y2298162D01*
X2420236Y2312630D02*
X2440000Y2278398D01*
X2459764Y2244166D01*
X2405768Y2258634D02*
X2440000Y2278398D01*
X2830900Y1914184D02*
X2869474Y1881817D01*
X2816880Y1897476D02*
X2830900Y1914184D01*
X2608396Y1806920D02*
X2638676Y1781512D01*
X2664084Y1811792D01*
X2638676Y1781512D02*
X2668956Y1756104D01*
X2613268Y1751232D02*
X2638676Y1781512D01*
D24*
X2950477Y1653072D02*
X2951222Y1681034D01*
X2912894Y1714842D02*
X2951222Y1681034D01*
X2955316Y1810220D02*
X2977339Y1791647D01*
X4084252Y1799566D02*
X4220434D01*
X4084252Y1748386D02*
X4208386D01*
X4084252Y1825158D02*
X4244842D01*
X4084252Y1697204D02*
X4222204D01*
X4084252Y1850748D02*
X4259252D01*
X4142472Y1594842D02*
X4174868Y1562446D01*
X4084252Y1876338D02*
X4268662D01*
X4085276Y1775000D02*
X4438500D01*
X4084252Y1671614D02*
X4225788D01*
X3998934D02*
X4084252D01*
Y1722796D02*
X4217796D01*
X4549345Y2182220D02*
X4665397Y2298272D01*
X2703794Y1956598D02*
Y2282250D01*
Y1956598D02*
X2798762Y1875882D01*
X2505092Y1949958D02*
X2634603D01*
X2766622Y1837580D01*
X2665869Y1860154D02*
X2734482Y1799278D01*
X2526550Y1860154D02*
X2665869D01*
X2393910Y1960833D02*
X2526550Y1860154D01*
X2080688Y2520158D02*
X2393910Y1960833D01*
X2080688Y2520158D02*
Y2930862D01*
X2152601Y3172468D01*
X2210436Y3230303D01*
X2280236Y2855000D02*
Y2905082D01*
X2321997Y2946843D01*
X2408293D01*
X2670376Y3208926D01*
Y3365537D01*
X2639459Y3409878D02*
X2670376Y3365537D01*
X2210436Y3230303D02*
X2406471Y3394796D01*
X2512999Y3500036D01*
X2556173Y3503014D01*
X2591377Y3467181D01*
X3317117Y1809528D02*
Y1924418D01*
Y1809528D02*
X3401645Y1725000D01*
X3515000D01*
X3277886Y2024597D02*
X3333930D01*
X3359150Y1999378D01*
Y1807426D02*
Y1999378D01*
Y1807426D02*
X3421576Y1745000D01*
X3515000D01*
X3095743Y2236865D02*
X3120963Y2262085D01*
X3325524D01*
X3390242Y2197367D01*
Y1808237D02*
Y2197367D01*
X2978213Y2436230D02*
X3313840D01*
X3418678Y2331392D01*
Y1818828D02*
Y2331392D01*
X3390242Y1808237D02*
X3433479Y1765000D01*
X3515000D01*
X3418678Y1818828D02*
X3452506Y1785000D01*
X3550659Y1715997D02*
Y1878837D01*
X3452506Y1785000D02*
X3515000D01*
X3539662Y1705000D02*
X3550659Y1715997D01*
X3515000Y1705000D02*
X3539662D01*
X3464132Y1805000D02*
X3515000D01*
X3566986Y1962936D02*
X3622436Y2018386D01*
X3566986Y1895164D02*
Y1962936D01*
X3550659Y1878837D02*
X3566986Y1895164D01*
X4063885Y2026236D02*
X4335624D01*
X4475992Y1885868D01*
Y1726627D02*
Y1885868D01*
Y1726627D02*
X4487619Y1715000D01*
X4511500D01*
X4177990Y2087197D02*
Y2234814D01*
X3920189Y2492615D02*
X4177990Y2234814D01*
X3920189Y2492615D02*
Y3146785D01*
X4169934Y3396530D01*
X4555024D01*
X4911112Y3040442D01*
Y2175197D02*
Y3040442D01*
X4799935Y2064021D02*
X4911112Y2175197D01*
X4799935Y1881948D02*
Y2064021D01*
X4652987Y1735000D02*
X4799935Y1881948D01*
X4511500Y1735000D02*
X4652987D01*
X4576717Y2037905D02*
X4606800Y2007823D01*
X4510256Y2037905D02*
X4576717D01*
X4606800Y1914078D02*
Y2007823D01*
X4268662Y1876338D02*
X4290000Y1855000D01*
X4438500D01*
X4222204Y1697204D02*
X4240000Y1715000D01*
X4438500D01*
X4141212Y2355431D02*
X4500779Y1995864D01*
X4511500Y1855000D02*
X4547722D01*
X4511500Y1835000D02*
X4561255D01*
X4626994Y1900739D01*
X4547722Y1855000D02*
X4606800Y1914078D01*
X4141212Y2355431D02*
Y2551496D01*
X3966344Y2726364D02*
X4141212Y2551496D01*
X3966344Y2726364D02*
Y3110546D01*
X4204801Y3349004D01*
X4522745D01*
X4859235Y3012514D01*
Y2175263D02*
Y3012514D01*
X4758553Y2074581D02*
X4859235Y2175263D01*
X4758553Y1891763D02*
Y2074581D01*
X4621789Y1755000D02*
X4758553Y1891763D01*
X4511500Y1755000D02*
X4621789D01*
X4665397Y2298272D02*
X4790333D01*
X4824760Y2263845D01*
Y2176667D02*
Y2263845D01*
X4718703Y2070610D02*
X4824760Y2176667D01*
X4718703Y1890702D02*
Y2070610D01*
X4603001Y1775000D02*
X4718703Y1890702D01*
X4511500Y1775000D02*
X4603001D01*
X4798107Y2192770D02*
Y2223865D01*
X4685942Y2080605D02*
X4798107Y2192770D01*
X4685942Y1892368D02*
Y2080605D01*
X4588574Y1795000D02*
X4685942Y1892368D01*
X4511500Y1795000D02*
X4588574D01*
X4067958Y2875818D02*
X4097325Y2905185D01*
X4067958Y2774434D02*
Y2875818D01*
X4207550Y3237844D02*
X4328140D01*
X4536506Y3029477D01*
X4033043Y3063337D02*
X4207550Y3237844D01*
X4067958Y2774434D02*
X4250450Y2591942D01*
Y2389267D02*
Y2591942D01*
Y2389267D02*
X4543615Y2096102D01*
X4215430Y2382012D02*
Y2572515D01*
Y2382012D02*
X4529117Y2068325D01*
X4543615Y2096102D02*
X4592298D01*
X4652596Y2035804D01*
Y1895438D02*
Y2035804D01*
X4572158Y1815000D02*
X4652596Y1895438D01*
X4511500Y1815000D02*
X4572158D01*
X4033043Y2754902D02*
Y3063337D01*
Y2754902D02*
X4215430Y2572515D01*
X4529117Y2068325D02*
X4584024D01*
X4626994Y2025355D01*
Y1900739D02*
Y2025355D01*
X4202325Y3288481D02*
X4423143D01*
X3998494Y3084649D02*
X4202325Y3288481D01*
X3998494Y2741533D02*
Y3084649D01*
Y2741533D02*
X4183641Y2556386D01*
Y2364521D02*
Y2556386D01*
Y2364521D02*
X4510256Y2037905D01*
X3362039Y3019239D02*
X3442314D01*
X3318646Y3062631D02*
X3362039Y3019239D01*
X3318646Y3062631D02*
Y3149850D01*
X3409770Y3240974D01*
X3516949D01*
X3707008Y3050916D01*
X3280068Y3167067D02*
X3390014Y3277013D01*
X3542717D01*
X3280068Y2934958D02*
Y3167067D01*
X3707008Y2369656D02*
Y3050916D01*
X3443616Y2106264D02*
X3707008Y2369656D01*
X3747340Y2362320D02*
Y3072391D01*
X3468850Y2083831D02*
X3747340Y2362320D01*
X3542717Y3277013D02*
X3747340Y3072391D01*
X3443616Y1825516D02*
Y2106264D01*
Y1825516D02*
X3464132Y1805000D01*
X3168547Y3336161D02*
X3542455D01*
X3787429Y3091187D01*
X3468850Y1833613D02*
Y2083831D01*
Y1833613D02*
X3477463Y1825000D01*
X3515000D01*
X3787429Y2351430D02*
Y3091187D01*
X3515000Y2079000D02*
X3787429Y2351430D01*
X3515000Y1845000D02*
Y2079000D01*
X4004882Y1543662D02*
X4084252D01*
X3968568Y1507348D02*
X4004882Y1543662D01*
X3805038Y1507348D02*
X3968568D01*
X3734804Y1577582D02*
X3805038Y1507348D01*
X3231166Y1577582D02*
X3734804D01*
X2977340Y1791646D02*
X3231166Y1577582D01*
X2977172Y1791448D02*
X2977340Y1791646D01*
X2622390Y2598700D02*
X2677390Y2508700D01*
X2622390Y2598700D02*
Y2609974D01*
X2377366Y2855000D02*
X2622390Y2609974D01*
X2280236Y2855000D02*
X2377366D01*
X3096330Y2141238D02*
X3099582Y2133140D01*
X3068388Y2157402D02*
X3099582Y2133140D01*
X2965674Y2146114D02*
X3068388Y2157402D01*
X2831512Y2011324D02*
X2965674Y2146114D01*
X2977172Y1791448D02*
X2977339Y1791647D01*
X4275000Y1835000D02*
X4438500D01*
X4259252Y1850748D02*
X4275000Y1835000D01*
X4255000Y1815000D02*
X4438500D01*
X4244842Y1825158D02*
X4255000Y1815000D01*
X4225000Y1795000D02*
X4438500D01*
X4220434Y1799566D02*
X4225000Y1795000D01*
X4084252Y1773976D02*
X4085276Y1775000D01*
X4215000Y1755000D02*
X4438500D01*
X4208386Y1748386D02*
X4215000Y1755000D01*
X4230000Y1735000D02*
X4438500D01*
X4217796Y1722796D02*
X4230000Y1735000D01*
X3588000Y1703000D02*
Y1705000D01*
Y1703000D02*
X3591614Y1699386D01*
Y1671614D02*
Y1699386D01*
Y1671614D02*
X3865748D01*
X3667796Y1697204D02*
X3865748D01*
X3640000Y1725000D02*
X3667796Y1697204D01*
X3588000Y1725000D02*
X3640000D01*
X3687204Y1722796D02*
X3865748D01*
X3665000Y1745000D02*
X3687204Y1722796D01*
X3588000Y1745000D02*
X3665000D01*
X3711614Y1748386D02*
X3865748D01*
X3695000Y1765000D02*
X3711614Y1748386D01*
X3588000Y1765000D02*
X3695000D01*
X3731024Y1773976D02*
X3865748D01*
X3720000Y1785000D02*
X3731024Y1773976D01*
X3588000Y1785000D02*
X3720000D01*
X3750434Y1799566D02*
X3865748D01*
X3745000Y1805000D02*
X3750434Y1799566D01*
X3588000Y1805000D02*
X3745000D01*
X3865590Y1825000D02*
X3865748Y1825158D01*
X3588000Y1825000D02*
X3865590D01*
X3865000Y1850000D02*
X3865748Y1850748D01*
X3755000Y1850000D02*
X3865000D01*
X3750000Y1845000D02*
X3755000Y1850000D01*
X3588000Y1845000D02*
X3750000D01*
X2908116Y1947046D02*
X3027282Y2064178D01*
X2905308Y1792870D02*
X2908116Y1947046D01*
X2905308Y1792870D02*
X2945034Y1753146D01*
X4225788Y1671614D02*
X4290000Y1607402D01*
X3084584Y2016096D02*
X3141804Y2097710D01*
X4084252Y1594842D02*
X4142472D01*
X4174868Y1520924D02*
Y1562446D01*
X4121294Y1467348D02*
X4174868Y1520924D01*
X3788468Y1467348D02*
X4121294D01*
X3721928Y1533890D02*
X3788468Y1467348D01*
X2850360Y1533890D02*
X3721928D01*
X2791884Y1592366D02*
X2850360Y1533890D01*
X2791884Y1592366D02*
Y1652954D01*
X2340000Y2451602D02*
X2557610Y2561300D01*
X2271158Y2355466D02*
X2340000Y2451602D01*
X2271158Y2355466D02*
X2505092Y1949958D01*
X2791884Y1652954D02*
X2807362Y1796838D01*
X2766622Y1837580D02*
X2807362Y1796838D01*
X4084252Y1569252D02*
X4139778D01*
X4154868Y1554162D01*
Y1529208D02*
Y1554162D01*
X4113008Y1487348D02*
X4154868Y1529208D01*
X3796752Y1487348D02*
X4113008D01*
X3728566Y1555536D02*
X3796752Y1487348D01*
X3168366Y1555536D02*
X3728566D01*
X3125254Y1598646D02*
X3168366Y1555536D01*
X2612610Y2471300D02*
X2703794Y2282250D01*
X2390000Y2365000D02*
X2612610Y2471300D01*
D26*
X2950477Y1653072D02*
D03*
X3998934Y1671614D02*
D03*
X3622436Y2018386D02*
D03*
X4063885Y2026236D02*
D03*
X4177990Y2087197D02*
D03*
X4500779Y1995864D02*
D03*
X4798107Y2223865D02*
D03*
X4549345Y2182220D02*
D03*
X4423143Y3288481D02*
D03*
X4536506Y3029477D02*
D03*
X4097325Y2905185D02*
D03*
X3168547Y3336161D02*
D03*
X3442314Y3019239D02*
D03*
X3280068Y2934958D02*
D03*
X2978213Y2436230D02*
D03*
X3095743Y2236865D02*
D03*
X3317117Y1924418D02*
D03*
X3277886Y2024597D02*
D03*
X2755171Y1780601D02*
D03*
X2859942Y1694462D02*
D03*
X3125254Y1598646D02*
D03*
X2820492Y1858158D02*
D03*
X2955316Y1810220D02*
D03*
X2891798Y1733522D02*
D03*
D27*
X2406471Y3394796D02*
D03*
D28*
X2520351Y3259079D02*
D03*
X2210436Y3230303D02*
D03*
X2324316Y3094586D02*
D03*
X2290000Y2538206D02*
D03*
X2340000Y2451602D02*
D03*
X2390000Y2365000D02*
D03*
X2440000Y2278398D02*
D03*
X2490000Y2191794D02*
D03*
X2868488Y1588676D02*
D03*
X2791884Y1652954D02*
D03*
X2715280Y1717232D02*
D03*
X2638676Y1781512D02*
D03*
X3061324Y1818488D02*
D03*
X2984720Y1882768D02*
D03*
X2908116Y1947046D02*
D03*
D29*
X2795000Y2893426D02*
D03*
X2559764Y2855000D02*
D03*
D30*
X2795000Y2696574D02*
D03*
D31*
X2540000Y2105192D02*
D03*
D32*
X2831512Y2011324D02*
D03*
D33*
X2280236Y2855000D02*
D03*
D34*
X3140000Y2561496D02*
D03*
D35*
Y3030000D02*
D03*
D36*
X2639459Y3409878D02*
D03*
X2591377Y3467181D02*
D03*
D37*
X2977172Y1791448D02*
D03*
X2945034Y1753146D02*
D03*
X2912894Y1714842D02*
D03*
X2880754Y1676542D02*
D03*
X2830900Y1914184D02*
D03*
X2798762Y1875882D02*
D03*
X2766622Y1837580D02*
D03*
X2734482Y1799278D02*
D03*
D38*
X2557610Y2561300D02*
D03*
X2622390Y2598700D02*
D03*
X2612610Y2471300D02*
D03*
X2677390Y2508700D02*
D03*
D39*
X4290000Y1607402D02*
D03*
Y1532598D02*
D03*
D40*
X3027282Y2064178D02*
D03*
X3084584Y2016096D02*
D03*
D41*
X4511500Y1715000D02*
D03*
Y1735000D02*
D03*
Y1755000D02*
D03*
Y1775000D02*
D03*
Y1795000D02*
D03*
Y1815000D02*
D03*
Y1835000D02*
D03*
Y1855000D02*
D03*
X4438500D02*
D03*
Y1835000D02*
D03*
Y1815000D02*
D03*
Y1795000D02*
D03*
Y1775000D02*
D03*
Y1755000D02*
D03*
Y1735000D02*
D03*
Y1715000D02*
D03*
X3515000Y1845000D02*
D03*
Y1825000D02*
D03*
Y1805000D02*
D03*
Y1785000D02*
D03*
Y1765000D02*
D03*
Y1745000D02*
D03*
Y1725000D02*
D03*
Y1705000D02*
D03*
X3588000D02*
D03*
Y1725000D02*
D03*
Y1745000D02*
D03*
Y1765000D02*
D03*
Y1785000D02*
D03*
Y1805000D02*
D03*
Y1825000D02*
D03*
Y1845000D02*
D03*
D42*
X3865748Y1543662D02*
D03*
Y1569252D02*
D03*
Y1594842D02*
D03*
Y1620434D02*
D03*
Y1646024D02*
D03*
Y1671614D02*
D03*
Y1697204D02*
D03*
Y1722796D02*
D03*
Y1748386D02*
D03*
Y1773976D02*
D03*
Y1799566D02*
D03*
Y1825158D02*
D03*
Y1850748D02*
D03*
Y1876338D02*
D03*
X4084252Y1543662D02*
D03*
Y1569252D02*
D03*
Y1594842D02*
D03*
Y1620434D02*
D03*
Y1646024D02*
D03*
Y1671614D02*
D03*
Y1697204D02*
D03*
Y1722796D02*
D03*
Y1748386D02*
D03*
Y1773976D02*
D03*
Y1799566D02*
D03*
Y1825158D02*
D03*
Y1850748D02*
D03*
Y1876338D02*
D03*
D43*
X2930078Y2561496D02*
X3140000D01*
X2795000Y2696574D02*
X2930078Y2561496D01*
X2559764Y2855000D02*
X2636574D01*
X2795000Y2696574D01*
%TF.MD5,d550db40c7a7c88254bbe34c7a1091e7*%
M02*
