G04 Layer_Color=255*
%FSLAX26Y26*%
%MOIN*%
%TF.FileFunction,Pads,Top*%
%TF.Part,Single*%
%TFFileComment,Halloween PCB
Pumpkin Badge
V1
Gadorach
(W.W.S.)*%
G01*
G75*
%TA.AperFunction,SMDPad,CuDef*%
G04:AMPARAMS|DCode=11|XSize=35.433mil|YSize=31.496mil|CornerRadius=0mil|HoleSize=0mil|Usage=FLASHONLY|Rotation=160.000|XOffset=0mil|YOffset=0mil|HoleType=Round|Shape=Rectangle|*
%AMROTATEDRECTD11*
4,1,4,0.022034,0.008739,0.011262,-0.020858,-0.022034,-0.008739,-0.011262,0.020858,0.022034,0.008739,0.0*
%
%ADD11ROTATEDRECTD11*%

G04:AMPARAMS|DCode=12|XSize=35.433mil|YSize=31.496mil|CornerRadius=0mil|HoleSize=0mil|Usage=FLASHONLY|Rotation=80.000|XOffset=0mil|YOffset=0mil|HoleType=Round|Shape=Rectangle|*
%AMROTATEDRECTD12*
4,1,4,0.012432,-0.020182,-0.018585,-0.014713,-0.012432,0.020182,0.018585,0.014713,0.012432,-0.020182,0.0*
%
%ADD12ROTATEDRECTD12*%

G04:AMPARAMS|DCode=13|XSize=35.433mil|YSize=31.496mil|CornerRadius=0mil|HoleSize=0mil|Usage=FLASHONLY|Rotation=190.000|XOffset=0mil|YOffset=0mil|HoleType=Round|Shape=Rectangle|*
%AMROTATEDRECTD13*
4,1,4,0.014713,0.018585,0.020182,-0.012432,-0.014713,-0.018585,-0.020182,0.012432,0.014713,0.018585,0.0*
%
%ADD13ROTATEDRECTD13*%

G04:AMPARAMS|DCode=14|XSize=35.433mil|YSize=31.496mil|CornerRadius=0mil|HoleSize=0mil|Usage=FLASHONLY|Rotation=250.000|XOffset=0mil|YOffset=0mil|HoleType=Round|Shape=Rectangle|*
%AMROTATEDRECTD14*
4,1,4,-0.008739,0.022034,0.020858,0.011262,0.008739,-0.022034,-0.020858,-0.011262,-0.008739,0.022034,0.0*
%
%ADD14ROTATEDRECTD14*%

G04:AMPARAMS|DCode=15|XSize=35.433mil|YSize=31.496mil|CornerRadius=0mil|HoleSize=0mil|Usage=FLASHONLY|Rotation=200.000|XOffset=0mil|YOffset=0mil|HoleType=Round|Shape=Rectangle|*
%AMROTATEDRECTD15*
4,1,4,0.011262,0.020858,0.022034,-0.008739,-0.011262,-0.020858,-0.022034,0.008739,0.011262,0.020858,0.0*
%
%ADD15ROTATEDRECTD15*%

G04:AMPARAMS|DCode=16|XSize=35.433mil|YSize=31.496mil|CornerRadius=0mil|HoleSize=0mil|Usage=FLASHONLY|Rotation=130.000|XOffset=0mil|YOffset=0mil|HoleType=Round|Shape=Rectangle|*
%AMROTATEDRECTD16*
4,1,4,0.023452,-0.003449,-0.000676,-0.023694,-0.023452,0.003449,0.000676,0.023694,0.023452,-0.003449,0.0*
%
%ADD16ROTATEDRECTD16*%

G04:AMPARAMS|DCode=17|XSize=35.433mil|YSize=31.496mil|CornerRadius=0mil|HoleSize=0mil|Usage=FLASHONLY|Rotation=100.000|XOffset=0mil|YOffset=0mil|HoleType=Round|Shape=Rectangle|*
%AMROTATEDRECTD17*
4,1,4,0.018585,-0.014713,-0.012432,-0.020182,-0.018585,0.014713,0.012432,0.020182,0.018585,-0.014713,0.0*
%
%ADD17ROTATEDRECTD17*%

%ADD18R,0.031496X0.035433*%
G04:AMPARAMS|DCode=19|XSize=35.433mil|YSize=31.496mil|CornerRadius=0mil|HoleSize=0mil|Usage=FLASHONLY|Rotation=230.000|XOffset=0mil|YOffset=0mil|HoleType=Round|Shape=Rectangle|*
%AMROTATEDRECTD19*
4,1,4,-0.000676,0.023694,0.023452,0.003449,0.000676,-0.023694,-0.023452,-0.003449,-0.000676,0.023694,0.0*
%
%ADD19ROTATEDRECTD19*%

G04:AMPARAMS|DCode=20|XSize=35.433mil|YSize=31.496mil|CornerRadius=0mil|HoleSize=0mil|Usage=FLASHONLY|Rotation=140.000|XOffset=0mil|YOffset=0mil|HoleType=Round|Shape=Rectangle|*
%AMROTATEDRECTD20*
4,1,4,0.023694,0.000676,0.003449,-0.023452,-0.023694,-0.000676,-0.003449,0.023452,0.023694,0.000676,0.0*
%
%ADD20ROTATEDRECTD20*%

G04:AMPARAMS|DCode=21|XSize=35.433mil|YSize=31.496mil|CornerRadius=0mil|HoleSize=0mil|Usage=FLASHONLY|Rotation=290.000|XOffset=0mil|YOffset=0mil|HoleType=Round|Shape=Rectangle|*
%AMROTATEDRECTD21*
4,1,4,-0.020858,0.011262,0.008739,0.022034,0.020858,-0.011262,-0.008739,-0.022034,-0.020858,0.011262,0.0*
%
%ADD21ROTATEDRECTD21*%

G04:AMPARAMS|DCode=22|XSize=35.433mil|YSize=31.496mil|CornerRadius=0mil|HoleSize=0mil|Usage=FLASHONLY|Rotation=240.000|XOffset=0mil|YOffset=0mil|HoleType=Round|Shape=Rectangle|*
%AMROTATEDRECTD22*
4,1,4,-0.004780,0.023217,0.022497,0.007469,0.004780,-0.023217,-0.022497,-0.007469,-0.004780,0.023217,0.0*
%
%ADD22ROTATEDRECTD22*%

%TA.AperFunction,ViaPad*%
%ADD26C,0.025000*%
%TA.AperFunction,ComponentPad*%
%ADD27P,0.083516X4X265.0*%
%ADD28C,0.059055*%
%ADD29C,0.080000*%
G04:AMPARAMS|DCode=30|XSize=110mil|YSize=110mil|CornerRadius=27.5mil|HoleSize=0mil|Usage=FLASHONLY|Rotation=90.000|XOffset=0mil|YOffset=0mil|HoleType=Round|Shape=RoundedRectangle|*
%AMROUNDEDRECTD30*
21,1,0.110000,0.055000,0,0,90.0*
21,1,0.055000,0.110000,0,0,90.0*
1,1,0.055000,0.027500,0.027500*
1,1,0.055000,0.027500,-0.027500*
1,1,0.055000,-0.027500,-0.027500*
1,1,0.055000,-0.027500,0.027500*
%
%ADD30ROUNDEDRECTD30*%
%ADD31P,0.083516X4X165.0*%
%ADD32P,0.083516X4X275.0*%
G04:AMPARAMS|DCode=33|XSize=80mil|YSize=80mil|CornerRadius=20mil|HoleSize=0mil|Usage=FLASHONLY|Rotation=180.000|XOffset=0mil|YOffset=0mil|HoleType=Round|Shape=RoundedRectangle|*
%AMROUNDEDRECTD33*
21,1,0.080000,0.040000,0,0,180.0*
21,1,0.040000,0.080000,0,0,180.0*
1,1,0.040000,-0.020000,0.020000*
1,1,0.040000,0.020000,0.020000*
1,1,0.040000,0.020000,-0.020000*
1,1,0.040000,-0.020000,-0.020000*
%
%ADD33ROUNDEDRECTD33*%
%ADD34C,0.100000*%
G04:AMPARAMS|DCode=35|XSize=100mil|YSize=100mil|CornerRadius=25mil|HoleSize=0mil|Usage=FLASHONLY|Rotation=180.000|XOffset=0mil|YOffset=0mil|HoleType=Round|Shape=RoundedRectangle|*
%AMROUNDEDRECTD35*
21,1,0.100000,0.050000,0,0,180.0*
21,1,0.050000,0.100000,0,0,180.0*
1,1,0.050000,-0.025000,0.025000*
1,1,0.050000,0.025000,0.025000*
1,1,0.050000,0.025000,-0.025000*
1,1,0.050000,-0.025000,-0.025000*
%
%ADD35ROUNDEDRECTD35*%
D11*
X3659788Y1949834D02*
D03*
X3678640Y2001628D02*
D03*
X4486930Y1891032D02*
D03*
X4505780Y1942826D02*
D03*
D12*
X3449988Y1909954D02*
D03*
X3504270Y1900384D02*
D03*
D13*
X3219268Y1956430D02*
D03*
X3209696Y2010712D02*
D03*
D14*
X3122776Y2154470D02*
D03*
X3070982Y2173320D02*
D03*
X3102500Y2919860D02*
D03*
X3154294Y2901008D02*
D03*
D15*
X2914220Y2334004D02*
D03*
X2895368Y2385798D02*
D03*
D16*
X3485910Y2931182D02*
D03*
X3528132Y2966612D02*
D03*
X4586082Y2907184D02*
D03*
X4628304Y2942612D02*
D03*
D17*
X3025422Y3189058D02*
D03*
X3079702Y3198628D02*
D03*
D18*
X4557958Y3167812D02*
D03*
X4613076D02*
D03*
X3935662Y2026692D02*
D03*
X3990780D02*
D03*
D19*
X4182778Y2909106D02*
D03*
X4140556Y2944536D02*
D03*
D20*
X4721412Y2204084D02*
D03*
X4756840Y2246306D02*
D03*
D21*
X4611030Y2134526D02*
D03*
X4559236Y2115674D02*
D03*
D22*
X4226214Y1828668D02*
D03*
X4178480Y1856226D02*
D03*
D26*
X2950477Y1653072D02*
D03*
X3998934Y1671614D02*
D03*
X3622436Y2018386D02*
D03*
X4063885Y2026236D02*
D03*
X4177990Y2087197D02*
D03*
X4500779Y1995864D02*
D03*
X4798107Y2223865D02*
D03*
X4549345Y2182220D02*
D03*
X4423143Y3288481D02*
D03*
X4536506Y3029477D02*
D03*
X4097325Y2905185D02*
D03*
X3168547Y3336161D02*
D03*
X3442314Y3019239D02*
D03*
X3280068Y2934958D02*
D03*
X2978213Y2436230D02*
D03*
X3095743Y2236865D02*
D03*
X3317117Y1924418D02*
D03*
X3277886Y2024597D02*
D03*
X2755171Y1780601D02*
D03*
X2859942Y1694462D02*
D03*
X3125254Y1598646D02*
D03*
X2820492Y1858158D02*
D03*
X2955316Y1810220D02*
D03*
X2891798Y1733522D02*
D03*
D27*
X2406471Y3394796D02*
D03*
D28*
X2520351Y3259079D02*
D03*
X2210436Y3230303D02*
D03*
X2324316Y3094586D02*
D03*
X2290000Y2538206D02*
D03*
X2340000Y2451602D02*
D03*
X2390000Y2365000D02*
D03*
X2440000Y2278398D02*
D03*
X2490000Y2191794D02*
D03*
X2868488Y1588676D02*
D03*
X2791884Y1652954D02*
D03*
X2715280Y1717232D02*
D03*
X2638676Y1781512D02*
D03*
X3061324Y1818488D02*
D03*
X2984720Y1882768D02*
D03*
X2908116Y1947046D02*
D03*
D29*
X2795000Y2893426D02*
D03*
X2559764Y2855000D02*
D03*
D30*
X2795000Y2696574D02*
D03*
D31*
X2540000Y2105192D02*
D03*
D32*
X2831512Y2011324D02*
D03*
D33*
X2280236Y2855000D02*
D03*
D34*
X3140000Y2561496D02*
D03*
D35*
Y3030000D02*
D03*
%TF.MD5,475fa33c52ef58bd57b2de42609e642b*%
M02*
