G04 Layer_Color=128*
%FSLAX26Y26*%
%MOIN*%
%TF.FileFunction,Drillmap*%
%TF.Part,Single*%
%TFFileComment,Halloween PCB
Pumpkin Badge
V1
Gadorach
(W.W.S.)*%
G01*
G75*
%TA.AperFunction,NonConductor*%
%ADD71C,0.005000*%
D71*
X2942977Y1653072D02*
X2957977D01*
X2950477Y1645572D02*
Y1660572D01*
X3991434Y1671614D02*
X4006434D01*
X3998934Y1664114D02*
Y1679114D01*
X3742796Y4046367D02*
X3862796D01*
X3802796Y3986367D02*
Y4106368D01*
X2386786Y3394796D02*
X2426156D01*
X2406471Y3375111D02*
Y3414481D01*
X2500666Y3259079D02*
X2540036D01*
X2520351Y3239394D02*
Y3278764D01*
X2190751Y3230303D02*
X2230121D01*
X2210436Y3210618D02*
Y3249988D01*
X2304631Y3094586D02*
X2344001D01*
X2324316Y3074901D02*
Y3114271D01*
X3614936Y2018386D02*
X3629936D01*
X3622436Y2010886D02*
Y2025886D01*
X4056385Y2026236D02*
X4071385D01*
X4063885Y2018736D02*
Y2033736D01*
X4170490Y2087197D02*
X4185490D01*
X4177990Y2079697D02*
Y2094697D01*
X4493279Y1995864D02*
X4508279D01*
X4500779Y1988364D02*
Y2003364D01*
X4790607Y2223865D02*
X4805607D01*
X4798107Y2216365D02*
Y2231365D01*
X4541845Y2182220D02*
X4556845D01*
X4549345Y2174720D02*
Y2189720D01*
X4415643Y3288481D02*
X4430643D01*
X4423143Y3280981D02*
Y3295981D01*
X4529006Y3029477D02*
X4544006D01*
X4536506Y3021977D02*
Y3036977D01*
X4089825Y2905185D02*
X4104825D01*
X4097325Y2897685D02*
Y2912685D01*
X3161047Y3336161D02*
X3176047D01*
X3168547Y3328661D02*
Y3343661D01*
X3434814Y3019239D02*
X3449814D01*
X3442314Y3011739D02*
Y3026739D01*
X3272568Y2934958D02*
X3287568D01*
X3280068Y2927458D02*
Y2942458D01*
X2970713Y2436230D02*
X2985713D01*
X2978213Y2428730D02*
Y2443730D01*
X3088243Y2236865D02*
X3103243D01*
X3095743Y2229365D02*
Y2244365D01*
X3309617Y1924418D02*
X3324617D01*
X3317117Y1916918D02*
Y1931918D01*
X3270386Y2024597D02*
X3285386D01*
X3277886Y2017097D02*
Y2032097D01*
X2747671Y1780601D02*
X2762671D01*
X2755171Y1773101D02*
Y1788101D01*
X2852442Y1694462D02*
X2867442D01*
X2859942Y1686962D02*
Y1701962D01*
X3117754Y1598646D02*
X3132754D01*
X3125254Y1591146D02*
Y1606146D01*
X2812992Y1858158D02*
X2827992D01*
X2820492Y1850658D02*
Y1865658D01*
X2947816Y1810220D02*
X2962816D01*
X2955316Y1802720D02*
Y1817720D01*
X2884298Y1733522D02*
X2899298D01*
X2891798Y1726022D02*
Y1741022D01*
X2770000Y2893426D02*
X2820000D01*
X2795000Y2868426D02*
Y2918426D01*
X2770000Y2696574D02*
X2820000D01*
X2795000Y2671574D02*
Y2721574D01*
X2272284Y2538206D02*
X2307716D01*
X2290000Y2520490D02*
Y2555923D01*
X2322284Y2451602D02*
X2357716D01*
X2340000Y2433885D02*
Y2469318D01*
X2372284Y2365000D02*
X2407717D01*
X2390000Y2347284D02*
Y2382716D01*
X2422284Y2278398D02*
X2457716D01*
X2440000Y2260682D02*
Y2296115D01*
X2472284Y2191794D02*
X2507716D01*
X2490000Y2174077D02*
Y2209510D01*
X2522284Y2105192D02*
X2557716D01*
X2540000Y2087476D02*
Y2122909D01*
X2850771Y1588676D02*
X2886204D01*
X2868488Y1570959D02*
Y1606392D01*
X2774168Y1652954D02*
X2809601D01*
X2791884Y1635237D02*
Y1670670D01*
X2697564Y1717232D02*
X2732997D01*
X2715280Y1699515D02*
Y1734948D01*
X2620959Y1781512D02*
X2656392D01*
X2638676Y1763795D02*
Y1799228D01*
X3043608Y1818488D02*
X3079041D01*
X3061324Y1800772D02*
Y1836205D01*
X2967003Y1882768D02*
X3002436D01*
X2984720Y1865052D02*
Y1900485D01*
X2890399Y1947046D02*
X2925832D01*
X2908116Y1929330D02*
Y1964763D01*
X2813796Y2011324D02*
X2849229D01*
X2831512Y1993608D02*
Y2029041D01*
X2255236Y2855000D02*
X2305236D01*
X2280236Y2830000D02*
Y2880000D01*
X2534764Y2855000D02*
X2584764D01*
X2559764Y2830000D02*
Y2880000D01*
X3116378Y2561496D02*
X3163622D01*
X3140000Y2537874D02*
Y2585118D01*
X3116378Y3030000D02*
X3163622D01*
X3140000Y3006378D02*
Y3053622D01*
%TF.MD5,a7e7aee1a4bd33e310da9b215662d692*%
M02*
