G04 Layer_Color=0*
%FSLAX26Y26*%
%MOIN*%
%TF.FileFunction,Profile,NP*%
%TF.Part,Single*%
%TFFileComment,Halloween PCB
Pumpkin Badge
V1
Gadorach
(W.W.S.)*%
G01*
G75*
%TA.AperFunction,Profile*%
%ADD84C,0.001000*%
D84*
X2488977Y1819067D02*
X2512549Y1792398D01*
X2584140Y1712751D01*
X2624832Y1675610D01*
X2679514Y1631182D01*
X2746698Y1581623D01*
X2806047Y1541985D01*
X2847138Y1518128D01*
X2885008Y1500191D01*
X2925113Y1485111D01*
X2978475Y1469447D01*
X3046845Y1453737D01*
X3132104Y1438174D01*
X3207310Y1427812D01*
X3264358Y1423117D01*
X3306252Y1423062D01*
X3339054Y1426279D01*
X3366538Y1431878D01*
X3391800Y1437023D01*
X3402795Y1437064D01*
X3415226Y1434628D01*
X3432934Y1427951D01*
X3506808Y1395289D01*
X3541244Y1384011D01*
X3583784Y1374145D01*
X3635047Y1366319D01*
X3694002Y1361300D01*
X3758001Y1359791D01*
X3815162Y1361833D01*
X3866735Y1366929D01*
X3910791Y1374543D01*
X3946720Y1384030D01*
X3978436Y1395817D01*
X4028220Y1416558D01*
X4038058Y1419162D01*
X4044816Y1420010D01*
X4052448Y1419668D01*
X4059279Y1418193D01*
X4109478Y1399273D01*
X4139502Y1392640D01*
X4182553Y1387362D01*
X4241630Y1383998D01*
X4308952Y1383920D01*
X4361624Y1387000D01*
X4410805Y1393296D01*
X4461878Y1403208D01*
X4556702Y1426993D01*
X4576072Y1436450D01*
X4601605Y1452931D01*
X4609253Y1455141D01*
X4619242Y1456261D01*
X4694088Y1452316D01*
X4724610Y1454211D01*
X4759780Y1460337D01*
X4800929Y1471399D01*
X4848156Y1487976D01*
X4900690Y1510247D01*
X4956294Y1537728D01*
X4999032Y1562569D01*
X5037356Y1588653D01*
X5080288Y1622543D01*
X5129460Y1666169D01*
X5215580Y1741083D01*
X5253518Y1768370D01*
X5367685Y1846284D01*
X5400789Y1873471D01*
X5429088Y1900934D01*
X5457782Y1934015D01*
X5486650Y1973074D01*
X5517084Y2020458D01*
X5552707Y2082254D01*
X5610427Y2188313D01*
X5636866Y2243235D01*
X5656033Y2290987D01*
X5671739Y2340398D01*
X5685901Y2397308D01*
X5699432Y2466527D01*
X5732607Y2682143D01*
X5738198Y2743672D01*
X5739968Y2800083D01*
X5737954Y2858668D01*
X5731936Y2921395D01*
X5721545Y2989663D01*
X5706140Y3065875D01*
X5684348Y3155042D01*
X5664210Y3225092D01*
X5642727Y3287693D01*
X5620851Y3340885D01*
X5597997Y3387586D01*
X5573873Y3429268D01*
X5545012Y3471619D01*
X5510531Y3515403D01*
X5469223Y3561736D01*
X5418810Y3612738D01*
X5353501Y3673881D01*
X5302302Y3718916D01*
X5247248Y3763092D01*
X5198879Y3797423D01*
X5153274Y3825609D01*
X5108847Y3849126D01*
X5063565Y3869371D01*
X5017391Y3886434D01*
X4970990Y3900096D01*
X4924942Y3910242D01*
X4879728Y3916853D01*
X4835721Y3919977D01*
X4793193Y3919712D01*
X4752326Y3916180D01*
X4713225Y3909515D01*
X4649060Y3899143D01*
X4629245Y3899710D01*
X4623060Y3901343D01*
X4585086Y3915867D01*
X4545290Y3925933D01*
X4508131Y3931645D01*
X4408510Y3938083D01*
X4364604Y3935362D01*
X4323854Y3929337D01*
X4275376Y3918476D01*
X4251279Y3911814D01*
X4232831Y3905749D01*
X4200713Y3894576D01*
X4197358Y3894750D01*
X4191984Y3896087D01*
X4142491Y3912243D01*
X4114230Y3918155D01*
X4086578Y3921695D01*
X4062118Y3921802D01*
X4055711Y3922259D01*
X4053236Y3922946D01*
X4051532Y3923736D01*
X4049595Y3925070D01*
X4047158Y3927549D01*
X4044807Y3930846D01*
X4013646Y3993795D01*
X3984272Y4040041D01*
X3965946Y4070370D01*
X3942740Y4111702D01*
X3918562Y4146328D01*
X3884065Y4189041D01*
X3839847Y4237889D01*
X3798854Y4278670D01*
X3761144Y4311440D01*
X3724960Y4338332D01*
X3683242Y4364526D01*
X3631369Y4393031D01*
X3548609Y4434472D01*
X3520292Y4443048D01*
X3480042Y4450555D01*
X3446873Y4454191D01*
X3435996Y4454245D01*
X3433253Y4453816D01*
X3431582Y4453256D01*
X3430495Y4452674D01*
X3429317Y4451754D01*
X3427878Y4450086D01*
X3426446Y4447785D01*
X3410436Y4404832D01*
X3409976Y4394750D01*
X3413014Y4364501D01*
X3412576Y4304495D01*
X3415688Y4282048D01*
X3422440Y4253619D01*
X3430447Y4232992D01*
X3438854Y4219158D01*
X3448358Y4208325D01*
X3462772Y4195922D01*
X3512008Y4156430D01*
X3559760Y4111430D01*
X3579858Y4091091D01*
X3591657Y4074978D01*
X3601260Y4055844D01*
X3610800Y4029537D01*
X3631549Y3964281D01*
X3637408Y3939127D01*
X3637873Y3931118D01*
X3637332Y3926370D01*
X3636373Y3923270D01*
X3635302Y3921250D01*
X3634158Y3919789D01*
X3632628Y3918445D01*
X3630740Y3917352D01*
X3628563Y3916528D01*
X3625291Y3915787D01*
X3619809Y3915267D01*
X3546318Y3910685D01*
X3536560Y3912458D01*
X3527802Y3915556D01*
X3479658Y3941109D01*
X3457878Y3948124D01*
X3428905Y3953944D01*
X3290810Y3974916D01*
X3244680Y3975584D01*
X3197587Y3972330D01*
X3148260Y3965056D01*
X3045522Y3945552D01*
X3013678Y3944450D01*
X2913951Y3945304D01*
X2865727Y3940251D01*
X2808571Y3930643D01*
X2749873Y3917372D01*
X2700978Y3902762D01*
X2653571Y3884531D01*
X2581743Y3851606D01*
X2505948Y3815826D01*
X2470782Y3796944D01*
X2435806Y3774645D01*
X2399715Y3747120D01*
X2362561Y3713990D01*
X2323564Y3674194D01*
X2281979Y3626324D01*
X2240770Y3572986D01*
X2203495Y3518913D01*
X2174335Y3470522D01*
X2151117Y3425419D01*
X2132776Y3382502D01*
X2114638Y3331028D01*
X2042926Y3105566D01*
X2022975Y3031739D01*
X2009534Y2968656D01*
X2000892Y2911771D01*
X1996254Y2859165D01*
X1994679Y2798915D01*
X1996744Y2732550D01*
X2002808Y2657144D01*
X2012825Y2574914D01*
X2024990Y2503293D01*
X2039062Y2440848D01*
X2055165Y2384723D01*
X2075687Y2327028D01*
X2100716Y2268378D01*
X2130527Y2208505D01*
X2165489Y2147118D01*
X2199310Y2094718D01*
X2233418Y2048049D01*
X2267882Y2006540D01*
X2302748Y1969741D01*
X2338062Y1937283D01*
X2373867Y1908850D01*
X2433104Y1866581D01*
X2488977Y1819067D01*
%TF.MD5,de000f7cf72c7107cb24a2cd67141295*%
M02*
