G04 Layer_Color=16711935*
%FSLAX26Y26*%
%MOIN*%
%TF.FileFunction,Soldermask,Bot*%
%TF.Part,Single*%
%TFFileComment,Halloween PCB
Pumpkin Badge
V1
Gadorach
(W.W.S.)*%
G01*
G75*
%TA.AperFunction,SMDPad,CuDef*%
G04:AMPARAMS|DCode=52|XSize=43.433mil|YSize=39.496mil|CornerRadius=0mil|HoleSize=0mil|Usage=FLASHONLY|Rotation=230.000|XOffset=0mil|YOffset=0mil|HoleType=Round|Shape=Rectangle|*
%AMROTATEDRECTD52*
4,1,4,-0.001169,0.029330,0.029087,0.003942,0.001169,-0.029330,-0.029087,-0.003942,-0.001169,0.029330,0.0*
%
%ADD52ROTATEDRECTD52*%

%TA.AperFunction,ViaPad*%
%ADD56C,0.008000*%
%TA.AperFunction,ComponentPad*%
%ADD57P,0.094830X4X265.0*%
%ADD58C,0.067055*%
%TA.AperFunction,ViaPad*%
%ADD59C,0.033000*%
%TA.AperFunction,ComponentPad*%
%ADD60C,0.088000*%
G04:AMPARAMS|DCode=61|XSize=118mil|YSize=118mil|CornerRadius=31.5mil|HoleSize=0mil|Usage=FLASHONLY|Rotation=90.000|XOffset=0mil|YOffset=0mil|HoleType=Round|Shape=RoundedRectangle|*
%AMROUNDEDRECTD61*
21,1,0.118000,0.055000,0,0,90.0*
21,1,0.055000,0.118000,0,0,90.0*
1,1,0.063000,0.027500,0.027500*
1,1,0.063000,0.027500,-0.027500*
1,1,0.063000,-0.027500,-0.027500*
1,1,0.063000,-0.027500,0.027500*
%
%ADD61ROUNDEDRECTD61*%
%ADD62P,0.094830X4X165.0*%
%ADD63P,0.094830X4X275.0*%
G04:AMPARAMS|DCode=64|XSize=88mil|YSize=88mil|CornerRadius=24mil|HoleSize=0mil|Usage=FLASHONLY|Rotation=180.000|XOffset=0mil|YOffset=0mil|HoleType=Round|Shape=RoundedRectangle|*
%AMROUNDEDRECTD64*
21,1,0.088000,0.040000,0,0,180.0*
21,1,0.040000,0.088000,0,0,180.0*
1,1,0.048000,-0.020000,0.020000*
1,1,0.048000,0.020000,0.020000*
1,1,0.048000,0.020000,-0.020000*
1,1,0.048000,-0.020000,-0.020000*
%
%ADD64ROUNDEDRECTD64*%
%ADD65C,0.108000*%
G04:AMPARAMS|DCode=66|XSize=108mil|YSize=108mil|CornerRadius=29mil|HoleSize=0mil|Usage=FLASHONLY|Rotation=180.000|XOffset=0mil|YOffset=0mil|HoleType=Round|Shape=RoundedRectangle|*
%AMROUNDEDRECTD66*
21,1,0.108000,0.050000,0,0,180.0*
21,1,0.050000,0.108000,0,0,180.0*
1,1,0.058000,-0.025000,0.025000*
1,1,0.058000,0.025000,0.025000*
1,1,0.058000,0.025000,-0.025000*
1,1,0.058000,-0.025000,-0.025000*
%
%ADD66ROUNDEDRECTD66*%
%TA.AperFunction,SMDPad,CuDef*%
G04:AMPARAMS|DCode=74|XSize=67.055mil|YSize=59.181mil|CornerRadius=0mil|HoleSize=0mil|Usage=FLASHONLY|Rotation=220.000|XOffset=0mil|YOffset=0mil|HoleType=Round|Shape=Rectangle|*
%AMROTATEDRECTD74*
4,1,4,0.006663,0.044219,0.044704,-0.001117,-0.006663,-0.044219,-0.044704,0.001117,0.006663,0.044219,0.0*
%
%ADD74ROTATEDRECTD74*%

G04:AMPARAMS|DCode=75|XSize=31.622mil|YSize=88.709mil|CornerRadius=0mil|HoleSize=0mil|Usage=FLASHONLY|Rotation=50.000|XOffset=0mil|YOffset=0mil|HoleType=Round|Shape=Round|*
%AMOVALD75*
21,1,0.057087,0.031622,0.000000,0.000000,140.0*
1,1,0.031622,0.021865,-0.018347*
1,1,0.031622,-0.021865,0.018347*
%
%ADD75OVALD75*%

G04:AMPARAMS|DCode=76|XSize=67.055mil|YSize=59.181mil|CornerRadius=0mil|HoleSize=0mil|Usage=FLASHONLY|Rotation=120.000|XOffset=0mil|YOffset=0mil|HoleType=Round|Shape=Rectangle|*
%AMROTATEDRECTD76*
4,1,4,0.042390,-0.014241,-0.008862,-0.043831,-0.042390,0.014241,0.008862,0.043831,0.042390,-0.014241,0.0*
%
%ADD76ROTATEDRECTD76*%

%ADD77R,0.067055X0.059181*%
G04:AMPARAMS|DCode=78|XSize=67.055mil|YSize=59.181mil|CornerRadius=0mil|HoleSize=0mil|Usage=FLASHONLY|Rotation=50.000|XOffset=0mil|YOffset=0mil|HoleType=Round|Shape=Rectangle|*
%AMROTATEDRECTD78*
4,1,4,0.001117,-0.044704,-0.044219,-0.006663,-0.001117,0.044704,0.044219,0.006663,0.001117,-0.044704,0.0*
%
%ADD78ROTATEDRECTD78*%

%ADD79R,0.038000X0.022000*%
%ADD80R,0.072961X0.019811*%
D52*
X3099582Y2133140D02*
D03*
X3141804Y2097710D02*
D03*
D56*
X3802796Y4046367D02*
D03*
D57*
X2406471Y3394796D02*
D03*
D58*
X2520351Y3259079D02*
D03*
X2210436Y3230303D02*
D03*
X2324316Y3094586D02*
D03*
X2290000Y2538206D02*
D03*
X2340000Y2451602D02*
D03*
X2390000Y2365000D02*
D03*
X2440000Y2278398D02*
D03*
X2490000Y2191794D02*
D03*
X2868488Y1588676D02*
D03*
X2791884Y1652954D02*
D03*
X2715280Y1717232D02*
D03*
X2638676Y1781512D02*
D03*
X3061324Y1818488D02*
D03*
X2984720Y1882768D02*
D03*
X2908116Y1947046D02*
D03*
D59*
X4798107Y2223865D02*
D03*
X2755171Y1780601D02*
D03*
X2859942Y1694462D02*
D03*
X2820492Y1858158D02*
D03*
X2955316Y1810220D02*
D03*
X2891798Y1733522D02*
D03*
D60*
X2795000Y2893426D02*
D03*
X2559764Y2855000D02*
D03*
D61*
X2795000Y2696574D02*
D03*
D62*
X2540000Y2105192D02*
D03*
D63*
X2831512Y2011324D02*
D03*
D64*
X2280236Y2855000D02*
D03*
D65*
X3140000Y2561496D02*
D03*
D66*
Y3030000D02*
D03*
D74*
X2639459Y3409878D02*
D03*
X2591377Y3467181D02*
D03*
D75*
X2977172Y1791448D02*
D03*
X2945034Y1753146D02*
D03*
X2912894Y1714842D02*
D03*
X2880754Y1676542D02*
D03*
X2830900Y1914184D02*
D03*
X2798762Y1875882D02*
D03*
X2766622Y1837580D02*
D03*
X2734482Y1799278D02*
D03*
D76*
X2557610Y2561300D02*
D03*
X2622390Y2598700D02*
D03*
X2612610Y2471300D02*
D03*
X2677390Y2508700D02*
D03*
D77*
X4290000Y1607402D02*
D03*
Y1532598D02*
D03*
D78*
X3027282Y2064178D02*
D03*
X3084584Y2016096D02*
D03*
D79*
X4511500Y1715000D02*
D03*
Y1735000D02*
D03*
Y1755000D02*
D03*
Y1775000D02*
D03*
Y1795000D02*
D03*
Y1815000D02*
D03*
Y1835000D02*
D03*
Y1855000D02*
D03*
X4438500D02*
D03*
Y1835000D02*
D03*
Y1815000D02*
D03*
Y1795000D02*
D03*
Y1775000D02*
D03*
Y1755000D02*
D03*
Y1735000D02*
D03*
Y1715000D02*
D03*
X3515000Y1845000D02*
D03*
Y1825000D02*
D03*
Y1805000D02*
D03*
Y1785000D02*
D03*
Y1765000D02*
D03*
Y1745000D02*
D03*
Y1725000D02*
D03*
Y1705000D02*
D03*
X3588000D02*
D03*
Y1725000D02*
D03*
Y1745000D02*
D03*
Y1765000D02*
D03*
Y1785000D02*
D03*
Y1805000D02*
D03*
Y1825000D02*
D03*
Y1845000D02*
D03*
D80*
X3865748Y1543662D02*
D03*
Y1569252D02*
D03*
Y1594842D02*
D03*
Y1620434D02*
D03*
Y1646024D02*
D03*
Y1671614D02*
D03*
Y1697204D02*
D03*
Y1722796D02*
D03*
Y1748386D02*
D03*
Y1773976D02*
D03*
Y1799566D02*
D03*
Y1825158D02*
D03*
Y1850748D02*
D03*
Y1876338D02*
D03*
X4084252Y1543662D02*
D03*
Y1569252D02*
D03*
Y1594842D02*
D03*
Y1620434D02*
D03*
Y1646024D02*
D03*
Y1671614D02*
D03*
Y1697204D02*
D03*
Y1722796D02*
D03*
Y1748386D02*
D03*
Y1773976D02*
D03*
Y1799566D02*
D03*
Y1825158D02*
D03*
Y1850748D02*
D03*
Y1876338D02*
D03*
%TF.MD5,236acfb34a7180ae24e33cd60d0f70f8*%
M02*
