G04 Layer_Color=8388736*
%FSLAX26Y26*%
%MOIN*%
%TF.FileFunction,Soldermask,Top*%
%TF.Part,Single*%
%TFFileComment,Halloween PCB
Pumpkin Badge
V1
Gadorach
(W.W.S.)*%
G01*
G75*
%TA.AperFunction,SMDPad,CuDef*%
G04:AMPARAMS|DCode=44|XSize=43.433mil|YSize=39.496mil|CornerRadius=0mil|HoleSize=0mil|Usage=FLASHONLY|Rotation=160.000|XOffset=0mil|YOffset=0mil|HoleType=Round|Shape=Rectangle|*
%AMROTATEDRECTD44*
4,1,4,0.027161,0.011130,0.013653,-0.025985,-0.027161,-0.011130,-0.013653,0.025985,0.027161,0.011130,0.0*
%
%ADD44ROTATEDRECTD44*%

G04:AMPARAMS|DCode=45|XSize=43.433mil|YSize=39.496mil|CornerRadius=0mil|HoleSize=0mil|Usage=FLASHONLY|Rotation=80.000|XOffset=0mil|YOffset=0mil|HoleType=Round|Shape=Rectangle|*
%AMROTATEDRECTD45*
4,1,4,0.015677,-0.024816,-0.023219,-0.017957,-0.015677,0.024816,0.023219,0.017957,0.015677,-0.024816,0.0*
%
%ADD45ROTATEDRECTD45*%

G04:AMPARAMS|DCode=46|XSize=43.433mil|YSize=39.496mil|CornerRadius=0mil|HoleSize=0mil|Usage=FLASHONLY|Rotation=190.000|XOffset=0mil|YOffset=0mil|HoleType=Round|Shape=Rectangle|*
%AMROTATEDRECTD46*
4,1,4,0.017957,0.023219,0.024816,-0.015677,-0.017957,-0.023219,-0.024816,0.015677,0.017957,0.023219,0.0*
%
%ADD46ROTATEDRECTD46*%

G04:AMPARAMS|DCode=47|XSize=43.433mil|YSize=39.496mil|CornerRadius=0mil|HoleSize=0mil|Usage=FLASHONLY|Rotation=250.000|XOffset=0mil|YOffset=0mil|HoleType=Round|Shape=Rectangle|*
%AMROTATEDRECTD47*
4,1,4,-0.011130,0.027161,0.025985,0.013653,0.011130,-0.027161,-0.025985,-0.013653,-0.011130,0.027161,0.0*
%
%ADD47ROTATEDRECTD47*%

G04:AMPARAMS|DCode=48|XSize=43.433mil|YSize=39.496mil|CornerRadius=0mil|HoleSize=0mil|Usage=FLASHONLY|Rotation=200.000|XOffset=0mil|YOffset=0mil|HoleType=Round|Shape=Rectangle|*
%AMROTATEDRECTD48*
4,1,4,0.013653,0.025985,0.027161,-0.011130,-0.013653,-0.025985,-0.027161,0.011130,0.013653,0.025985,0.0*
%
%ADD48ROTATEDRECTD48*%

G04:AMPARAMS|DCode=49|XSize=43.433mil|YSize=39.496mil|CornerRadius=0mil|HoleSize=0mil|Usage=FLASHONLY|Rotation=130.000|XOffset=0mil|YOffset=0mil|HoleType=Round|Shape=Rectangle|*
%AMROTATEDRECTD49*
4,1,4,0.029087,-0.003942,-0.001169,-0.029330,-0.029087,0.003942,0.001169,0.029330,0.029087,-0.003942,0.0*
%
%ADD49ROTATEDRECTD49*%

G04:AMPARAMS|DCode=50|XSize=43.433mil|YSize=39.496mil|CornerRadius=0mil|HoleSize=0mil|Usage=FLASHONLY|Rotation=100.000|XOffset=0mil|YOffset=0mil|HoleType=Round|Shape=Rectangle|*
%AMROTATEDRECTD50*
4,1,4,0.023219,-0.017957,-0.015677,-0.024816,-0.023219,0.017957,0.015677,0.024816,0.023219,-0.017957,0.0*
%
%ADD50ROTATEDRECTD50*%

%ADD51R,0.039496X0.043433*%
G04:AMPARAMS|DCode=52|XSize=43.433mil|YSize=39.496mil|CornerRadius=0mil|HoleSize=0mil|Usage=FLASHONLY|Rotation=230.000|XOffset=0mil|YOffset=0mil|HoleType=Round|Shape=Rectangle|*
%AMROTATEDRECTD52*
4,1,4,-0.001169,0.029330,0.029087,0.003942,0.001169,-0.029330,-0.029087,-0.003942,-0.001169,0.029330,0.0*
%
%ADD52ROTATEDRECTD52*%

G04:AMPARAMS|DCode=53|XSize=43.433mil|YSize=39.496mil|CornerRadius=0mil|HoleSize=0mil|Usage=FLASHONLY|Rotation=140.000|XOffset=0mil|YOffset=0mil|HoleType=Round|Shape=Rectangle|*
%AMROTATEDRECTD53*
4,1,4,0.029330,0.001169,0.003942,-0.029087,-0.029330,-0.001169,-0.003942,0.029087,0.029330,0.001169,0.0*
%
%ADD53ROTATEDRECTD53*%

G04:AMPARAMS|DCode=54|XSize=43.433mil|YSize=39.496mil|CornerRadius=0mil|HoleSize=0mil|Usage=FLASHONLY|Rotation=290.000|XOffset=0mil|YOffset=0mil|HoleType=Round|Shape=Rectangle|*
%AMROTATEDRECTD54*
4,1,4,-0.025985,0.013653,0.011130,0.027161,0.025985,-0.013653,-0.011130,-0.027161,-0.025985,0.013653,0.0*
%
%ADD54ROTATEDRECTD54*%

G04:AMPARAMS|DCode=55|XSize=43.433mil|YSize=39.496mil|CornerRadius=0mil|HoleSize=0mil|Usage=FLASHONLY|Rotation=240.000|XOffset=0mil|YOffset=0mil|HoleType=Round|Shape=Rectangle|*
%AMROTATEDRECTD55*
4,1,4,-0.006244,0.028681,0.027961,0.008933,0.006244,-0.028681,-0.027961,-0.008933,-0.006244,0.028681,0.0*
%
%ADD55ROTATEDRECTD55*%

%TA.AperFunction,ViaPad*%
%ADD56C,0.008000*%
%TA.AperFunction,ComponentPad*%
%ADD57P,0.094830X4X265.0*%
%ADD58C,0.067055*%
%TA.AperFunction,ViaPad*%
%ADD59C,0.033000*%
%TA.AperFunction,ComponentPad*%
%ADD60C,0.088000*%
G04:AMPARAMS|DCode=61|XSize=118mil|YSize=118mil|CornerRadius=31.5mil|HoleSize=0mil|Usage=FLASHONLY|Rotation=90.000|XOffset=0mil|YOffset=0mil|HoleType=Round|Shape=RoundedRectangle|*
%AMROUNDEDRECTD61*
21,1,0.118000,0.055000,0,0,90.0*
21,1,0.055000,0.118000,0,0,90.0*
1,1,0.063000,0.027500,0.027500*
1,1,0.063000,0.027500,-0.027500*
1,1,0.063000,-0.027500,-0.027500*
1,1,0.063000,-0.027500,0.027500*
%
%ADD61ROUNDEDRECTD61*%
%ADD62P,0.094830X4X165.0*%
%ADD63P,0.094830X4X275.0*%
G04:AMPARAMS|DCode=64|XSize=88mil|YSize=88mil|CornerRadius=24mil|HoleSize=0mil|Usage=FLASHONLY|Rotation=180.000|XOffset=0mil|YOffset=0mil|HoleType=Round|Shape=RoundedRectangle|*
%AMROUNDEDRECTD64*
21,1,0.088000,0.040000,0,0,180.0*
21,1,0.040000,0.088000,0,0,180.0*
1,1,0.048000,-0.020000,0.020000*
1,1,0.048000,0.020000,0.020000*
1,1,0.048000,0.020000,-0.020000*
1,1,0.048000,-0.020000,-0.020000*
%
%ADD64ROUNDEDRECTD64*%
%ADD65C,0.108000*%
G04:AMPARAMS|DCode=66|XSize=108mil|YSize=108mil|CornerRadius=29mil|HoleSize=0mil|Usage=FLASHONLY|Rotation=180.000|XOffset=0mil|YOffset=0mil|HoleType=Round|Shape=RoundedRectangle|*
%AMROUNDEDRECTD66*
21,1,0.108000,0.050000,0,0,180.0*
21,1,0.050000,0.108000,0,0,180.0*
1,1,0.058000,-0.025000,0.025000*
1,1,0.058000,0.025000,0.025000*
1,1,0.058000,0.025000,-0.025000*
1,1,0.058000,-0.025000,-0.025000*
%
%ADD66ROUNDEDRECTD66*%
D44*
X3659788Y1949834D02*
D03*
X3678640Y2001628D02*
D03*
X4486930Y1891032D02*
D03*
X4505780Y1942826D02*
D03*
D45*
X3449988Y1909954D02*
D03*
X3504270Y1900384D02*
D03*
D46*
X3219268Y1956430D02*
D03*
X3209696Y2010712D02*
D03*
D47*
X3122776Y2154470D02*
D03*
X3070982Y2173320D02*
D03*
X3102500Y2919860D02*
D03*
X3154294Y2901008D02*
D03*
D48*
X2914220Y2334004D02*
D03*
X2895368Y2385798D02*
D03*
D49*
X3485910Y2931182D02*
D03*
X3528132Y2966612D02*
D03*
X4586082Y2907184D02*
D03*
X4628304Y2942612D02*
D03*
D50*
X3025422Y3189058D02*
D03*
X3079702Y3198628D02*
D03*
D51*
X4557958Y3167812D02*
D03*
X4613076D02*
D03*
X3935662Y2026692D02*
D03*
X3990780D02*
D03*
D52*
X4182778Y2909106D02*
D03*
X4140556Y2944536D02*
D03*
D53*
X4721412Y2204084D02*
D03*
X4756840Y2246306D02*
D03*
D54*
X4611030Y2134526D02*
D03*
X4559236Y2115674D02*
D03*
D55*
X4226214Y1828668D02*
D03*
X4178480Y1856226D02*
D03*
D56*
X3802796Y4046367D02*
D03*
D57*
X2406471Y3394796D02*
D03*
D58*
X2520351Y3259079D02*
D03*
X2210436Y3230303D02*
D03*
X2324316Y3094586D02*
D03*
X2290000Y2538206D02*
D03*
X2340000Y2451602D02*
D03*
X2390000Y2365000D02*
D03*
X2440000Y2278398D02*
D03*
X2490000Y2191794D02*
D03*
X2868488Y1588676D02*
D03*
X2791884Y1652954D02*
D03*
X2715280Y1717232D02*
D03*
X2638676Y1781512D02*
D03*
X3061324Y1818488D02*
D03*
X2984720Y1882768D02*
D03*
X2908116Y1947046D02*
D03*
D59*
X4798107Y2223865D02*
D03*
D60*
X2795000Y2893426D02*
D03*
X2559764Y2855000D02*
D03*
D61*
X2795000Y2696574D02*
D03*
D62*
X2540000Y2105192D02*
D03*
D63*
X2831512Y2011324D02*
D03*
D64*
X2280236Y2855000D02*
D03*
D65*
X3140000Y2561496D02*
D03*
D66*
Y3030000D02*
D03*
%TF.MD5,d8519bac78baacf2f1ece4a19a47d69b*%
M02*
