G04 Layer_Color=65535*
%FSLAX26Y26*%
%MOIN*%
%TF.FileFunction,Legend,Top*%
%TF.Part,Single*%
%TFFileComment,Halloween PCB
Pumpkin Badge
V1
Gadorach
(W.W.S.)*%
G01*
G75*
%TA.AperFunction,NonConductor*%
%ADD23C,0.010000*%
D23*
X4088156Y2928548D02*
G03*
X4114448Y2865073I89767J0D01*
G01*
X3557651Y2883117D02*
G03*
X3583943Y2946592I-63475J63475D01*
G01*
X4427746Y2788420D02*
X4444160Y2712976D01*
X4448902Y2509030D01*
X4429930Y2129592D02*
X4448902Y2509030D01*
X4411812Y1957460D02*
X4429930Y2129592D01*
X4287642Y1645810D02*
X4350616Y1758528D01*
X4225982Y1565178D02*
X4287642Y1645810D01*
X4150096Y1494034D02*
X4225982Y1565178D01*
X4041828Y1419348D02*
X4150096Y1494034D01*
X3014138Y2372046D02*
X3018022Y2300248D01*
X3657816Y1817038D02*
X3682462Y1771586D01*
X3763734Y1975916D02*
X3782576Y1932640D01*
X4056802Y1910876D02*
X4057748Y1955828D01*
X4143858Y1710648D02*
X4160014Y1756774D01*
X4554466Y2047136D02*
X4579138Y2019696D01*
X4866740Y2394108D02*
X4883832Y2511562D01*
X4839348Y2310104D02*
X4866740Y2394108D01*
X4757170Y2158532D02*
X4839348Y2310104D01*
X4647600Y2072702D02*
X4757170Y2158532D01*
X4554466Y2047136D02*
X4647600Y2072702D01*
X4554466Y2047136D02*
X4561770Y1853562D01*
X4160014Y1756774D02*
X4561770Y1853562D01*
X4057748Y1955828D02*
X4160014Y1756774D01*
X3763734Y1975916D02*
X4057748Y1955828D01*
X3657816Y1817038D02*
X3763734Y1975916D01*
X3183012Y1908346D02*
X3657816Y1817038D01*
X3162926Y2070876D02*
X3164480Y2019696D01*
X3020484Y2132966D02*
X3162926Y2070876D01*
X2925524Y2220622D02*
X3020484Y2132966D01*
X2872564Y2310104D02*
X2925524Y2220622D01*
X2848824Y2412370D02*
X2872564Y2310104D01*
X2848824Y2412370D02*
X2859780Y2490894D01*
X2881548Y2563794D01*
X4465964Y1967462D02*
X4471526Y2201882D01*
X4635724Y2241688D01*
X4200444Y1906524D02*
X4465964Y1967462D01*
X4139506Y2111104D02*
X4200444Y1906524D01*
X4082920Y2098046D02*
X4139506Y2111104D01*
X3974100Y2098046D02*
X4082920D01*
X3826104Y2089340D02*
X3974100Y2098046D01*
X3691168Y2119810D02*
X3826104Y2089340D01*
X3630228Y2154632D02*
X3691168Y2119810D01*
X3586700Y1954404D02*
X3630228Y2154632D01*
X3251536Y2006638D02*
X3586700Y1954404D01*
X3251536Y2006638D02*
Y2206866D01*
X3060012Y2058870D02*
X3164480Y2019696D01*
X3186244Y1862996D01*
X3682462Y1771586D01*
X3782576Y1932640D01*
X4056802Y1910876D01*
X4143858Y1710648D01*
X4557374Y1806408D01*
X4579138Y2019696D01*
X4648782Y2037106D01*
X4731486Y2084988D01*
X4805482Y2167690D01*
X4862068Y2298274D01*
X4888186Y2394036D01*
X4883832Y2511562D02*
X4888186Y2394036D01*
X4635724Y2241688D02*
X4757602Y2306980D01*
X4849010Y2420152D01*
X4883832Y2511562D01*
X3099188Y2246040D02*
X3251536Y2206866D01*
X3007780Y2306980D02*
X3099188Y2246040D01*
X2925076Y2424506D02*
X3007780Y2306980D01*
X2894606Y2507208D02*
X2925076Y2424506D01*
X2881548Y2563794D02*
X2894606Y2507208D01*
X2946840Y2137220D02*
X3060012Y2058870D01*
X2855432Y2237336D02*
X2946840Y2137220D01*
X2820610Y2367918D02*
X2855432Y2237336D01*
X2820610Y2367918D02*
X2838020Y2489798D01*
X2881548Y2563794D01*
X3531402Y2901126D02*
X3577746Y2963358D01*
X3478438Y2874644D02*
X3531402Y2901126D01*
X3377806Y2853458D02*
X3478438Y2874644D01*
X3252014Y2849486D02*
X3377806Y2853458D01*
X3116956Y2869348D02*
X3252014Y2849486D01*
X3048102Y2917014D02*
X3116956Y2869348D01*
X2999110Y2999110D02*
X3048102Y2917014D01*
X2984544Y3123576D02*
X2999110Y2999110D01*
X2984544Y3123576D02*
X2985410Y3220756D01*
X4489134Y3204346D02*
X4499284Y3207070D01*
X4391778Y3172206D02*
X4445530Y3189638D01*
X4404206Y3255520D02*
X4489134Y3204346D01*
X4404206Y3255520D02*
X4445530Y3189638D01*
X4668786Y3205434D02*
X4690562Y3148818D01*
X4696006Y3047558D01*
X4672052Y2939768D02*
X4696006Y3047558D01*
X4626322Y2883150D02*
X4672052Y2939768D01*
X4555550Y2845042D02*
X4626322Y2883150D01*
X4505466Y2838508D02*
X4555550Y2845042D01*
X4503288Y2790602D02*
X4505466Y2838508D01*
X4459736Y2833064D02*
X4503288Y2790602D01*
X4417272Y2828710D02*
X4459736Y2833064D01*
X4294238D02*
X4417272Y2828710D01*
X4223466Y2842864D02*
X4294238Y2833064D01*
X4162492Y2870084D02*
X4223466Y2842864D01*
X4120030Y2907104D02*
X4162492Y2870084D01*
X4093898Y2934324D02*
X4120030Y2907104D01*
X4283798Y3255846D02*
X4326612Y3141676D01*
X4639760Y2846914D02*
X4678364Y2887464D01*
X4583316Y2807988D02*
X4639760Y2846914D01*
X4519088Y2792418D02*
X4583316Y2807988D01*
X4452914Y2786578D02*
X4519088Y2792418D01*
X4359492Y2788524D02*
X4452914Y2786578D01*
X4264122Y2794364D02*
X4359492Y2788524D01*
X4211572Y2807988D02*
X4264122Y2794364D01*
X4145398Y2831344D02*
X4211572Y2807988D01*
X4114448Y2865074D02*
X4145398Y2831344D01*
X4678364Y2887464D02*
X4702668Y2925238D01*
X4718648Y2996422D01*
X4723006Y3064702D01*
X4720102Y3115548D02*
X4723006Y3064702D01*
X4088156Y2928548D02*
X4093964Y2967368D01*
X4111398Y3003686D01*
X4168054Y3050174D01*
X4261030Y3108284D01*
X4391778Y3172206D01*
X4499284Y3207070D02*
X4571920Y3218694D01*
X4631484D01*
X4686688Y3202712D01*
X4709932Y3179468D01*
X4715744Y3156226D01*
X4720102Y3115548D01*
X2951998Y3133592D02*
X2956356Y3174268D01*
X2962166Y3197512D01*
X2985410Y3220756D01*
X3040616Y3236738D01*
X3100178D01*
X3172816Y3225116D01*
X3280320Y3190248D01*
X3411068Y3126328D01*
X3504044Y3068218D01*
X3560702Y3021730D01*
X3578134Y2985410D01*
X3583942Y2946592D01*
X2949092Y3082746D02*
X2951998Y3133592D01*
X2949092Y3082746D02*
X2953450Y3014466D01*
X2969430Y2943280D01*
X2993736Y2905508D01*
X3526700Y2849386D02*
X3557650Y2883118D01*
X3460526Y2826032D02*
X3526700Y2849386D01*
X3407976Y2812408D02*
X3460526Y2826032D01*
X3312606Y2806568D02*
X3407976Y2812408D01*
X3219184Y2804622D02*
X3312606Y2806568D01*
X3153010Y2810460D02*
X3219184Y2804622D01*
X3088782Y2826032D02*
X3153010Y2810460D01*
X3032340Y2864958D02*
X3088782Y2826032D01*
X2993736Y2905508D02*
X3032340Y2864958D01*
X3637040Y3580120D02*
X3652250Y3601150D01*
X3584498Y3612958D02*
X3689582Y3539254D01*
X3483794Y3661852D02*
X3584498Y3612958D01*
X3418476Y3696206D02*
X3483794Y3661852D01*
X4180548Y3578392D02*
X4437206Y3652428D01*
X4683992Y3701784D01*
X4881420Y3696848D01*
X5108462Y3677106D01*
X5261470Y3553714D01*
X5468770Y3163792D01*
X5527998Y2729450D01*
X5466972Y2324926D02*
X5527998Y2729450D01*
X5376884Y2040434D02*
X5466972Y2324926D01*
X5226736Y1751202D02*
X5376884Y2040434D01*
X3940558Y3521696D02*
X4021890Y3546096D01*
X4107290Y3562362D01*
X4290288Y3594896D01*
X4428554D01*
X4546486Y3562362D01*
X4814882Y3241098D01*
X4965348Y2875102D01*
X4997880Y2362708D01*
X4932814Y2017046D02*
X4997880Y2362708D01*
X4794550Y1732382D02*
X4932814Y2017046D01*
X4610954Y1456232D02*
X4794550Y1732382D01*
X4139804Y3399840D02*
X4283798Y3255846D01*
X3927814Y3531834D02*
X4139804Y3399840D01*
X3827820Y3555832D02*
X3927814Y3531834D01*
X3747822Y3543832D02*
X3827820Y3555832D01*
X3491836Y3443838D02*
X3747822Y3543832D01*
X3275846Y3255846D02*
X3491836Y3443838D01*
X3236828Y3204566D02*
X3275846Y3255846D01*
X3016448Y2665376D02*
X3041240Y2854418D01*
X3014138Y2372046D02*
X3016448Y2665376D01*
X3030366Y2078860D02*
X3083708Y1926262D01*
X3135826Y1815574D01*
X3228700Y1617082D01*
X3337962Y1493250D01*
X3414446Y1434978D01*
X3585956Y3547246D02*
X3723202Y3533170D01*
X3332582Y3550766D02*
X3585956Y3547246D01*
X3029940Y3536690D02*
X3332582Y3550766D01*
X2794160Y3483902D02*
X3029940Y3536690D01*
X2575976Y3350178D02*
X2794160Y3483902D01*
X2371870Y3142550D02*
X2575976Y3350178D01*
X2252220Y2941962D02*
X2371870Y3142550D01*
X2206472Y2723778D02*
X2252220Y2941962D01*
X2202952Y2495038D02*
X2206472Y2723778D01*
X2202952Y2495038D02*
X2241662Y2262778D01*
X2290930Y2100898D01*
X2350754Y1974212D01*
X2438732Y1858082D01*
X3643172Y3937182D02*
X3649560Y3870094D01*
X3636114Y3775964D02*
X3649560Y3870094D01*
X3601150Y3714108D02*
X3636114Y3775964D01*
X3539534Y3636516D02*
X3601150Y3714108D01*
X3652250Y3601150D02*
X3708728Y3697970D01*
X3719486Y3870094D01*
X3681834Y3999188D02*
X3719486Y3870094D01*
X3625356Y4104074D02*
X3681834Y3999188D01*
X3625356Y4104074D02*
X3706038Y4004566D01*
X3735622Y3931952D01*
X3746380Y3862026D01*
X3754448Y3719486D01*
X3757138Y3646872D01*
X3781342Y3560810D01*
X3832442Y3918504D02*
X3853958Y3797480D01*
X3870094Y3633424D01*
X3872784Y3544672D01*
X3875474Y3541984D01*
X3832442Y3918504D02*
X3905056Y3829752D01*
X3948088Y3730244D01*
X3969604Y3601150D01*
X4004566Y3552742D01*
X4052976Y3918504D02*
X4104074Y3778654D01*
X4133658Y3695282D01*
X4168622Y3649560D01*
X4214342Y3625356D01*
X3539294Y3907746D02*
X3582324Y3870094D01*
X3637432Y3787434D01*
X3781342Y3560810D02*
X3875474Y3541984D01*
X4004566Y3552742D02*
X4058516Y3553400D01*
X4117572Y3563452D01*
X4195474Y3596122D01*
X4214342Y3625356D01*
X4163986Y3875138D02*
X4199508Y3893834D01*
X4136878Y3853638D02*
X4163986Y3875138D01*
X4116700Y3822244D02*
X4136878Y3853638D01*
X4104074Y3778654D02*
X4116700Y3822244D01*
X4615396Y3890964D02*
X4648758Y3898590D01*
X4549626Y3866180D02*
X4615396Y3890964D01*
X4436194Y3807082D02*
X4549626Y3866180D01*
X4361846Y3754656D02*
X4436194Y3807082D01*
X4265572Y3665056D02*
X4361846Y3754656D01*
X4243648Y3644086D02*
X4265572Y3665056D01*
X4214342Y3625356D02*
X4243648Y3644086D01*
X3019346Y3944086D02*
X3117916Y3929820D01*
X3269662Y3899990D01*
X3396766Y3824766D01*
X3460316Y3779372D01*
X3551104Y3697662D01*
X3571218Y3678060D01*
X2005826Y2935020D02*
X2084688Y3151034D01*
X2180694Y3343044D01*
X2324702Y3538484D01*
X2547570Y3713350D01*
X2818444Y3795640D01*
X3106460Y3775068D01*
X3332758Y3737352D01*
X3418476Y3696206D01*
%TF.MD5,64015ff0f07e6fb8b764c30c0090e6e0*%
M02*
