G04 Layer_Physical_Order=1*
G04 Layer_Color=255*
%FSLAX26Y26*%
%MOIN*%
%TF.FileFunction,Copper,L1,Top,Signal*%
%TF.Part,Single*%
%TFFileComment,Halloween PCB
Pumpkin Badge
V1
Gadorach
(W.W.S.)*%
G01*
G75*
%TA.AperFunction,NonConductor*%
%ADD10C,0.008000*%
%TA.AperFunction,SMDPad,CuDef*%
G04:AMPARAMS|DCode=11|XSize=35.433mil|YSize=31.496mil|CornerRadius=0mil|HoleSize=0mil|Usage=FLASHONLY|Rotation=160.000|XOffset=0mil|YOffset=0mil|HoleType=Round|Shape=Rectangle|*
%AMROTATEDRECTD11*
4,1,4,0.022034,0.008739,0.011262,-0.020858,-0.022034,-0.008739,-0.011262,0.020858,0.022034,0.008739,0.0*
%
%ADD11ROTATEDRECTD11*%

G04:AMPARAMS|DCode=12|XSize=35.433mil|YSize=31.496mil|CornerRadius=0mil|HoleSize=0mil|Usage=FLASHONLY|Rotation=80.000|XOffset=0mil|YOffset=0mil|HoleType=Round|Shape=Rectangle|*
%AMROTATEDRECTD12*
4,1,4,0.012432,-0.020182,-0.018585,-0.014713,-0.012432,0.020182,0.018585,0.014713,0.012432,-0.020182,0.0*
%
%ADD12ROTATEDRECTD12*%

G04:AMPARAMS|DCode=13|XSize=35.433mil|YSize=31.496mil|CornerRadius=0mil|HoleSize=0mil|Usage=FLASHONLY|Rotation=190.000|XOffset=0mil|YOffset=0mil|HoleType=Round|Shape=Rectangle|*
%AMROTATEDRECTD13*
4,1,4,0.014713,0.018585,0.020182,-0.012432,-0.014713,-0.018585,-0.020182,0.012432,0.014713,0.018585,0.0*
%
%ADD13ROTATEDRECTD13*%

G04:AMPARAMS|DCode=14|XSize=35.433mil|YSize=31.496mil|CornerRadius=0mil|HoleSize=0mil|Usage=FLASHONLY|Rotation=250.000|XOffset=0mil|YOffset=0mil|HoleType=Round|Shape=Rectangle|*
%AMROTATEDRECTD14*
4,1,4,-0.008739,0.022034,0.020858,0.011262,0.008739,-0.022034,-0.020858,-0.011262,-0.008739,0.022034,0.0*
%
%ADD14ROTATEDRECTD14*%

G04:AMPARAMS|DCode=15|XSize=35.433mil|YSize=31.496mil|CornerRadius=0mil|HoleSize=0mil|Usage=FLASHONLY|Rotation=200.000|XOffset=0mil|YOffset=0mil|HoleType=Round|Shape=Rectangle|*
%AMROTATEDRECTD15*
4,1,4,0.011262,0.020858,0.022034,-0.008739,-0.011262,-0.020858,-0.022034,0.008739,0.011262,0.020858,0.0*
%
%ADD15ROTATEDRECTD15*%

G04:AMPARAMS|DCode=16|XSize=35.433mil|YSize=31.496mil|CornerRadius=0mil|HoleSize=0mil|Usage=FLASHONLY|Rotation=130.000|XOffset=0mil|YOffset=0mil|HoleType=Round|Shape=Rectangle|*
%AMROTATEDRECTD16*
4,1,4,0.023452,-0.003449,-0.000676,-0.023694,-0.023452,0.003449,0.000676,0.023694,0.023452,-0.003449,0.0*
%
%ADD16ROTATEDRECTD16*%

G04:AMPARAMS|DCode=17|XSize=35.433mil|YSize=31.496mil|CornerRadius=0mil|HoleSize=0mil|Usage=FLASHONLY|Rotation=100.000|XOffset=0mil|YOffset=0mil|HoleType=Round|Shape=Rectangle|*
%AMROTATEDRECTD17*
4,1,4,0.018585,-0.014713,-0.012432,-0.020182,-0.018585,0.014713,0.012432,0.020182,0.018585,-0.014713,0.0*
%
%ADD17ROTATEDRECTD17*%

%ADD18R,0.031496X0.035433*%
G04:AMPARAMS|DCode=19|XSize=35.433mil|YSize=31.496mil|CornerRadius=0mil|HoleSize=0mil|Usage=FLASHONLY|Rotation=230.000|XOffset=0mil|YOffset=0mil|HoleType=Round|Shape=Rectangle|*
%AMROTATEDRECTD19*
4,1,4,-0.000676,0.023694,0.023452,0.003449,0.000676,-0.023694,-0.023452,-0.003449,-0.000676,0.023694,0.0*
%
%ADD19ROTATEDRECTD19*%

G04:AMPARAMS|DCode=20|XSize=35.433mil|YSize=31.496mil|CornerRadius=0mil|HoleSize=0mil|Usage=FLASHONLY|Rotation=140.000|XOffset=0mil|YOffset=0mil|HoleType=Round|Shape=Rectangle|*
%AMROTATEDRECTD20*
4,1,4,0.023694,0.000676,0.003449,-0.023452,-0.023694,-0.000676,-0.003449,0.023452,0.023694,0.000676,0.0*
%
%ADD20ROTATEDRECTD20*%

G04:AMPARAMS|DCode=21|XSize=35.433mil|YSize=31.496mil|CornerRadius=0mil|HoleSize=0mil|Usage=FLASHONLY|Rotation=290.000|XOffset=0mil|YOffset=0mil|HoleType=Round|Shape=Rectangle|*
%AMROTATEDRECTD21*
4,1,4,-0.020858,0.011262,0.008739,0.022034,0.020858,-0.011262,-0.008739,-0.022034,-0.020858,0.011262,0.0*
%
%ADD21ROTATEDRECTD21*%

G04:AMPARAMS|DCode=22|XSize=35.433mil|YSize=31.496mil|CornerRadius=0mil|HoleSize=0mil|Usage=FLASHONLY|Rotation=240.000|XOffset=0mil|YOffset=0mil|HoleType=Round|Shape=Rectangle|*
%AMROTATEDRECTD22*
4,1,4,-0.004780,0.023217,0.022497,0.007469,0.004780,-0.023217,-0.022497,-0.007469,-0.004780,0.023217,0.0*
%
%ADD22ROTATEDRECTD22*%

%TA.AperFunction,NonConductor*%
%ADD23C,0.010000*%
%TA.AperFunction,Conductor*%
%ADD24C,0.010000*%
%ADD25C,0.030000*%
%TA.AperFunction,ViaPad*%
%ADD26C,0.025000*%
%TA.AperFunction,ComponentPad*%
%ADD27P,0.083516X4X265.0*%
%ADD28C,0.059055*%
%ADD29C,0.080000*%
G04:AMPARAMS|DCode=30|XSize=110mil|YSize=110mil|CornerRadius=27.5mil|HoleSize=0mil|Usage=FLASHONLY|Rotation=90.000|XOffset=0mil|YOffset=0mil|HoleType=Round|Shape=RoundedRectangle|*
%AMROUNDEDRECTD30*
21,1,0.110000,0.055000,0,0,90.0*
21,1,0.055000,0.110000,0,0,90.0*
1,1,0.055000,0.027500,0.027500*
1,1,0.055000,0.027500,-0.027500*
1,1,0.055000,-0.027500,-0.027500*
1,1,0.055000,-0.027500,0.027500*
%
%ADD30ROUNDEDRECTD30*%
%ADD31P,0.083516X4X165.0*%
%ADD32P,0.083516X4X275.0*%
G04:AMPARAMS|DCode=33|XSize=80mil|YSize=80mil|CornerRadius=20mil|HoleSize=0mil|Usage=FLASHONLY|Rotation=180.000|XOffset=0mil|YOffset=0mil|HoleType=Round|Shape=RoundedRectangle|*
%AMROUNDEDRECTD33*
21,1,0.080000,0.040000,0,0,180.0*
21,1,0.040000,0.080000,0,0,180.0*
1,1,0.040000,-0.020000,0.020000*
1,1,0.040000,0.020000,0.020000*
1,1,0.040000,0.020000,-0.020000*
1,1,0.040000,-0.020000,-0.020000*
%
%ADD33ROUNDEDRECTD33*%
%ADD34C,0.100000*%
G04:AMPARAMS|DCode=35|XSize=100mil|YSize=100mil|CornerRadius=25mil|HoleSize=0mil|Usage=FLASHONLY|Rotation=180.000|XOffset=0mil|YOffset=0mil|HoleType=Round|Shape=RoundedRectangle|*
%AMROUNDEDRECTD35*
21,1,0.100000,0.050000,0,0,180.0*
21,1,0.050000,0.100000,0,0,180.0*
1,1,0.050000,-0.025000,0.025000*
1,1,0.050000,0.025000,0.025000*
1,1,0.050000,0.025000,-0.025000*
1,1,0.050000,-0.025000,-0.025000*
%
%ADD35ROUNDEDRECTD35*%
D10*
X4796520Y3214179D02*
G03*
X4789491Y3219679I-18673J-16623D01*
G01*
X4796495Y3214206D02*
G03*
X4789491Y3219679I-18648J-16650D01*
G01*
X4772551Y3129912D02*
G03*
X4771915Y3134799I-24988J-767D01*
G01*
X4772551Y3129938D02*
G03*
X4771907Y3134836I-24987J-793D01*
G01*
X4633379Y3301843D02*
G03*
X4612120Y3302797I-11644J-22123D01*
G01*
X4633379Y3301843D02*
G03*
X4612094Y3302786I-11644J-22123D01*
G01*
X4623683Y3113658D02*
G03*
X4628076Y3124265I-10607J10607D01*
G01*
X4623689Y3113664D02*
G03*
X4628076Y3124265I-10613J10601D01*
G01*
X4988969Y2886374D02*
G03*
X4987130Y2893657I-24883J-2411D01*
G01*
X4988965Y2886413D02*
G03*
X4987130Y2893657I-24880J-2450D01*
G01*
X5019088Y2337273D02*
G03*
X5020582Y2345787I-23506J8514D01*
G01*
X5019082Y2337258D02*
G03*
X5020582Y2345787I-23500J8530D01*
G01*
X4903596Y3092220D02*
G03*
X4899176Y3099204I-23044J-9694D01*
G01*
X4903596Y3092220D02*
G03*
X4899201Y3099177I-23044J-9694D01*
G01*
X4762800Y2933887D02*
G03*
X4764805Y2941150I-22820J10209D01*
G01*
X4762800Y2933887D02*
G03*
X4764805Y2941150I-22820J10209D01*
G01*
X4820607Y2223865D02*
G03*
X4792469Y2245647I-22500J0D01*
G01*
X4776208Y2218699D02*
G03*
X4820607Y2223865I21899J5166D01*
G01*
X4935231Y2147013D02*
G03*
X4956101Y2163375I-2642J24860D01*
G01*
X4935189Y2147009D02*
G03*
X4956095Y2163359I-2599J24864D01*
G01*
X4732243Y2869160D02*
G03*
X4737014Y2876249I-18050J17298D01*
G01*
X4732218Y2869133D02*
G03*
X4737014Y2876249I-18024J17324D01*
G01*
X4659084Y2793403D02*
G03*
X4662496Y2796381I-14663J20248D01*
G01*
X4659065Y2793389D02*
G03*
X4662496Y2796381I-14644J20262D01*
G01*
X4659065Y2793389D02*
G03*
X4662471Y2796354I-14644J20262D01*
G01*
X4608731Y2758216D02*
G03*
X4615116Y2761564I-8297J23583D01*
G01*
X4608710Y2758208D02*
G03*
X4615097Y2761550I-8276J23590D01*
G01*
X3872796Y4046367D02*
G03*
X3872796Y4046367I-70000J0D01*
G01*
X4536885Y3271449D02*
G03*
X4521725Y3244833I9590J-23088D01*
G01*
X4536859Y3271439D02*
G03*
X4521725Y3244833I9615J-23077D01*
G01*
X4445643Y3288481D02*
G03*
X4408143Y3271710I-22500J0D01*
G01*
X4438143D02*
G03*
X4445643Y3288481I-15000J16770D01*
G01*
X4592250Y3088438D02*
G03*
X4602856Y3092832I0J15000D01*
G01*
X4592250Y3088438D02*
G03*
X4602850Y3092826I0J15000D01*
G01*
X4408143Y3214699D02*
G03*
X4412536Y3204093I15000J0D01*
G01*
X4408143Y3214699D02*
G03*
X4412530Y3204099I15000J0D01*
G01*
X4523803Y3092826D02*
G03*
X4534404Y3088438I10601J10613D01*
G01*
X4523797Y3092832D02*
G03*
X4534404Y3088438I10607J10607D01*
G01*
X4559006Y3029477D02*
G03*
X4537758Y3007012I-22500J0D01*
G01*
X4566648Y2167837D02*
G03*
X4571845Y2182220I-17303J14383D01*
G01*
D02*
G03*
X4536974Y2163426I-22500J0D01*
G01*
X4532056Y2732986D02*
G03*
X4541042Y2734402I668J24991D01*
G01*
X4532056Y2732986D02*
G03*
X4541021Y2734394I668J24991D01*
G01*
X4270510Y2740589D02*
G03*
X4275977Y2739834I6136J24235D01*
G01*
X4270510Y2740589D02*
G03*
X4275977Y2739834I6136J24235D01*
G01*
X3486105Y3029852D02*
G03*
X3475505Y3034239I-10601J-10613D01*
G01*
X3486111Y3029846D02*
G03*
X3475505Y3034239I-10607J-10607D01*
G01*
X3459085D02*
G03*
X3459085Y3004239I-16770J-15000D01*
G01*
X3302568Y2934958D02*
G03*
X3257602Y2933706I-22500J0D01*
G01*
X3278816Y2912493D02*
G03*
X3302568Y2934958I1252J22465D01*
G01*
X4102001Y2927194D02*
G03*
X4119654Y2902421I-4676J-22009D01*
G01*
X4143651Y2795278D02*
G03*
X4162327Y2767977I24811J-3065D01*
G01*
X3548600Y2824621D02*
G03*
X3547170Y2832957I-25000J0D01*
G01*
X4143648Y2795252D02*
G03*
X4162327Y2767977I24815J-3039D01*
G01*
X3531506Y2800904D02*
G03*
X3548600Y2824621I-7906J23717D01*
G01*
X3531506Y2800904D02*
G03*
X3548600Y2824621I-7906J23717D01*
G01*
D02*
G03*
X3547170Y2832957I-25000J0D01*
G01*
X3232759Y2872649D02*
G03*
X3243360Y2877037I0J15000D01*
G01*
X3355691Y2743917D02*
G03*
X3364359Y2745188I762J24988D01*
G01*
X3355702Y2743916D02*
G03*
X3364359Y2745188I751J24989D01*
G01*
X3232759Y2872649D02*
G03*
X3243365Y2877043I0J15000D01*
G01*
X4749116Y2061448D02*
G03*
X4762546Y2079414I-11180J22361D01*
G01*
X4749116Y2061448D02*
G03*
X4762546Y2079414I-11180J22361D01*
G01*
X4523279Y1995864D02*
G03*
X4487420Y1977759I-22500J0D01*
G01*
X4200490Y2087197D02*
G03*
X4163026Y2070395I-22500J0D01*
G01*
X4193026Y2070458D02*
G03*
X4200490Y2087197I-15036J16739D01*
G01*
X4662375Y1925855D02*
G03*
X4664422Y1932208I-22559J10774D01*
G01*
X4662358Y1925818D02*
G03*
X4664413Y1932158I-22541J10811D01*
G01*
X4517287Y1980575D02*
G03*
X4523279Y1995864I-16508J15288D01*
G01*
X4567568Y1748073D02*
G03*
X4583897Y1761542I-6247J24207D01*
G01*
X4567537Y1748065D02*
G03*
X4583880Y1761505I-6217J24215D01*
G01*
X4285252Y1672029D02*
G03*
X4298501Y1672240I6241J24208D01*
G01*
X4285224Y1672036D02*
G03*
X4298481Y1672234I6269J24201D01*
G01*
X4086385Y2026236D02*
G03*
X4047208Y2041340I-22500J0D01*
G01*
X4047021Y2011341D02*
G03*
X4086385Y2026236I16864J14895D01*
G01*
X3642794Y2027969D02*
G03*
X3634222Y1999220I-20357J-9583D01*
G01*
X3519270Y1943034D02*
G03*
X3514877Y1953640I-15000J0D01*
G01*
X3519270Y1943034D02*
G03*
X3514883Y1953634I-15000J0D01*
G01*
X4038572Y1874117D02*
G03*
X4029442Y1880230I-18134J-17209D01*
G01*
X4038595Y1874093D02*
G03*
X4029480Y1880215I-18157J-17185D01*
G01*
X3479022Y1989495D02*
G03*
X3468415Y1993888I-10607J-10607D01*
G01*
X3479016Y1989501D02*
G03*
X3468415Y1993888I-10601J-10613D01*
G01*
X3264446Y2006553D02*
G03*
X3300386Y2024597I13440J18045D01*
G01*
D02*
G03*
X3258460Y2035949I-22500J0D01*
G01*
X3371587Y1993888D02*
G03*
X3360981Y1989495I0J-15000D01*
G01*
X3371587Y1993888D02*
G03*
X3360987Y1989501I0J-15000D01*
G01*
X3318369Y1946883D02*
G03*
X3339617Y1924418I-1252J-22465D01*
G01*
X4116345Y1719527D02*
G03*
X4128288Y1712496I18157J17185D01*
G01*
X4116368Y1719503D02*
G03*
X4128288Y1712496I18134J17209D01*
G01*
X4116345Y1719527D02*
G03*
X4128261Y1712503I18157J17185D01*
G01*
X4021434Y1671614D02*
G03*
X3976469Y1670362I-22500J0D01*
G01*
X3618464Y1736258D02*
G03*
X3640298Y1747556I912J24983D01*
G01*
X3618464Y1736258D02*
G03*
X3640268Y1747512I912J24983D01*
G01*
X3997683Y1649149D02*
G03*
X4021434Y1671614I1252J22465D01*
G01*
X3980393Y1638072D02*
G03*
X3990993Y1642460I0J15000D01*
G01*
X3980393Y1638072D02*
G03*
X3990999Y1642466I0J15000D01*
G01*
X3291012Y1785255D02*
G03*
X3298224Y1783093I10702J22593D01*
G01*
X3290981Y1785270D02*
G03*
X3298179Y1783099I10733J22579D01*
G01*
X3441234Y1744511D02*
G03*
X3450434Y1742390I10113J22863D01*
G01*
X3441234Y1744511D02*
G03*
X3450434Y1742390I10113J22863D01*
G01*
X3191047Y3336161D02*
G03*
X3146082Y3334909I-22500J0D01*
G01*
X3167295Y3313696D02*
G03*
X3191047Y3336161I1252J22465D01*
G01*
X3134532Y3201267D02*
G03*
X3144744Y3215482I-4788J14215D01*
G01*
X3134515Y3201261D02*
G03*
X3144744Y3215482I-4771J14221D01*
G01*
X3119138Y3307965D02*
G03*
X3114744Y3297358I10607J-10607D01*
G01*
X3119132Y3307959D02*
G03*
X3114744Y3297358I10613J-10601D01*
G01*
X3204000Y3055000D02*
G03*
X3165000Y3094000I-39000J0D01*
G01*
Y2966000D02*
G03*
X3204000Y3005000I0J39000D01*
G01*
X3115000Y3094000D02*
G03*
X3076000Y3055000I0J-39000D01*
G01*
Y3005000D02*
G03*
X3115000Y2966000I39000J0D01*
G01*
X3182170Y2873720D02*
G03*
X3187735Y2872649I5565J13930D01*
G01*
X3182170Y2873720D02*
G03*
X3187735Y2872649I5565J13930D01*
G01*
X3200000Y2561496D02*
G03*
X3200000Y2561496I-60000J0D01*
G01*
X3033183Y2798501D02*
G03*
X3039680Y2793818I17678J17678D01*
G01*
X3033183Y2798501D02*
G03*
X3039680Y2793818I17678J17678D01*
G01*
X3033183Y2798501D02*
G03*
X3039680Y2793818I17678J17678D01*
G01*
X3120721Y2753298D02*
G03*
X3131150Y2750670I11180J22361D01*
G01*
X3120721Y2753298D02*
G03*
X3131161Y2750669I11180J22361D01*
G01*
X2971688Y2414697D02*
G03*
X3000713Y2436230I6525J21533D01*
G01*
D02*
G03*
X2956089Y2440323I-22500J0D01*
G01*
X2926600Y2911609D02*
G03*
X2933570Y2898114I24648J4183D01*
G01*
X2926604Y2911585D02*
G03*
X2933570Y2898114I24643J4207D01*
G01*
X2902689Y3056212D02*
G03*
X2902971Y3050005I24922J-1975D01*
G01*
X2902689Y3056212D02*
G03*
X2902967Y3050030I24922J-1975D01*
G01*
X2860000Y2724074D02*
G03*
X2822500Y2761574I-37500J0D01*
G01*
Y2631574D02*
G03*
X2860000Y2669074I0J37500D01*
G01*
X2849000Y2893426D02*
G03*
X2849000Y2893426I-54000J0D01*
G01*
X2563879Y3259079D02*
G03*
X2492372Y3292423I-43528J0D01*
G01*
D02*
G03*
X2548330Y3225735I27979J-33344D01*
G01*
X2745482Y3186793D02*
G03*
X2740920Y3185922I2389J-24886D01*
G01*
X2745438Y3186789D02*
G03*
X2740920Y3185922I2434J-24881D01*
G01*
X2548330Y3225735D02*
G03*
X2563879Y3259079I-27979J33344D01*
G01*
X2444064Y3099990D02*
G03*
X2435976Y3095946I6952J-24014D01*
G01*
X2444064Y3099990D02*
G03*
X2435976Y3095946I6952J-24014D01*
G01*
X2367844Y3094586D02*
G03*
X2296337Y3127930I-43528J0D01*
G01*
X2609764Y2855000D02*
G03*
X2609764Y2855000I-50000J0D01*
G01*
X2352295Y3061242D02*
G03*
X2367844Y3094586I-27979J33344D01*
G01*
X2330236Y2875000D02*
G03*
X2311342Y2902869I-30000J0D01*
G01*
X2235844Y3200023D02*
G03*
X2249964Y3230303I-25408J30280D01*
G01*
D02*
G03*
X2185028Y3260583I-39528J0D01*
G01*
D02*
G03*
X2235844Y3200023I25408J-30280D01*
G01*
X2296337Y3127930D02*
G03*
X2352295Y3061242I27979J-33344D01*
G01*
X2277783Y2976813D02*
G03*
X2268011Y2959909I15039J-19970D01*
G01*
X2277783Y2976813D02*
G03*
X2268006Y2959863I15039J-19970D01*
G01*
X2260236Y2905000D02*
G03*
X2230236Y2875000I0J-30000D01*
G01*
X2767500Y2761574D02*
G03*
X2730000Y2724074I0J-37500D01*
G01*
Y2669074D02*
G03*
X2767500Y2631574I37500J0D01*
G01*
X2327322Y2822102D02*
G03*
X2330236Y2835000I-27086J12898D01*
G01*
X2329528Y2538206D02*
G03*
X2324232Y2557970I-39528J0D01*
G01*
X2379528Y2451602D02*
G03*
X2374232Y2471366I-39528J0D01*
G01*
D02*
G03*
X2305768Y2431838I-34232J-19764D01*
G01*
D02*
G03*
X2379528Y2451602I34232J19764D01*
G01*
X2531744Y2354909D02*
G03*
X2545875Y2343337I21811J12219D01*
G01*
X2531717Y2354957D02*
G03*
X2545830Y2343351I21837J12171D01*
G01*
X2483528Y2278398D02*
G03*
X2477696Y2300162I-43528J0D01*
G01*
X2429528Y2365000D02*
G03*
X2424232Y2384764I-39528J0D01*
G01*
X2355768Y2345236D02*
G03*
X2429528Y2365000I34232J19764D01*
G01*
X2424232Y2384764D02*
G03*
X2355768Y2345236I-34232J-19764D01*
G01*
X2402304Y2256634D02*
G03*
X2483528Y2278398I37696J21764D01*
G01*
X2477696Y2300162D02*
G03*
X2402304Y2256634I-37696J-21764D01*
G01*
X2256848Y2805192D02*
G03*
X2260236Y2805000I3388J29808D01*
G01*
X2230236Y2835000D02*
G03*
X2232687Y2823123I30000J0D01*
G01*
X2162601Y2742417D02*
G03*
X2158926Y2732582I11325J-9835D01*
G01*
X2162601Y2742417D02*
G03*
X2158926Y2732582I11325J-9835D01*
G01*
X2255768Y2518442D02*
G03*
X2329528Y2538206I34232J19764D01*
G01*
X2324232Y2557970D02*
G03*
X2255768Y2518442I-34232J-19764D01*
G01*
X2158926Y2533400D02*
G03*
X2160894Y2525972I15000J0D01*
G01*
X2158926Y2533400D02*
G03*
X2160894Y2525972I15000J0D01*
G01*
X3103630Y2215793D02*
G03*
X3118243Y2236865I-7888J21072D01*
G01*
D02*
G03*
X3075677Y2226685I-22500J0D01*
G01*
X3080683Y1959172D02*
G03*
X3084408Y1948926I24793J3214D01*
G01*
X3080686Y1959152D02*
G03*
X3084427Y1948898I24790J3233D01*
G01*
X3076324Y1909496D02*
G03*
X3070726Y1921184I-15000J0D01*
G01*
X3076324Y1909496D02*
G03*
X3070726Y1921184I-15000J0D01*
G01*
X2994479Y2038637D02*
G03*
X3013345Y2034736I14104J20641D01*
G01*
X2994511Y2038615D02*
G03*
X3013345Y2034736I14072J20664D01*
G01*
X3024248Y1882768D02*
G03*
X2954440Y1908176I-39528J0D01*
G01*
X2938396Y1921638D02*
G03*
X2947644Y1947046I-30280J25408D01*
G01*
D02*
G03*
X2877836Y1972454I-39528J0D01*
G01*
D02*
G03*
X2938396Y1921638I30280J-25408D01*
G01*
X2954440Y1908176D02*
G03*
X2977990Y1843818I30280J-25408D01*
G01*
X3140809Y1860647D02*
G03*
X3151224Y1851470I21085J13431D01*
G01*
X3140827Y1860619D02*
G03*
X3151224Y1851470I21067J13460D01*
G01*
X3140809Y1860647D02*
G03*
X3151192Y1851485I21085J13431D01*
G01*
X3100852Y1818488D02*
G03*
X3076324Y1855059I-39528J0D01*
G01*
X3091604Y1793080D02*
G03*
X3100852Y1818488I-30280J25408D01*
G01*
X3048231Y1781192D02*
G03*
X3091604Y1793080I13093J37296D01*
G01*
X3015000Y1857360D02*
G03*
X3024248Y1882768I-30280J25408D01*
G01*
X3046324Y1855059D02*
G03*
X3031044Y1843896I15000J-36571D01*
G01*
D02*
G03*
X3025813Y1801128I30280J-25408D01*
G01*
X3007279Y1850310D02*
G03*
X3015000Y1857360I-22559J32458D01*
G01*
X3015834Y1810076D02*
G03*
X3015479Y1813322I-15000J0D01*
G01*
X3011994Y1800053D02*
G03*
X3015834Y1810076I-11160J10023D01*
G01*
D02*
G03*
X3015476Y1813334I-15000J0D01*
G01*
X3011994Y1800053D02*
G03*
X3015834Y1810076I-11160J10023D01*
G01*
X3147754Y1598646D02*
G03*
X3108483Y1613646I-22500J0D01*
G01*
Y1583646D02*
G03*
X3147754Y1598646I16770J15000D01*
G01*
X3006414Y1613646D02*
G03*
X2995808Y1609253I0J-15000D01*
G01*
X3006414Y1613646D02*
G03*
X2995814Y1609259I0J-15000D01*
G01*
X2977517Y1806563D02*
G03*
X2977816Y1810220I-22201J3657D01*
G01*
D02*
G03*
X2952044Y1832481I-22500J0D01*
G01*
X2932829Y1809441D02*
G03*
X2961328Y1788538I22486J779D01*
G01*
X2958949Y1683962D02*
G03*
X2965617Y1688290I-4541J14296D01*
G01*
X2954598Y1739038D02*
G03*
X2960954Y1743225I-4804J14210D01*
G01*
X2954624Y1739047D02*
G03*
X2960954Y1743225I-4830J14201D01*
G01*
X2958919Y1683953D02*
G03*
X2965617Y1688290I-4511J14306D01*
G01*
X2902845Y1753123D02*
G03*
X2912505Y1724721I-11047J-19601D01*
G01*
X2967247Y1668072D02*
G03*
X2967247Y1638072I-16770J-15000D01*
G01*
X2898768Y1563268D02*
G03*
X2908016Y1588676I-30280J25408D01*
G01*
X2874388Y1664000D02*
G03*
X2888237Y1661499I9278J11786D01*
G01*
X2908016Y1588676D02*
G03*
X2883503Y1625241I-39528J0D01*
G01*
X2941042Y1518276D02*
G03*
X2951648Y1522669I0J15000D01*
G01*
X2941042Y1518276D02*
G03*
X2951642Y1522663I0J15000D01*
G01*
X2859795Y1550116D02*
G03*
X2898768Y1563268I8693J38560D01*
G01*
X2783923Y2191838D02*
G03*
X2794593Y2174756I24742J3581D01*
G01*
X2783923Y2191838D02*
G03*
X2794626Y2174733I24742J3581D01*
G01*
X2828214Y2116266D02*
G03*
X2818845Y2119578I-9402J-11688D01*
G01*
X2828214Y2116266D02*
G03*
X2818845Y2119578I-9402J-11688D01*
G01*
X2529528Y2191794D02*
G03*
X2524232Y2211558I-39528J0D01*
G01*
D02*
G03*
X2451083Y2184876I-34232J-19764D01*
G01*
X2467149Y2159541D02*
G03*
X2529528Y2191794I22851J32253D01*
G01*
X2430035Y2140074D02*
G03*
X2439945Y2142289I1877J14882D01*
G01*
X2430051Y2140072D02*
G03*
X2439945Y2142289I1861J14884D01*
G01*
X2373354Y2153218D02*
G03*
X2384526Y2145762I13032J7428D01*
G01*
X2373354Y2153218D02*
G03*
X2384526Y2145762I13032J7428D01*
G01*
X2388217Y2109186D02*
G03*
X2390152Y2099806I14889J-1818D01*
G01*
X2388213Y2109153D02*
G03*
X2390161Y2099790I14893J-1785D01*
G01*
X2810143Y1838179D02*
G03*
X2842992Y1858158I10349J19979D01*
G01*
D02*
G03*
X2799487Y1866223I-22500J0D01*
G01*
X2882398Y1695875D02*
G03*
X2839812Y1704514I-22456J-1413D01*
G01*
Y1711678D02*
G03*
X2835364Y1722340I-15000J0D01*
G01*
X2839812Y1711678D02*
G03*
X2835349Y1722354I-15000J0D01*
G01*
X2764981Y1922178D02*
G03*
X2776027Y1927148I-107J15000D01*
G01*
X2814302Y1915680D02*
G03*
X2819691Y1903794I14995J-366D01*
G01*
X2814302Y1915660D02*
G03*
X2819691Y1903794I14996J-346D01*
G01*
X2764956Y1922178D02*
G03*
X2776030Y1927151I-82J15000D01*
G01*
X2745560Y1691824D02*
G03*
X2754808Y1717232I-30280J25408D01*
G01*
X2874363Y1664019D02*
G03*
X2888207Y1661490I9303J11767D01*
G01*
X2883503Y1639430D02*
G03*
X2879110Y1650037I-15000J0D01*
G01*
X2883503Y1639430D02*
G03*
X2879116Y1650031I-15000J0D01*
G01*
X2856991Y1672156D02*
G03*
X2863841Y1672302I2951J22306D01*
G01*
X2847513Y1521544D02*
G03*
X2856860Y1518276I9347J11732D01*
G01*
X2853503Y1625253D02*
G03*
X2838208Y1614084I14985J-36577D01*
G01*
X2847513Y1521544D02*
G03*
X2856860Y1518276I9347J11732D01*
G01*
X2822164Y1627546D02*
G03*
X2831412Y1652954I-30280J25408D01*
G01*
X2838208Y1614084D02*
G03*
X2832845Y1571587I30280J-25408D01*
G01*
X2809812Y1688182D02*
G03*
X2761604Y1678362I-17928J-35228D01*
G01*
X2776324Y1616618D02*
G03*
X2822164Y1627546I15560J36336D01*
G01*
X2761604Y1678362D02*
G03*
X2759943Y1629668I30280J-25408D01*
G01*
X2733910Y1841306D02*
G03*
X2727865Y1837086I5300J-14032D01*
G01*
X2733882Y1841296D02*
G03*
X2727865Y1837086I5328J-14022D01*
G01*
X2702334Y1807567D02*
G03*
X2698682Y1797456I11345J-9812D01*
G01*
X2702334Y1807567D02*
G03*
X2698683Y1797423I11345J-9812D01*
G01*
X2490590Y1927756D02*
G03*
X2503675Y1920319I12954J7562D01*
G01*
X2490581Y1927771D02*
G03*
X2503651Y1920318I12963J7547D01*
G01*
X2682204Y1781512D02*
G03*
X2605332Y1809491I-43528J0D01*
G01*
X2777671Y1780601D02*
G03*
X2756540Y1758143I-22500J0D01*
G01*
X2754808Y1717232D02*
G03*
X2729550Y1754094I-39528J0D01*
G01*
X2732576Y1681689D02*
G03*
X2745560Y1691824I-17296J35543D01*
G01*
X2685000Y1742640D02*
G03*
X2702576Y1679802I30280J-25408D01*
G01*
Y1644244D02*
G03*
X2708229Y1632512I15000J0D01*
G01*
X2702576Y1644244D02*
G03*
X2708229Y1632512I15000J0D01*
G01*
X2672020Y1753533D02*
G03*
X2682204Y1781512I-33344J27979D01*
G01*
X2699556Y1753498D02*
G03*
X2685000Y1742640I15724J-36266D01*
G01*
X2605332Y1809491D02*
G03*
X2672020Y1753533I33344J-27979D01*
G01*
X5314483Y3708202D02*
X5522576Y3500109D01*
X5353501Y3673881D02*
X5418810Y3612738D01*
X5302302Y3718916D02*
X5353501Y3673881D01*
X5072420Y3865412D02*
X5637550Y3300282D01*
X5126149Y3839967D02*
X5616654Y3349462D01*
X5193900Y3800501D02*
X5585882Y3408518D01*
X4947765Y3905213D02*
X5678865Y3174114D01*
X4985414Y3895849D02*
X5667454Y3213809D01*
X5026467Y3883081D02*
X5653632Y3255915D01*
X4912656Y3912039D02*
X5689101Y3135594D01*
X4837290Y3168517D02*
X5347730Y3678957D01*
X5573873Y3429268D02*
X5597997Y3387586D01*
X5620851Y3340885D01*
X5545012Y3471619D02*
X5573873Y3429268D01*
X5642727Y3287693D02*
X5664210Y3225092D01*
X5684348Y3155042D01*
X5620851Y3340885D02*
X5642727Y3287693D01*
X5469223Y3561736D02*
X5510531Y3515403D01*
X5545012Y3471619D01*
X5418810Y3612738D02*
X5469223Y3561736D01*
X4863973Y3138631D02*
X5377115Y3651773D01*
X4850631Y3153574D02*
X5362507Y3665450D01*
X5063565Y3869371D02*
X5108847Y3849126D01*
X5153274Y3825609D01*
X5017391Y3886434D02*
X5063565Y3869371D01*
X5198879Y3797423D02*
X5247248Y3763092D01*
X5302302Y3718916D01*
X5153274Y3825609D02*
X5198879Y3797423D01*
X4835721Y3919977D02*
X4879728Y3916853D01*
X4924942Y3910242D01*
X4793193Y3919712D02*
X4835721Y3919977D01*
X4970990Y3900096D02*
X5017391Y3886434D01*
X4924942Y3910242D02*
X4970990Y3900096D01*
X4797265Y3213345D02*
X5302586Y3718666D01*
X4823948Y3183459D02*
X5332682Y3692193D01*
X4810606Y3198402D02*
X5317634Y3705430D01*
X4780203Y3224567D02*
X5286906Y3731270D01*
X4772409Y3131920D02*
X4788536Y3148047D01*
X4767221Y3155017D02*
X4775195Y3162990D01*
X5000792Y2766332D02*
X5605899Y3371440D01*
X5003327Y2740584D02*
X5615192Y3352449D01*
X4998256Y2792081D02*
X5596444Y3390269D01*
X5007482Y2688170D02*
X5632317Y3313005D01*
X5008526Y2660930D02*
X5640560Y3292963D01*
X5005863Y2714836D02*
X5624075Y3333047D01*
X4819963Y3919879D02*
X5714291Y3025551D01*
X4849098Y3919027D02*
X5707125Y3061001D01*
X4879544Y3916866D02*
X5698249Y3098161D01*
X4791952Y3919605D02*
X5721456Y2990101D01*
X4995720Y2817829D02*
X5586075Y3408185D01*
X5014788Y2497486D02*
X5681667Y3164365D01*
X5684348Y3155042D02*
X5706140Y3065875D01*
X5013744Y2524727D02*
X5675352Y3186334D01*
X5016876Y2443005D02*
X5693100Y3119229D01*
X5015832Y2470245D02*
X5687545Y3141959D01*
X5010613Y2606448D02*
X5655280Y3251115D01*
X5011657Y2579208D02*
X5662506Y3230057D01*
X5009570Y2633689D02*
X5648053Y3272173D01*
X4848596Y3155853D02*
X5669885Y2334565D01*
X5012701Y2551967D02*
X5669037Y3208303D01*
X4936748Y3013416D02*
X5476691Y3553360D01*
X4945124Y2993508D02*
X5490023Y3538407D01*
X4928373Y3033325D02*
X5463039Y3567992D01*
X4961874Y2953690D02*
X5516283Y3508099D01*
X4970250Y2933781D02*
X5528744Y3492276D01*
X4953499Y2973599D02*
X5503354Y3523454D01*
X4890656Y3108746D02*
X5406331Y3624421D01*
X4903234Y3093039D02*
X5420859Y3610665D01*
X4877315Y3123689D02*
X5391723Y3638097D01*
X4919997Y3053234D02*
X5448980Y3582216D01*
X4911622Y3073143D02*
X5434919Y3596441D01*
X4978625Y2913872D02*
X5541206Y3476452D01*
X4987001Y2893963D02*
X5552974Y3459936D01*
X4796520Y3214179D02*
X4899176Y3099204D01*
X4993184Y2843578D02*
X5575706Y3426100D01*
X4990648Y2869326D02*
X5564437Y3443115D01*
X4768020Y3151577D02*
X4865310Y3054287D01*
X4774226Y3077168D02*
X4815220Y3118162D01*
X4773355Y3104582D02*
X4801878Y3133105D01*
X4772917Y3118396D02*
X4885850Y3005463D01*
X4772551Y3129912D02*
X4775583Y3034406D01*
X4752326Y3916180D02*
X4793193Y3919712D01*
X4597985Y3296908D02*
X5135889Y3834811D01*
X4713225Y3909515D02*
X4752326Y3916180D01*
X4451782Y3207273D02*
X5098334Y3853826D01*
X4549498Y3276705D02*
X5117394Y3844601D01*
X4445486Y3285830D02*
X5038346Y3878690D01*
X4437322Y3305951D02*
X5017694Y3886323D01*
X4438143Y3250203D02*
X5058998Y3871058D01*
X4409326Y3306239D02*
X4995861Y3892773D01*
X4438143Y3221918D02*
X5078789Y3862564D01*
X4082738Y3921712D02*
X4779526Y3224923D01*
X4724610Y3253827D02*
X5239427Y3768644D01*
X4743141Y3244074D02*
X5255521Y3756454D01*
X4706079Y3263580D02*
X5222884Y3780385D01*
X4761672Y3234320D02*
X5271213Y3743862D01*
X4736896Y3247360D02*
X4789491Y3219679D01*
X4650485Y3292840D02*
X5171803Y3814157D01*
X4669016Y3283086D02*
X5189284Y3803354D01*
X4631915Y3302554D02*
X5154322Y3824961D01*
X4687548Y3273333D02*
X5206341Y3792127D01*
X4633379Y3301843D02*
X4736896Y3247360D01*
X4649060Y3899143D02*
X4713225Y3909515D01*
X4629245Y3899710D02*
X4649060Y3899143D01*
X4623060Y3901343D02*
X4629245Y3899710D01*
X4620497Y3252121D02*
X4703487Y3208442D01*
X3855860Y4092022D02*
X4660104Y3287777D01*
X4585086Y3915867D02*
X4623060Y3901343D01*
X3872795Y4046802D02*
X4615633Y3303964D01*
X4053205Y3922961D02*
X4719815Y3256350D01*
X4536885Y3271449D02*
X4612094Y3302786D01*
X4659964Y3231348D02*
X4709721Y3181591D01*
X4638824Y3168041D02*
X4687591Y3216808D01*
X4638027Y3195529D02*
X4669060Y3226561D01*
X4613728Y3249300D02*
X4718274Y3144754D01*
X4628076Y3140095D02*
X4638824D01*
X4573956Y3232729D02*
X4620497Y3252121D01*
X4581459Y3195529D02*
X4631998Y3246068D01*
X4573994Y3232466D02*
X4610931Y3195529D01*
X4609743D02*
X4650529Y3236314D01*
X4587328Y3195529D02*
X4638824D01*
X4528482Y3928517D02*
X5736126Y2720872D01*
X4564110Y3921173D02*
X5738302Y2746981D01*
X4496305Y3932409D02*
X5733770Y2694944D01*
X4435828Y3936318D02*
X5726926Y2645220D01*
X4466066Y3934363D02*
X5730697Y2669733D01*
X4405938Y3937924D02*
X5723154Y2620707D01*
X4379304Y3936273D02*
X5719383Y2596194D01*
X4353563Y3933729D02*
X5715611Y2571681D01*
X4328922Y3930086D02*
X5711840Y2547169D01*
X4305499Y3925225D02*
X5708068Y2522656D01*
X4282392Y3920048D02*
X5704297Y2498143D01*
X4740777Y3914211D02*
X5731638Y2923350D01*
X4716612Y3910092D02*
X5734762Y2891943D01*
X4765918Y3917354D02*
X5726560Y2956713D01*
X4667941Y3902195D02*
X5738897Y2831238D01*
X4692289Y3906131D02*
X5737764Y2860656D01*
X4605513Y3908055D02*
X5739162Y2774405D01*
X4642522Y3899330D02*
X5739904Y2801948D01*
X4259945Y3914210D02*
X5700525Y2473630D01*
X4238318Y3907553D02*
X5696148Y2449724D01*
X4217256Y3900331D02*
X5691523Y2426064D01*
X4628076Y3129009D02*
X4704245Y3205177D01*
X4761963Y3177665D02*
X4771907Y3134836D01*
X4638824Y3140095D02*
Y3195529D01*
X4593762Y3240981D02*
X4723106Y3111638D01*
X4703487Y3208442D02*
X4722654Y3125890D01*
X4558909Y3031558D02*
X4709574Y3182223D01*
X3625656Y3982813D02*
X4629050Y2979419D01*
X4193623Y3895679D02*
X5686898Y2402405D01*
X3545313Y2838206D02*
X4612492Y3905385D01*
X4151821Y3909197D02*
X5681479Y2379539D01*
X4114671Y3918063D02*
X5675843Y2356891D01*
X4762207Y3177536D02*
X4859126Y3068987D01*
X4638824Y3167635D02*
X4724034Y3082426D01*
X4628076Y3124265D02*
Y3140095D01*
X4722654Y3125890D02*
X4725550Y3034669D01*
X4638080Y3140095D02*
X4724961Y3053214D01*
X4627902Y3121989D02*
X4724454Y3025437D01*
X4585558Y3001638D02*
X4720234Y3136313D01*
X4571416Y3015780D02*
X4714904Y3159268D01*
X5721545Y2989663D02*
X5731936Y2921395D01*
X5737954Y2858668D01*
X5706140Y3065875D02*
X5721545Y2989663D01*
X5018963Y2388524D02*
X5704210Y3073771D01*
X5020007Y2361283D02*
X5709243Y3050520D01*
X5017919Y2415764D02*
X5698655Y3096500D01*
X5016138Y2329130D02*
X5713999Y3026992D01*
X4917867Y3058299D02*
X5663063Y2313102D01*
X4938406Y3009475D02*
X5656241Y2291640D01*
X5737954Y2858668D02*
X5739968Y2800083D01*
X5738198Y2743672D02*
X5739968Y2800083D01*
X5732607Y2682143D02*
X5738198Y2743672D01*
X5699432Y2466527D02*
X5732607Y2682143D01*
X5685901Y2397308D02*
X5699432Y2466527D01*
X5671739Y2340398D02*
X5685901Y2397308D01*
X5006870Y2704159D02*
X5020564Y2346744D01*
X4988969Y2886374D02*
X5006764Y2705691D01*
X5656033Y2290987D02*
X5671739Y2340398D01*
X4775096Y3049754D02*
X4828561Y3103220D01*
X4903596Y3092220D02*
X4987130Y2893657D01*
X4859126Y3068987D02*
X4939577Y2877751D01*
X4774772Y3059972D02*
X4926929Y2907814D01*
X4773844Y3089184D02*
X4906390Y2956639D01*
X4770424Y2988514D02*
X4855244Y3073334D01*
X4774232Y3020606D02*
X4841903Y3088277D01*
X4755056Y2916577D02*
X4873440Y3034961D01*
X4766617Y2956422D02*
X4865065Y3054870D01*
X4772465Y3005711D02*
X4943854Y2834322D01*
X4769465Y2980426D02*
X4946944Y2802947D01*
X4775462Y3030997D02*
X4940764Y2865696D01*
X4956935Y2701497D02*
X4970413Y2349710D01*
X4939577Y2877751D02*
X4956935Y2701497D01*
X4764805Y2941150D02*
X4775422Y3030641D01*
X4761760Y2931563D02*
X4953123Y2740199D01*
X4766465Y2955142D02*
X4950033Y2771573D01*
X5000076Y2284783D02*
X5718755Y3003463D01*
X4993404Y2841340D02*
X5622127Y2212617D01*
X4996494Y2809965D02*
X5612936Y2193524D01*
X4999584Y2778591D02*
X5603180Y2174996D01*
X5002674Y2747217D02*
X5593211Y2156680D01*
X5005764Y2715843D02*
X5583243Y2138363D01*
X4984013Y2240436D02*
X5723090Y2979513D01*
X4958946Y2960651D02*
X5648179Y2271418D01*
X4979486Y2911827D02*
X5640078Y2251235D01*
X4967950Y2196089D02*
X5726826Y2954965D01*
X4990315Y2872714D02*
X5631318Y2231710D01*
X4914406Y2195082D02*
X4970413Y2349710D01*
X5636866Y2243235D02*
X5656033Y2290987D01*
X4819702Y2217547D02*
X4969729Y2367574D01*
X5610427Y2188313D02*
X5636866Y2243235D01*
X4956101Y2163375D02*
X5019082Y2337258D01*
X4778796Y2261494D02*
X4966598Y2449296D01*
X4794176Y2248589D02*
X4967641Y2422055D01*
X4763417Y2274399D02*
X4965554Y2476536D01*
X4813830Y2239959D02*
X4968685Y2394814D01*
X4814953Y2184514D02*
X4964885Y2334445D01*
X4792469Y2245647D02*
X4794623Y2248214D01*
X4790696Y2245110D02*
X4794176Y2248589D01*
X4846600Y2187876D02*
X4948822Y2290098D01*
X4878247Y2191239D02*
X4932759Y2245751D01*
X4820548Y2222239D02*
X4854113Y2188675D01*
X4761522Y2208766D02*
X4771847Y2221071D01*
X4776208Y2218699D01*
X4755053Y2209467D02*
X4757623Y2212037D01*
X4768790Y2217428D02*
X4802978Y2183241D01*
X4809838Y2204665D02*
X4828545Y2185958D01*
X4909894Y2194602D02*
X4916697Y2201404D01*
X4783306Y2181151D02*
X4804426Y2202271D01*
X4760038Y2186168D02*
X4782013Y2208142D01*
X4755886Y2202049D02*
X4777410Y2180524D01*
X4753057Y2198678D02*
X4759195Y2205992D01*
X4763983Y2179097D02*
X4914406Y2195082D01*
X4753057Y2198678D02*
X4763983Y2179097D01*
X4638861Y2970088D02*
X4724869Y3056096D01*
X4651766Y2954708D02*
X4724718Y3027661D01*
X4615816Y3105791D02*
X4721454Y3000152D01*
X4715602Y2950826D02*
X4725550Y3034669D01*
X4664671Y2939329D02*
X4720911Y2995569D01*
X4641359Y2967110D02*
X4697688Y2910782D01*
X4599700Y2987496D02*
X4723129Y3110924D01*
X4613842Y2973354D02*
X4723999Y3083510D01*
X4601607Y3091715D02*
X4718455Y2974868D01*
X4576600Y3088438D02*
X4715172Y2949866D01*
X4548316Y3088438D02*
X4706430Y2930324D01*
X4737014Y2876249D02*
X4762800Y2933887D01*
X4744275Y2892479D02*
X4957799Y2678955D01*
X4753017Y2912021D02*
X4956213Y2708825D01*
X4632934Y2879308D02*
X4717103Y2963477D01*
X4693144Y2900625D02*
X4715602Y2950826D01*
X4643799Y2861888D02*
X4701732Y2919822D01*
X4662496Y2796381D02*
X4732218Y2869133D01*
X4648618Y2854162D02*
X4693144Y2900625D01*
X4630212Y2980395D02*
X4665844Y2937930D01*
X4626396Y2904829D02*
X4665844Y2937930D01*
X4617483Y2969713D02*
X4630212Y2980395D01*
X4653017Y2927168D02*
X4686497Y2893689D01*
X4637638Y2914263D02*
X4672655Y2879245D01*
X4622069Y2896727D02*
X4649859Y2924517D01*
X4602862Y3092838D02*
X4623677Y3113652D01*
X4558971Y3028225D02*
X4617483Y2969713D01*
X4612644Y2915586D02*
X4615213Y2918156D01*
X4590764Y2947294D02*
X4626396Y2904829D01*
X4587990Y2944967D02*
X4623622Y2902502D01*
X4622258Y2901358D02*
X4658814Y2864802D01*
X4620238Y2899663D02*
X4648618Y2854162D01*
X4620238Y2899663D02*
X4623622Y2902502D01*
X4615116Y2761564D02*
X4659065Y2793389D01*
X4588712Y2804177D02*
X4610862Y2820216D01*
X4721860Y2858325D02*
X4960052Y2620133D01*
X4708019Y2843882D02*
X4961179Y2590722D01*
X4735343Y2873127D02*
X4958926Y2649544D01*
X4680336Y2814996D02*
X4963433Y2531899D01*
X4666495Y2800553D02*
X4964560Y2502488D01*
X4694177Y2829439D02*
X4962306Y2561311D01*
X4634720Y2775760D02*
X4966814Y2443666D01*
X4618315Y2763881D02*
X4967940Y2414255D01*
X4651124Y2787639D02*
X4965687Y2473077D01*
X4578164Y2747462D02*
X4970194Y2355432D01*
X4599088Y2754823D02*
X4969067Y2384843D01*
X4557241Y2740101D02*
X4964356Y2332986D01*
X4626911Y2166177D02*
X4964510Y2503777D01*
X4569019Y2193138D02*
X4961379Y2585499D01*
X4588139Y2155690D02*
X4963467Y2531017D01*
X4567341Y2163176D02*
X4962423Y2558258D01*
X4507120Y2733653D02*
X4949315Y2291459D01*
X4535880Y2733178D02*
X4956835Y2312222D01*
X4478059Y2734430D02*
X4941794Y2270695D01*
X4552141Y2204545D02*
X4960336Y2612739D01*
X4448998Y2735207D02*
X4934273Y2249932D01*
X4419936Y2735984D02*
X4926753Y2229168D01*
X4752158Y2283846D02*
X4794623Y2248214D01*
X4719057Y2244398D02*
X4752158Y2283846D01*
X4361814Y2737538D02*
X4905244Y2194108D01*
X4390875Y2736761D02*
X4919232Y2208404D01*
X4332756Y2738315D02*
X4879680Y2191392D01*
X4274594Y2739909D02*
X4742348Y2272155D01*
X4303695Y2739092D02*
X4794314Y2248474D01*
X4237195Y2749023D02*
X4729443Y2256775D01*
X4199323Y2758611D02*
X4716539Y2241396D01*
X4161427Y2768223D02*
X4703634Y2226016D01*
X4719057Y2244398D02*
X4761522Y2208766D01*
X4739674Y2222372D02*
X4742244Y2224942D01*
X4724295Y2235277D02*
X4726864Y2237847D01*
X4716730Y2241624D02*
X4759195Y2205992D01*
X4702846Y2186051D02*
X4724021Y2148102D01*
X4683629Y2202176D02*
X4716730Y2241624D01*
X4683629Y2202176D02*
X4702846Y2186051D01*
X4577355Y2151765D02*
X4625746Y2169378D01*
X4634458Y2145440D02*
X4687742Y2198724D01*
X4625746Y2169378D02*
X4636363Y2140206D01*
X3884065Y4189041D02*
X3918562Y4146328D01*
X3942740Y4111702D01*
X3839847Y4237889D02*
X3884065Y4189041D01*
X3846494Y4101053D02*
X3906591Y4161150D01*
X3860180Y4086456D02*
X3919175Y4145450D01*
X3828596Y4111440D02*
X3893954Y4176797D01*
X3718849Y4342169D02*
X3927524Y4133494D01*
X3805198Y4116326D02*
X3881142Y4192270D01*
X3767270Y4106683D02*
X3867704Y4207116D01*
X3591410Y4413040D02*
X4016579Y3987871D01*
X3649870Y4382864D02*
X3971414Y4061320D01*
X4364604Y3935362D02*
X4408510Y3938083D01*
X4508131Y3931645D01*
X3984272Y4040041D02*
X4013646Y3993795D01*
X4323854Y3929337D02*
X4364604Y3935362D01*
X4044807Y3930846D02*
X4047158Y3927549D01*
X4013646Y3993795D02*
X4044807Y3930846D01*
X3872683Y4042390D02*
X3942434Y4112141D01*
X3942740Y4111702D02*
X3965946Y4070370D01*
X3869525Y4067516D02*
X3930805Y4128796D01*
X3965946Y4070370D02*
X3984272Y4040041D01*
X3683242Y4364526D02*
X3724960Y4338332D01*
X3761144Y4311440D01*
X3631369Y4393031D02*
X3683242Y4364526D01*
X3798854Y4278670D02*
X3839847Y4237889D01*
X3616290Y4012271D02*
X3840826Y4236807D01*
X3761144Y4311440D02*
X3798854Y4278670D01*
X3580752Y4089870D02*
X3783176Y4292294D01*
X3592488Y4073322D02*
X3798309Y4279143D01*
X3566851Y4104253D02*
X3768043Y4305445D01*
X3609329Y4033594D02*
X3826702Y4250967D01*
X3601801Y4054351D02*
X3812523Y4265072D01*
X3623113Y3990810D02*
X3854265Y4221961D01*
X3629937Y3969349D02*
X3742481Y4081893D01*
X3635631Y3946759D02*
X3732838Y4043965D01*
X3637408Y3939127D02*
X3637873Y3931118D01*
X3631549Y3964281D02*
X3637408Y3939127D01*
X3579858Y4091091D02*
X3591657Y4074978D01*
X3601260Y4055844D01*
X3559760Y4111430D02*
X3579858Y4091091D01*
X3610800Y4029537D02*
X3631549Y3964281D01*
X3601260Y4055844D02*
X3610800Y4029537D01*
X3868658Y4022655D02*
X4595458Y3295855D01*
X4545290Y3925933D02*
X4585086Y3915867D01*
X4508131Y3931645D02*
X4545290Y3925933D01*
X3858738Y4004290D02*
X4575492Y3287536D01*
X3844556Y3990188D02*
X4555527Y3279217D01*
X3826099Y3980360D02*
X4535591Y3270868D01*
X3801801Y3976375D02*
X4522552Y3255623D01*
X3636300Y3943885D02*
X4529370Y3050816D01*
X3633069Y3918832D02*
X4515198Y3036703D01*
X3609022Y3914594D02*
X4582912Y2940705D01*
X3561214Y2967244D02*
X4523285Y3929316D01*
X4576005Y3218359D02*
X4602102Y3244456D01*
X4521725Y3244833D02*
X4532210Y3171286D01*
X4465924Y3193131D02*
X4521477Y3248684D01*
X4443241Y3278366D02*
X4529199Y3192408D01*
X3582398Y3912934D02*
X4567532Y2927800D01*
X4438143Y3255180D02*
X4532210Y3161113D01*
X4275376Y3918476D02*
X4323854Y3929337D01*
X4062118Y3921802D02*
X4086578Y3921695D01*
X4055711Y3922259D02*
X4062118Y3921802D01*
X4251279Y3911814D02*
X4275376Y3918476D01*
X4114230Y3918155D02*
X4142491Y3912243D01*
X4086578Y3921695D02*
X4114230Y3918155D01*
X3637332Y3926370D02*
X3637873Y3931118D01*
X4047158Y3927549D02*
X4049595Y3925070D01*
X3636373Y3923270D02*
X3637332Y3926370D01*
X3612470Y4024284D02*
X4408143Y3228611D01*
X3593265Y4071773D02*
X4408143Y3256896D01*
X4232831Y3905749D02*
X4251279Y3911814D01*
X4200713Y3894576D02*
X4232831Y3905749D01*
X4197358Y3894750D02*
X4200713Y3894576D01*
X4438143Y3220912D02*
Y3271710D01*
X4408143Y3214699D02*
Y3271710D01*
X3625291Y3915787D02*
X3628563Y3916528D01*
X4142491Y3912243D02*
X4191984Y3896087D01*
X3619809Y3915267D02*
X3625291Y3915787D01*
X4140457Y2980801D02*
X4408143Y3248487D01*
X4191984Y3896087D02*
X4197358Y3894750D01*
X3548609Y4434472D02*
X3631369Y4393031D01*
X3434448Y4226409D02*
X3611180Y4403141D01*
X3425497Y4245743D02*
X3592333Y4412578D01*
X3467687Y4451909D02*
X3803231Y4116366D01*
X3501289Y4446592D02*
X3848450Y4099431D01*
X3437073Y4454239D02*
X3779084Y4112229D01*
X3423404Y4439624D02*
X3760719Y4102309D01*
X3419110Y4267640D02*
X3573486Y4422015D01*
X3414415Y4291229D02*
X3554639Y4431453D01*
X3415724Y4419020D02*
X3746617Y4088127D01*
X3410052Y4396408D02*
X3736789Y4069671D01*
X3523420Y4145675D02*
X3719503Y4341758D01*
X3537982Y4131953D02*
X3736090Y4330060D01*
X3508613Y4159153D02*
X3702128Y4352667D01*
X3552543Y4118230D02*
X3752315Y4318002D01*
X3512008Y4156430D02*
X3559760Y4111430D01*
X3461567Y4196959D02*
X3648322Y4383715D01*
X3477223Y4184331D02*
X3666576Y4373684D01*
X3446624Y4210301D02*
X3630026Y4393703D01*
X3412941Y4365235D02*
X3732803Y4045372D01*
X3492918Y4171742D02*
X3684753Y4363577D01*
X3446873Y4454191D02*
X3480042Y4450555D01*
X3520292Y4443048D01*
X3435996Y4454245D02*
X3446873Y4454191D01*
X3412881Y4346264D02*
X3511336Y4444718D01*
X3520292Y4443048D02*
X3548609Y4434472D01*
X3424601Y4442837D02*
X3436009Y4454245D01*
X3410224Y4400175D02*
X3462524Y4452475D01*
X3410436Y4404832D02*
X3426446Y4447785D01*
X3409976Y4394750D02*
X3410436Y4404832D01*
X3412673Y4317771D02*
X3533845Y4438943D01*
X3412085Y4373752D02*
X3487498Y4449165D01*
X3438854Y4219158D02*
X3448358Y4208325D01*
X3462772Y4195922D01*
X3430447Y4232992D02*
X3438854Y4219158D01*
X3462772Y4195922D02*
X3512008Y4156430D01*
X3429433Y4235605D02*
X3494829Y4170209D01*
X3412576Y4304495D02*
X3413014Y4364501D01*
X3412576Y4304495D02*
X3415688Y4282048D01*
X3409976Y4394750D02*
X3413014Y4364501D01*
X3422440Y4253619D02*
X3430447Y4232992D01*
X3415688Y4282048D02*
X3422440Y4253619D01*
X3412814Y4337077D02*
X4524496Y3225395D01*
X3412608Y4308998D02*
X4413028Y3308579D01*
X3417063Y4276259D02*
X4400977Y3292345D01*
X3428134Y3954061D02*
X4580801Y2801394D01*
X3464483Y3945996D02*
X4598914Y2811565D01*
X3394785Y3959126D02*
X4559878Y2794033D01*
X3265491Y3975283D02*
X4455728Y2785045D01*
X3361436Y3964190D02*
X4538955Y2786672D01*
X3237408Y3975081D02*
X4426667Y2785822D01*
X3328087Y3969255D02*
X4513851Y2783491D01*
X3294738Y3974320D02*
X4484790Y2784268D01*
X3548309Y2982623D02*
X4497986Y3932300D01*
X3555774Y3911274D02*
X4552153Y2914895D01*
X3535404Y2998003D02*
X4471419Y3934017D01*
X3537923Y2859100D02*
X4592033Y3913210D01*
X3530533Y2879994D02*
X4570176Y3919638D01*
X3512537Y3003420D02*
X4444851Y3935735D01*
X3523142Y2900888D02*
X4547602Y3925348D01*
X3498395Y3017562D02*
X4418284Y3937452D01*
X3518011Y3920753D02*
X4598123Y2840641D01*
X3523142Y2900888D02*
X4547602Y3925348D01*
X3538689Y4437476D02*
X4044305Y3931861D01*
X3457878Y3948124D02*
X3479658Y3941109D01*
X3428905Y3953944D02*
X3457878Y3948124D01*
X3484089Y3031540D02*
X4389450Y3936902D01*
X3458808Y3034544D02*
X4358762Y3934498D01*
X3479658Y3941109D02*
X3527802Y3915556D01*
X3244680Y3975584D02*
X3290810Y3974916D01*
X3428905Y3953944D01*
X3197587Y3972330D02*
X3244680Y3975584D01*
X3210952Y3973253D02*
X4397606Y2786599D01*
X3194101Y3080964D02*
X4044534Y3931397D01*
X3546318Y3910685D02*
X3619809Y3915267D01*
X3536560Y3912458D02*
X3546318Y3910685D01*
X3527802Y3915556D02*
X3536560Y3912458D01*
X3437108Y3041129D02*
X4325571Y3929591D01*
X3302567Y2934872D02*
X4289289Y3921593D01*
X3204000Y3034295D02*
X4090853Y3921148D01*
X3204000Y3006010D02*
X4115813Y3917824D01*
X3203375Y3061954D02*
X4063218Y3921797D01*
X3292871Y2953460D02*
X4251198Y3911787D01*
X3213776Y2902649D02*
X4208365Y3897238D01*
X4583706Y3169492D02*
X4587328Y3173113D01*
Y3140095D02*
X4598076D01*
X4583706Y3194469D02*
X4587328Y3190847D01*
Y3140095D02*
Y3195529D01*
X4598076Y3130478D02*
Y3140095D01*
X4583706D02*
Y3195529D01*
Y3166185D02*
X4587328Y3162563D01*
X4583706Y3141207D02*
X4587328Y3144829D01*
X4579260Y3195529D02*
X4583706D01*
X4581511Y3140095D02*
X4594602Y3127004D01*
X4532210Y3140095D02*
X4583706D01*
X4586037Y3118438D02*
X4598076Y3130478D01*
X4590764Y2947294D02*
X4594414Y2950356D01*
X4599739Y2930965D02*
X4602308Y2933535D01*
X4572237Y2931748D02*
X4592629Y2952140D01*
X4547929Y3048862D02*
X4587506Y3088438D01*
X4534404D02*
X4592250D01*
X4540617Y3118438D02*
X4586037D01*
X4537758Y3007012D02*
X4594414Y2950356D01*
X4548542Y2911866D02*
X4587990Y2944967D01*
X4573956Y3232729D02*
X4579260Y3195529D01*
X4578696Y3199479D02*
X4582647Y3195529D01*
X4480066Y3178989D02*
X4524743Y3223665D01*
X4438143Y3226896D02*
X4546600Y3118438D01*
X4508350Y3150705D02*
X4531801Y3174155D01*
X4494208Y3164847D02*
X4528272Y3198910D01*
X4438143Y3220912D02*
X4540617Y3118438D01*
X4412542Y3204087D02*
X4523791Y3092838D01*
X4201974Y2929181D02*
X4444711Y3171918D01*
X4536635Y3122420D02*
X4554310Y3140095D01*
X4560937Y3118438D02*
X4582594Y3140095D01*
X4532210D02*
Y3171286D01*
X4553227Y3140095D02*
X4574884Y3118438D01*
X4522493Y3136562D02*
X4532210Y3146280D01*
X4217353Y2916276D02*
X4458853Y3157776D01*
X4206525Y2897350D02*
X4220318Y2913788D01*
X4568629Y2887926D02*
X4610862Y2820216D01*
X4541027Y2787401D02*
X4596641Y2843015D01*
X4548542Y2911866D02*
X4568629Y2887926D01*
X4481416Y2784358D02*
X4574912Y2877854D01*
X4508963Y2783622D02*
X4585777Y2860435D01*
X4453868Y2785095D02*
X4563186Y2894413D01*
X4264477Y2793694D02*
X4559221Y3088438D01*
X4371225Y2787305D02*
X4564345Y2980425D01*
X4343677Y2788041D02*
X4550203Y2994567D01*
X4398773Y2786568D02*
X4578487Y2966283D01*
X4426320Y2785832D02*
X4550281Y2909793D01*
X4584663Y2802752D02*
X4607507Y2825596D01*
X4570730Y2189214D02*
X4599954Y2159990D01*
X4567141Y2164519D02*
X4579217Y2152443D01*
X4576359Y2143910D02*
X4579185Y2146736D01*
X4569463Y2148892D02*
X4573952Y2150526D01*
X4528780Y2783092D02*
X4588712Y2804177D01*
X4541042Y2734402D02*
X4608710Y2758208D01*
X4566648Y2167837D02*
X4569463Y2148892D01*
X4241907Y2799408D02*
X4531268Y3088770D01*
X4288582Y2789514D02*
X4517121Y3018054D01*
X4219336Y2805122D02*
X4515422Y3101207D01*
X4316130Y2788778D02*
X4534425Y3007074D01*
X4217366Y2910270D02*
X4339483Y2788153D01*
X4206032Y2893320D02*
X4310422Y2788930D01*
X4203708Y2874346D02*
X4472995Y3143634D01*
X4199761Y2842115D02*
X4487137Y3129491D01*
X4195955Y2811041D02*
X4206525Y2897350D01*
X4196766Y2810836D02*
X4501279Y3115349D01*
X4202946Y2868126D02*
X4281364Y2789707D01*
X4280089Y2789742D02*
X4528780Y2783092D01*
X4525561Y2132913D02*
X4540690Y2138419D01*
X4536974Y2163426D02*
X4540690Y2138419D01*
X4199860Y2842927D02*
X4243878Y2798909D01*
X4196774Y2817729D02*
X4206006Y2808497D01*
X4275977Y2739834D02*
X4532056Y2732986D01*
X4155836Y2967896D02*
X4408143Y3220203D01*
X4171215Y2954991D02*
X4416426Y3200202D01*
X4138648Y2982319D02*
X4178096Y2949218D01*
X4186594Y2942085D02*
X4430569Y3186060D01*
X4142464Y2906753D02*
X4178096Y2949218D01*
X4103016Y2939854D02*
X4138648Y2982319D01*
X3530040Y3004395D02*
X3565672Y2961930D01*
X3529624Y3004046D02*
X3534030Y2999640D01*
X3519993Y2995964D02*
X3530040Y3004395D01*
X3526224Y2928829D02*
X3565672Y2961930D01*
X3490592Y2971294D02*
X3526224Y2928829D01*
X4180870Y2946889D02*
X4220318Y2913788D01*
X4165338Y2934014D02*
X4167909Y2931443D01*
X4152435Y2918636D02*
X4155006Y2916066D01*
X4145238Y2904424D02*
X4180870Y2946889D01*
X4145238Y2904424D02*
X4155920Y2895461D01*
X4103016Y2939854D02*
X4109348Y2934541D01*
X4102001Y2927194D02*
X4109348Y2934541D01*
X3522090Y2928121D02*
X3524661Y2930691D01*
X4132417Y2915184D02*
X4142464Y2906753D01*
X4119654Y2902421D02*
X4132417Y2915184D01*
X3459085Y3034239D02*
X3475505D01*
X3486117Y3029840D02*
X3519993Y2995964D01*
X3469292Y3004239D02*
X3496924Y2976607D01*
X3459085Y3004239D02*
X3469292D01*
X3450526Y2998291D02*
X3483487Y2965330D01*
X3204000Y3005000D02*
Y3055000D01*
Y3018543D02*
X3268367Y2954176D01*
X3201896Y2992363D02*
X3257630Y2936629D01*
X3496281Y2958880D02*
X3498851Y2961450D01*
X3509186Y2943500D02*
X3511756Y2946071D01*
X3490592Y2971294D02*
X3496924Y2976607D01*
X3516227Y2920440D02*
X3523450Y2926500D01*
X3487818Y2968965D02*
X3523450Y2926500D01*
X3448370Y2935864D02*
X3487818Y2968965D01*
X3448370Y2935864D02*
X3464561Y2916567D01*
X3226546Y2902649D02*
X3257602Y2933706D01*
X4130010Y2912777D02*
X4154983Y2887805D01*
X4118058Y2896445D02*
X4151897Y2862606D01*
X4143651Y2795278D02*
X4155920Y2895461D01*
X4102846Y2883373D02*
X4148811Y2837408D01*
X3516227Y2920440D02*
X3547170Y2832957D01*
X3464561Y2916567D02*
X3491542Y2840287D01*
X3448041Y2825787D02*
X3483964Y2861710D01*
X3448041Y2825787D02*
X3483964Y2861710D01*
X3304593Y2795476D02*
X3491324Y2982207D01*
X3277134Y2796302D02*
X3477182Y2996349D01*
X4195955Y2811041D02*
X4280089Y2789742D01*
X4162327Y2767977D02*
X4270510Y2740589D01*
X3364359Y2745188D02*
X3531506Y2800904D01*
X3352763Y2794027D02*
X3491542Y2840287D01*
X3299286Y2923257D02*
X3409577Y2812965D01*
X3281738Y2912520D02*
X3388364Y2805894D01*
X3266148Y2899826D02*
X3367151Y2798823D01*
X3332051Y2794650D02*
X3459728Y2922327D01*
X3363188Y2797502D02*
X3469184Y2903499D01*
X3252006Y2885684D02*
X3343380Y2794309D01*
X3204000Y3046827D02*
X3430790Y2820037D01*
X3194759Y2798779D02*
X3420425Y3024445D01*
X3243372Y2877049D02*
X3278816Y2912493D01*
X3249676Y2797128D02*
X3451054Y2998506D01*
X3222217Y2797954D02*
X3427010Y3002746D01*
X3405614Y2811644D02*
X3476574Y2882604D01*
X3236326Y2873080D02*
X3314219Y2795186D01*
X3208472Y2872649D02*
X3285057Y2796064D01*
X3198227Y2575973D02*
X3368983Y2746729D01*
X3198440Y2547901D02*
X3411410Y2760872D01*
X3198227Y2575973D02*
X3368983Y2746729D01*
X5013209Y2538691D02*
X5522334Y2029566D01*
X5014336Y2509280D02*
X5511638Y2011979D01*
X5015463Y2479869D02*
X5500576Y1994756D01*
X5016590Y2450458D02*
X5489515Y1977534D01*
X5017717Y2421047D02*
X5477742Y1961021D01*
X5018844Y2391636D02*
X5465722Y1944757D01*
X5007575Y2685747D02*
X5573275Y2120047D01*
X5008702Y2656336D02*
X5563307Y2101731D01*
X5009829Y2626925D02*
X5553339Y2083415D01*
X5010956Y2597514D02*
X5543020Y2065450D01*
X5012083Y2568103D02*
X5532677Y2047508D01*
X5552707Y2082254D02*
X5610427Y2188313D01*
X4771511Y2129616D02*
X4935189Y2147009D01*
X4767852Y2109129D02*
X4790340Y2131617D01*
X5517084Y2020458D02*
X5552707Y2082254D01*
X5486650Y1973074D02*
X5517084Y2020458D01*
X4762546Y2079414D02*
X4771511Y2129616D01*
X4760873Y2073865D02*
X4821988Y2134980D01*
X4668183Y1952890D02*
X4853635Y2138343D01*
X4681801Y2027790D02*
X4749116Y2061448D01*
X4653656Y2108070D02*
X4713158Y2167571D01*
X4715531Y2100557D02*
X4724021Y2148102D01*
X4643761Y2126459D02*
X4703027Y2185725D01*
X4663551Y2089680D02*
X4723288Y2149417D01*
X4689893Y2087738D02*
X4718318Y2116163D01*
X4636363Y2140206D02*
X4669959Y2077771D01*
X4577355Y2151765D02*
X4596314Y2099675D01*
X4586027Y2117349D02*
X4592087Y2111289D01*
X4583907Y2123173D02*
X4586733Y2125999D01*
X4629691Y2158537D02*
X4696958Y2091271D01*
X4573952Y2150526D02*
X4592911Y2098435D01*
X4669959Y2077771D02*
X4715531Y2100557D01*
X4680753Y2022030D02*
X4691227Y2032504D01*
X4655731Y2104214D02*
X4678102Y2081843D01*
X4674468Y1987460D02*
X4747796Y2060788D01*
X4615817Y1944389D02*
X4633278Y2040422D01*
X4596314Y2099675D02*
X4600562Y2101221D01*
X4580994Y2094098D02*
X4631656Y2043435D01*
X4591454Y2102437D02*
X4594280Y2105263D01*
X4600562Y2101221D02*
X4633278Y2040422D01*
X4560257Y2086550D02*
X4629141Y2017667D01*
X5019971Y2362224D02*
X5453322Y1928873D01*
X4813281Y1475734D02*
X5668847Y2331301D01*
X5018436Y2335475D02*
X5440184Y1913727D01*
X4705733Y1453039D02*
X5694624Y2441930D01*
X4737421Y1456442D02*
X5687751Y2406773D01*
X4773210Y1463947D02*
X5679053Y2369791D01*
X4604204Y1804059D02*
X5730563Y2930418D01*
X4623858Y1456017D02*
X5711263Y2543422D01*
X4650727Y1454601D02*
X5706120Y2509995D01*
X4575945Y1436388D02*
X5716407Y2576850D01*
X4677595Y1453185D02*
X5700977Y2476568D01*
X5010916Y2314711D02*
X5426857Y1898770D01*
X5003395Y2293947D02*
X5412503Y1884839D01*
X4995874Y2273184D02*
X5397933Y1871125D01*
X5046762Y1596078D02*
X5576313Y2125629D01*
X5231504Y1752536D02*
X5541117Y2062149D01*
X4988354Y2252420D02*
X5382403Y1858371D01*
X4965449Y1543049D02*
X5610086Y2187687D01*
X4980833Y2231657D02*
X5366806Y1845684D01*
X4857965Y1492134D02*
X5655507Y2289676D01*
X4907951Y1513836D02*
X5636417Y2242302D01*
X4973312Y2210893D02*
X5349994Y1834211D01*
X4965791Y2190129D02*
X5333183Y1822738D01*
X4958271Y2169366D02*
X5316372Y1811265D01*
X4947526Y2151826D02*
X5299560Y1799792D01*
X4925132Y2145940D02*
X5282751Y1788320D01*
X4899564Y2143223D02*
X5265940Y1776847D01*
X4630064Y1858203D02*
X4916929Y2145068D01*
X4873997Y2140506D02*
X5249223Y1765280D01*
X4655924Y1912347D02*
X4885282Y2141705D01*
X4848429Y2137789D02*
X5232771Y1753447D01*
X4822862Y2135073D02*
X5216320Y1741614D01*
X4797294Y2132356D02*
X5201134Y1728516D01*
X4771727Y2129639D02*
X5186008Y1715358D01*
X4767262Y2105820D02*
X5170881Y1702200D01*
X4762976Y2081821D02*
X5155755Y1689042D01*
X4752803Y2063710D02*
X5140628Y1675884D01*
X4734226Y2054003D02*
X5125538Y1662690D01*
X4715369Y2044575D02*
X5110551Y1649393D01*
X4664422Y1932208D02*
X4681801Y2027790D01*
X4696513Y2035147D02*
X5095564Y1636096D01*
X4680845Y2022531D02*
X5080576Y1622799D01*
X4174114Y2109361D02*
X4939839Y2875086D01*
X4194983Y2101945D02*
X4942375Y2849337D01*
X4006025Y2054409D02*
X4906942Y2955326D01*
X4055160Y2046975D02*
X4923693Y2915508D01*
X4079194Y2042725D02*
X4932068Y2895599D01*
X4021402Y2041501D02*
X4915317Y2935417D01*
X3949456Y2054409D02*
X4890191Y2995144D01*
X3977740Y2054409D02*
X4898566Y2975235D01*
X3921172Y2054409D02*
X4881815Y3015052D01*
X3553592Y2951794D02*
X4489853Y2015533D01*
X3522834Y2925983D02*
X4484212Y1964605D01*
X4544520Y2080823D02*
X4592911Y2098435D01*
X4506612Y2017595D02*
X4584330Y2095312D01*
X4525561Y2132913D02*
X4544520Y2080823D01*
X4518052Y1972466D02*
X4616741Y2071154D01*
X4521627Y2004325D02*
X4606846Y2089543D01*
X4193083Y2043477D02*
X4947447Y2797840D01*
X4193143Y2015252D02*
X4949982Y2772092D01*
X4197740Y2076419D02*
X4944911Y2823589D01*
X4193203Y1987028D02*
X4952518Y2746343D01*
X3491532Y2787579D02*
X4170646Y2108465D01*
X3449106Y2773437D02*
X4163049Y2059494D01*
X3470319Y2780508D02*
X4156612Y2094215D01*
X3538212Y2938889D02*
X4478452Y1998649D01*
X3464671Y1993888D02*
X4223319Y2752536D01*
X3436387Y1993888D02*
X4200749Y2758250D01*
X3427892Y2766366D02*
X4163109Y2031149D01*
X3406679Y2759295D02*
X4163169Y2002805D01*
X3379818Y1993888D02*
X4156301Y2770370D01*
X3408103Y1993888D02*
X4178179Y2763964D01*
X3385466Y2752224D02*
X4163229Y1974460D01*
X3692689Y2023915D02*
X4405153Y2736380D01*
X3697357Y1972016D02*
X4460248Y2734907D01*
X3713425Y2016368D02*
X4432700Y2735643D01*
X3641892Y2029688D02*
X4350057Y2737853D01*
X3671952Y2031463D02*
X4377605Y2737116D01*
X3624693Y2040773D02*
X4322510Y2738589D01*
X3497934Y1970582D02*
X4268460Y2741108D01*
X3483792Y1984725D02*
X4245890Y2746822D01*
X4326514Y1384947D02*
X5739913Y2798347D01*
X4356555Y1386704D02*
X5738997Y2769146D01*
X4388587Y1390452D02*
X5737837Y2739702D01*
X4268964Y1383966D02*
X5738144Y2853146D01*
X4297216Y1383934D02*
X5739084Y2825802D01*
X4240761Y1384047D02*
X5735978Y2879265D01*
X3534030Y2999640D02*
X4607240Y1926430D01*
X4193262Y1958803D02*
X4955054Y2720595D01*
X3728343Y1889864D02*
X4590162Y2751683D01*
X4214001Y1385571D02*
X5733502Y2905073D01*
X3695191Y1884996D02*
X4546526Y2736331D01*
X4532093Y1420821D02*
X5721550Y2610277D01*
X4529721Y1927566D02*
X4631211Y2029056D01*
X4533873Y1960002D02*
X4626636Y2052765D01*
X4456957Y1402253D02*
X5731836Y2677132D01*
X4494338Y1411350D02*
X5726693Y2643705D01*
X4193382Y1902354D02*
X4958248Y2667220D01*
X4196905Y1877593D02*
X4959292Y2639980D01*
X4193322Y1930579D02*
X4957204Y2694461D01*
X4421861Y1395442D02*
X5735010Y2708591D01*
X4205069Y1744336D02*
X4543729Y2082996D01*
X3687566Y1933940D02*
X4487796Y2734170D01*
X3691378Y1909468D02*
X4515344Y2733433D01*
X3547300Y2816664D02*
X4461570Y1902394D01*
X4232769Y1856888D02*
X4537276Y2161395D01*
X4250700Y1846535D02*
X4528634Y2124469D01*
X4214207Y1866611D02*
X4527020Y2179423D01*
X3525057Y2895476D02*
X4476664Y1943869D01*
X3540536Y2851713D02*
X4469118Y1923131D01*
X3512076Y1956440D02*
X4294962Y2739326D01*
X3512745Y2794650D02*
X4461391Y1846005D01*
X3533858Y2801822D02*
X4454023Y1881657D01*
X4248880Y1816431D02*
X4536182Y2103733D01*
X4199258Y2079853D02*
X4461057Y1818054D01*
X4193026Y2070458D02*
X4193431Y1879599D01*
X4193053Y2057774D02*
X4460724Y1790103D01*
X4193113Y2029430D02*
X4453191Y1769352D01*
X4009347Y1888025D02*
X4163086Y2041764D01*
X4086182Y2023223D02*
X4163289Y1946116D01*
X3988969Y1895931D02*
X4163027Y2069989D01*
X4163026Y2070395D02*
X4163426Y1881648D01*
X4029725Y1880119D02*
X4163146Y2013540D01*
X5457782Y1934015D02*
X5486650Y1973074D01*
X5323128Y1815876D02*
X5498004Y1990752D01*
X5429088Y1900934D02*
X5457782Y1934015D01*
X4583897Y1761542D02*
X4662358Y1925818D01*
X4513538Y1883099D02*
X4624926Y1994487D01*
X4520448Y1984938D02*
X4598097Y1907288D01*
X4535008Y1942093D02*
X4588955Y1888146D01*
X4511475Y1852751D02*
X4618641Y1959917D01*
X4543786Y1793574D02*
X4615817Y1944389D01*
X4527461Y1921356D02*
X4579813Y1869004D01*
X5400789Y1873471D02*
X5429088Y1900934D01*
X4519914Y1900618D02*
X4570670Y1849862D01*
X5367685Y1846284D02*
X5400789Y1873471D01*
X5253518Y1768370D02*
X5367685Y1846284D01*
X4534842Y1791266D02*
X4549853Y1806276D01*
X4511133Y1824125D02*
X4601573Y1914565D01*
X4512367Y1879881D02*
X4561528Y1830721D01*
X4511472Y1852492D02*
X4552385Y1811579D01*
X4510792Y1795499D02*
X4575713Y1860421D01*
X4510667Y1785027D02*
X4543786Y1793574D01*
X4517287Y1980575D02*
X4518707Y1965522D01*
X4487420Y1977759D02*
X4487745Y1974312D01*
X4518707Y1965522D02*
X4540632Y1957542D01*
X4523019Y1909151D02*
X4540632Y1957542D01*
X4490869Y1916999D02*
X4493695Y1919824D01*
X4470928Y1928110D02*
X4487745Y1974312D01*
X4470928Y1928110D02*
X4523019Y1909151D01*
X4470133Y1924546D02*
X4472958Y1927372D01*
X4469691Y1924707D02*
X4521782Y1905748D01*
X4452078Y1876316D02*
X4469691Y1924707D01*
X4511779Y1878267D02*
X4521782Y1905748D01*
X4511138Y1824542D02*
X4542451Y1793229D01*
X4511606Y1909451D02*
X4514432Y1912277D01*
X4510805Y1796591D02*
X4519968Y1787427D01*
X4510667Y1785027D02*
X4511779Y1878267D01*
X4504722Y1915810D02*
X4510781Y1909751D01*
X4452078Y1876316D02*
X4461711Y1872811D01*
X4460501Y1771480D02*
X4461711Y1872811D01*
X4417760Y1759037D02*
X4460867Y1802144D01*
X4457661Y1770653D02*
X4460526Y1773518D01*
X4676493Y1998598D02*
X5064786Y1610306D01*
X4672142Y1974665D02*
X5048979Y1597828D01*
X4667790Y1950733D02*
X5032902Y1585621D01*
X4662990Y1927249D02*
X5016072Y1574167D01*
X4653882Y1908072D02*
X4999242Y1562712D01*
X4644740Y1888930D02*
X4981368Y1552302D01*
X4635597Y1869789D02*
X4963480Y1541905D01*
X4626455Y1850647D02*
X4944970Y1532131D01*
X4617312Y1831505D02*
X4926041Y1522776D01*
X4608170Y1812363D02*
X4907112Y1513421D01*
X4599028Y1793221D02*
X4887565Y1504683D01*
X5215580Y1741083D02*
X5253518Y1768370D01*
X5129460Y1666169D02*
X5215580Y1741083D01*
X5080288Y1622543D02*
X5129460Y1666169D01*
X5037356Y1588653D02*
X5080288Y1622543D01*
X4999032Y1562569D02*
X5037356Y1588653D01*
X4956294Y1537728D02*
X4999032Y1562569D01*
X4900690Y1510247D02*
X4956294Y1537728D01*
X4589885Y1774079D02*
X4867702Y1496262D01*
X4848156Y1487976D02*
X4900690Y1510247D01*
X4800929Y1471399D02*
X4848156Y1487976D01*
X4580007Y1755672D02*
X4847822Y1487858D01*
X4561014Y1746382D02*
X4826886Y1480510D01*
X4538532Y1740580D02*
X4805950Y1473161D01*
X4516049Y1734778D02*
X4783983Y1466843D01*
X4493567Y1728976D02*
X4761691Y1460851D01*
X4471618Y1722641D02*
X4737757Y1456501D01*
X4491898Y1728545D02*
X4567537Y1748065D01*
X4449711Y1716263D02*
X4712514Y1453460D01*
X4427805Y1709885D02*
X4684889Y1452801D01*
X4759780Y1460337D02*
X4800929Y1471399D01*
X4724610Y1454211D02*
X4759780Y1460337D01*
X4609253Y1455141D02*
X4619242Y1456261D01*
X4694088Y1452316D02*
X4724610Y1454211D01*
X4619242Y1456261D02*
X4694088Y1452316D01*
X4601605Y1452931D02*
X4609253Y1455141D01*
X4576072Y1436450D02*
X4601605Y1452931D01*
X4556702Y1426993D02*
X4576072Y1436450D01*
X4461878Y1403208D02*
X4556702Y1426993D01*
X4410805Y1393296D02*
X4461878Y1403208D01*
X4227556Y1738539D02*
X4479048Y1990031D01*
X4337958Y1735803D02*
X4461551Y1859396D01*
X4234654Y1791791D02*
X4262371Y1839797D01*
X4250043Y1732741D02*
X4485530Y1968228D01*
X4272530Y1726944D02*
X4469347Y1923760D01*
X4298057Y1724187D02*
X4453161Y1879290D01*
X4193173Y2001085D02*
X4431284Y1762974D01*
X4193233Y1972741D02*
X4409378Y1756596D01*
X4217774Y1865545D02*
X4262371Y1839797D01*
X4193293Y1944397D02*
X4387471Y1750218D01*
X4193353Y1916052D02*
X4365565Y1743841D01*
X4377859Y1747420D02*
X4461209Y1830770D01*
X4254667Y1826454D02*
X4343658Y1737463D01*
X4244314Y1808523D02*
X4321752Y1731085D01*
X4291091Y1722158D02*
X4460501Y1771480D01*
X4230177Y1794376D02*
X4299845Y1724707D01*
X4228365Y1795422D02*
X4234654Y1791791D01*
X4200500Y1767484D02*
X4230102Y1737882D01*
X4183071Y1750007D02*
X4228365Y1795422D01*
X4183071Y1750007D02*
X4291091Y1722158D01*
X4214624Y1781644D02*
X4268211Y1728057D01*
X4193413Y1887708D02*
X4212576Y1868545D01*
X4193431Y1879599D02*
X4214637Y1867355D01*
X4074646Y2006476D02*
X4163349Y1917772D01*
X4142323Y1845097D02*
X4163426Y1881648D01*
X4194218Y1831990D02*
X4214637Y1867355D01*
X4086430Y1823686D02*
X4163386Y1900642D01*
X4041461Y2011375D02*
X4163409Y1889427D01*
X4058886Y1852711D02*
X4163266Y1957091D01*
X4045114Y1867224D02*
X4163206Y1985316D01*
X3969008Y1998975D02*
X4165145Y1802839D01*
X4072658Y1838199D02*
X4163326Y1928867D01*
X4214318Y1866803D02*
X4216969Y1864152D01*
X4204149Y1841947D02*
X4217774Y1865545D01*
X4203965Y1848872D02*
X4206616Y1846220D01*
X4194218Y1831990D02*
X4204149Y1841947D01*
X4186377Y1753322D02*
X4191992Y1747707D01*
X4142323Y1845097D02*
X4183551Y1821294D01*
X4163258Y1833010D02*
X4179268Y1817000D01*
X4113974Y1794662D02*
X4156325Y1837013D01*
X4134947Y1772561D02*
X4183551Y1821294D01*
X4127746Y1780149D02*
X4174257Y1826660D01*
X4298501Y1672240D02*
X4491898Y1728545D01*
X4405898Y1703507D02*
X4655031Y1454374D01*
X4185345Y1697786D02*
X4476304Y1406827D01*
X4187240Y1387095D02*
X4541488Y1741342D01*
X4161771Y1389910D02*
X4503365Y1731504D01*
X4147235Y1707611D02*
X4453303Y1401544D01*
X3981278Y1845284D02*
X4429616Y1396947D01*
X4136811Y1393235D02*
X4463999Y1720423D01*
X4113645Y1398353D02*
X4424098Y1708806D01*
X3935068Y1863210D02*
X4405643Y1392635D01*
X3888857Y1881137D02*
X4380569Y1389425D01*
X4383992Y1697129D02*
X4625173Y1455948D01*
X4362085Y1690752D02*
X4600572Y1452264D01*
X4340179Y1684374D02*
X4583383Y1441169D01*
X4318272Y1677996D02*
X4565150Y1431118D01*
X4361624Y1387000D02*
X4410805Y1393296D01*
X4261564Y1678136D02*
X4521529Y1418171D01*
X4296283Y1671701D02*
X4544141Y1423843D01*
X4223454Y1687961D02*
X4498917Y1412499D01*
X4092631Y1405623D02*
X4384197Y1697189D01*
X4308952Y1383920D02*
X4361624Y1387000D01*
X4072089Y1413365D02*
X4344296Y1685572D01*
X4050208Y1419768D02*
X4304395Y1673956D01*
X4128288Y1712496D02*
X4285224Y1672036D01*
X3964514Y1390643D02*
X4253966Y1680095D01*
X4011923Y1409768D02*
X4276453Y1674297D01*
X3923480Y1377893D02*
X4231479Y1685892D01*
X3861379Y1880331D02*
X4355091Y1386618D01*
X3840050Y1873375D02*
X4328370Y1385055D01*
X3887887Y1370585D02*
X4208992Y1691690D01*
X3854764Y1365746D02*
X4186505Y1697487D01*
X3823378Y1362645D02*
X4164018Y1703284D01*
X4139502Y1392640D02*
X4182553Y1387362D01*
X4241630Y1383998D02*
X4308952Y1383920D01*
X4182553Y1387362D02*
X4241630Y1383998D01*
X3988267Y1640305D02*
X4244578Y1383995D01*
X3962216Y1638072D02*
X4214760Y1385528D01*
X3933931Y1638072D02*
X4184767Y1387236D01*
X4020369Y1664772D02*
X4301212Y1383929D01*
X4006450Y1650406D02*
X4272895Y1383962D01*
X4016528Y2041532D02*
Y2054409D01*
Y2041532D02*
X4047208Y2041340D01*
X3965032Y2054409D02*
X4016528D01*
X4085772Y2021018D02*
X4155827Y2091073D01*
X3965032Y1998975D02*
Y2054409D01*
X3961410Y2038078D02*
X3965032Y2041700D01*
X3961410Y2034858D02*
X3965032Y2031236D01*
X3909914Y2054409D02*
X3961410D01*
Y1998975D02*
Y2054409D01*
X3909914Y2031121D02*
Y2054409D01*
X4016528Y2011531D02*
X4047021Y2011341D01*
X4016528Y2008343D02*
X4019696Y2011511D01*
X4016528Y1998975D02*
Y2011531D01*
X3965032Y1998975D02*
X4016528D01*
X3965032Y2002952D02*
X3969008Y1998975D01*
X3961410Y2009794D02*
X3965032Y2013416D01*
X3961410Y2006574D02*
X3965032Y2002952D01*
X3949726Y1998975D02*
X3961410D01*
X3920370Y1940470D02*
X3978876Y1998975D01*
X3860498Y1932634D02*
X3909914Y2031121D01*
X3657172Y2023682D02*
X3661401Y2035303D01*
X3713492Y2016344D01*
X3643789Y1986912D02*
X3646893Y1995441D01*
X3695879Y1967953D02*
X3713492Y2016344D01*
X3643789Y1986912D02*
X3695879Y1967953D01*
X3649685Y1980912D02*
X3652511Y1983738D01*
X3642794Y2027969D02*
X3657172Y2023682D01*
X3634222Y1999220D02*
X3646893Y1995441D01*
X3630995Y1997578D02*
X3646502Y1982070D01*
X3519270Y1935350D02*
X3600050Y2016130D01*
X3693984Y1968643D02*
X3697357Y1972016D01*
X3691158Y1965817D02*
X3693984Y1968643D01*
X3684912Y1971945D02*
X3690972Y1965884D01*
X3686347Y1941765D02*
X3694640Y1964550D01*
X3690972Y1965884D02*
X3694017Y1962840D01*
X3642549Y1983509D02*
X3694640Y1964550D01*
X3670422Y1973364D02*
X3673247Y1976190D01*
X3624936Y1935118D02*
X3642549Y1983509D01*
X3948211Y1911742D02*
X4047396Y2010927D01*
X3968590Y1903837D02*
X4069102Y2004349D01*
X3937268Y1974147D02*
X4032748Y1878667D01*
X4016528Y2008024D02*
X4155915Y1868638D01*
X3946718Y1992982D02*
X4151022Y1788678D01*
X3997293Y1998975D02*
X4145562Y1850706D01*
X3912841Y1925463D02*
X3949726Y1998975D01*
X3927832Y1919648D02*
X4007160Y1998975D01*
X3811803Y1916755D02*
X3893545Y1998497D01*
X3927818Y1955313D02*
X3986079Y1897052D01*
X3769833Y1903070D02*
X3909914Y2043151D01*
X3912841Y1925463D02*
X4029442Y1880230D01*
X3918368Y1936479D02*
X3939868Y1914979D01*
X3877438Y1885567D02*
X4006166Y1835629D01*
X3853773Y1930441D02*
X3865062Y1941730D01*
X3773125Y1851552D02*
X3877438Y1885567D01*
X3757700Y1899113D02*
X3860498Y1932634D01*
X3676257Y1668072D02*
X3889192Y1881007D01*
X3647973Y1668072D02*
X3859675Y1879775D01*
X3709113Y2004313D02*
X3800391Y1913034D01*
X3701565Y1983576D02*
X3779062Y1906079D01*
X3624936Y1935118D02*
X3637491Y1930549D01*
X3694017Y1962840D02*
X3757733Y1899124D01*
X3686470Y1942103D02*
X3736225Y1892347D01*
X3686347Y1941765D02*
X3696019Y1879680D01*
X3534232Y1922027D02*
X3611135Y1998930D01*
X3519270Y1925883D02*
Y1943034D01*
X3489270Y1931173D02*
Y1936820D01*
X3528177Y1887688D02*
X3638448Y1997959D01*
X3519270Y1939597D02*
X3632354Y1826513D01*
X3691481Y1908806D02*
X3714717Y1885571D01*
X3696019Y1879680D02*
X3757700Y1899113D01*
X3637491Y1930549D02*
X3649608Y1852771D01*
X3542683Y1789057D02*
X3643784Y1890158D01*
X3530383Y1900199D02*
X3621137Y1809445D01*
X3519270Y1925883D02*
X3534440Y1923208D01*
X3524814Y1868617D02*
X3534440Y1923208D01*
X3483726Y1932151D02*
X3489270Y1931173D01*
X3515395Y1790053D02*
X3639971Y1914630D01*
X3488106Y1791049D02*
X3630244Y1933187D01*
X3278309Y2746244D02*
X3970144Y2054409D01*
X3307470Y2745367D02*
X3998428Y2054409D01*
X3249147Y2747121D02*
X3941860Y2054409D01*
X3288788Y2044280D02*
X4147247Y2902738D01*
X3300209Y2027416D02*
X4154199Y2881406D01*
X3250566Y2034342D02*
X4098969Y2882745D01*
X3193691Y2034035D02*
X4121299Y2961643D01*
X3228030Y2040090D02*
X4079454Y2891514D01*
X3219986Y2747998D02*
X3913575Y2054409D01*
X3248925Y1947848D02*
X4150252Y2849175D01*
X3190825Y2748875D02*
X3909468Y2030232D01*
X3479028Y1989489D02*
X3514871Y1953646D01*
X3462202Y1963888D02*
X3489270Y1936820D01*
X3463132Y1935780D02*
X3476721Y1949369D01*
X3364253Y2745153D02*
X4060872Y2048533D01*
X3336631Y2744490D02*
X4039734Y2041387D01*
X3371587Y1993888D02*
X3468415D01*
X3439087Y1940020D02*
X3462579Y1963512D01*
X3377800Y1963888D02*
X3462202D01*
X3299409Y2018036D02*
X3344465Y1972980D01*
X3256036Y2004840D02*
X3314154Y1946722D01*
X3285673Y2003488D02*
X3330323Y1958838D01*
X3244686Y1971893D02*
X3275068Y2002275D01*
X3234259Y2031022D02*
X3258460Y2035949D01*
X3239470Y2001467D02*
X3264446Y2006553D01*
X3232520Y2040882D02*
X3234259Y2031022D01*
X3240445Y1995937D02*
X3247639Y2003130D01*
X3239470Y2001467D02*
X3241463Y1990168D01*
X3318369Y1946883D02*
X3360975Y1989489D01*
X3410125Y1963888D02*
X3432903Y1941111D01*
X3242092Y1986600D02*
X3251035Y1935886D01*
X3228757Y1984248D02*
X3233224Y1988715D01*
X3218235Y1986072D02*
X3221363Y1982945D01*
X3194191Y1981833D02*
X3197318Y1978705D01*
X3241257Y1991335D02*
X3297377Y1935215D01*
X3194418Y1978194D02*
X3198885Y1982660D01*
X3438410Y1963888D02*
X3467242Y1935056D01*
X3429444Y1941720D02*
X3480158Y1932778D01*
X3424957Y1916276D02*
X3429444Y1941720D01*
X3460818Y1792045D02*
X3636980Y1968207D01*
X3474100Y1877560D02*
X3483726Y1932151D01*
X3470532Y1878187D02*
X3480158Y1932778D01*
X3208857Y1879496D02*
X4146305Y2816943D01*
X3199289Y2570705D02*
X3843049Y1926945D01*
X3197466Y2544243D02*
X3821720Y1919989D01*
X3228050Y1870405D02*
X4144128Y2786482D01*
X3304822Y1834039D02*
X3434671Y1963888D01*
X3482857Y1927221D02*
X3487178Y1931542D01*
X3478390Y1922755D02*
X3482857Y1927221D01*
X3478563Y1923735D02*
X3481691Y1920607D01*
X3474100Y1877560D02*
X3524814Y1868617D01*
X3474323Y1899690D02*
X3477451Y1896563D01*
X3472336Y1888415D02*
X3476802Y1892882D01*
X3461957Y1879699D02*
X3470532Y1878187D01*
X3459960Y1876040D02*
X3463370Y1879450D01*
X3466902Y1878827D02*
X3557202Y1788527D01*
X3422530Y1807456D02*
X3461957Y1879699D01*
X3339597Y1925382D02*
X3378103Y1963888D01*
X3381841D02*
X3425631Y1920098D01*
X3339582Y1925670D02*
X3377800Y1963888D01*
X3365679Y1951766D02*
X3416559Y1900887D01*
X3351536Y1937624D02*
X3406572Y1882589D01*
X3285629Y1843130D02*
X3406387Y1963888D01*
X3233238Y1932748D02*
X3251035Y1935886D01*
X3199294Y1884026D02*
X3233238Y1932748D01*
X3247312Y1956995D02*
X3376613Y1827695D01*
X3241771Y1934253D02*
X3349789Y1826234D01*
X3339421Y1921455D02*
X3396586Y1864291D01*
X3327914Y1904678D02*
X3386599Y1845993D01*
X3266436Y1852222D02*
X3316153Y1901939D01*
X3328362Y1829295D02*
X3427016Y1927948D01*
X3373934Y1822785D02*
X3424957Y1916276D01*
X3247243Y1861313D02*
X3298187Y1912257D01*
X3214131Y1905323D02*
X3267950Y1851504D01*
X3202517Y1888653D02*
X3214210Y1876960D01*
X3225745Y1921994D02*
X3316791Y1830948D01*
X3199294Y1884026D02*
X3308996Y1832062D01*
X4100202Y1809174D02*
X4150791Y1859763D01*
X4062266Y1849150D02*
X4136898Y1774517D01*
X4038595Y1874093D02*
X4134947Y1772561D01*
X4006166Y1835629D02*
X4116345Y1719527D01*
X3874247Y1668072D02*
X4023519Y1817344D01*
X3845963Y1668072D02*
X4009747Y1831856D01*
X3818721Y1866420D02*
X3992092Y1693049D01*
X3797392Y1859465D02*
X3977727Y1679130D01*
X3776062Y1852510D02*
X3960500Y1668072D01*
X3817678D02*
X3991086Y1841479D01*
X3789394Y1668072D02*
X3970707Y1849385D01*
X4021334Y1673738D02*
X4092378Y1744782D01*
X4010328Y1691016D02*
X4078606Y1759294D01*
X3959100Y1668072D02*
X4064834Y1773807D01*
X3974180Y1668072D02*
X3976469Y1670362D01*
X3930816Y1668072D02*
X4051062Y1788319D01*
X3902531Y1668072D02*
X4037291Y1802831D01*
X3704541Y1668072D02*
X3909571Y1873102D01*
X3732826Y1668072D02*
X3929949Y1865196D01*
X3711565Y1832155D02*
X3875647Y1668072D01*
X3761110D02*
X3950328Y1857291D01*
X3754581Y1845707D02*
X3932216Y1668072D01*
X3733073Y1838931D02*
X3903931Y1668072D01*
X3691798Y1825927D02*
X3772816Y1851453D01*
X3690088Y1823325D02*
X3693100Y1826337D01*
X3606216Y1786738D02*
X3649608Y1852771D01*
X3619688Y1668072D02*
X3817705Y1866089D01*
X3640298Y1747556D02*
X3691798Y1825927D01*
X3668458Y1790409D02*
X3790794Y1668072D01*
X3657241Y1773341D02*
X3762510Y1668072D01*
X3646025Y1756273D02*
X3734226Y1668072D01*
X3690890Y1824545D02*
X3847363Y1668072D01*
X3679674Y1807477D02*
X3819079Y1668072D01*
X3597260Y1787065D02*
X3624008Y1813814D01*
X3609131Y1736599D02*
X3677657Y1668072D01*
X3579775Y1737670D02*
X3649373Y1668072D01*
X3991005Y1642472D02*
X3997683Y1649149D01*
X3849079Y1638072D02*
X4074812Y1412339D01*
X3877363Y1638072D02*
X4118057Y1397378D01*
X3793508Y1361059D02*
X4141531Y1709082D01*
X3792510Y1638072D02*
X4018199Y1412383D01*
X3708553Y1360957D02*
X3987412Y1639816D01*
X3764176Y1360011D02*
X4120301Y1716136D01*
X3736186Y1360305D02*
X4106150Y1730270D01*
X4044816Y1420010D02*
X4052448Y1419668D01*
X4059279Y1418193D01*
X4038058Y1419162D02*
X4044816Y1420010D01*
X4109478Y1399273D02*
X4139502Y1392640D01*
X4059279Y1418193D02*
X4109478Y1399273D01*
X3820794Y1638072D02*
X4039521Y1419345D01*
X4028220Y1416558D02*
X4038058Y1419162D01*
X3764226Y1638072D02*
X3998233Y1404065D01*
X3905647Y1638072D02*
X4152697Y1391023D01*
X3978436Y1395817D02*
X4028220Y1416558D01*
X3707657Y1638072D02*
X3957641Y1388089D01*
X3735941Y1638072D02*
X3978262Y1395752D01*
X3679373Y1638072D02*
X3936194Y1381251D01*
X3655597Y1364570D02*
X3929100Y1638072D01*
X3681663Y1362351D02*
X3957384Y1638072D01*
X3651088D02*
X3913818Y1375342D01*
X3591404Y1668072D02*
X3775735Y1852403D01*
X3622804Y1638072D02*
X3889937Y1370939D01*
X3633441Y1740573D02*
X3705941Y1668072D01*
X3629855Y1367112D02*
X3900816Y1638072D01*
X3594520D02*
X3865759Y1366833D01*
X3946720Y1384030D02*
X3978436Y1395817D01*
X3910791Y1374543D02*
X3946720Y1384030D01*
X3866735Y1366929D02*
X3910791Y1374543D01*
X3815162Y1361833D02*
X3866735Y1366929D01*
X3758001Y1359791D02*
X3815162Y1361833D01*
X3580972Y1374797D02*
X3844247Y1638072D01*
X3605317Y1370858D02*
X3872531Y1638072D01*
X3583784Y1374145D02*
X3635047Y1366319D01*
X3694002Y1361300D02*
X3758001Y1359791D01*
X3635047Y1366319D02*
X3694002Y1361300D01*
X3526143Y1876155D02*
X3609921Y1792377D01*
X3569972Y1788061D02*
X3647596Y1865686D01*
X3453409Y1864036D02*
X3527846Y1789599D01*
X3563120Y1668072D02*
X3734395Y1839348D01*
X3457062Y1792182D02*
X3606216Y1786738D01*
X3501239Y1872774D02*
X3586558Y1787456D01*
X3425977Y1813772D02*
X3487416Y1875212D01*
X3440151Y1799662D02*
X3511461Y1870972D01*
X3433436Y1827440D02*
X3469135Y1791741D01*
X3443422Y1845738D02*
X3498491Y1790670D01*
X3375717Y1772023D02*
X3479667Y1668072D01*
X3521064Y1739813D02*
X3592804Y1668072D01*
X3506551D02*
X3576277Y1737798D01*
X3478267Y1668072D02*
X3548988Y1738794D01*
X3550419Y1738741D02*
X3621088Y1668072D01*
X3534836D02*
X3603565Y1736802D01*
X3450434Y1742390D02*
X3618464Y1736258D01*
X3462352Y1741956D02*
X3536235Y1668072D01*
X3449983D02*
X3521700Y1739790D01*
X3423804Y1752220D02*
X3507951Y1668072D01*
X3421698D02*
X3494412Y1740785D01*
X3353111Y1825759D02*
X3402525Y1875174D01*
X3423450Y1809142D02*
X3427203Y1805389D01*
X3308996Y1832062D02*
X3373934Y1822785D01*
X3422530Y1807456D02*
X3457062Y1792182D01*
X3309720Y1781451D02*
X3423098Y1668072D01*
X3298224Y1783093D02*
X3380614Y1771323D01*
X3265589Y1797297D02*
X3394814Y1668072D01*
X3211849Y1822753D02*
X3366530Y1668072D01*
X3195424D02*
X3308917Y1781565D01*
X3380614Y1771323D02*
X3441234Y1744511D01*
X3393414Y1668072D02*
X3467123Y1741781D01*
X3365130Y1668072D02*
X3441466Y1744409D01*
X3251992Y1668072D02*
X3358414Y1774494D01*
X3308561Y1668072D02*
X3402244Y1761756D01*
X3223708Y1668072D02*
X3333666Y1778030D01*
X3342718Y1776737D02*
X3451383Y1668072D01*
X3336845D02*
X3421855Y1753082D01*
X3535499Y1385893D02*
X3787678Y1638072D01*
X3558013Y1380122D02*
X3815963Y1638072D01*
X3514192Y1392870D02*
X3759394Y1638072D01*
X3537951D02*
X3814224Y1361799D01*
X3566235Y1638072D02*
X3840019Y1364289D01*
X3509667Y1638072D02*
X3786916Y1360824D01*
X3474380Y1409626D02*
X3702826Y1638072D01*
X3493992Y1400955D02*
X3731110Y1638072D01*
X3491708Y1740884D02*
X3564520Y1668072D01*
X3481383Y1638072D02*
X3759607Y1359848D01*
X3453098Y1638072D02*
X3730737Y1360434D01*
X3435154Y1426969D02*
X3646257Y1638072D01*
X3454767Y1418298D02*
X3674541Y1638072D01*
X3414643Y1434742D02*
X3617973Y1638072D01*
X3424814D02*
X3701769Y1361117D01*
X3541244Y1384011D02*
X3583784Y1374145D01*
X3387831Y1436215D02*
X3589688Y1638072D01*
X3339961D02*
X3607510Y1370523D01*
X3311677Y1638072D02*
X3573134Y1376615D01*
X3396530Y1638072D02*
X3671375Y1363227D01*
X3368245Y1638072D02*
X3640459Y1365859D01*
X3319399Y1424352D02*
X3533120Y1638072D01*
X3352312Y1428980D02*
X3561404Y1638072D01*
X3280277Y1668072D02*
X3382634Y1770429D01*
X3289847Y1423084D02*
X3504836Y1638072D01*
X3283392D02*
X3535608Y1385857D01*
X3261806Y1423327D02*
X3476551Y1638072D01*
X3209539Y1427629D02*
X3419983Y1638072D01*
X3235672Y1425478D02*
X3448267Y1638072D01*
X3198540D02*
X3399560Y1437052D01*
X3255108Y1638072D02*
X3490825Y1402355D01*
X3226824Y1638072D02*
X3440125Y1424771D01*
X3402795Y1437064D02*
X3415226Y1434628D01*
X3432934Y1427951D01*
X3391800Y1437023D02*
X3402795Y1437064D01*
X3506808Y1395289D02*
X3541244Y1384011D01*
X3432934Y1427951D02*
X3506808Y1395289D01*
X3366538Y1431878D02*
X3391800Y1437023D01*
X3339054Y1426279D02*
X3366538Y1431878D01*
X3207310Y1427812D02*
X3264358Y1423117D01*
X3306252Y1423062D02*
X3339054Y1426279D01*
X3264358Y1423117D02*
X3306252Y1423062D01*
X3158095Y3356086D02*
X3781648Y3979639D01*
X3183376Y3353083D02*
X3806774Y3976481D01*
X3148260Y3965056D02*
X3197587Y3972330D01*
X3190678Y3332100D02*
X3952643Y4094065D01*
X3144744Y3229598D02*
X3973317Y4058171D01*
X3144744Y3257882D02*
X3962812Y4075950D01*
X3017882Y3215873D02*
X3148622Y3346613D01*
X3045522Y3945552D02*
X3148260Y3965056D01*
X2983834Y3210109D02*
X3762708Y3988983D01*
X2952483Y3207042D02*
X3748111Y4002670D01*
X3144744Y3286166D02*
X3172609Y3314031D01*
X3144744Y3291145D02*
X3167295Y3313696D01*
X3144744Y3215482D02*
Y3291145D01*
X3119144Y3307971D02*
X3146082Y3334909D01*
X3107016Y3191999D02*
X3134515Y3201261D01*
X3112296Y3225433D02*
X3114744Y3227882D01*
Y3226258D02*
Y3297358D01*
X3052220Y3221926D02*
X3114744Y3284451D01*
X3086559Y3227981D02*
X3114744Y3256166D01*
X3100246Y3230395D02*
X3101747Y3221881D01*
X3114744Y3226258D01*
X3049864Y3219570D02*
X3052220Y3221926D01*
X3049532Y3221452D02*
X3100246Y3230395D01*
X2995252Y3211882D02*
X3045966Y3220825D01*
X3013678Y3944450D02*
X3045522Y3945552D01*
X3049532Y3221452D02*
X3059158Y3166861D01*
X3045966Y3220825D02*
X3055592Y3166234D01*
X3107016Y3191999D02*
X3109872Y3175804D01*
X3055218Y3168356D02*
X3058343Y3171481D01*
X3050978Y3192400D02*
X3054104Y3195526D01*
X3059158Y3166861D02*
X3109872Y3175804D01*
X3052561Y3165699D02*
X3055218Y3168356D01*
X3046738Y3216445D02*
X3049864Y3219570D01*
X3049383Y3201443D02*
X3053847Y3196980D01*
X2935225Y3205354D02*
X2995366Y3211237D01*
X3004878Y3157291D02*
X3055592Y3166234D01*
X2960882Y3157625D02*
X3004074Y3161850D01*
X3150568Y3094000D02*
X4025803Y3969235D01*
X3176970Y3092118D02*
X4035169Y3950316D01*
X3122284Y3094000D02*
X4016438Y3988155D01*
X3185390Y3970531D02*
X4368544Y2787376D01*
X3160740Y3966896D02*
X4180814Y2946822D01*
X3136524Y3962828D02*
X4128786Y2970566D01*
X2963615Y2991900D02*
X3994948Y4023233D01*
X2967740Y2967741D02*
X4005935Y4005936D01*
X2959490Y3016060D02*
X3983971Y4040540D01*
X3112756Y3958316D02*
X4115883Y2955189D01*
X3088984Y3953803D02*
X4108797Y2933990D01*
X3156115Y2929841D02*
X4139204Y3912930D01*
X3176851Y2922293D02*
X4160818Y3906260D01*
X3189618Y3344052D02*
X3529624Y3004046D01*
X3117852Y2241039D02*
X4796546Y3919733D01*
X3186956Y2904113D02*
X4182142Y3899300D01*
X3065213Y3949290D02*
X4088585Y2925918D01*
X3013483Y3944452D02*
X4145725Y2812210D01*
X3040829Y3945389D02*
X4075512Y2910706D01*
X3105613Y2257084D02*
X4765880Y3917351D01*
X2984954Y3944696D02*
X4144473Y2785177D01*
X3184792Y3320593D02*
X3471146Y3034239D01*
X3165350Y3311751D02*
X3436207Y3040894D01*
X3151208Y3297609D02*
X3421366Y3027451D01*
X3144744Y3275788D02*
X3468107Y2952425D01*
X3144744Y3219220D02*
X3473955Y2890009D01*
X3144744Y3247504D02*
X3452728Y2939520D01*
X3134443Y3201237D02*
X3489434Y2846246D01*
X3080247Y3170580D02*
X3156827Y3094000D01*
X2955366Y3040219D02*
X3086899Y3171753D01*
X3113285Y3194111D02*
X3473217Y2834179D01*
X3104292Y3174820D02*
X3452004Y2827108D01*
X3055438Y3167104D02*
X3128543Y3094000D01*
X3032157Y3162101D02*
X3102363Y3091896D01*
X3004074Y3161850D02*
X3004878Y3157291D01*
X3008112Y3157862D02*
X3085483Y3080491D01*
X2978355Y3159334D02*
X3076495Y3061195D01*
X2953686Y3066824D02*
X3052561Y3165699D01*
X2956121Y3097543D02*
X3018222Y3159644D01*
X2958555Y3128262D02*
X2990850Y3160557D01*
X2960214Y3149192D02*
X3076000Y3033405D01*
X2952779Y3055371D02*
X2960882Y3157625D01*
X2930004Y3835102D02*
X3040272Y3945370D01*
X2913951Y3945304D02*
X3013678Y3944450D01*
X2930004Y3863386D02*
X3011090Y3944472D01*
X2650532Y3883138D02*
X3176438Y3357232D01*
X2631138Y3874248D02*
X3152980Y3352406D01*
X2930004Y3806818D02*
X3074178Y3950992D01*
X2552752Y3288145D02*
X3239858Y3975250D01*
X2536014Y3299691D02*
X3209474Y3973151D01*
X2509191Y3301152D02*
X3177391Y3969352D01*
X2557388Y3236212D02*
X3295396Y3974220D01*
X2562569Y3269677D02*
X3268136Y3975244D01*
X2611743Y3865358D02*
X3144137Y3332964D01*
X2592349Y3856468D02*
X3129995Y3318822D01*
X2573037Y3847496D02*
X3116374Y3304158D01*
X2534608Y3829356D02*
X3114744Y3249220D01*
X2553823Y3838426D02*
X3114744Y3277504D01*
X2515394Y3820286D02*
X3110763Y3224917D01*
X2496592Y3810803D02*
X3080485Y3226910D01*
X2478189Y3800922D02*
X3056441Y3222671D01*
X2460462Y3790365D02*
X3032395Y3218432D01*
X2443190Y3779353D02*
X3008351Y3214192D01*
X2890049Y3880000D02*
X2955002Y3944953D01*
X2918334Y3880000D02*
X2983046Y3944712D01*
X2865727Y3940251D02*
X2913951Y3945304D01*
X2861765Y3880000D02*
X2926958Y3945193D01*
X2850532Y3937697D02*
X2908228Y3880000D01*
X2826318Y3933626D02*
X2879944Y3880000D01*
X2808571Y3930643D02*
X2865727Y3940251D01*
X2802410Y3929250D02*
X2851660Y3880000D01*
X2749873Y3917372D02*
X2808571Y3930643D01*
X2365478Y3411998D02*
X2897009Y3943529D01*
X2188133Y3262937D02*
X2865390Y3940194D01*
X2930004Y3800013D02*
Y3880000D01*
X2850017D02*
X2930004D01*
X2779341Y3924034D02*
X2850017Y3853359D01*
Y3800013D02*
X2930004D01*
X2850017D02*
Y3880000D01*
X2420881Y3439117D02*
X2850017Y3868252D01*
X2433786Y3423737D02*
X2850017Y3839968D01*
X2756273Y3918819D02*
X2850017Y3825075D01*
X2459596Y3392978D02*
X2866631Y3800013D01*
X2446691Y3408358D02*
X2850017Y3811683D01*
X2921132Y3203975D02*
X3737724Y4020568D01*
X2730297Y3182847D02*
X3485473Y3938023D01*
X2690490Y3171323D02*
X3464997Y3945831D01*
X2610875Y3148277D02*
X3418171Y3955574D01*
X2650682Y3159800D02*
X3442162Y3951280D01*
X2571067Y3136754D02*
X3393616Y3959303D01*
X2491452Y3113707D02*
X3344506Y3966762D01*
X2531260Y3125230D02*
X3369061Y3963032D01*
X2317299Y3137545D02*
X3144003Y3964248D01*
X2451644Y3102184D02*
X3319951Y3970491D01*
X1995868Y2844398D02*
X3109090Y3957620D01*
X2889781Y3200909D02*
X3603097Y3914225D01*
X2858430Y3197842D02*
X3572932Y3912344D01*
X2827079Y3194775D02*
X3543500Y3911197D01*
X2795727Y3191708D02*
X3522428Y3918408D01*
X2764376Y3188641D02*
X3503950Y3928216D01*
X2426620Y3767639D02*
X2984121Y3210137D01*
X2410573Y3755401D02*
X2958357Y3207617D01*
X2394881Y3742809D02*
X2932593Y3205097D01*
X2745482Y3186793D02*
X2935135Y3205345D01*
X1997598Y2874412D02*
X2923199Y3800013D01*
X2379929Y3729477D02*
X2906829Y3202576D01*
X2901063Y3151774D02*
X2909586Y3143251D01*
X2364977Y3716144D02*
X2881065Y3200056D01*
X2902689Y3056212D02*
X2910334Y3152681D01*
X2752604Y3137251D02*
X2910334Y3152681D01*
X2609022Y2863581D02*
X2896797Y3151356D01*
X2350824Y3702013D02*
X2855301Y3197536D01*
X2336825Y3687727D02*
X2829537Y3195015D01*
X2322872Y3673397D02*
X2803773Y3192495D01*
X2000333Y2905431D02*
X2894915Y3800013D01*
X2061793Y3164881D02*
X2831390Y3934479D01*
X2875299Y3149253D02*
X2907509Y3117043D01*
X2849535Y3146733D02*
X2905432Y3090836D01*
X2823771Y3144213D02*
X2903356Y3064628D01*
X2772243Y3139172D02*
X2911528Y2999887D01*
X2798007Y3141693D02*
X2905705Y3033995D01*
X2586269Y2897397D02*
X2834095Y3145223D01*
X2747389Y3135742D02*
X2917351Y2965780D01*
X2565282Y2904695D02*
X2802744Y3142156D01*
X2602061Y2828336D02*
X2908950Y3135225D01*
X2600768Y2883612D02*
X2865446Y3148290D01*
X3190491Y2975483D02*
X3244935Y2921039D01*
X3171195Y2966495D02*
X3230793Y2906897D01*
X3143405Y2966000D02*
X3206756Y2902649D01*
X3115000Y3094000D02*
X3165000D01*
X3115000Y2966000D02*
X3165000D01*
X3139578Y2935860D02*
X3187969Y2918247D01*
X3183349Y2905554D02*
X3187969Y2918247D01*
X3135378Y2937389D02*
X3163990Y2966000D01*
X3183349Y2905554D02*
X3190620Y2902649D01*
X3226546D01*
X3173084Y2877349D02*
X3182170Y2873720D01*
X3115121Y2966000D02*
X3148514Y2932607D01*
X3087784Y2954711D02*
X3136175Y2937099D01*
X3114641Y2944936D02*
X3135705Y2966000D01*
X3120619Y2883769D02*
X3139578Y2935860D01*
X3117216Y2885008D02*
X3136175Y2937099D01*
X3076000Y3005000D02*
Y3055000D01*
X2971865Y2943581D02*
X3076000Y3047716D01*
X2979481Y2922914D02*
X3076000Y3019432D01*
X2961048Y3006936D02*
X3065778Y2902206D01*
X2956060Y3096777D02*
X3104043Y2948794D01*
X2953983Y3070569D02*
X3082996Y2941556D01*
X2958137Y3122984D02*
X3076000Y3005121D01*
X2955225Y3041043D02*
X3075182Y2921086D01*
X2952779Y3055371D02*
X2974552Y2927843D01*
X3130721Y2922115D02*
X3133547Y2919289D01*
X3123174Y2901379D02*
X3126000Y2898553D01*
X3093905Y2952484D02*
X3108046Y2966625D01*
X3120611Y2894337D02*
X3126671Y2900397D01*
X3113707Y2886285D02*
X3117216Y2885008D01*
X3007766Y2894629D02*
X3089036Y2975899D01*
X3076534Y2923802D02*
X3087784Y2954711D01*
X2993624Y2908771D02*
X3077882Y2993030D01*
X3021908Y2880487D02*
X3083007Y2941586D01*
X2966871Y2972828D02*
X3056374Y2883325D01*
X3187735Y2872649D02*
X3232759D01*
X3167300Y2799605D02*
X3280153Y2912458D01*
X3177086Y2875750D02*
X3255896Y2796941D01*
X3169010Y2866157D02*
X3173084Y2877349D01*
X3120458Y2809331D02*
X3184199Y2873072D01*
X3139842Y2800431D02*
X3212060Y2872649D01*
X3120619Y2883769D02*
X3169010Y2866157D01*
X3152322Y2872230D02*
X3226735Y2797818D01*
X3112469Y2883799D02*
X3197573Y2798695D01*
X3138157Y2800482D02*
X3352763Y2794027D01*
X3131161Y2750669D02*
X3355691Y2743917D01*
X3156565Y2619164D02*
X3283489Y2746088D01*
X3189449Y2595479D02*
X3338406Y2744436D01*
X3175530Y2609845D02*
X3310948Y2745262D01*
X3101602Y2818759D02*
X3154339Y2871496D01*
X3103065Y2864919D02*
X3168412Y2799572D01*
X3093661Y2846038D02*
X3139251Y2800449D01*
X3129727Y2620610D02*
X3256031Y2746914D01*
X3043972Y2858423D02*
X3076534Y2923802D01*
X3086780Y2832222D02*
X3133602Y2879044D01*
X3036050Y2866345D02*
X3059692Y2889987D01*
X3084367Y2827377D02*
X3138157Y2800482D01*
X3039680Y2793818D02*
X3120721Y2753298D01*
X3084367Y2827377D02*
X3113707Y2886285D01*
X2972695Y2938721D02*
X3046971Y2864445D01*
X2974552Y2927843D02*
X3043972Y2858423D01*
X2991666Y2454265D02*
X3082332Y2544931D01*
X3000679Y2434994D02*
X3091651Y2525966D01*
X2939515Y2345545D02*
X3106017Y2512047D01*
X2947062Y2324808D02*
X3125523Y2503269D01*
X2947062Y2324808D02*
X3125523Y2503269D01*
X2946416Y2399313D02*
X3087809Y2257920D01*
X2902971Y3050005D02*
X2926600Y2911609D01*
X2933570Y2898114D02*
X3033183Y2798501D01*
X2848995Y2892714D02*
X3122747Y2618962D01*
X2855331Y2742195D02*
X2972410Y2859274D01*
X2818142Y2761574D02*
X2944126Y2887558D01*
X2841346Y2756494D02*
X2958268Y2873416D01*
X2789858Y2761574D02*
X2930352Y2902068D01*
X2659650Y3110343D02*
X3149209Y2620785D01*
X2843579Y2869846D02*
X3103960Y2609466D01*
X2860000Y2690295D02*
X3000695Y2830990D01*
X2859157Y2661168D02*
X3014837Y2816847D01*
X2860000Y2718579D02*
X2986552Y2845132D01*
X2831506Y2853635D02*
X3090192Y2594949D01*
X2939094Y2429977D02*
X3080886Y2571769D01*
X2813984Y2842873D02*
X3081599Y2575257D01*
X2788788Y2839785D02*
X3081846Y2546726D01*
X2799008Y2631574D02*
X2972571Y2458011D01*
X2770724Y2631574D02*
X2957435Y2444863D01*
X2568283Y2805731D02*
X2942166Y2431847D01*
X2825113Y2938250D02*
X2907914Y3021052D01*
X2847866Y2904435D02*
X2916164Y2972733D01*
X2845172Y2873457D02*
X2920289Y2948574D01*
X2839362Y2924216D02*
X2912039Y2996893D01*
X2725455Y3129392D02*
X2923175Y2931672D01*
X2773063Y2942769D02*
X2904081Y3073788D01*
X2805059Y2946481D02*
X2903790Y3045212D01*
X2433889Y2631880D02*
X2906516Y3104506D01*
X2506107Y3065897D02*
X2810430Y2761574D01*
X2860000Y2669074D02*
Y2724074D01*
X2767500Y2631574D02*
X2822500D01*
X2761007Y2761008D02*
X2924414Y2924414D01*
X2767500Y2761574D02*
X2822500D01*
X2532899Y2812831D02*
X2924585Y2421145D01*
X2494825Y2523110D02*
X2814969Y2843254D01*
X2710215Y2342520D02*
X3120903Y2753208D01*
X2893266Y2412434D02*
X3228572Y2747740D01*
X2914281Y2414872D02*
X2956089Y2440323D01*
X2752912Y2328648D02*
X3173655Y2749392D01*
X2774261Y2321713D02*
X3201114Y2748566D01*
X2731564Y2335584D02*
X3146197Y2750217D01*
X2624820Y2370262D02*
X3045478Y2790920D01*
X2646169Y2363326D02*
X3064334Y2781492D01*
X2603471Y2377198D02*
X3028979Y2802705D01*
X2688866Y2349455D02*
X3102046Y2762635D01*
X2667517Y2356391D02*
X3083190Y2772063D01*
X2924746Y2386121D02*
X2971688Y2414697D01*
X2931967Y2366282D02*
X2979450Y2413764D01*
X2924746Y2386121D02*
X2930220Y2371082D01*
X2928835Y2388610D02*
X3074174Y2243271D01*
X2931459Y2367679D02*
X2949072Y2319288D01*
X2878129Y2352123D02*
X2930220Y2371082D01*
X2921318Y2367843D02*
X2924144Y2365017D01*
X2912607Y2419473D02*
X2914281Y2414872D01*
X2896981Y2300329D02*
X2949072Y2319288D01*
X2879369Y2348720D02*
X2931459Y2367679D01*
X2349338Y2968107D02*
X2901877Y2415568D01*
X2860517Y2400514D02*
X2912607Y2419473D01*
X2333204Y2955957D02*
X2881140Y2408020D01*
X2582123Y2384133D02*
X2830407Y2632417D01*
X2860517Y2400514D02*
X2878129Y2352123D01*
X2365500Y2753955D02*
X2801614Y2317841D01*
X2313364Y2919228D02*
X2876790Y2355802D01*
X2330236Y2874072D02*
X2863051Y2341257D01*
X2317070Y2943807D02*
X2860604Y2400272D01*
X2330236Y2845787D02*
X2842572Y2333452D01*
X2329469Y2818271D02*
X2822093Y2325646D01*
X2900581Y2360295D02*
X2903407Y2357469D01*
X2889985Y2352584D02*
X2896045Y2358644D01*
X2876790Y2355802D02*
X2879845Y2352747D01*
X2882671Y2349921D01*
X2842566Y2333449D02*
X2873622Y2364506D01*
X2794511Y2315134D02*
X2879766Y2347627D01*
X2822783Y2272401D02*
X2896869Y2300637D01*
X2796863Y2316031D02*
X2866075Y2385242D01*
X2828294Y2234325D02*
X2893213Y2299244D01*
X2824718Y2259033D02*
X2847511Y2281825D01*
X2700978Y3902762D02*
X2749873Y3917372D01*
X2653571Y3884531D02*
X2700978Y3902762D01*
X2581743Y3851606D02*
X2653571Y3884531D01*
X2505948Y3815826D02*
X2581743Y3851606D01*
X2309723Y3658261D02*
X2778009Y3189975D01*
X2296575Y3643125D02*
X2752245Y3187455D01*
X2448282Y3378280D02*
X2524119Y3302443D01*
X2283426Y3627989D02*
X2728957Y3182459D01*
X2447745Y3407102D02*
X2685087Y3169760D01*
X2563715Y3262847D02*
X2663152Y3163410D01*
X2559075Y3239203D02*
X2641218Y3157060D01*
X2546048Y3223946D02*
X2619283Y3150711D01*
X2444064Y3099990D02*
X2740920Y3185922D01*
X2525814Y3215896D02*
X2597348Y3144361D01*
X2470782Y3796944D02*
X2505948Y3815826D01*
X2435806Y3774645D02*
X2470782Y3796944D01*
X2399715Y3747120D02*
X2435806Y3774645D01*
X2401599Y3339108D02*
X2462159Y3389924D01*
X2432903Y3365375D02*
X2500475Y3297803D01*
X2411343Y3450483D02*
X2462159Y3389924D01*
X2362561Y3713990D02*
X2399715Y3747120D01*
X2323564Y3674194D02*
X2362561Y3713990D01*
X2281979Y3626324D02*
X2323564Y3674194D01*
X2350784Y3399668D02*
X2411343Y3450483D01*
X2350784Y3399668D02*
X2401599Y3339108D01*
X2417524Y3352470D02*
X2485218Y3284776D01*
X2402144Y3339565D02*
X2477168Y3264542D01*
X2342275Y3134236D02*
X2478279Y3270240D01*
X2358215Y3121891D02*
X2479739Y3243416D01*
X2396373Y3345336D02*
X2402144Y3339565D01*
X2367117Y3102509D02*
X2491286Y3226678D01*
X2637716Y3103994D02*
X2794288Y2947421D01*
X2615781Y3097644D02*
X2771420Y2942006D01*
X2462383Y3053240D02*
X2752604Y3137251D01*
X2372954Y2740650D02*
X2771393Y3139089D01*
X2593846Y3091295D02*
X2755209Y2929932D01*
X2571911Y3084945D02*
X2744447Y2912410D01*
X2342486Y2795035D02*
X2657038Y3109587D01*
X2332330Y2813164D02*
X2617230Y3098064D01*
X2330236Y2839354D02*
X2577423Y3086541D01*
X2362798Y2758778D02*
X2736653Y3132634D01*
X2352642Y2776907D02*
X2696845Y3121110D01*
X2549977Y3078596D02*
X2741358Y2887214D01*
X2484172Y3059547D02*
X2782145Y2761574D01*
X2462276Y3053159D02*
X2755750Y2759686D01*
X2430008Y3028859D02*
X2554179Y2904687D01*
X2444045Y2613752D02*
X2745657Y2915363D01*
X2446142Y3041009D02*
X2738864Y2748287D01*
X2367709Y3091158D02*
X2394304Y3064563D01*
X2360376Y3070207D02*
X2378170Y3052413D01*
X2359618Y3038441D02*
X2543218Y3222042D01*
X2330236Y2867638D02*
X2537615Y3075017D01*
X2345652Y3056646D02*
X2362035Y3040262D01*
X2325497Y2891183D02*
X2497808Y3063494D01*
X2413874Y3016708D02*
X2533214Y2897368D01*
X2397740Y3004558D02*
X2518729Y2883568D01*
X2322933Y3051081D02*
X2345901Y3028112D01*
X2365472Y2980258D02*
X2517595Y2828135D01*
X2381606Y2992408D02*
X2510495Y2863519D01*
X2316333Y2943252D02*
X2462383Y3053240D01*
X2311687Y2905658D02*
X2449771Y3043742D01*
X2315675Y2937930D02*
X2335220Y2957475D01*
X2311342Y2902869D02*
X2316333Y2943252D01*
X2181753Y3482831D02*
X2522617Y3823695D01*
X2234438Y3563801D02*
X2461952Y3791315D01*
X2258680Y3596167D02*
X2407548Y3447299D01*
X2149991Y3422785D02*
X2576191Y3848985D01*
X2271008Y3612123D02*
X2707022Y3176109D01*
X2246352Y3580211D02*
X2392169Y3434394D01*
X2101369Y3289311D02*
X2720719Y3908661D01*
X2114562Y3330787D02*
X2677512Y3893738D01*
X2129937Y3374447D02*
X2628554Y3873064D01*
X2074985Y3206358D02*
X2796553Y3927926D01*
X2088177Y3247834D02*
X2760006Y3919663D01*
X2211371Y3530338D02*
X2396373Y3345336D01*
X2249005Y3238956D02*
X2377672Y3367623D01*
X2234454Y3563824D02*
X2376789Y3421489D01*
X2200118Y3513308D02*
X2575413Y3138012D01*
X2189482Y3495659D02*
X2553479Y3131662D01*
X2178847Y3478009D02*
X2531544Y3125313D01*
X2168801Y3459771D02*
X2509609Y3118963D01*
X2159189Y3441099D02*
X2487674Y3112614D01*
X2149760Y3422244D02*
X2465740Y3106264D01*
X2141291Y3402428D02*
X2443806Y3099913D01*
X2240770Y3572986D02*
X2281979Y3626324D01*
X2203495Y3518913D02*
X2240770Y3572986D01*
X2174335Y3470522D02*
X2203495Y3518913D01*
X2222913Y3547081D02*
X2361410Y3408584D01*
X2239190Y3257426D02*
X2364767Y3383003D01*
X2221678Y3268198D02*
X2351862Y3398382D01*
X2151117Y3425419D02*
X2174335Y3470522D01*
X2132776Y3382502D02*
X2151117Y3425419D01*
X2114638Y3331028D02*
X2132776Y3382502D01*
X2125447Y3361704D02*
X2218063Y3269088D01*
X2118078Y3340789D02*
X2193060Y3265806D01*
X2245940Y3212927D02*
X2320888Y3137979D01*
X2232843Y3197739D02*
X2299936Y3130646D01*
X2211508Y3190790D02*
X2286376Y3115922D01*
X2110998Y3319584D02*
X2177873Y3252709D01*
X2104173Y3298125D02*
X2170923Y3231375D01*
X2048600Y3123404D02*
X2177802Y3252606D01*
X2042926Y3105566D02*
X2114638Y3331028D01*
X2132823Y3382613D02*
X2426572Y3088863D01*
X2249221Y3237930D02*
X2410438Y3076713D01*
X2097348Y3276666D02*
X2280811Y3093203D01*
X2090522Y3255207D02*
X2329767Y3015962D01*
X2083697Y3233748D02*
X2313633Y3003811D01*
X2076872Y3212289D02*
X2297499Y2991661D01*
X2010223Y2971890D02*
X2390577Y3352244D01*
X2070046Y3190830D02*
X2281365Y2979511D01*
X2063221Y3169371D02*
X2268806Y2963786D01*
X1998880Y2705988D02*
X2509753Y3216861D01*
X2004923Y2938306D02*
X2427243Y3360626D01*
X2277783Y2976813D02*
X2435976Y3095946D01*
X2261225Y2905000D02*
X2268006Y2959863D01*
X1995049Y2787010D02*
X2284666Y3076627D01*
X1995903Y2759579D02*
X2297011Y3060688D01*
X1995109Y2815354D02*
X2281358Y3101603D01*
X1996774Y2732167D02*
X2316393Y3051786D01*
X2000985Y2679809D02*
X2266168Y2944991D01*
X2056395Y3147912D02*
X2265414Y2938894D01*
X2049570Y3126453D02*
X2262303Y2913721D01*
X2036957Y3083477D02*
X2172541Y3219061D01*
X2042766Y3104973D02*
X2246216Y2901523D01*
X2036749Y3082706D02*
X2232654Y2886800D01*
X2030731Y3060439D02*
X2230236Y2860935D01*
X2026482Y3044718D02*
X2183314Y3201549D01*
X2017881Y3007832D02*
X2201783Y3191734D01*
X2022975Y3031739D02*
X2042926Y3105566D01*
X2024714Y3038173D02*
X2230336Y2832550D01*
X2009534Y2968656D02*
X2022975Y3031739D01*
X2253751Y2904291D02*
X2262179Y2912719D01*
X2019442Y3015160D02*
X2222830Y2811772D01*
X2014474Y2991843D02*
X2209684Y2796634D01*
X2009513Y2968520D02*
X2196537Y2781496D01*
X2000892Y2911771D02*
X2009534Y2968656D01*
X2005783Y2943966D02*
X2183391Y2766358D01*
X1996254Y2859165D02*
X2000892Y2911771D01*
X2002053Y2919412D02*
X2170245Y2751220D01*
X1999314Y2893867D02*
X2159010Y2734170D01*
X2609451Y2849415D02*
X2730273Y2728593D01*
X2602132Y2828450D02*
X2730000Y2700582D01*
X2588332Y2813965D02*
X2730000Y2672298D01*
X2474513Y2559367D02*
X2764210Y2849064D01*
X2484669Y2541238D02*
X2783991Y2840560D01*
X2464357Y2577495D02*
X2750176Y2863313D01*
X2393266Y2704394D02*
X2517367Y2828495D01*
X2403421Y2686265D02*
X2531152Y2813996D01*
X2383110Y2722522D02*
X2510070Y2849482D01*
X2454201Y2595624D02*
X2741945Y2883367D01*
X2423733Y2650008D02*
X2586428Y2812703D01*
X2730000Y2669074D02*
Y2724074D01*
X2555761Y2414340D02*
X2772995Y2631574D01*
X2565917Y2396212D02*
X2801279Y2631574D01*
X2545605Y2432468D02*
X2749379Y2636243D01*
X2504981Y2504982D02*
X2730566Y2730567D01*
X2515137Y2486854D02*
X2730000Y2701716D01*
X2413577Y2668137D02*
X2551183Y2805742D01*
X2535449Y2450597D02*
X2735080Y2650228D01*
X2525293Y2468725D02*
X2730000Y2673432D01*
X2327389Y2525379D02*
X2397157Y2595147D01*
X2330236Y2835000D02*
Y2875000D01*
X2367172Y2480310D02*
X2427624Y2540762D01*
X2377917Y2462771D02*
X2437780Y2522634D01*
X2348731Y2490153D02*
X2417468Y2558891D01*
X2314593Y2569152D02*
X2376845Y2631404D01*
X2326675Y2552950D02*
X2387001Y2613276D01*
X2294619Y2577463D02*
X2366689Y2649532D01*
X2321835Y2514776D02*
X2345930Y2490682D01*
X2372422Y2428991D02*
X2447936Y2504506D01*
X2402499Y2402499D02*
X2468248Y2468249D01*
X2371807Y2400092D02*
X2458092Y2486377D01*
X2375033Y2433295D02*
X2408282Y2400046D01*
X2306184Y2502144D02*
X2321693Y2486635D01*
X2280107Y2499936D02*
X2306874Y2473169D01*
X2361567Y2418476D02*
X2377533Y2402510D01*
X2473594Y2561008D02*
X2683357Y2351245D01*
X2509625Y2496693D02*
X2641462Y2364856D01*
X2545656Y2432377D02*
X2599568Y2378466D01*
X2437562Y2625324D02*
X2725252Y2337635D01*
X2570584Y2387882D02*
X2794511Y2315134D01*
X2434744Y2321607D02*
X2508872Y2395736D01*
X2327322Y2822102D02*
X2570584Y2387882D01*
X2279591Y2805000D02*
X2531717Y2354957D01*
X2428851Y2372283D02*
X2488560Y2431992D01*
X2401531Y2689639D02*
X2767147Y2324024D01*
X2346235Y2261382D02*
X2498716Y2413864D01*
X2545875Y2343337D02*
X2772659Y2269661D01*
X2761227Y2273375D02*
X2773965Y2260637D01*
X2485638Y2231080D02*
X2585139Y2330581D01*
X2474562Y2304857D02*
X2529184Y2359479D01*
X2483019Y2285030D02*
X2542631Y2344641D01*
X2458987Y2317566D02*
X2519028Y2377607D01*
X2473212Y2250262D02*
X2492215Y2231260D01*
X2419544Y2391260D02*
X2478404Y2450121D01*
X2339683Y2412076D02*
X2360476Y2391283D01*
X2416283Y2335476D02*
X2430814Y2320945D01*
X2294892Y2351461D02*
X2362611Y2419180D01*
X2284623Y2369477D02*
X2328831Y2413685D01*
X2274355Y2387493D02*
X2311292Y2424430D01*
X2305160Y2333445D02*
X2354908Y2383193D01*
X2315429Y2315430D02*
X2352501Y2352501D01*
X2397319Y2326156D02*
X2411865Y2311610D01*
X2335966Y2279398D02*
X2382717Y2326149D01*
X2325697Y2297414D02*
X2363740Y2335456D01*
X2356503Y2243366D02*
X2396791Y2283654D01*
X2260236Y2805000D02*
X2279591D01*
X2257786Y2805100D02*
X2307242Y2755645D01*
X2244095Y2790507D02*
X2343273Y2691329D01*
X2188926Y2726978D02*
X2256848Y2805192D01*
X2188926Y2726328D02*
X2267598Y2805000D01*
X2188926Y2698044D02*
X2285441Y2794559D01*
X2162601Y2742417D02*
X2232687Y2823123D01*
X2188926Y2669760D02*
X2295597Y2776431D01*
X2009363Y2603334D02*
X2231718Y2825689D01*
X2230949Y2775369D02*
X2379304Y2627013D01*
X2188926Y2613191D02*
X2315909Y2740174D01*
X2188926Y2641475D02*
X2305753Y2758302D01*
X2217803Y2760230D02*
X2415336Y2562698D01*
X2192207Y2531619D02*
X2346377Y2685789D01*
X2188926Y2584907D02*
X2326065Y2722046D01*
X2188926Y2675970D02*
X2287258Y2577638D01*
X2188926Y2647686D02*
X2266570Y2570041D01*
X2188926Y2556622D02*
X2336221Y2703917D01*
X2188926Y2619402D02*
X2253938Y2554390D01*
X2230236Y2835000D02*
Y2875000D01*
X1997022Y2867874D02*
X2158926Y2705970D01*
X2003220Y2653760D02*
X2230945Y2881485D01*
X2006292Y2628547D02*
X2230236Y2852491D01*
X1996022Y2755737D02*
X2158926Y2592833D01*
X1995775Y2840837D02*
X2158926Y2677686D01*
X1994679Y2798915D02*
X1996744Y2732550D01*
X1994679Y2798915D02*
X1996254Y2859165D01*
X1995114Y2784929D02*
X2158926Y2621117D01*
X1995054Y2813273D02*
X2158926Y2649402D01*
X2188926Y2537375D02*
Y2726978D01*
X2016409Y2553812D02*
X2158926Y2696328D01*
X2020516Y2529634D02*
X2158926Y2668044D01*
Y2533400D02*
Y2732582D01*
X2012435Y2578121D02*
X2158926Y2724613D01*
X2002808Y2657144D02*
X2012825Y2574914D01*
X1996744Y2732550D02*
X2002808Y2657144D01*
X1999726Y2695464D02*
X2158926Y2536264D01*
X1997253Y2726222D02*
X2158926Y2564549D01*
X2202475Y2513603D02*
X2356533Y2667661D01*
X2204657Y2745092D02*
X2451367Y2498382D01*
X2191511Y2729954D02*
X2487398Y2434067D01*
X2253818Y2423524D02*
X2407312Y2577019D01*
X2188926Y2704255D02*
X2523430Y2369751D01*
X2188926Y2562833D02*
X2300474Y2451285D01*
X2188926Y2591117D02*
X2251731Y2528313D01*
X2013988Y2568065D02*
X2299818Y2282235D01*
X2009690Y2600647D02*
X2262329Y2348009D01*
X2243549Y2441540D02*
X2302827Y2500817D01*
X2264086Y2405508D02*
X2301449Y2442871D01*
X2233281Y2459556D02*
X2275256Y2501531D01*
X2230161Y2465030D02*
X2399889Y2295302D01*
X2267650Y2399256D02*
X2397388Y2269518D01*
X2192672Y2530803D02*
X2351156Y2372319D01*
X2223012Y2477572D02*
X2259054Y2513613D01*
X2212744Y2495587D02*
X2250743Y2533587D01*
X2118840Y2231977D02*
X2252360Y2365498D01*
X2109438Y2250860D02*
X2242092Y2383514D01*
X2034928Y2459193D02*
X2158926Y2583191D01*
X2046662Y2414359D02*
X2160037Y2527734D01*
X2052968Y2392381D02*
X2170212Y2509624D01*
X2040356Y2436337D02*
X2158926Y2554907D01*
X2024622Y2505456D02*
X2158926Y2639760D01*
X2029726Y2482276D02*
X2158926Y2611475D01*
X2012825Y2574914D02*
X2024990Y2503293D01*
X2005767Y2632855D02*
X2224840Y2413782D01*
X2002200Y2664706D02*
X2187350Y2479556D01*
X2083184Y2309459D02*
X2211286Y2437561D01*
X2091644Y2289635D02*
X2221555Y2419545D01*
X2074843Y2329402D02*
X2201018Y2455577D01*
X2100104Y2269811D02*
X2231823Y2401530D01*
X2075687Y2327028D02*
X2100716Y2268378D01*
X2060001Y2371129D02*
X2180481Y2491608D01*
X2039062Y2440848D02*
X2055165Y2384723D01*
X2024990Y2503293D02*
X2039062Y2440848D01*
X2067422Y2350265D02*
X2190749Y2473593D01*
X2055165Y2384723D02*
X2075687Y2327028D01*
X3153471Y2163521D02*
X4903349Y3913399D01*
X3134171Y2115937D02*
X4927838Y3909604D01*
X3139532Y2177867D02*
X4878599Y3916933D01*
X3187970Y2525456D02*
X3687691Y2025734D01*
X3173453Y2511688D02*
X3658316Y2026825D01*
X3153761Y2503095D02*
X3616711Y2040146D01*
X3118796Y2185414D02*
X4852189Y3918808D01*
X3116636Y2070117D02*
X4951016Y3904497D01*
X3098058Y2192961D02*
X4825007Y3919910D01*
X3119899Y2045096D02*
X4974010Y3899207D01*
X3125230Y2503342D02*
X3601628Y2026945D01*
X3153592Y2163853D02*
X3271325Y2046120D01*
X3138497Y2122380D02*
X3221872Y2039004D01*
X3137492Y2119619D02*
X3156451Y2171709D01*
X3146044Y2143117D02*
X3254099Y2035062D01*
X3177929Y2031256D02*
X3232520Y2040882D01*
X3129131Y2103462D02*
X3197827Y2034765D01*
X3103076Y2214369D02*
X3139605Y2177840D01*
X3108060Y2189322D02*
X3156451Y2171709D01*
X3120991Y2083317D02*
X3178973Y2025334D01*
X3116397Y2071946D02*
X3135893Y2120200D01*
X3095146Y2194020D02*
X3104657Y2190559D01*
X3103041Y2186119D02*
X3105867Y2183294D01*
X3095146Y2194020D02*
X3103630Y2215793D01*
X3085698Y2138468D02*
X3104657Y2190559D01*
X3091404Y2143559D02*
X3108060Y2189322D01*
X3093622Y2160241D02*
X3099681Y2166300D01*
X3066949Y2204283D02*
X3075677Y2226685D01*
X3056584Y2208056D02*
X3075523Y2226995D01*
X3056266Y2208171D02*
X3066949Y2204283D01*
X3037307Y2156081D02*
X3056266Y2208171D01*
X3095494Y2165383D02*
X3098319Y2162557D01*
X3087946Y2144646D02*
X3090722Y2141870D01*
X3054475Y2149833D02*
X3082583Y2121725D01*
X3072665Y2097179D02*
X3091404Y2143559D01*
X3055517Y2093852D02*
X3082035Y2120369D01*
X3037307Y2156081D02*
X3085698Y2138468D01*
X3020424Y2087043D02*
X3075545Y2142164D01*
X3000278Y2095181D02*
X3054808Y2149711D01*
X3014046Y2085805D02*
X3072665Y2097179D01*
X3013345Y2034736D02*
X3069408Y2045614D01*
X3123163Y2020076D02*
X4405384Y3302297D01*
X3126426Y1995055D02*
X4405673Y3274301D01*
X3161663Y2749752D02*
X3900018Y2011398D01*
X3132502Y2750629D02*
X3890568Y1992563D01*
X3177929Y2031256D02*
X3186872Y1980542D01*
X3130035Y1970380D02*
X3179875Y2020220D01*
X2999994Y2430588D02*
X3436694Y1993888D01*
X3116798Y2228932D02*
X3358608Y1987122D01*
X3118245Y2057778D02*
X3185028Y1990995D01*
X3082376Y2772470D02*
X3881117Y1973729D01*
X3122488Y2025252D02*
X3189830Y1957909D01*
X3186872Y1980542D02*
X3241463Y1990168D01*
X3187501Y1976974D02*
X3242092Y1986600D01*
X3187501Y1976974D02*
X3190654Y1959093D01*
X3162794Y1919104D02*
X3190654Y1959093D01*
X3152088Y1935863D02*
X3188355Y1972131D01*
X3141061Y1953121D02*
X3184115Y1996175D01*
X3126730Y1992725D02*
X3178216Y1941239D01*
X3146391Y1944780D02*
X3166602Y1924569D01*
X3129545Y1971148D02*
X3162794Y1919104D01*
X3084427Y1948898D02*
X3140809Y1860647D01*
X3116397Y2071946D02*
X3129545Y1971148D01*
X3069408Y2045614D02*
X3080683Y1959172D01*
X3049432Y2041738D02*
X3072986Y2018185D01*
X3044981Y1941894D02*
X3078557Y1975470D01*
X3025744Y2037142D02*
X3077229Y1985658D01*
X3013631Y1967112D02*
X3072030Y2025512D01*
X2997956Y1979722D02*
X3062510Y2044276D01*
X2997949Y2036653D02*
X3082850Y1951752D01*
X3029306Y1954503D02*
X3075294Y2000491D01*
X3075096Y1915440D02*
X3093832Y1934176D01*
X3076324Y1888384D02*
X3104858Y1916918D01*
X3076324Y1855059D02*
Y1909496D01*
X3060656Y1929284D02*
X3082938Y1951567D01*
X3023196Y1891825D02*
X3039318Y1907947D01*
X3013232Y1910145D02*
X3023643Y1920556D01*
X3046324Y1855059D02*
Y1902311D01*
X3018978Y1902487D02*
X3046324Y1875141D01*
X2956425Y3944941D02*
X4690729Y2210637D01*
X2930004Y3858225D02*
X4620691Y2167538D01*
X2930004Y3829941D02*
X4556339Y2203605D01*
X2927897Y3945185D02*
X4722812Y2150269D01*
X2949800Y2129555D02*
X4733156Y3912912D01*
X2932974Y2141014D02*
X4699209Y3907249D01*
X2900864Y3943933D02*
X4719881Y2124916D01*
X2916147Y2152472D02*
X4665471Y3901796D01*
X2899321Y2163930D02*
X4634938Y3899547D01*
X2875263Y3941250D02*
X4715595Y2100918D01*
X2734137Y3912670D02*
X4532237Y2114570D01*
X2930004Y3801656D02*
X4533483Y2198177D01*
X2903362Y3800013D02*
X4527870Y2175505D01*
X2937168Y2351993D02*
X3071976Y2217185D01*
X2963998Y2410016D02*
X3380125Y1993888D01*
X2966626Y2118097D02*
X3056018Y2207490D01*
X2882495Y2175388D02*
X3496263Y2789156D01*
X2865669Y2186847D02*
X3453836Y2775014D01*
X2848843Y2198305D02*
X3153595Y2503056D01*
X2875078Y3800013D02*
X4537744Y2137347D01*
X2881315Y2294709D02*
X3074443Y2101580D01*
X2943585Y2317291D02*
X3055316Y2205560D01*
X2922848Y2309744D02*
X3047768Y2184824D01*
X2832017Y2209763D02*
X2937234Y2314980D01*
X2902111Y2302196D02*
X3040221Y2164087D01*
X2860836Y2286904D02*
X3054152Y2093587D01*
X2840356Y2279099D02*
X3030464Y2088991D01*
X2832017Y2209763D02*
X2937234Y2314980D01*
X2823463Y2267708D02*
X2986837Y2104334D01*
X2828249Y2234637D02*
X2898177Y2164710D01*
X2831831Y2209890D02*
X3014046Y2085805D01*
X2794626Y2174733D02*
X2994479Y2038637D01*
X2983452Y2106639D02*
X3039832Y2163020D01*
X2966606Y2004940D02*
X2998202Y2036536D01*
X2950931Y2017550D02*
X2981117Y2047736D01*
X2888231Y2067987D02*
X2913813Y2093569D01*
X2903906Y2055378D02*
X2930639Y2082111D01*
X2872556Y2080596D02*
X2896987Y2105027D01*
X2935256Y2030159D02*
X2964291Y2059194D01*
X2919581Y2042768D02*
X2947465Y2070653D01*
X2712360Y3906163D02*
X4624789Y1993734D01*
X2860000Y2712004D02*
X3628125Y1943879D01*
X2827019Y2631847D02*
X3464978Y1993888D01*
X2858111Y2657324D02*
X3647199Y1868236D01*
X2846713Y2640438D02*
X3643570Y1843581D01*
X2860000Y2683719D02*
X3641979Y1901740D01*
X2691227Y3899012D02*
X4620438Y1969801D01*
X2703520Y3123043D02*
X3871667Y1954895D01*
X2528042Y3072246D02*
X3635673Y1964615D01*
X2670798Y3891156D02*
X4616086Y1945868D01*
X2681585Y3116693D02*
X3862217Y1936061D01*
X2986846Y2415452D02*
X3408410Y1993888D01*
X2982281Y1992331D02*
X3027417Y2037467D01*
X2995578Y1920775D02*
X3007968Y1933166D01*
X2960608Y1914090D02*
X2992293Y1945775D01*
X2828214Y2116266D02*
X3070726Y1921184D01*
X2907399Y2014066D02*
X3004439Y1917026D01*
X2821816Y2156218D02*
X2999776Y1978258D01*
X2910476Y2095841D02*
X3132208Y1874110D01*
X2813513Y2089590D02*
X3046324Y1902311D01*
X2936362Y1974697D02*
X2945268Y1983603D01*
X2946487Y1956537D02*
X2960943Y1970994D01*
X2918552Y1985171D02*
X2929593Y1996212D01*
X2896792Y1878558D02*
X2976618Y1958384D01*
X2947616Y1945565D02*
X2972743Y1920437D01*
X2882539Y2010642D02*
X2906635Y1986546D01*
X2856905Y1980092D02*
X2898243Y2021431D01*
X2844866Y1939769D02*
X2913918Y2008821D01*
X2940506Y1924390D02*
X2955504Y1909392D01*
X2912215Y1865696D02*
X2953398Y1906880D01*
X2925207Y1911405D02*
X2945982Y1890630D01*
X2899958Y1908369D02*
X2981829Y1826498D01*
X2844762Y1935281D02*
X2925056Y1854987D01*
X2844461Y1922200D02*
X2952044Y1832481D01*
X2881370Y1891420D02*
X2898625Y1908675D01*
X2819626Y1903849D02*
X2948840Y1774634D01*
X2819691Y1903794D02*
X2932829Y1809441D01*
X3151224Y1851470D02*
X3290981Y1785270D01*
X3158109Y1848209D02*
X3338245Y1668072D01*
X3099900Y1827108D02*
X3137936Y1865143D01*
X3076324Y1860100D02*
X3115884Y1899660D01*
X3090098Y1845589D02*
X3126910Y1882402D01*
X3076324Y1873425D02*
X3281677Y1668072D01*
X3054002D02*
X3209701Y1823771D01*
X3138855Y1668072D02*
X3267280Y1796496D01*
X3167140Y1668072D02*
X3286472Y1787405D01*
X3100791Y1820674D02*
X3253392Y1668072D01*
X3082287D02*
X3228894Y1814679D01*
X3095148Y1798033D02*
X3225108Y1668072D01*
X3080803Y1784093D02*
X3196824Y1668072D01*
X3057462Y1779149D02*
X3168540Y1668072D01*
X3038302Y1770026D02*
X3140255Y1668072D01*
X3024988Y1755055D02*
X3111971Y1668072D01*
X3022389Y1870791D02*
X3040869Y1852312D01*
X3039151Y1851211D02*
X3046324Y1858384D01*
X3013254Y1823358D02*
X3021985Y1814626D01*
X3007767Y1848111D02*
X3046324Y1886668D01*
X3011344Y1853552D02*
X3026929Y1837967D01*
X3012899Y1824959D02*
X3028601Y1840661D01*
X3007279Y1850310D02*
X3015476Y1813334D01*
X3011675Y1740084D02*
X3083687Y1668072D01*
X3010234Y1798094D02*
X3017052Y1791276D01*
X3002027Y1729234D02*
X3052704Y1779912D01*
X2996851Y1783193D02*
X3003739Y1776305D01*
X2998362Y1725113D02*
X3055402Y1668072D01*
X2985049Y1710142D02*
X3027118Y1668072D01*
X3110830Y1442057D02*
X3306845Y1638072D01*
X3134853Y1437795D02*
X3335130Y1638072D01*
X3110571Y1668072D02*
X3248087Y1805588D01*
X3159712Y1434370D02*
X3363414Y1638072D01*
X3170255D02*
X3374773Y1433555D01*
X3141971Y1638072D02*
X3351275Y1428769D01*
X3076324Y1901709D02*
X3309961Y1668072D01*
X3025718D02*
X3190508Y1832862D01*
X2997434Y1668072D02*
X3171315Y1841953D01*
X3086912Y1446423D02*
X3278561Y1638072D01*
X3039374Y1455454D02*
X3221992Y1638072D01*
X3184571Y1430945D02*
X3391698Y1638072D01*
X3132104Y1438174D02*
X3207310Y1427812D01*
X3146285Y1590649D02*
X3193708Y1638072D01*
X3146871Y1604888D02*
X3326692Y1425067D01*
X3140950Y1582525D02*
X3300405Y1423070D01*
X3062994Y1450789D02*
X3250277Y1638072D01*
X3054976Y1583646D02*
X3211124Y1427498D01*
X3026691Y1583646D02*
X3178565Y1431772D01*
X3117760Y1577431D02*
X3272083Y1423107D01*
X3083260Y1583646D02*
X3241945Y1424962D01*
X3113687Y1638072D02*
X3131496Y1620263D01*
X3119452Y1620385D02*
X3137140Y1638072D01*
X3085402D02*
X3109133Y1614342D01*
X3141531Y1614180D02*
X3165424Y1638072D01*
X3084429Y1613646D02*
X3108855Y1638072D01*
X3027860Y1613646D02*
X3052287Y1638072D01*
X3028834D02*
X3053260Y1613646D01*
X3000550Y1638072D02*
X3024976Y1613646D01*
X3057118Y1638072D02*
X3081544Y1613646D01*
X3056145D02*
X3080571Y1638072D01*
X3012627Y1583646D02*
X3108483D01*
X3006414Y1613646D02*
X3108483D01*
X3016375Y1460739D02*
X3133251Y1577615D01*
X3046845Y1453737D02*
X3132104Y1438174D01*
X2993375Y1466024D02*
X3109720Y1582369D01*
X3005517Y1576536D02*
X3145761Y1436292D01*
X2991375Y1562394D02*
X3111909Y1441860D01*
X2977990Y1843818D02*
X2984520Y1814360D01*
X2976742Y1817087D02*
X2982614Y1822958D01*
X2962808Y1831436D02*
X2975663Y1844292D01*
X2977517Y1806563D02*
X2984520Y1814360D01*
X2974221Y1757996D02*
X3023438Y1807214D01*
X2941253Y1766187D02*
X2961328Y1788538D01*
X2945938Y1711306D02*
X3025813Y1801128D01*
X2960954Y1743225D02*
X3011994Y1800053D01*
X2965617Y1688290D02*
X3048231Y1781192D01*
X2983467Y1768292D02*
X2990425Y1761333D01*
X2970084Y1753391D02*
X2977112Y1746362D01*
X2971735Y1695171D02*
X2998834Y1668072D01*
X2955722Y1739469D02*
X2963799Y1731391D01*
X2955694Y1682928D02*
X2970550Y1668072D01*
X2943060Y1839973D02*
X2957343Y1854256D01*
X2917899Y1758244D02*
X2948449Y1788793D01*
X2927637Y1852835D02*
X2946713Y1871910D01*
X2886840Y1755469D02*
X2934100Y1802728D01*
X2902845Y1753123D02*
X2941253Y1766187D01*
X2842354Y1852837D02*
X2932113Y1763078D01*
X2829407Y1837499D02*
X2911007Y1755899D01*
X2801939Y1755420D02*
X2890915Y1844396D01*
X2830370Y1727283D02*
X2921760Y1818673D01*
X2816154Y1741351D02*
X2906337Y1831535D01*
X2918961Y1702736D02*
X2955672Y1739448D01*
X2934652Y1732254D02*
X2950486Y1716420D01*
X2913546Y1725075D02*
X2931805Y1706817D01*
X2948255Y1675462D02*
X2955733Y1682940D01*
X2934228Y1676109D02*
X2938327Y1672010D01*
X2912505Y1724721D02*
X2954598Y1739038D01*
X2898343Y1711995D02*
X2910340Y1699998D01*
X2883191Y1695251D02*
X2900874Y1712934D01*
X2886699Y1692488D02*
X2945938Y1711306D01*
X2881641Y1700412D02*
X2888874Y1693179D01*
X2967247Y1668072D02*
X3974180D01*
X2967247Y1638072D02*
X3980393D01*
X2969149Y1668072D02*
X3152122Y1851045D01*
X2972265Y1638072D02*
X2998780Y1611558D01*
X2934829Y1548276D02*
X2995802Y1609247D01*
X2951459Y1630594D02*
X2984304Y1597749D01*
X2891297Y1662472D02*
X2970162Y1583607D01*
X2906202Y1576841D02*
X2967434Y1638072D01*
X2934206Y1548276D02*
X3024002Y1638072D01*
X2905922Y1548276D02*
X2995718Y1638072D01*
X2970775Y1471708D02*
X3082713Y1583646D01*
X2963090Y1534110D02*
X3042454Y1454746D01*
X2951655Y1522675D02*
X3012627Y1583646D01*
X2977232Y1548252D02*
X3077308Y1448176D01*
X2978475Y1469447D02*
X3046845Y1453737D01*
X2927044Y1484545D02*
X3026145Y1583646D01*
X2948909Y1478126D02*
X3054429Y1583646D01*
X2922356Y1518276D02*
X2968155Y1472477D01*
X2948598Y1520318D02*
X3005732Y1463184D01*
X2925113Y1485111D02*
X2978475Y1469447D01*
X2892707Y1619915D02*
X2928087Y1655294D01*
X2904970Y1603892D02*
X2936510Y1635432D01*
X2912763Y1669290D02*
X2927998Y1654055D01*
X2908012Y1589188D02*
X2941877Y1555324D01*
X2901690Y1567226D02*
X2920640Y1548276D01*
X2888237Y1661499D02*
X2958919Y1683953D01*
X2883503Y1638995D02*
X2914281Y1669773D01*
X2883236Y1642248D02*
X2956019Y1569466D01*
X2886922Y1553710D02*
X2892356Y1548276D01*
X2906372Y1492158D02*
X2932490Y1518276D01*
X2894071D02*
X2928118Y1484229D01*
X2862105Y1548276D02*
X2934829D01*
X2856860Y1518276D02*
X2941042D01*
X2885008Y1500191D02*
X2925113Y1485111D01*
X2885817Y1499887D02*
X2904206Y1518276D01*
X2822783Y2272401D02*
X2831831Y2209890D01*
X2772659Y2269661D02*
X2783923Y2191838D01*
X2742001Y2119747D02*
X2796031Y2173777D01*
X2742001Y2119747D02*
X2796031Y2173777D01*
X2677438Y2300596D02*
X2783538Y2194495D01*
X2713779Y2119809D02*
X2784208Y2190238D01*
X2685557Y2119872D02*
X2780585Y2214899D01*
X2635543Y2314206D02*
X2855157Y2094593D01*
X2593648Y2327817D02*
X2801849Y2119615D01*
X2825238Y2118132D02*
X2846509Y2139402D01*
X2841206Y2105815D02*
X2863335Y2127944D01*
X2856881Y2093205D02*
X2880161Y2116486D01*
X2828841Y2065165D02*
X2835544Y2071868D01*
X2798445Y2119623D02*
X2829683Y2150860D01*
X2577029Y2120110D02*
X2818845Y2119578D01*
X2770223Y2119685D02*
X2812857Y2162318D01*
X2803569Y2089611D02*
X2826425Y2066756D01*
X2592873Y2090075D02*
X2813513Y2089590D01*
X2565077Y2140813D02*
X2713231Y2288967D01*
X2719332Y2286985D02*
X2778752Y2227566D01*
X2554724Y2158744D02*
X2691883Y2295903D01*
X2551753Y2341427D02*
X2773503Y2119678D01*
X2600890Y2120058D02*
X2755929Y2275096D01*
X2575430Y2122881D02*
X2734580Y2282032D01*
X2523654Y2212527D02*
X2627836Y2316710D01*
X2529490Y2190079D02*
X2649185Y2309774D01*
X2509192Y2226350D02*
X2606488Y2323645D01*
X2489201Y2121506D02*
X2670534Y2302839D01*
X2482547Y2269212D02*
X2631769Y2119990D01*
X2529465Y2194009D02*
X2603422Y2120052D01*
X2554468Y2159188D02*
X2577029Y2120110D01*
X2657335Y2119934D02*
X2777009Y2239608D01*
X2629113Y2119996D02*
X2773432Y2264316D01*
X2523834Y2171356D02*
X2542762Y2152429D01*
X2509497Y2157409D02*
X2524830Y2142076D01*
X2486169Y2152452D02*
X2506898Y2131723D01*
X2486004Y2119660D02*
X2554468Y2159188D01*
X2486499Y2118803D02*
X2489201Y2121506D01*
X2859599Y2039355D02*
X2866893Y2046649D01*
X2874979Y2026450D02*
X2882568Y2034040D01*
X2844220Y2052260D02*
X2851218Y2059259D01*
X2826640Y2067012D02*
X2887200Y2016196D01*
X2845482Y1966479D02*
X2887200Y2016196D01*
X2775824Y2006452D02*
X2826640Y2067012D01*
X2775222Y2089674D02*
X2813520Y2051376D01*
X2715503Y1951827D02*
X2805534Y2041858D01*
X2746876Y2089736D02*
X2800615Y2035997D01*
X2687015Y1951624D02*
X2819869Y2084477D01*
X2658528Y1951421D02*
X2796733Y2089627D01*
X2869634Y1995262D02*
X2885460Y1979436D01*
X2856729Y1979883D02*
X2872474Y1964137D01*
X2845400Y1962928D02*
X2869439Y1938888D01*
X2844461Y1922200D02*
X2845482Y1966479D01*
X2814302Y1915680D02*
X2815582Y1971159D01*
X2775824Y2006452D02*
X2793577Y1991555D01*
X2812412Y1967632D02*
X2815431Y1964612D01*
X2758145Y1952130D02*
X2793577Y1991555D01*
X2776034Y1927155D02*
X2815582Y1971159D01*
X2779143Y1930614D02*
X2815485Y1966957D01*
X2661835Y2089924D02*
X2777780Y1973979D01*
X2690182Y2089861D02*
X2791168Y1988875D01*
X2633489Y2089986D02*
X2764392Y1959082D01*
X2605142Y2090048D02*
X2743166Y1952024D01*
X2573067Y1950813D02*
X2712067Y2089813D01*
X2544580Y1950610D02*
X2683845Y2089875D01*
X2525532Y2051196D02*
X2592873Y2090075D01*
X2492723Y1983607D02*
X2599178Y2090062D01*
X2486004Y2119660D02*
X2525532Y2051196D01*
X2516093Y1950408D02*
X2655623Y2089937D01*
X2503149Y1965748D02*
X2627401Y2089999D01*
X2718529Y2089799D02*
X2787710Y2020617D01*
X2743990Y1952030D02*
X2788106Y1996146D01*
X2582702Y2084204D02*
X2715082Y1951824D01*
X2630041Y1951219D02*
X2768511Y2089689D01*
X2601554Y1951016D02*
X2740289Y2089751D01*
X2564771Y2073851D02*
X2686998Y1951624D01*
X2546839Y2063498D02*
X2658913Y1951424D01*
X2528908Y2053145D02*
X2630829Y1951224D01*
X2573067Y1950813D02*
X2712067Y2089813D01*
X2503122Y1965794D02*
X2518491Y1950425D01*
X2456904Y2238287D02*
X2469562Y2225628D01*
X2431120Y2235786D02*
X2455615Y2211291D01*
X2425046Y2383282D02*
X2688463Y2119865D01*
X2427510Y2352533D02*
X2660116Y2119927D01*
X2400298Y2174024D02*
X2563791Y2337517D01*
X2305139Y2333483D02*
X2450659Y2187963D01*
X2342628Y2267709D02*
X2435405Y2174933D01*
X2387309Y2189319D02*
X2433368Y2235379D01*
X2329432Y2535464D02*
X2745156Y2119740D01*
X2379080Y2457532D02*
X2716809Y2119803D01*
X2439945Y2142289D02*
X2467149Y2159541D01*
X2457143Y2153195D02*
X2488967Y2121371D01*
X2425440Y2170882D02*
X2450714Y2196156D01*
X2428428Y2170508D02*
X2451083Y2184876D01*
X2411027Y2172684D02*
X2428428Y2170508D01*
X2422249Y2141047D02*
X2430035Y2140074D01*
X2418599Y2110582D02*
X2422249Y2141047D01*
X2188926Y2537375D02*
X2395698Y2174599D01*
X2148559Y2176844D02*
X2283166Y2311451D01*
X2138295Y2194864D02*
X2272897Y2329466D01*
X2160894Y2525972D02*
X2373354Y2153218D01*
X2169377Y2141093D02*
X2303703Y2275419D01*
X2158822Y2158823D02*
X2293434Y2293435D01*
X2019775Y2533993D02*
X2337307Y2216462D01*
X2128241Y2213095D02*
X2262629Y2347482D01*
X2100716Y2268378D02*
X2130527Y2208505D01*
X2025804Y2499681D02*
X2391222Y2134263D01*
X2034032Y2463168D02*
X2388196Y2109005D01*
X2377040Y2207335D02*
X2413541Y2243836D01*
X2395698Y2174599D02*
X2411010Y2172686D01*
X2380117Y2201936D02*
X2409132Y2172921D01*
X2388217Y2109186D02*
X2392481Y2144768D01*
X2384526Y2145762D02*
X2392481Y2144768D01*
X2366771Y2225351D02*
X2400832Y2259411D01*
X2130527Y2208505D02*
X2165489Y2147118D01*
X2180472Y2123904D02*
X2313971Y2257403D01*
X2430171Y2090760D02*
X2491715Y2152304D01*
X2440596Y2072901D02*
X2486499Y2118803D01*
X2419745Y2108618D02*
X2469267Y2158140D01*
X2439834Y2142219D02*
X2518258Y2063795D01*
X2421230Y2132539D02*
X2602744Y1951024D01*
X2418599Y2110582D02*
X2512120Y1950379D01*
X2070370Y2341978D02*
X2604228Y1808120D01*
X2089572Y2294491D02*
X2595692Y1788371D01*
X2054866Y2385765D02*
X2459333Y1981299D01*
X2145791Y2181704D02*
X2743547Y1583948D01*
X2113919Y2241860D02*
X2702576Y1653203D01*
X2461447Y2037183D02*
X2507204Y2082941D01*
X2471872Y2019324D02*
X2517557Y2065009D01*
X2451021Y2055042D02*
X2496852Y2100872D01*
X2463452Y2033748D02*
X2546576Y1950625D01*
X2482298Y2001465D02*
X2540904Y2060071D01*
X2423782Y2101702D02*
X2574660Y1950824D01*
X2390161Y2099790D02*
X2490581Y1927771D01*
X2351152Y1926888D02*
X2439513Y2015249D01*
X2383097Y1902264D02*
X2460364Y1979532D01*
X2366917Y1914369D02*
X2449939Y1997391D01*
X2226804Y2057099D02*
X2355046Y2185340D01*
X2214861Y2073440D02*
X2344777Y2203356D01*
X2251974Y2025700D02*
X2376050Y2149776D01*
X2264805Y2010246D02*
X2391549Y2136991D01*
X2239143Y2041154D02*
X2365314Y2167325D01*
X2191567Y2106715D02*
X2324240Y2239388D01*
X2202918Y2089781D02*
X2334508Y2221372D01*
X2165489Y2147118D02*
X2199310Y2094718D01*
X2189876Y2109334D02*
X2431446Y1867764D01*
X2043486Y2425430D02*
X2419663Y2049253D01*
X2306085Y1966674D02*
X2408237Y2068826D01*
X2320823Y1953128D02*
X2418662Y2050967D01*
X2335561Y1939582D02*
X2429088Y2033108D01*
X2302748Y1969741D02*
X2338062Y1937283D01*
X2278342Y1995500D02*
X2388236Y2105394D01*
X2233418Y2048049D02*
X2267882Y2006540D01*
X2199310Y2094718D02*
X2233418Y2048049D01*
X2292103Y1980976D02*
X2397811Y2086685D01*
X2267882Y2006540D02*
X2302748Y1969741D01*
X2850525Y1917143D02*
X2869991Y1936610D01*
X2865947Y1904282D02*
X2880465Y1918800D01*
X2812616Y1879234D02*
X2829225Y1895843D01*
X2836064Y1874399D02*
X2844647Y1882982D01*
X2842204Y1852254D02*
X2860070Y1870120D01*
X2787723Y1769489D02*
X2875492Y1857258D01*
X2776789Y1786839D02*
X2826396Y1836447D01*
X2803113Y1835508D02*
X2883996Y1754626D01*
X2782617Y1827721D02*
X2870271Y1740067D01*
X2839812Y1708441D02*
X2869851Y1738480D01*
X2872671Y1713015D02*
X2876593Y1716937D01*
X2839812Y1704514D02*
Y1711678D01*
X2882398Y1695875D02*
X2886699Y1692488D01*
X2762120Y1819933D02*
X2865892Y1716161D01*
X2777643Y1779466D02*
X2835349Y1722354D01*
X2839605Y1714164D02*
X2843718Y1710051D01*
X2799024Y1952735D02*
X2814793Y1936966D01*
X2785636Y1937839D02*
X2817833Y1905642D01*
X2771480Y1923711D02*
X2815171Y1880020D01*
X2744871Y1922035D02*
X2799833Y1867073D01*
X2754059Y1848962D02*
X2815224Y1910127D01*
X2748078Y1814597D02*
X2810143Y1838179D01*
X2733910Y1841306D02*
X2799487Y1866223D01*
X2756540Y1758143D02*
X2809812Y1705420D01*
X2795411Y1692324D02*
X2809156Y1706069D01*
X2763262Y1801596D02*
X2793535Y1831869D01*
X2809812Y1688182D02*
Y1705420D01*
X2754693Y1714223D02*
X2778698Y1690218D01*
X2743948Y1809821D02*
X2751049Y1802720D01*
X2751437Y1733203D02*
X2766510Y1748275D01*
X2738886Y1748936D02*
X2748933Y1758983D01*
X2753439Y1706920D02*
X2780725Y1734207D01*
X2872686Y1656461D02*
X2878087Y1661862D01*
X2863841Y1672302D02*
X2874363Y1664019D01*
X2883503Y1625241D02*
Y1639430D01*
X2856991Y1672156D02*
X2879104Y1650043D01*
X2831337Y1655384D02*
X2853503Y1633217D01*
X2807781Y1591556D02*
X2851472Y1635248D01*
X2829148Y1639768D02*
X2847038Y1621878D01*
X2877637Y1548276D02*
X2880323Y1550962D01*
X2853503Y1625253D02*
Y1633217D01*
X2865787Y1518276D02*
X2882849Y1501214D01*
X2866570Y1508924D02*
X2875922Y1518276D01*
X2806047Y1541985D02*
X2847138Y1518128D01*
X2885008Y1500191D01*
X2847376Y1518015D02*
X2849543Y1520182D01*
X2829832Y1641892D02*
X2837330Y1649390D01*
X2817652Y1622980D02*
X2833522Y1607110D01*
X2776324Y1616618D02*
X2832845Y1571587D01*
X2792038Y1604098D02*
X2802946Y1615006D01*
X2746994Y1693638D02*
X2761910Y1678722D01*
X2744811Y1641724D02*
X2752514Y1649427D01*
X2798383Y1613964D02*
X2829374Y1582974D01*
X2823523Y1579014D02*
X2829165Y1584657D01*
X2794323Y1549815D02*
X2802174Y1557666D01*
X2829465Y1528388D02*
X2833659Y1532582D01*
X2811571Y1538778D02*
X2817917Y1545124D01*
X2760407Y1572467D02*
X2770690Y1582750D01*
X2777365Y1561141D02*
X2786432Y1570208D01*
X2743579Y1583924D02*
X2754947Y1595292D01*
X2782197Y1573581D02*
X2824518Y1531261D01*
X2746698Y1581623D02*
X2806047Y1541985D01*
X2716786Y1921835D02*
X2779857Y1858765D01*
X2688702Y1921636D02*
X2759361Y1850977D01*
X2660618Y1921436D02*
X2738864Y1843189D01*
X2677669Y1800856D02*
X2814817Y1938005D01*
X2664832Y1816304D02*
X2773289Y1924761D01*
X2644844Y1824600D02*
X2742261Y1922017D01*
X2512120Y1950379D02*
X2758145Y1952130D01*
X2503675Y1920319D02*
X2764956Y1922178D01*
X2632533Y1921236D02*
X2722679Y1831090D01*
X2604449Y1921036D02*
X2709561Y1815923D01*
X2533152Y1769477D02*
X2685287Y1921611D01*
X2702334Y1807567D02*
X2727865Y1837086D01*
X2728791Y1792296D02*
X2748078Y1814597D01*
X2730830Y1794654D02*
X2734972Y1790513D01*
X2576364Y1920836D02*
X2698698Y1798502D01*
X2681847Y1787069D02*
X2699235Y1769681D01*
X2681954Y1776857D02*
X2698758Y1793661D01*
X2548280Y1920636D02*
X2644233Y1824684D01*
X2519763Y1784372D02*
X2656800Y1921408D01*
X2506429Y1799322D02*
X2628313Y1921206D01*
X2493159Y1814336D02*
X2599825Y1921003D01*
X2399603Y1890486D02*
X2470790Y1961673D01*
X2416109Y1878708D02*
X2481215Y1943814D01*
X2338062Y1937283D02*
X2373867Y1908850D01*
X2478508Y1827970D02*
X2571338Y1920800D01*
X2432615Y1866930D02*
X2491743Y1926058D01*
X2520195Y1920436D02*
X2619866Y1820766D01*
X2488977Y1819067D02*
X2512549Y1792398D01*
X2463222Y1840968D02*
X2542851Y1920597D01*
X2447937Y1853967D02*
X2514364Y1920395D01*
X2373867Y1908850D02*
X2433104Y1866581D01*
X2463222Y1840968D02*
X2542851Y1920597D01*
X2433104Y1866581D02*
X2488977Y1819067D01*
X2729281Y1767616D02*
X2734176Y1772511D01*
X2732576Y1657773D02*
X2794941Y1720138D01*
X2732576Y1651472D02*
Y1681689D01*
X2728791Y1792296D02*
X2729550Y1754094D01*
X2729275Y1767925D02*
X2808279Y1688921D01*
X2546541Y1754581D02*
X2713774Y1921814D01*
X2702576Y1644244D02*
Y1679802D01*
X2732576Y1679771D02*
X2752894Y1659453D01*
X2732576Y1651472D02*
X2759943Y1629668D01*
X2711025Y1607938D02*
X2723463Y1620376D01*
X2708229Y1632512D02*
X2847513Y1521544D01*
X2727302Y1595931D02*
X2739205Y1607834D01*
X2678513Y1631995D02*
X2702576Y1656057D01*
X2679514Y1631182D02*
X2746698Y1581623D01*
X2694748Y1619945D02*
X2707730Y1632928D01*
X2698683Y1797423D02*
X2699556Y1753498D01*
X2616550Y1683169D02*
X2699309Y1765928D01*
X2677930Y1762702D02*
X2691686Y1748946D01*
X2559930Y1739685D02*
X2595588Y1775344D01*
X2573318Y1724790D02*
X2603884Y1755355D01*
X2512549Y1792398D02*
X2584140Y1712751D01*
X2665284Y1747064D02*
X2679129Y1733218D01*
X2645535Y1738528D02*
X2677113Y1706950D01*
X2631697Y1670032D02*
X2675869Y1714203D01*
X2662908Y1644674D02*
X2699309Y1681075D01*
X2647303Y1657353D02*
X2683576Y1693626D01*
X2586975Y1710162D02*
X2619332Y1742519D01*
X2601763Y1696666D02*
X2643331Y1738234D01*
X2563526Y1735684D02*
X2610722Y1688488D01*
X2624832Y1675610D02*
X2679514Y1631182D01*
X2584140Y1712751D02*
X2624832Y1675610D01*
D11*
X3659788Y1949834D02*
D03*
X3678640Y2001628D02*
D03*
X4486930Y1891032D02*
D03*
X4505780Y1942826D02*
D03*
D12*
X3449988Y1909954D02*
D03*
X3504270Y1900384D02*
D03*
D13*
X3219268Y1956430D02*
D03*
X3209696Y2010712D02*
D03*
D14*
X3122776Y2154470D02*
D03*
X3070982Y2173320D02*
D03*
X3102500Y2919860D02*
D03*
X3154294Y2901008D02*
D03*
D15*
X2914220Y2334004D02*
D03*
X2895368Y2385798D02*
D03*
D16*
X3485910Y2931182D02*
D03*
X3528132Y2966612D02*
D03*
X4586082Y2907184D02*
D03*
X4628304Y2942612D02*
D03*
D17*
X3025422Y3189058D02*
D03*
X3079702Y3198628D02*
D03*
D18*
X4557958Y3167812D02*
D03*
X4613076D02*
D03*
X3935662Y2026692D02*
D03*
X3990780D02*
D03*
D19*
X4182778Y2909106D02*
D03*
X4140556Y2944536D02*
D03*
D20*
X4721412Y2204084D02*
D03*
X4756840Y2246306D02*
D03*
D21*
X4611030Y2134526D02*
D03*
X4559236Y2115674D02*
D03*
D22*
X4226214Y1828668D02*
D03*
X4178480Y1856226D02*
D03*
D23*
X3140000Y2970000D02*
Y3030000D01*
X3200000D01*
X3140000D02*
Y3090000D01*
X3080000Y3030000D02*
X3140000D01*
X2795000Y2893426D02*
X2845000D01*
X2520351Y3259079D02*
X2550631Y3284487D01*
X2520351Y3259079D02*
X2545759Y3228799D01*
X2494943Y3289359D02*
X2520351Y3259079D01*
X2490071Y3233671D02*
X2520351Y3259079D01*
X2795000Y2893426D02*
Y2943426D01*
X2745000Y2893426D02*
X2795000D01*
Y2843426D02*
Y2893426D01*
X2298908Y3124866D02*
X2324316Y3094586D01*
X2354596Y3119994D01*
X2294036Y3069178D02*
X2324316Y3094586D01*
X2349724Y3064307D01*
X2420236Y2312630D02*
X2440000Y2278398D01*
X2474232Y2298162D01*
X2405768Y2258634D02*
X2440000Y2278398D01*
X2459764Y2244166D01*
X2638676Y1781512D02*
X2664084Y1811792D01*
X2608396Y1806920D02*
X2638676Y1781512D01*
X2668956Y1756104D01*
X2613268Y1751232D02*
X2638676Y1781512D01*
D24*
X3980393Y1653072D02*
X3998934Y1671614D01*
X2950477Y1653072D02*
X3980393D01*
X2755171Y1780601D02*
X2824812Y1711678D01*
X2739210Y1827274D02*
X2820492Y1858158D01*
X2713679Y1797754D02*
X2739210Y1827274D01*
X2713679Y1797754D02*
X2715280Y1717232D01*
X3070982Y2173320D02*
X3095743Y2236865D01*
X2895368Y2385798D02*
X2978213Y2436230D01*
X3079702Y3198628D02*
X3129744Y3215482D01*
Y3297358D01*
X3168547Y3336161D01*
X3154294Y2901008D02*
X3187735Y2887649D01*
X3232759D01*
X3280068Y2934958D01*
X3475505Y3019239D02*
X3528132Y2966612D01*
X3442314Y3019239D02*
X3475505D01*
X4101205Y2905185D02*
X4140556Y2944536D01*
X4097325Y2905185D02*
X4101205D01*
X4623371Y2942612D02*
X4628304D01*
X4536506Y3029477D02*
X4623371Y2942612D01*
X4613076Y3124265D02*
Y3167812D01*
X4592250Y3103438D02*
X4613076Y3124265D01*
X4534404Y3103438D02*
X4592250D01*
X4423143Y3214699D02*
X4534404Y3103438D01*
X4423143Y3214699D02*
Y3288481D01*
X4756840Y2246306D02*
X4798107Y2223865D01*
X4549345Y2182220D02*
X4559236Y2115674D01*
X4500779Y1995864D02*
X4505780Y1942826D01*
X4177990Y2087197D02*
X4178480Y1856226D01*
X3990780Y2026692D02*
X4063885Y2026236D01*
X3622436Y2018386D02*
X3678640Y2001628D01*
X3504270Y1900384D02*
Y1943034D01*
X3468415Y1978888D02*
X3504270Y1943034D01*
X3371587Y1978888D02*
X3468415D01*
X3317117Y1924418D02*
X3371587Y1978888D01*
X3209696Y2010712D02*
X3277886Y2024597D01*
X2868488Y1588676D02*
X2868503Y1588691D01*
Y1639430D01*
X2824812Y1683122D02*
X2868503Y1639430D01*
X2824812Y1683122D02*
Y1711678D01*
X2829298Y1915314D02*
X2955316Y1810220D01*
X2431912Y2154956D02*
X2490000Y2191794D01*
X2173926Y2533400D02*
X2386386Y2160646D01*
X2403106Y2107368D02*
X2409150Y2157802D01*
X2403106Y2107368D02*
X2503544Y1935318D01*
X2764874Y1937178D01*
X2818812Y2104578D02*
X3061324Y1909496D01*
X2540000Y2105192D02*
X2818812Y2104578D01*
X2954408Y1698258D02*
X3061324Y1818488D01*
X2856860Y1533276D02*
X2941042D01*
X2173926Y2732582D02*
X2280236Y2855000D01*
X2173926Y2533400D02*
Y2732582D01*
X2409150Y2157802D02*
X2431912Y2154956D01*
X2386386Y2160646D02*
X2409150Y2157802D01*
X2764874Y1937178D02*
X2831512Y2011324D01*
X2829298Y1915314D02*
X2831512Y2011324D01*
X2984720Y1882768D02*
X3000834Y1810076D01*
X2949794Y1753248D02*
X3000834Y1810076D01*
X2891798Y1733522D02*
X2949794Y1753248D01*
X3006414Y1598646D02*
X3125254D01*
X2941042Y1533276D02*
X3006414Y1598646D01*
X2717576Y1644244D02*
X2856860Y1533276D01*
X2717576Y1644244D02*
Y1714938D01*
X2715280Y1717232D02*
X2717576Y1714938D01*
X3061324Y1818488D02*
Y1909496D01*
X2883666Y1675786D02*
X2954408Y1698258D01*
X2859942Y1694462D02*
X2883666Y1675786D01*
D25*
X4714194Y2886458D02*
X4739979Y2944096D01*
X4750597Y3033587D01*
X4747563Y3129145D02*
X4750597Y3033587D01*
X4725252Y3225237D02*
X4777847Y3197556D01*
X4621735Y3279720D02*
X4725252Y3225237D01*
X4747563Y3129145D01*
X4644421Y2813652D02*
X4714194Y2886458D01*
X4586082Y2907184D02*
X4644421Y2813652D01*
X4600434Y2781799D02*
X4644421Y2813652D01*
X4532724Y2757978D02*
X4600434Y2781799D01*
X3485910Y2931182D02*
X3523600Y2824621D01*
X3356453Y2768905D02*
X3523600Y2824621D01*
X3131902Y2775659D02*
X3356453Y2768905D01*
X3050860Y2816179D02*
X3131902Y2775659D01*
X2937614Y3180468D02*
X3025422Y3189058D01*
X2747871Y3161907D02*
X2937614Y3180468D01*
X3050860Y2816179D02*
X3102500Y2919860D01*
X2951247Y2915792D02*
X3050860Y2816179D01*
X2927610Y3054237D02*
X2951247Y2915792D01*
X2927610Y3054237D02*
X2937614Y3180468D01*
X4546475Y3248362D02*
X4557958Y3167812D01*
X4276645Y2764825D02*
X4532724Y2757978D01*
X4168463Y2792213D02*
X4276645Y2764825D01*
X4168463Y2792213D02*
X4182778Y2909106D01*
X4546475Y3248362D02*
X4621735Y3279720D01*
X4777847Y3197556D02*
X4880552Y3082526D01*
X4964086Y2883963D01*
X4981888Y2703202D01*
X4995582Y2345787D01*
X4932590Y2171873D02*
X4995582Y2345787D01*
X4750200Y2152492D02*
X4932590Y2171873D01*
X2451015Y3075976D02*
X2747871Y3161907D01*
X2292822Y2956843D02*
X2451015Y3075976D01*
X2280236Y2855000D02*
X2292822Y2956843D01*
X4721412Y2204084D02*
X4750200Y2152492D01*
X4737936Y2083809D02*
X4750200Y2152492D01*
X4659440Y2044561D02*
X4737936Y2083809D01*
X4611030Y2134526D02*
X4659440Y2044561D01*
X4639816Y1936630D02*
X4659440Y2044561D01*
X4561321Y1772280D02*
X4639816Y1936630D01*
X4485278Y1752656D02*
X4561321Y1772280D01*
X4485278Y1752656D02*
X4486930Y1891032D01*
X4291493Y1696237D02*
X4485278Y1752656D01*
X4134502Y1736712D02*
X4291493Y1696237D01*
X4134502Y1736712D02*
X4226214Y1828668D01*
X4020438Y1856908D02*
X4134502Y1736712D01*
X3878165Y1912100D02*
X4020438Y1856908D01*
X3878165Y1912100D02*
X3935662Y2026692D01*
X3765328Y1875305D02*
X3878165Y1912100D01*
X3675794Y1847096D02*
X3765328Y1875305D01*
X3659788Y1949834D02*
X3675794Y1847096D01*
X3619376Y1761241D02*
X3675794Y1847096D01*
X3451346Y1767374D02*
X3619376Y1761241D01*
X3387569Y1795583D02*
X3451346Y1767374D01*
X3387569Y1795583D02*
X3449988Y1909954D01*
X3301714Y1807848D02*
X3387569Y1795583D01*
X3161894Y1874079D02*
X3301714Y1807848D01*
X3161894Y1874079D02*
X3219268Y1956430D01*
X3105476Y1962386D02*
X3161894Y1874079D01*
X3090758Y2075223D02*
X3105476Y1962386D01*
X3090758Y2075223D02*
X3122776Y2154470D01*
X3008583Y2059279D02*
X3090758Y2075223D01*
X2808665Y2195419D02*
X3008583Y2059279D01*
X2795173Y2288633D02*
X2808665Y2195419D01*
X2795173Y2288633D02*
X2914220Y2334004D01*
X2553555Y2367128D02*
X2795173Y2288633D01*
X2280236Y2855000D02*
X2553555Y2367128D01*
D26*
X2950477Y1653072D02*
D03*
X3998934Y1671614D02*
D03*
X3622436Y2018386D02*
D03*
X4063885Y2026236D02*
D03*
X4177990Y2087197D02*
D03*
X4500779Y1995864D02*
D03*
X4798107Y2223865D02*
D03*
X4549345Y2182220D02*
D03*
X4423143Y3288481D02*
D03*
X4536506Y3029477D02*
D03*
X4097325Y2905185D02*
D03*
X3168547Y3336161D02*
D03*
X3442314Y3019239D02*
D03*
X3280068Y2934958D02*
D03*
X2978213Y2436230D02*
D03*
X3095743Y2236865D02*
D03*
X3317117Y1924418D02*
D03*
X3277886Y2024597D02*
D03*
X2755171Y1780601D02*
D03*
X2859942Y1694462D02*
D03*
X3125254Y1598646D02*
D03*
X2820492Y1858158D02*
D03*
X2955316Y1810220D02*
D03*
X2891798Y1733522D02*
D03*
D27*
X2406471Y3394796D02*
D03*
D28*
X2520351Y3259079D02*
D03*
X2210436Y3230303D02*
D03*
X2324316Y3094586D02*
D03*
X2290000Y2538206D02*
D03*
X2340000Y2451602D02*
D03*
X2390000Y2365000D02*
D03*
X2440000Y2278398D02*
D03*
X2490000Y2191794D02*
D03*
X2868488Y1588676D02*
D03*
X2791884Y1652954D02*
D03*
X2715280Y1717232D02*
D03*
X2638676Y1781512D02*
D03*
X3061324Y1818488D02*
D03*
X2984720Y1882768D02*
D03*
X2908116Y1947046D02*
D03*
D29*
X2795000Y2893426D02*
D03*
X2559764Y2855000D02*
D03*
D30*
X2795000Y2696574D02*
D03*
D31*
X2540000Y2105192D02*
D03*
D32*
X2831512Y2011324D02*
D03*
D33*
X2280236Y2855000D02*
D03*
D34*
X3140000Y2561496D02*
D03*
D35*
Y3030000D02*
D03*
%TF.MD5,17e3dc3ddf8af1df007f13eff4b32089*%
M02*
