G04 Layer_Color=255*
%FSLAX26Y26*%
%MOIN*%
%TF.FileFunction,Pads,Bot*%
%TF.Part,Single*%
%TFFileComment,Halloween PCB
Pumpkin Badge
V1
Gadorach
(W.W.S.)*%
G01*
G75*
%TA.AperFunction,SMDPad,CuDef*%
G04:AMPARAMS|DCode=19|XSize=35.433mil|YSize=31.496mil|CornerRadius=0mil|HoleSize=0mil|Usage=FLASHONLY|Rotation=230.000|XOffset=0mil|YOffset=0mil|HoleType=Round|Shape=Rectangle|*
%AMROTATEDRECTD19*
4,1,4,-0.000676,0.023694,0.023452,0.003449,0.000676,-0.023694,-0.023452,-0.003449,-0.000676,0.023694,0.0*
%
%ADD19ROTATEDRECTD19*%

%TA.AperFunction,ViaPad*%
%ADD26C,0.025000*%
%TA.AperFunction,ComponentPad*%
%ADD27P,0.083516X4X265.0*%
%ADD28C,0.059055*%
%ADD29C,0.080000*%
G04:AMPARAMS|DCode=30|XSize=110mil|YSize=110mil|CornerRadius=27.5mil|HoleSize=0mil|Usage=FLASHONLY|Rotation=90.000|XOffset=0mil|YOffset=0mil|HoleType=Round|Shape=RoundedRectangle|*
%AMROUNDEDRECTD30*
21,1,0.110000,0.055000,0,0,90.0*
21,1,0.055000,0.110000,0,0,90.0*
1,1,0.055000,0.027500,0.027500*
1,1,0.055000,0.027500,-0.027500*
1,1,0.055000,-0.027500,-0.027500*
1,1,0.055000,-0.027500,0.027500*
%
%ADD30ROUNDEDRECTD30*%
%ADD31P,0.083516X4X165.0*%
%ADD32P,0.083516X4X275.0*%
G04:AMPARAMS|DCode=33|XSize=80mil|YSize=80mil|CornerRadius=20mil|HoleSize=0mil|Usage=FLASHONLY|Rotation=180.000|XOffset=0mil|YOffset=0mil|HoleType=Round|Shape=RoundedRectangle|*
%AMROUNDEDRECTD33*
21,1,0.080000,0.040000,0,0,180.0*
21,1,0.040000,0.080000,0,0,180.0*
1,1,0.040000,-0.020000,0.020000*
1,1,0.040000,0.020000,0.020000*
1,1,0.040000,0.020000,-0.020000*
1,1,0.040000,-0.020000,-0.020000*
%
%ADD33ROUNDEDRECTD33*%
%ADD34C,0.100000*%
G04:AMPARAMS|DCode=35|XSize=100mil|YSize=100mil|CornerRadius=25mil|HoleSize=0mil|Usage=FLASHONLY|Rotation=180.000|XOffset=0mil|YOffset=0mil|HoleType=Round|Shape=RoundedRectangle|*
%AMROUNDEDRECTD35*
21,1,0.100000,0.050000,0,0,180.0*
21,1,0.050000,0.100000,0,0,180.0*
1,1,0.050000,-0.025000,0.025000*
1,1,0.050000,0.025000,0.025000*
1,1,0.050000,0.025000,-0.025000*
1,1,0.050000,-0.025000,-0.025000*
%
%ADD35ROUNDEDRECTD35*%
%TA.AperFunction,SMDPad,CuDef*%
G04:AMPARAMS|DCode=36|XSize=59.055mil|YSize=51.181mil|CornerRadius=0mil|HoleSize=0mil|Usage=FLASHONLY|Rotation=220.000|XOffset=0mil|YOffset=0mil|HoleType=Round|Shape=Rectangle|*
%AMROTATEDRECTD36*
4,1,4,0.006170,0.038584,0.039069,-0.000624,-0.006170,-0.038584,-0.039069,0.000624,0.006170,0.038584,0.0*
%
%ADD36ROTATEDRECTD36*%

G04:AMPARAMS|DCode=37|XSize=23.622mil|YSize=80.709mil|CornerRadius=0mil|HoleSize=0mil|Usage=FLASHONLY|Rotation=50.000|XOffset=0mil|YOffset=0mil|HoleType=Round|Shape=Round|*
%AMOVALD37*
21,1,0.057087,0.023622,0.000000,0.000000,140.0*
1,1,0.023622,0.021865,-0.018347*
1,1,0.023622,-0.021865,0.018347*
%
%ADD37OVALD37*%

G04:AMPARAMS|DCode=38|XSize=59.055mil|YSize=51.181mil|CornerRadius=0mil|HoleSize=0mil|Usage=FLASHONLY|Rotation=120.000|XOffset=0mil|YOffset=0mil|HoleType=Round|Shape=Rectangle|*
%AMROTATEDRECTD38*
4,1,4,0.036926,-0.012776,-0.007398,-0.038367,-0.036926,0.012776,0.007398,0.038367,0.036926,-0.012776,0.0*
%
%ADD38ROTATEDRECTD38*%

%ADD39R,0.059055X0.051181*%
G04:AMPARAMS|DCode=40|XSize=59.055mil|YSize=51.181mil|CornerRadius=0mil|HoleSize=0mil|Usage=FLASHONLY|Rotation=50.000|XOffset=0mil|YOffset=0mil|HoleType=Round|Shape=Rectangle|*
%AMROTATEDRECTD40*
4,1,4,0.000624,-0.039069,-0.038584,-0.006170,-0.000624,0.039069,0.038584,0.006170,0.000624,-0.039069,0.0*
%
%ADD40ROTATEDRECTD40*%

%ADD41R,0.030000X0.014000*%
%ADD42R,0.064961X0.011811*%
D19*
X3099582Y2133140D02*
D03*
X3141804Y2097710D02*
D03*
D26*
X2950477Y1653072D02*
D03*
X3998934Y1671614D02*
D03*
X3622436Y2018386D02*
D03*
X4063885Y2026236D02*
D03*
X4177990Y2087197D02*
D03*
X4500779Y1995864D02*
D03*
X4798107Y2223865D02*
D03*
X4549345Y2182220D02*
D03*
X4423143Y3288481D02*
D03*
X4536506Y3029477D02*
D03*
X4097325Y2905185D02*
D03*
X3168547Y3336161D02*
D03*
X3442314Y3019239D02*
D03*
X3280068Y2934958D02*
D03*
X2978213Y2436230D02*
D03*
X3095743Y2236865D02*
D03*
X3317117Y1924418D02*
D03*
X3277886Y2024597D02*
D03*
X2755171Y1780601D02*
D03*
X2859942Y1694462D02*
D03*
X3125254Y1598646D02*
D03*
X2820492Y1858158D02*
D03*
X2955316Y1810220D02*
D03*
X2891798Y1733522D02*
D03*
D27*
X2406471Y3394796D02*
D03*
D28*
X2520351Y3259079D02*
D03*
X2210436Y3230303D02*
D03*
X2324316Y3094586D02*
D03*
X2290000Y2538206D02*
D03*
X2340000Y2451602D02*
D03*
X2390000Y2365000D02*
D03*
X2440000Y2278398D02*
D03*
X2490000Y2191794D02*
D03*
X2868488Y1588676D02*
D03*
X2791884Y1652954D02*
D03*
X2715280Y1717232D02*
D03*
X2638676Y1781512D02*
D03*
X3061324Y1818488D02*
D03*
X2984720Y1882768D02*
D03*
X2908116Y1947046D02*
D03*
D29*
X2795000Y2893426D02*
D03*
X2559764Y2855000D02*
D03*
D30*
X2795000Y2696574D02*
D03*
D31*
X2540000Y2105192D02*
D03*
D32*
X2831512Y2011324D02*
D03*
D33*
X2280236Y2855000D02*
D03*
D34*
X3140000Y2561496D02*
D03*
D35*
Y3030000D02*
D03*
D36*
X2639459Y3409878D02*
D03*
X2591377Y3467181D02*
D03*
D37*
X2977172Y1791448D02*
D03*
X2945034Y1753146D02*
D03*
X2912894Y1714842D02*
D03*
X2880754Y1676542D02*
D03*
X2830900Y1914184D02*
D03*
X2798762Y1875882D02*
D03*
X2766622Y1837580D02*
D03*
X2734482Y1799278D02*
D03*
D38*
X2557610Y2561300D02*
D03*
X2622390Y2598700D02*
D03*
X2612610Y2471300D02*
D03*
X2677390Y2508700D02*
D03*
D39*
X4290000Y1607402D02*
D03*
Y1532598D02*
D03*
D40*
X3027282Y2064178D02*
D03*
X3084584Y2016096D02*
D03*
D41*
X4511500Y1715000D02*
D03*
Y1735000D02*
D03*
Y1755000D02*
D03*
Y1775000D02*
D03*
Y1795000D02*
D03*
Y1815000D02*
D03*
Y1835000D02*
D03*
Y1855000D02*
D03*
X4438500D02*
D03*
Y1835000D02*
D03*
Y1815000D02*
D03*
Y1795000D02*
D03*
Y1775000D02*
D03*
Y1755000D02*
D03*
Y1735000D02*
D03*
Y1715000D02*
D03*
X3515000Y1845000D02*
D03*
Y1825000D02*
D03*
Y1805000D02*
D03*
Y1785000D02*
D03*
Y1765000D02*
D03*
Y1745000D02*
D03*
Y1725000D02*
D03*
Y1705000D02*
D03*
X3588000D02*
D03*
Y1725000D02*
D03*
Y1745000D02*
D03*
Y1765000D02*
D03*
Y1785000D02*
D03*
Y1805000D02*
D03*
Y1825000D02*
D03*
Y1845000D02*
D03*
D42*
X3865748Y1543662D02*
D03*
Y1569252D02*
D03*
Y1594842D02*
D03*
Y1620434D02*
D03*
Y1646024D02*
D03*
Y1671614D02*
D03*
Y1697204D02*
D03*
Y1722796D02*
D03*
Y1748386D02*
D03*
Y1773976D02*
D03*
Y1799566D02*
D03*
Y1825158D02*
D03*
Y1850748D02*
D03*
Y1876338D02*
D03*
X4084252Y1543662D02*
D03*
Y1569252D02*
D03*
Y1594842D02*
D03*
Y1620434D02*
D03*
Y1646024D02*
D03*
Y1671614D02*
D03*
Y1697204D02*
D03*
Y1722796D02*
D03*
Y1748386D02*
D03*
Y1773976D02*
D03*
Y1799566D02*
D03*
Y1825158D02*
D03*
Y1850748D02*
D03*
Y1876338D02*
D03*
%TF.MD5,e68ff3330c43b43c8e8e3d9dc0821f4d*%
M02*
